<svg width="321" height="76" viewBox="0 0 321 76" fill="none" xmlns="http://www.w3.org/2000/svg">
<path d="M179.357 3.61074L176.148 3.68919L176.26 7.53315H175.476L175.588 11.4163H173.984C173.984 11.4556 174.096 15.2995 174.096 15.2995H173.312L173.2 11.4556H173.984L173.797 3.72841L171.409 3.80686L171.521 7.65082H170.737L170.849 11.534H170.065L169.953 7.69005H170.737L170.625 3.80686L168.237 3.88531L168.349 7.72927H169.132L169.431 19.2612H168.647L168.759 23.1444H167.976L167.864 19.3004H168.647L168.349 7.72927H167.565L167.453 3.88531H166.67L165.886 3.92453H165.102L164.319 3.96375L164.431 7.80772H165.214L165.326 11.6517H166.11L165.998 7.7685H166.782L167.341 30.8715H165.737C165.737 30.9107 165.625 27.0668 165.625 27.0668H166.408L166.11 15.4957H165.326L164.542 15.5349L164.431 11.6909H163.647L163.46 4.00298L157.042 4.1991H156.258L150.66 4.39522L150.959 15.9663H150.175L150.362 23.6935H149.578L149.466 19.8495H148.683L147.899 19.8888L147.712 12.1616H148.496L148.608 16.0056H149.392L149.205 8.27841H149.989L149.877 4.39522L145.884 4.51289L146.07 12.24H145.287L145.473 19.9672H144.69L144.503 12.2793H145.287L145.1 4.55212L142.712 4.63057L142.6 0.786601H141.816L141.928 4.66979L139.54 4.74824L139.726 12.4754H140.51L140.398 8.5922H141.182L141.294 12.4362H140.51L140.697 20.1633H139.913L140.025 24.0465H139.241L139.353 27.9297H138.57L138.271 16.3978H139.055L138.868 8.67065H138.084L137.973 4.82669H137.189L137.487 16.3978H136.704L136.816 20.281H136.032L135.845 12.5931H136.629L136.331 1.02195H135.547L135.659 4.90513H134.054C134.054 4.94436 134.166 8.78833 134.166 8.78833L134.278 12.6323H132.673C132.673 12.6715 132.785 16.5155 132.785 16.5155H132.002L132.114 20.3987H130.509C130.509 20.4379 130.621 24.2819 130.621 24.2819H129.837L129.651 16.5939H131.255C131.255 16.5547 131.143 12.7107 131.143 12.7107H132.748C132.748 12.6715 132.636 8.82755 132.636 8.82755L132.524 4.98358H131.741L130.957 5.02281H130.173L130.285 8.906H129.502L129.39 5.06203H128.606L128.792 12.7892H128.009L127.822 5.10126H127.039L126.255 5.14048L126.143 1.29651H125.359L125.546 9.02367H124.762L124.65 5.1797H123.867L124.053 12.9069H123.27L123.083 5.21893L119.874 5.29738L119.986 9.14134H119.202L119.389 16.8685H120.172L120.284 20.7125H119.5L119.389 16.8685H118.605L118.418 9.18057H119.202L119.09 5.29738H117.485C117.485 5.3366 116.702 5.37582 116.702 5.37582H115.918L116.03 9.25901H115.246L115.358 13.1422H114.575L114.388 5.45427H113.604L113.492 1.61031H112.709L112.821 5.4935L109.611 5.57195L109.499 1.72798H108.716L108.828 5.61117H108.044L107.26 5.65039L107.372 9.49436L107.484 13.3383H106.701L106.813 17.2215H106.029L105.917 13.3775H105.133L105.021 9.53358H105.805L105.693 5.65039H104.909L104.797 1.80643H104.014L104.126 5.68962H103.342L103.23 1.84565H102.446L102.558 5.72884H100.954C100.954 5.76806 100.842 1.9241 100.842 1.9241H100.058L100.17 5.80729H99.3865L99.2745 1.96332H97.6699C97.6699 2.00255 97.7818 5.84651 97.7818 5.84651H98.5655L98.6774 9.69048H97.8938L97.7818 5.84651H96.9981L96.8862 2.00255H96.1025L96.2145 5.88574H95.4308L95.3189 2.04177H94.5352L94.6471 5.92496L94.7591 9.76893H93.9754L93.8635 5.92496H93.0798L92.9679 2.081H92.1842L92.2962 5.96419H90.6915C90.6915 6.00341 90.5796 2.15945 90.5796 2.15945H89.7959L89.9079 6.04264H89.1242L89.0122 2.19867H87.4076C87.4076 2.23789 87.5195 6.08186 87.5195 6.08186H86.7359L86.6239 2.23789H85.0193C85.0193 2.27712 85.1312 6.12108 85.1312 6.12108H84.3476L84.2356 2.27712H83.452L83.5639 6.16031H82.7803L81.9966 6.19953L81.8846 2.35557H81.101L81.2129 6.23876H79.6083C79.6083 6.27798 79.4963 2.43401 79.4963 2.43401H78.7127L78.8246 6.3172H78.041L76.4363 6.39565L76.3244 2.55169H75.5407L75.6526 6.43488H74.048C74.048 6.4741 74.16 10.3181 74.16 10.3181H73.3763L73.2643 6.4741H72.4807L72.3687 2.63014H71.5851L71.697 6.51332H70.9133L70.1297 6.55255L70.0177 2.70858H69.2341L69.346 6.59177H68.5624L67.7787 6.631L68.0772 18.2021H67.2936L66.995 6.67022H66.2114L66.0994 2.82626H65.3158L65.4277 6.70944H64.644L63.8604 6.74867L63.7484 2.9047H62.9648L63.0767 6.78789H61.4721C61.4721 6.82712 61.3601 2.98315 61.3601 2.98315H60.5765L60.6884 6.86634H59.9047L59.7928 3.02238H58.1881C58.1881 3.0616 58.3001 6.90557 58.3001 6.90557H57.5164L55.1281 6.98401L55.3147 14.7112H54.5311L54.3445 7.02324H55.1281L55.0162 3.14005L52.6279 3.2185L52.7398 7.06246H51.1352C51.1352 7.10169 51.2471 10.9457 51.2471 10.9457H50.4635L50.3515 7.10169L50.2396 3.25772L45.4256 3.37539L45.5376 7.21936H44.7539L44.642 3.37539L40.649 3.49307L40.761 7.33703H39.9773L39.8654 3.49307L35.8724 3.61074L35.9843 7.4547H35.2007L35.0887 3.61074H33.4841C33.4841 3.64996 33.596 7.49393 33.596 7.49393H34.3797L34.4917 11.3379H33.708L33.596 7.49393H32.8124L32.7004 3.64996L29.4911 3.72841L29.6031 7.57238H28.8194L28.7075 3.72841H27.1028C27.1028 3.76763 27.2148 7.6116 27.2148 7.6116L27.3267 11.4556H26.5431L26.655 15.3388H25.8714L25.7594 11.4948H26.5431L26.4311 7.6116L26.3192 3.76763H24.7145C24.7145 3.80686 24.8265 7.65082 24.8265 7.65082H24.0428L23.9309 3.80686H22.3262C22.3262 3.84608 22.5128 11.5732 22.5128 11.5732H21.7291L21.5426 3.88531L15.945 4.0422L16.1315 11.7694H15.3479L15.4598 15.6525H14.6762L14.3776 4.12065H13.594L13.7059 8.00384H12.1013C12.1013 8.04307 11.9893 4.1991 11.9893 4.1991H11.2057L11.3922 11.9263H10.6086L10.7952 19.6534H10.0115L9.82492 11.9655H10.6086L10.422 4.23832H8.81735C8.81735 4.27755 8.92931 8.12151 8.92931 8.12151H8.14564L8.03369 4.27755H6.42905C6.42905 4.31677 6.541 8.16074 6.541 8.16074H5.75733L4.97367 8.19996L2.58536 8.27841L2.77195 16.0056H3.55562L3.44366 12.1224H5.04831C5.04831 12.0832 5.23489 19.7711 5.23489 19.7711L5.34684 23.615H4.56318L3.77952 23.6543H2.99586L3.10781 27.5375H2.32414L2.21219 23.6935H0.607548C0.607548 23.7327 0.7195 27.5767 0.7195 27.5767L1.01804 39.1478H1.8017L1.91365 42.9918H1.12999L0.346327 43.031L0.532913 50.7581H1.31658L1.42853 54.6021H2.21219L2.99586 54.5629L3.10781 58.4069H3.89147L4.00342 62.2508H5.60807C5.60807 62.2116 5.42148 54.4844 5.42148 54.4844H6.20514L6.50368 66.0163H7.28735L6.98881 54.4452H7.77247L7.66052 50.562H8.44418L8.63077 58.25H7.84711L7.95906 62.1331H8.74272L8.92931 69.8211L11.3176 69.7426L11.4296 73.5866H12.2132L12.1013 69.7034H12.8849L12.9969 73.5474L18.5945 73.3905L18.4825 69.5465L18.2959 61.8194H19.0796L19.2662 69.5073L19.3781 73.3512H20.9828C20.9828 73.312 20.7962 65.5849 20.7962 65.5849H21.5799L21.7665 73.2728H23.3711C23.3711 73.2336 23.2591 69.3896 23.2591 69.3896H24.0428L24.1548 73.2336L28.1477 73.1159L27.8492 61.5448H27.0655L26.9536 57.7008H27.7372L27.8492 61.5448H28.6328L28.9314 73.0767H29.715L29.5285 65.3495H30.3121L30.2002 61.4663H30.9838L31.2824 72.9982L34.4917 72.9198L34.3051 65.1926H35.0887L35.2753 72.8806L43.2985 72.6452L43.1866 68.8013H43.9703L44.0822 72.6452L48.0752 72.5275L47.9632 68.6836H48.7469L48.8588 72.5275H49.6425L49.4559 64.8004H50.2396L50.4261 72.4883L56.8447 72.2922L56.7328 68.4482H57.5164L57.6284 72.2922L68.8609 71.9784H69.6446L70.4282 71.9392L70.2416 64.212H71.0253L71.2119 71.9L74.4212 71.8215L74.3092 67.9775L74.1973 64.1336H74.9809L75.0929 67.9775L75.2048 71.8215L79.1978 71.7038H79.9815L80.7651 71.6646L80.6532 67.8206H81.4368L81.5488 71.6646H82.3324L85.5417 71.5469H86.3254L87.1091 71.5077L86.9971 67.6638H87.7808L87.8927 71.5077H88.6764L89.46 71.4685H91.0647C91.0647 71.4293 90.9527 67.5853 90.9527 67.5853H91.7364L91.8484 71.4293H92.632L94.2367 71.3508L94.3486 75.1948H95.1323L95.0203 71.3116H96.625C96.625 71.2724 97.4086 71.2332 97.4086 71.2332L97.2967 67.3892H98.0803L98.1923 71.2332L100.581 71.1547H101.364L102.148 71.1155H103.753C103.753 71.0763 103.566 63.3491 103.566 63.3491H104.35L104.536 71.037H106.141C106.141 70.9978 106.925 70.9586 106.925 70.9586L106.813 67.1146H107.596L107.708 70.9586H108.492L109.276 70.9194H110.88C110.88 70.8801 111.664 70.8409 111.664 70.8409H112.448L114.052 70.7625L113.866 63.0353H114.649L114.537 59.1521H115.321L115.433 62.9961H114.649L114.948 74.5672H115.731L115.619 70.684H117.224C117.224 70.6448 117.336 74.4888 117.336 74.4888H118.12L117.933 66.7616H118.717L118.605 62.8784H119.389L119.5 66.7224H118.717L118.829 70.6056H119.612L119.724 74.4495H120.508L120.396 70.5663H122.001C122.001 70.5271 122.784 70.4879 122.784 70.4879L122.672 66.6439H123.456L123.568 70.4879H124.352L125.135 70.4487H125.919L125.807 66.5655L125.695 62.7215H124.911L124.8 58.8775H126.404C126.404 58.8383 126.591 66.5263 126.591 66.5263L126.703 70.3702H127.486L127.374 66.487H128.158L127.972 58.7599H128.755L129.054 70.2918H129.837L129.949 74.1357H130.733L130.621 70.2525H132.226C132.226 70.2133 132.114 66.3694 132.114 66.3694H132.897L133.009 70.2133H133.793L133.905 74.0573H134.689L134.315 58.603H135.099L135.398 70.1349H137.002C137.002 70.0956 136.816 62.3685 136.816 62.3685H137.599L137.786 70.0564H138.57L139.353 70.0172H140.137L140.249 73.8612H141.033L140.921 69.978L140.809 66.134H141.592L141.704 69.978L141.816 73.8219H143.421C143.421 73.7827 143.122 62.2116 143.122 62.2116H143.906L144.205 73.7435H144.988L144.876 69.8603H145.66L145.473 62.1331H146.257L146.556 73.665H147.339L147.227 69.7819H148.011L147.899 65.8987L147.712 58.1715H148.496L148.683 65.8594L148.795 69.7034H149.578L151.183 69.625H151.967L152.078 73.4689H152.862L152.75 69.5857H153.534L153.646 73.4297H154.429L154.318 69.5465H155.101L154.989 65.6633H155.773L155.959 73.3512H157.564C157.564 73.312 157.452 69.4681 157.452 69.4681H159.057C159.057 69.4288 158.945 65.5849 158.945 65.5849H159.729L159.84 69.4288H160.624L160.736 73.2728L163.945 73.1944L163.833 69.3504L163.721 65.5064H164.505L165.289 65.4672L165.177 61.6232H165.961L166.147 69.3112H165.363L165.475 73.1944L167.864 73.1159L167.677 65.3888H166.893L166.707 57.7008H167.491L167.379 53.8176H168.162L168.647 73.0767H169.431L169.244 65.3495H170.028L169.842 57.6224H170.625L170.812 65.3103H170.028L170.215 73.0375H171.819C171.819 72.9982 171.707 69.1543 171.707 69.1543H173.312C173.312 69.1151 173.2 65.2711 173.2 65.2711H173.984L173.797 57.5439H174.581L174.954 72.959H176.559C176.559 72.9198 176.447 69.0758 176.447 69.0758H177.23L177.118 65.1926H177.902L178.089 72.8806H179.693C179.693 72.8413 179.581 68.9974 179.581 68.9974H178.798L178.611 61.3094H179.395L179.096 49.7383H178.313L178.201 45.8944H178.984L178.872 42.0112H179.656L179.768 45.8551H178.984L179.096 49.7383H179.88L180.066 57.4263H180.85L180.738 53.5431H181.522L181.41 49.6599H182.194L182.38 57.3478H180.775C180.775 57.387 180.887 61.231 180.887 61.231H180.104L180.29 68.9582H181.895C181.895 68.9189 181.783 65.075 181.783 65.075H183.388C183.388 65.0357 183.276 61.1918 183.276 61.1918H184.059L183.947 57.3086H184.731L184.843 61.1525H184.059L184.246 68.8797H185.03L185.142 72.7237H185.925L185.813 68.8405H186.597L186.485 64.9573H187.269L187.157 61.0741H187.94L187.754 53.3469H188.537L188.649 57.1909H189.433L189.247 49.4638H190.03L190.329 60.9957L190.441 64.8396H189.657L189.545 60.9957H187.94C187.94 61.0349 188.239 72.606 188.239 72.606H189.023L188.911 68.7228H189.694L189.806 72.5668H190.59L190.478 68.6836H191.262L191.15 64.8004H191.933L191.821 60.9172H192.605L192.717 64.7612H191.933L192.12 72.4883L194.508 72.4099L194.322 64.6827H193.538L193.351 56.9948H194.135L194.322 64.6827H195.105L195.292 72.3707H196.897C196.897 72.3314 196.785 68.4875 196.785 68.4875H198.389C198.389 68.4482 198.501 72.2922 198.501 72.2922L200.889 72.2138L200.778 68.3698H201.561L201.375 60.6426H202.158L202.457 72.1745H203.241L203.129 68.2913L203.017 64.4474H204.621C204.621 64.4081 204.808 72.0961 204.808 72.0961H205.591L205.48 68.2129H207.084C207.084 68.1737 207.196 72.0176 207.196 72.0176L210.405 71.9392L210.293 68.0952H211.077L211.861 68.056L211.973 71.9H213.577C213.577 71.8607 213.465 68.0168 213.465 68.0168H214.249L214.361 71.8607L219.175 71.7431L218.876 60.1719H219.66L219.847 67.8599H220.63L220.742 71.7038H221.526L221.414 67.8206L221.302 63.9767H222.086L222.198 67.8206L222.31 71.6646L226.303 71.5469L226.004 59.9758H226.788L227.086 71.5077L232.684 71.3508L232.385 59.7797H233.169L233.468 71.3116L235.856 71.2332L235.744 67.3892H237.349C237.349 67.35 237.46 71.1939 237.46 71.1939L240.67 71.1155L240.558 67.2715H241.341L241.23 63.3883H242.013L242.2 71.0763H242.983L242.871 67.1931H243.655L244.439 67.1538L244.551 70.9978L254.962 70.7232L254.85 66.8793L254.738 63.0353H255.522L255.634 66.8793L255.746 70.7232L266.157 70.4487L266.046 66.6047H266.829L266.941 70.4487L278.957 70.1349L278.845 66.2909H279.629L279.741 70.1349L285.339 69.978L285.227 66.134H286.01L286.122 69.978L289.332 69.8995L289.22 66.0556H290.003L290.115 69.8995L295.713 69.7426L295.601 65.8987L295.489 62.0547H296.273L296.384 65.8987L296.496 69.7426L299.706 69.6642L299.594 65.8202H300.377L300.489 69.6642L302.878 69.5857L302.766 65.7418H301.982L301.796 58.0538H302.579L302.766 65.7418H303.549L303.661 69.5857L307.654 69.4681L307.542 65.6241H308.326L308.438 69.4681L314.857 69.2719L314.745 65.428H315.528L315.64 69.2719L318.029 69.1935L317.917 65.3495H317.133L316.349 65.3888L316.237 61.5448H317.021L316.909 57.6616H317.693L317.805 61.5056H318.588L318.476 57.6224H320.081C320.081 57.5831 319.969 53.7392 319.969 53.7392H319.185L318.887 42.2073H318.103L317.991 38.3633H317.208L317.506 49.9344H316.722L316.424 38.4025H315.64L315.528 34.5586H314.745L314.857 38.4418H314.073L313.886 30.7538H313.103L312.991 26.9099H312.207L312.319 30.7931H311.535L311.237 19.2612H309.632C309.632 19.3004 309.744 23.1444 309.744 23.1444H308.96L308.774 15.4564L306.386 15.5349L306.274 11.6909H307.057L306.945 7.80772H307.729L307.841 11.6517H308.625L308.513 7.7685L308.401 3.92453H307.617L307.505 0.0805664H305.9C305.9 0.119791 306.012 3.96375 306.012 3.96375H304.408C304.408 4.00298 304.52 7.84694 304.52 7.84694H305.303L305.415 11.6909H304.632L304.52 7.84694H303.736L303.624 4.00298H304.408L304.296 0.11979L297.094 0.315911L297.205 4.15988H296.422L296.31 0.315911L293.101 0.394359L293.213 4.23832H292.429L292.317 0.394359L277.091 0.825825L277.203 4.66979H276.42L276.308 0.825825L272.315 0.943497L272.501 8.67065H271.718L271.531 0.982721L267.538 1.10039L267.65 4.94436H266.867L266.755 1.10039L258.731 1.33574L258.843 5.1797H258.06L257.948 1.33574L249.141 1.57108L249.253 5.41505H248.469L248.357 1.57108L237.125 1.88488L237.311 9.61203L237.423 13.456H236.639L236.528 9.61203H235.744L235.632 5.76807H236.416L236.304 1.88488L232.311 2.00255L232.423 5.84651H231.639L231.527 2.00255L225.108 2.19867L225.22 6.04264H224.437L224.549 9.92582H223.765L223.653 6.08186H224.437L224.325 2.19867L220.332 2.31634L220.444 6.16031H219.66L219.548 2.31634L213.951 2.47324L214.063 6.3172H213.279L213.391 10.2004H212.607L212.421 2.51246H211.637L211.749 6.39565H210.965L210.853 2.55169H209.249C209.249 2.59091 209.435 10.3181 209.435 10.3181H208.652L208.763 14.2013H207.98L207.868 10.3573H208.652L208.465 2.63014L195.628 2.98315L195.74 6.82712L195.852 10.6711H195.068L194.956 6.82712L194.844 2.98315L192.456 3.0616L192.568 6.90557H191.784L191.896 10.7888H191.112L191 6.94479H191.784L191.672 3.0616L188.463 3.14005L188.575 6.98401H187.791L187.679 3.14005L184.47 3.2185L184.768 14.7896H183.985L183.873 10.9457H183.089L182.977 7.10169H183.761L183.649 3.2185H182.044C182.044 3.25772 181.261 3.29695 181.261 3.29695H180.477L180.589 7.18013H179.805L179.917 11.0633H179.134L178.947 3.37539L179.357 3.61074ZM171.11 26.9883L170.924 19.2612H171.707L171.595 15.378H172.379L172.678 26.9099H171.073C171.073 26.9491 171.185 30.7931 171.185 30.7931H170.401L170.289 26.9491H171.073L171.11 26.9883ZM174.32 26.9099L174.208 23.0659L174.096 19.2219H174.879L174.991 23.0659L175.103 26.9099H174.32L174.432 30.7931H173.648L173.536 26.9491H174.32V26.9099ZM168.797 30.9107L168.685 27.0668H169.468L169.58 30.9107H168.797L168.909 34.7939H169.692L169.804 38.6379L169.916 42.4819L170.028 46.3258H170.812L170.7 42.4426H171.483L171.297 34.7155H172.902C172.902 34.6763 173.014 38.5202 173.014 38.5202H172.23L172.342 42.4034H171.558L171.67 46.2866H170.886L170.998 50.1698H170.215L169.431 50.209L169.543 54.053H168.759L168.647 50.209H169.431L169.244 42.4819L169.132 38.6379H168.349L168.162 30.95H168.946L168.797 30.9107ZM167.379 38.6771L167.491 42.5211H166.707L166.819 46.4043H166.035L165.923 42.5603H166.707L166.595 38.6771L166.483 34.8332H167.267L167.379 38.6771ZM174.693 42.325L174.581 38.481H175.364L175.476 42.325H174.693ZM174.096 50.0521L173.984 46.2082H174.767L174.879 50.0521H174.096ZM180.44 15.1426H181.223L181.41 22.8306H180.626L180.738 26.7138H179.955L179.768 19.0258H180.552L180.44 15.1426ZM178.648 7.49393L178.835 15.2211H178.051L177.865 7.53315H178.648V7.49393ZM180.85 30.5969H181.634L181.82 38.2849H181.037L181.149 42.1681H180.365L180.253 38.3241H181.037L180.85 30.5969ZM182.156 18.9866L181.97 11.2594H182.753L182.94 18.9474H182.156V18.9866ZM175.812 22.9875L175.7 19.1435H176.484L176.596 22.9875H175.812ZM178.313 26.7922L178.201 22.9482H178.984L179.283 34.4801L179.395 38.3241H178.611L178.499 34.4801L178.387 30.6362H177.604L177.715 34.5194H176.932L177.118 42.2465H176.335L176.148 34.5586H176.932L176.82 30.6754H177.604L177.492 26.7922H178.275H178.313ZM176.596 53.8569L176.484 50.0129H177.268L177.566 61.5448H176.783L176.671 57.7008H175.887L176.074 65.428H175.29L174.991 53.8961H176.596V53.8569ZM182.903 49.8168L182.716 42.0896H183.5L183.686 49.7775H182.903V49.8168ZM182.529 34.4017L182.343 26.6745H183.126L183.313 34.3625H182.529V34.4017ZM156.295 11.9655H157.079L157.191 15.8094H156.407L156.295 11.9655ZM155.661 19.6926H154.877L154.989 23.5758H154.206L153.907 12.0439H155.512C155.512 12.0047 155.698 19.6926 155.698 19.6926H155.661ZM151.967 31.3814L151.855 27.5375H152.638L152.75 31.3814H151.967ZM150.81 50.7189L150.698 46.875H151.481L151.593 50.7189H150.81ZM150.437 35.2646L150.548 39.1086H149.765L149.653 35.2646H150.437ZM157.154 46.6788L157.042 42.8349H157.825L157.937 46.6788H157.154ZM163.983 31.0284L163.796 23.3013H164.58L164.766 30.9892H163.983V31.0284ZM161.109 11.8478L160.997 8.00384H161.781L161.893 11.8478H161.109ZM161.482 27.2629L161.37 23.4189H162.154L162.266 27.2629H161.482ZM160.475 19.575H158.87C158.87 19.6142 158.758 15.7702 158.758 15.7702H160.363C160.363 15.731 160.475 19.575 160.475 19.575ZM161.781 38.834H162.565L162.751 46.5219H161.968L161.781 38.834ZM159.281 35.0293H160.064L160.176 38.8732H159.393L159.281 35.0293ZM162.154 54.2491H162.938L163.05 58.0931L163.162 61.937H162.378L162.266 58.0931L162.154 54.2491ZM163.274 34.9116H164.057L164.169 38.7556H163.386L163.274 34.9116ZM163.647 50.3659H164.431L164.319 46.4827H165.102L165.214 50.3267H164.431L164.542 54.2099H163.759L163.647 50.3659ZM161.557 61.9763L161.669 65.8202H160.885L160.773 61.9763H161.557ZM171.894 57.8185L172.081 65.5457H171.297L171.11 57.8577H171.894V57.8185ZM203.614 10.6711L203.8 18.3982H203.017L203.129 22.2814H202.345L202.046 10.7495H203.651L203.614 10.6711ZM201.113 6.86634L201.3 14.5935H200.516L200.33 6.90557H201.113V6.86634ZM200.778 26.1646L200.666 22.3207H201.449L201.561 26.1646H200.778ZM200.889 30.0478H201.673L201.785 33.8918H201.001L200.889 30.0478ZM202.979 49.2676L202.867 45.4237H203.651L203.763 49.2676H202.979ZM200.666 53.19H201.449L201.561 57.034H200.778L200.666 53.19ZM205.89 37.6181L205.778 33.7741H206.562L206.674 37.6181H205.89L206.002 41.5013H205.218L205.106 37.6573H205.89V37.6181ZM203.875 53.1116H204.659L204.845 60.7995H204.061L203.875 53.1116ZM205.48 53.0724H206.263L206.45 60.7603H207.233L207.345 64.6043H206.562L206.45 60.7603H205.666L205.48 53.0724ZM199.285 30.087L199.397 33.931H198.613L198.501 30.087H199.285ZM206.823 10.5926H207.607L207.793 18.2806H207.01L206.823 10.5926ZM207.793 49.15L207.681 45.306H208.465L208.577 49.15H207.793ZM214.286 52.7978H215.07L215.182 56.6418H214.398L214.286 52.7978ZM186.672 7.25858H187.455L187.567 11.1025H186.784L186.672 7.25858ZM188.761 26.5176L188.649 22.6737H189.433L189.321 18.7905H190.105L189.993 14.9073H190.777L190.888 18.7513H190.105L190.217 22.6344H189.433L189.545 26.5176H188.761ZM187.045 22.7129L186.933 18.8689H187.717L187.828 22.7129H187.045ZM184.731 26.6353L184.545 18.9081H185.328L185.515 26.5961H184.731V26.6353ZM186.933 49.6991L186.821 45.8551H187.605L187.717 49.6991H186.933ZM185.403 53.6215H186.187L186.298 57.4655H185.515L185.403 53.6215ZM185.142 42.0504L185.03 38.2064H185.813L185.925 42.0504H185.142ZM189.06 38.0888L188.948 34.2448H189.732L191.336 34.1663L191.224 30.3224H192.008L192.12 34.1663H191.336L191.448 38.0495H189.844C189.844 38.0888 190.03 45.8159 190.03 45.8159H189.247L189.06 38.128V38.0888ZM186.56 34.284L186.373 26.5569H187.157L187.343 34.2448H186.56V34.284ZM196.859 30.1263L196.747 26.2823H195.964L195.852 22.4383H196.635L196.747 26.2823H197.531L197.643 30.1263H196.859ZM192.754 26.4L192.642 22.556H193.426L193.538 26.4H192.754ZM191.56 41.8543H192.344L192.456 45.6982L192.568 49.5422H191.784L191.672 45.6982L191.56 41.8543ZM193.874 37.9319L194.06 45.659H193.277L193.09 37.9711H193.874V37.9319ZM197.979 41.6974H198.762L198.949 49.3853H198.165L197.979 41.6974ZM196.188 34.0094H196.971L197.083 37.8534L197.195 41.6974H196.411L196.299 37.8534L196.188 34.0094ZM196.635 53.3077L196.523 49.4638H197.307L197.419 53.3077L197.531 57.1517H196.747L196.635 53.3077ZM198.539 64.8396L198.427 60.9957H200.031C200.031 60.9564 200.143 64.8004 200.143 64.8004H198.539V64.8396ZM214.585 64.3689L214.473 60.525H215.257L215.369 64.3689H214.585ZM208.166 64.565L208.054 60.7211H208.838L208.95 64.565H208.166ZM107.447 17.1823L107.335 13.3383H108.119L108.231 17.1823L108.343 21.0263H106.738C106.738 21.0655 106.626 17.2215 106.626 17.2215H107.41L107.447 17.1823ZM105.917 21.0655L106.029 24.9094H105.245L105.357 28.7926H104.574L104.462 24.9487H105.245L105.133 21.0655H105.917ZM109.35 28.675L109.164 20.9478H109.947L109.835 17.0646H110.619L110.731 20.9086H109.947L110.134 28.6357H109.35V28.675ZM107.82 32.5974L107.708 28.7534H108.492L108.604 32.5974H107.82L107.932 36.4806H107.148L107.036 32.6366H107.82V32.5974ZM102.223 32.7543L102.111 28.9103H102.894L102.521 13.456H103.305L103.79 32.715H102.185L102.223 32.7543ZM104.797 40.403L104.686 36.559H105.469L105.357 32.6758H106.141L106.253 36.5198H105.469L105.581 40.403H104.797ZM103.902 36.559L104.014 40.403L104.126 44.2469H103.342L103.23 40.403L103.118 36.559H103.902ZM109.723 44.1293L109.611 40.2853H110.395L110.507 44.1293H109.723ZM116.179 13.0638H116.963L117.149 20.7517H115.545C115.545 20.7909 115.433 16.9469 115.433 16.9469H116.217L116.105 13.0638H116.179ZM113.94 20.8301H114.724L114.836 24.6741H114.052L113.94 20.8301ZM116.552 28.4788H117.336L117.523 36.1668H116.739L116.552 28.4788ZM111.44 17.0646H112.224L112.336 20.9086H111.552L111.44 17.0646ZM111.85 32.4797L111.738 28.6357H112.522L112.634 32.4797H111.85ZM112.336 51.778L112.224 47.934H113.007L113.119 51.778H112.336ZM116.926 43.9332H117.709L117.821 47.7771H117.038L116.926 43.9332ZM114.537 43.9724L114.351 36.2452H115.134L115.321 43.9332H114.537V43.9724ZM114.836 55.5435H115.619L115.806 63.2314H115.022L114.836 55.5435ZM109.91 51.8172H110.694L110.88 59.5051H110.097L109.91 51.8172ZM93.3037 29.1457L93.1171 21.4185H93.9008L94.0874 29.1064H93.3037V29.1457ZM90.5049 13.7698H91.2886L91.4006 17.6138H90.6169L90.5049 13.7698ZM87.6688 29.3025L87.7808 33.1465H86.9971L86.8852 29.3025H87.6688ZM100.133 13.4952L100.021 9.65125H100.805L100.916 13.4952H100.133L100.319 21.2224H99.5357L99.3491 13.5344H100.133V13.4952ZM98.0057 25.1448L98.1177 28.9888H97.334L97.222 25.1448H98.0057L97.8938 21.2616H98.6774L98.7894 25.1056H98.0057V25.1448ZM99.7969 32.7935H100.581L100.693 36.6375H99.9089L99.7969 32.7935ZM96.0279 9.76893L96.2145 17.4961H94.6098C94.6098 17.5353 94.4979 13.6913 94.4979 13.6913H95.2815L95.1696 9.80815H95.9533L96.0279 9.76893ZM96.8862 44.4823H97.6699L97.7818 48.3263H96.9981L96.8862 44.4823ZM94.7591 56.0926H95.5428L95.4308 52.2094H96.2145L96.3264 56.0534H95.5428L95.6547 59.9366H94.8711L94.7591 56.0926ZM100.282 52.0918L100.17 48.2478H100.954L101.066 52.0918H100.282ZM99.573 55.975H100.357L100.469 59.8189H99.685L99.573 55.975ZM93.341 63.859L93.2291 60.015H94.0128L94.1247 63.859H93.341ZM140.622 27.812H141.406L141.592 35.5H140.809L140.622 27.812ZM133.905 16.437H134.689L134.987 27.9689H133.383C133.383 28.0082 133.271 24.1642 133.271 24.1642H134.054L133.868 16.437H133.905ZM137.002 43.3448L136.89 39.5008H137.674L137.786 43.3448H137.002ZM134.577 43.4232L134.39 35.6961H135.174L135.36 43.384H134.577V43.4232ZM138.607 43.3056L138.42 35.5784H139.204L139.391 43.2663H138.607V43.3056ZM139.689 54.8767H140.473L140.585 58.7206H139.801L139.689 54.8767ZM141.891 47.0711L142.003 50.9151H141.219L141.107 47.0711H141.891ZM146.145 23.8112L146.257 27.6551L146.369 31.4991H145.585L145.473 27.6551L145.361 23.8112H146.145ZM146.929 23.8112H147.712L147.824 27.6551H147.041L146.929 23.8112ZM142.637 12.3577H143.421L143.719 23.8896H142.936L142.637 12.3577ZM143.122 31.6168H143.906L144.205 43.1487H143.421L143.122 31.6168ZM145.212 50.8366L145.1 46.9926H146.705C146.705 46.9534 146.817 50.7974 146.817 50.7974H145.212V50.8366ZM148.944 39.187L149.056 43.031H147.451C147.451 43.0702 147.339 39.2263 147.339 39.2263H148.944V39.187ZM149.317 54.6021H150.101L150.213 58.4461H149.429L149.317 54.6021ZM122.971 28.3219H123.755L123.867 32.1659H123.083L122.971 28.3219ZM125.397 28.2435L125.023 12.8284H125.807L126.18 28.2435H125.397ZM120.284 16.8293L120.172 12.9853H120.956L121.068 16.8293H120.284ZM120.657 32.2444L120.545 28.4004H121.329L121.441 32.2444L121.553 36.0883H120.769L120.657 32.2444ZM121.963 51.5034L121.851 47.6594H122.635L122.747 51.5034H121.963ZM119.65 55.4258H120.433L120.545 59.2698H119.762L119.65 55.4258ZM118.642 47.7379L118.53 43.8939H119.314L119.426 47.7379H118.642ZM124.762 35.9706H125.546L125.434 32.0875H126.218L126.33 35.9314H125.546L125.658 39.8146H124.874L124.762 35.9706ZM123.27 39.8931H124.053L124.165 43.737H123.381L123.27 39.8931ZM131.89 31.9306L131.703 24.2034H132.487L132.673 31.8913L132.785 35.7353H132.002L131.89 31.8913V31.9306ZM127.897 32.0482L127.785 28.2043H128.569L128.681 32.0482H127.897ZM127.673 24.3211L127.561 20.4771H128.345L128.457 24.3211H127.673ZM129.763 43.5801L129.651 39.7362H130.434L130.546 43.5801H129.763ZM131.069 62.8L130.957 58.956H131.741L131.853 62.8H131.069ZM122.934 59.1913L123.046 63.0353H122.262L122.15 59.1913H122.934ZM137.562 66.487L137.45 62.6431H138.234L138.346 66.487H137.562ZM36.5441 7.53315H37.3278L37.6263 19.065H36.8426L36.7307 15.2211H35.947L35.8351 11.3771H36.6187L36.5068 7.49393L36.5441 7.53315ZM40.761 15.1426L40.649 11.2987H41.4327L41.5446 15.1426H40.761ZM39.8654 11.2987L40.0519 19.0258H39.2683L39.3802 22.909H38.5966L38.41 15.2211H39.1936L39.0817 11.3379H39.8654V11.2987ZM37.8502 26.7922H37.0666L37.1785 30.6754H36.3948L36.2829 26.8314H37.0666L36.9546 22.9482H37.7383L37.8502 26.7922ZM39.6414 34.4801L39.5295 30.6362H40.3132L40.4251 34.4801H39.6414ZM42.5149 53.7L42.4029 49.856H43.1866L43.2985 53.7H42.5149ZM48.9708 22.6344L48.8588 18.7905H49.6425L49.7544 22.6344H48.9708ZM26.4311 19.3788H27.2148L27.3267 23.2228H26.5431L26.4311 19.3788ZM25.0131 27.1452H25.7967L25.9087 30.9892H25.125L25.0131 27.1452ZM25.1997 34.8724H25.9833L26.0953 38.7163H25.3116L25.1997 34.8724ZM26.6923 30.95H28.297C28.297 30.9107 28.185 27.0668 28.185 27.0668H28.9687L29.0806 30.9107H28.297L28.4089 34.7939H26.8043C26.8043 34.8331 26.6923 30.9892 26.6923 30.9892V30.95ZM20.0125 19.575H20.7962L20.9082 23.4189H20.1245L20.0125 19.575ZM22.6994 31.0676H23.4831L23.595 34.9116H22.8113L22.6994 31.0676ZM20.8708 54.2883H21.6545L21.7665 58.1323H20.9828L20.8708 54.2883ZM27.2894 54.0922L27.1775 50.2482H27.9611L28.0731 54.0922H27.2894ZM34.3424 15.3388L34.529 23.0659H33.7453L33.5587 15.378H34.3424V15.3388ZM30.2002 42.4426L30.3121 46.2866H29.5285L29.4165 42.4426H30.2002ZM29.7897 57.8969H30.5733L30.6853 61.7409H29.9016L29.7897 57.8969ZM34.6036 57.74H35.3873L35.4992 61.584H34.7156L34.6036 57.74ZM31.5809 65.5457L31.6929 69.3896H30.9092L30.7972 65.5457H31.5809ZM24.2667 61.8978L24.4533 69.625H23.6696L23.4831 61.937H24.2667V61.8978ZM45.9108 61.3094L46.0227 65.1534H45.239L45.1271 61.3094H45.9108ZM43.5971 65.2319L43.709 69.0758H42.9254L42.8134 65.2319H43.5971ZM74.4585 14.2013L74.5704 18.0452H73.7868L73.6748 14.2013L73.5629 10.3573H74.3465L74.4585 14.2013ZM72.9285 18.1237L73.0404 21.9676H72.2568L72.1448 18.1237H72.9285ZM68.8236 14.3582L69.0102 22.0853H68.2265L68.0399 14.3974H68.8236V14.3582ZM69.5326 10.475H70.3163L70.4282 14.3189H69.6446L69.5326 10.475ZM76.0258 45.0314L75.9139 41.1875H76.6975L76.8095 45.0314H76.0258ZM62.0691 64.7219L62.1811 68.5659H61.3974L61.2855 64.7219H62.0691ZM80.5039 64.212L80.3919 60.3681H81.1756L81.2876 64.212H80.5039ZM6.35441 19.9672L6.24246 16.1232H7.02612L7.13808 19.9672L7.25003 23.8112H6.46636L6.35441 19.9672ZM3.85415 16.1625H4.63781L4.74977 20.0064H3.96611L3.85415 16.1625ZM4.93635 27.6944H5.72002L5.83197 31.5383H5.04831L4.93635 27.6944ZM5.12294 35.4215H5.9066L6.01856 39.2655H5.23489L5.34684 43.1487H4.56318L4.45123 39.3047H5.23489L5.12294 35.4215ZM6.72759 35.3823L6.61563 31.5383H7.3993L7.51125 35.3823H6.72759ZM7.02612 46.9534H7.80979L7.92174 50.7974H7.13808L7.02612 46.9534ZM7.32466 58.5245H8.10833L8.29491 66.2125H7.51125L7.32466 58.5245ZM17.5123 15.7702L17.4003 11.9263H18.184L18.2959 15.7702H17.5123ZM14.4523 54.4452L14.5642 58.2892H13.7806L13.6686 54.4452H14.4523ZM0.234375 31.6952H1.01804L1.20462 39.3831H0.420962L0.234375 31.6952ZM1.91365 35.5H2.69732L2.80927 39.3439H2.02561L1.91365 35.5ZM2.32414 50.9151L2.21219 47.0711H2.99586L3.10781 50.9151H2.32414ZM13.9298 66.0556L13.8179 62.2116H14.6015L14.7135 66.0556H13.9298ZM303.102 7.92539H303.885L304.37 27.1844H302.766C302.766 27.2237 302.654 23.3797 302.654 23.3797H303.437L303.064 7.92539H303.102ZM300.676 8.00384L300.788 11.8478L300.9 15.6918H300.116L300.004 11.8478L299.892 8.00384H300.676L300.564 4.12065H301.348L301.46 7.96462H300.676V8.00384ZM296.571 4.23832L296.758 11.9655H295.153C295.153 12.0047 295.041 8.16074 295.041 8.16074H295.825L295.713 4.27755H296.496L296.571 4.23832ZM297.877 23.4974L297.765 19.6534H298.549L298.437 15.7702H299.221L299.333 19.6142H298.549L298.661 23.4974H297.877ZM300.863 46.5612L300.751 42.7172H301.534L301.646 46.5612H300.863ZM300.154 50.4444H300.937L301.049 54.2883H300.266L300.154 50.4444ZM297.429 38.9517H298.25L298.362 42.7957H297.541L297.429 38.9517ZM304.482 31.0284L304.669 38.7556H303.885L303.699 31.0676H304.482V31.0284ZM300.452 31.1461L300.34 27.3021H301.124L301.236 31.1461H300.452ZM309.11 23.1836L309.222 27.0275H308.438L308.55 30.9107H307.766L307.654 27.0668H308.438L308.326 23.1836H309.11ZM305.788 19.4181L305.677 15.5741H306.46L306.572 19.4181H305.788L305.9 23.3013H305.117L305.005 19.4573H305.788V19.4181ZM305.975 27.1452H306.759L306.871 30.9892H306.087L306.199 34.8724H305.415L305.303 31.0284H306.087L305.975 27.1452ZM312.879 46.2474L312.767 42.4034H313.55L313.439 38.5202L313.327 34.6763H314.11L314.222 38.5202L314.334 42.3642H313.55L313.662 46.2474H312.879ZM310.49 46.2866H311.274L311.461 53.9745H310.677L310.49 46.2866ZM310.267 38.5987L310.155 34.7547H310.938L311.05 38.5987H310.267ZM287.54 27.6551L287.428 23.8112H288.212L288.324 27.6551H287.54ZM285.115 27.6944L285.003 23.8504H285.786L285.898 27.6944H285.115ZM293.847 23.615L293.66 15.8879H294.444L294.631 23.5758H293.847V23.615ZM291.048 8.23919H291.832L291.944 12.0832H291.16L291.048 8.23919ZM289.705 50.7189H290.488L290.6 54.5629H289.817L289.705 50.7189ZM295.34 50.562H296.123L296.235 54.406H295.452L295.34 50.562ZM281.084 58.6814H281.868L281.98 62.5254H281.196L281.084 58.6814ZM313.364 65.5064L313.177 57.7793H313.961L313.849 53.8961H314.633L314.745 57.74H313.961L314.148 65.4672H313.364V65.5064ZM306.05 61.8586H306.833L306.945 65.7025H306.162L306.05 61.8586ZM315.379 50.0129H316.163L316.349 57.7008H315.566L315.379 50.0129ZM236.901 25.184L236.789 21.34H237.572L237.46 17.4569H238.244L238.356 21.3008H237.572L237.684 25.184H236.901ZM239.102 17.4176L238.916 9.69048H239.699L239.588 5.80729H240.371L240.558 13.4952H239.774L239.886 17.3784H239.102V17.4176ZM234.923 9.80815L235.109 17.5353H234.326L234.139 9.84737H234.923V9.80815ZM235.147 52.2487H235.93L236.042 56.0926H235.259L235.147 52.2487ZM241.341 9.61203L241.23 5.76807H242.013L242.125 9.61203H241.341ZM240.185 28.9495L240.073 25.1056H240.856L240.968 28.9495H240.185ZM243.095 48.1694L242.983 44.3254H243.767L243.879 48.1694H243.095ZM240.483 40.5207L240.371 36.6767H241.155L241.267 40.5207H240.483ZM220.742 21.7715L220.63 17.9275L220.518 14.0836H221.302L221.414 17.9275L221.526 21.7715H220.742ZM217.944 6.39565H218.727L218.839 10.2396H218.055L217.944 6.39565ZM221.526 52.6017L221.414 48.7577H222.198L222.31 52.6017H221.526ZM223.429 33.2642L223.243 25.537H224.026L224.213 33.225H223.429V33.2642ZM228.877 25.4194L228.766 21.5754H229.549L229.661 25.4194H228.877L228.989 29.3025H227.385C227.385 29.3418 227.273 25.4978 227.273 25.4978H228.877V25.4194ZM227.795 13.8482L227.907 17.6922H227.124L227.012 13.8482H227.795ZM225.743 29.3418H226.526L226.638 33.1857H225.855L225.743 29.3418ZM225.668 25.4978L225.556 21.6538H226.34L226.452 25.4978H225.668ZM227.833 48.5616L227.721 44.7176H228.504L228.616 48.5616H227.833ZM225.519 52.484H226.303L226.415 56.328H225.631L225.519 52.484ZM230.333 52.3663H231.117L231.228 56.2103H230.445L230.333 52.3663ZM230.072 40.7952L229.96 36.9513H230.743L230.855 40.7952H230.072ZM231.452 63.8982L231.34 60.0543H232.124L232.236 63.8982H231.452ZM228.915 60.1327L228.803 56.2888H229.587L229.885 67.8206H228.28C228.28 67.8599 228.094 60.1719 228.094 60.1719H228.877L228.915 60.1327ZM224.81 56.3672L224.996 64.0944H224.213L224.026 56.4064H224.81V56.3672ZM216.899 60.4465H217.682L217.869 68.1344H217.085L216.899 60.4465ZM246.678 63.506H247.462L247.573 67.35H246.79L246.678 63.506ZM246.491 55.7788L246.603 59.6228H245.82L245.708 55.7788H246.491ZM248.394 67.3107L248.208 59.5836H248.992L249.178 67.2715H248.394V67.3107ZM243.469 63.5844L243.357 59.7405H244.14L244.252 63.5844H243.469ZM270.3 12.6715L270.188 8.82755H270.971L271.083 12.6715H270.3ZM268.695 12.7107H269.479L269.665 20.3987H268.882L268.695 12.7107ZM266.307 12.7892L266.12 5.06203H266.904L267.09 12.75H266.307V12.7892ZM278.435 16.3194L278.323 12.4754H279.107L279.219 16.3194H278.435ZM274.33 12.5931L274.218 8.7491H275.002L275.114 12.5931H274.33ZM272.912 20.3202L272.8 16.4763H273.584L273.696 20.3202H272.912ZM253.246 5.45427H254.029L254.141 9.29824H253.358L253.246 5.45427ZM249.551 17.1038H250.335L250.447 20.9478H249.663L249.551 17.1038ZM261.903 63.0745L261.791 59.2306H262.575L262.687 63.0745H261.903ZM277.054 58.7991L276.942 54.9551H277.726L277.838 58.7991H277.054ZM273.248 66.6047L273.136 62.7607H273.919L274.031 66.6047H273.248ZM269.031 59.0344H269.815L270.001 66.7224H269.217L269.031 59.0344Z" fill="#D1B3FF"/>
</svg>
