<svg width="343" height="82" viewBox="0 0 343 82" fill="none" xmlns="http://www.w3.org/2000/svg">
<path d="M341.65 60.559L341.474 48.4537L340.646 48.4658L340.587 44.4341L339.759 44.4461L339.7 40.4144L337.223 40.4505L337.281 44.4822L336.453 44.4943L336.336 36.4207L335.508 36.4327L335.449 32.401L334.621 32.4131L334.68 36.4448L333.852 36.4569L333.676 24.3515L332.026 24.3756L332.084 28.4073L331.257 28.4193L331.139 20.3457L328.661 20.3818L328.602 16.3501L329.43 16.3381L329.372 12.3064L330.2 12.2943L330.258 16.326L331.908 16.302L331.849 12.2703L331.021 12.2823L330.963 8.25058L330.135 8.26264L330.076 4.23094L328.426 4.25497L328.485 8.28668L326.835 8.31071L326.776 4.27901L319.349 4.38721L319.408 8.41892L318.58 8.43098L318.521 4.39927L231.045 5.67368L231.104 9.70539L230.416 9.71541L230.357 5.6837L211.241 5.96219L211.182 1.93049L210.354 1.94255L210.413 5.97426L202.298 6.09248L202.239 2.06078L201.411 2.07284L201.47 6.10454L200.508 6.11856L200.449 2.08685L199.621 2.09891L199.68 6.13062L198.164 6.1527L198.223 10.1844L197.395 10.1965L197.336 6.16476L194.037 6.21283L193.903 6.21479L193.961 10.2465L193.274 10.2565L193.215 6.22481L191.565 6.24884L191.506 2.21714L190.678 2.2292L190.737 6.26091L188.953 6.28689L189.012 10.3186L188.324 10.3286L188.265 6.29691L184.966 6.34499L185.025 10.3767L184.891 10.3786L184.773 2.30504L183.945 2.3171L184.004 6.34881L183.176 6.36087L183.117 2.32916L182.289 2.34123L182.348 6.37293L175.883 6.46712L175.824 2.43542L174.996 2.44748L175.055 6.47918L174.227 6.49125L174.168 2.45954L173.206 2.47355L173.265 6.50526L165.15 6.62348L165.091 2.59178L164.263 2.60384L164.322 6.63555L159.232 6.70969L159.173 2.67799L158.346 2.69005L158.404 6.72175L154.277 6.78189L154.218 2.75018L153.39 2.76224L153.566 14.8676L152.878 14.8776L152.761 6.80397L152.627 6.80592L152.568 2.77422L151.74 2.78628L151.799 6.81798L150.283 6.84007L150.224 2.80836L149.396 2.82043L149.455 6.85213L147.671 6.87812L147.613 2.84641L146.785 2.85847L146.843 6.89018L146.015 6.90224L146.074 10.934L145.386 10.944L145.269 2.87037L144.441 2.88243L144.499 6.91417L144.366 6.91612L144.483 14.9897L143.795 14.9997L143.619 2.8944L142.657 2.90842L142.716 6.94015L141.888 6.95221L141.829 2.92048L141.001 2.93254L141.06 6.96428L139.41 6.98831L139.351 2.95658L137.835 2.97866L137.894 7.0104L135.282 7.04844L135.224 3.01671L133.708 3.03879L133.767 7.07053L132.939 7.08259L132.88 3.05086L131.918 3.06487L131.977 7.0966L131.149 7.10867L131.09 3.07693L129.44 3.10097L129.499 7.1327L128.671 7.14476L128.612 3.11303L127.784 3.12509L127.843 7.15683L126.327 7.17891L126.268 3.14717L125.441 3.15924L125.499 7.19097L124.537 7.20499L124.479 3.17325L122.829 3.19728L122.888 7.22902L122.2 7.23904L122.141 3.20731L120.491 3.23134L120.55 7.26308L120.416 7.26503L120.357 3.23329L118.707 3.25733L118.766 7.28906L117.938 7.30113L117.879 3.26939L113.886 3.32757L113.945 7.35931L113.811 7.36126L113.752 3.32952L112.102 3.35356L112.161 7.38529L111.473 7.39532L111.414 3.36358L109.764 3.38762L109.823 7.41935L109.689 7.4213L109.63 3.38957L84.871 3.75028L84.9297 7.78201L84.2418 7.79203L84.1831 3.7603L68.5007 3.98877L68.5595 8.0205L67.7315 8.03256L67.6728 4.00083L27.2372 4.58992L27.1033 4.59187L27.162 8.6236L26.4741 8.63363L26.4154 4.60189L24.7656 4.62593L24.6316 4.62788L24.6903 8.65961L24.0024 8.66964L23.9437 4.6379L18.1663 4.72207L17.2044 4.73608L17.2632 8.76782L16.5753 8.77784L16.5165 4.7461L15.5546 4.76012L15.6134 8.79185L14.0975 8.81394L14.0388 4.7822L13.2108 4.79426L13.2696 8.826L13.1356 8.82795L13.1943 12.8597L12.5064 12.8697L12.3888 4.79608L10.739 4.82011L10.7977 8.85182L9.96975 8.86388L9.91102 4.83217L8.26123 4.85621L8.31997 8.88791L7.49199 8.89998L7.43325 4.86827L6.60531 4.88033L6.66405 8.91204L4.18629 8.94813L4.48012 29.1169L3.65218 29.1289L3.59344 25.0972L0.29383 25.1453L0.411451 33.2189L1.23939 33.2068L1.18065 29.1751L2.00859 29.1631L2.18495 41.2684L1.35701 41.2804L1.53337 53.3858L2.36131 53.3737L2.47893 61.4473L3.30687 61.4353L3.24813 57.4036L4.07611 57.3915L4.13485 61.4232L4.96279 61.4111L5.02152 65.4428L6.67135 65.4188L6.55373 57.3452L7.38167 57.3331L7.55802 69.4385L8.38596 69.4264L8.20961 57.3211L9.03755 57.309L8.97881 53.2773L9.80679 53.2653L9.92441 61.3389L9.09643 61.3509L9.15517 65.3826L9.98315 65.3706L10.1008 73.4442L12.5785 73.4081L12.6372 77.4398L13.4652 77.4277L13.4065 73.396L14.2344 73.384L14.2931 77.4157L22.5483 77.2954L22.4895 73.2637L23.1775 73.2537L23.2362 77.2854L31.6253 77.1632L31.5077 69.0896L32.1956 69.0795L32.3132 77.1532L45.6517 76.9588L45.593 72.9271L46.2809 72.9171L46.3397 76.9488L59.6781 76.7545L59.6194 72.7228L60.3073 72.7128L60.3661 76.7445L72.0548 76.5742L72.1135 80.6059L72.9415 80.5938L72.8827 76.5621L80.9978 76.4439L81.0566 80.4756L81.8845 80.4635L81.8258 76.4318L82.7877 76.4178L82.8464 80.4495L83.6744 80.4375L83.6156 76.4058L85.2654 76.3817L85.3242 80.4134L86.1521 80.4014L86.0934 76.3697L89.393 76.3216L89.4517 80.3533L90.2797 80.3412L90.2209 76.3095L91.7368 76.2874L91.7956 80.3191L92.7574 80.3051L92.6987 76.2734L93.5267 76.2614L93.5854 80.2931L95.2352 80.269L95.1765 76.2373L96.0044 76.2253L96.0631 80.257L96.8911 80.2449L96.8324 76.2132L98.3483 76.1911L98.407 80.2228L99.3689 80.2088L99.3101 76.1771L100.826 76.155L100.885 80.1867L101.847 80.1727L101.788 76.141L102.476 76.131L102.535 80.1627L104.184 80.1387L104.126 76.107L104.954 76.0949L105.012 80.1266L105.974 80.1126L105.915 76.0809L106.743 76.0688L106.802 80.1005L108.452 80.0765L108.393 76.0448L109.909 76.0227L109.968 80.0544L110.796 80.0423L110.737 76.0106L110.871 76.0087L110.93 80.0404L112.58 80.0163L112.521 75.9846L113.349 75.9726L113.407 80.0043L114.923 79.9822L114.865 75.9505L115.693 75.9384L115.751 79.9701L117.401 79.9461L117.342 75.9144L117.476 75.9125L117.535 79.9442L119.185 79.9201L119.126 75.8884L119.814 75.8784L119.873 79.9101L121.523 79.8861L121.464 75.8544L122.292 75.8423L122.351 79.874L123.178 79.8619L123.312 79.86L123.254 75.8283L124.082 75.8162L124.14 79.8479L124.828 79.8379L125.656 79.8258L125.79 79.8239L125.731 75.7922L126.419 75.7822L126.478 79.8139L128.128 79.7898L128.262 79.7879L128.144 71.7143L128.832 71.7043L128.95 79.7779L129.912 79.7638L129.853 75.7321L130.681 75.7201L130.74 79.7518L132.255 79.7297L132.197 75.698L133.025 75.6859L133.083 79.7176L134.733 79.6936L134.675 75.6619L134.808 75.6599L134.867 79.6916L137.205 79.6576L137.146 75.6259L137.974 75.6138L138.033 79.6455L138.861 79.6335L138.802 75.6018L139.63 75.5897L139.689 79.6214L140.651 79.6074L140.592 75.5757L142.108 75.5536L143.07 75.5396L142.952 67.466L143.64 67.456L143.816 79.5613L145.6 79.5353L145.541 75.5036L146.369 75.4915L146.428 79.5232L147.256 79.5112L147.197 75.4795L148.025 75.4674L148.084 79.4991L149.734 79.4751L149.557 67.3698L150.245 67.3597L150.363 75.4333L150.497 75.4314L150.556 79.4631L152.205 79.4391L152.029 67.3337L152.717 67.3237L152.835 75.3973L152.969 75.3954L153.027 79.4271L154.677 79.403L154.618 75.3713L155.306 75.3613L155.365 79.393L156.327 79.379L156.268 75.3473L156.956 75.3373L157.015 79.369L161.276 79.3069L161.218 75.2752L161.906 75.2652L161.964 79.2969L165.264 79.2488L165.205 75.2171L166.855 75.1931L166.914 79.2248L171.175 79.1627L171.116 75.131L171.804 75.121L171.863 79.1527L175.303 79.1026L175.185 71.029L175.873 71.0189L175.991 79.0925L180.118 79.0324L180.06 75.0007L181.021 74.9867L180.963 70.955L181.791 70.9429L181.732 66.9112L182.42 66.9012L182.537 74.9748L181.022 74.9969L181.08 79.0286L184.38 78.9805L184.321 74.9488L185.009 74.9388L185.068 78.9705L185.896 78.9584L185.778 70.8848L185.912 70.8829L186.03 78.9565L188.367 78.9224L188.309 74.8907L189.959 74.8667L190.017 78.8984L190.845 78.8863L190.786 74.8546L190.099 74.8646L190.04 70.8329L191.556 70.8108L191.614 74.8426L190.927 74.8526L190.985 78.8843L194.285 78.8362L194.226 74.8045L194.914 74.7945L194.973 78.8262L196.623 78.8022L196.564 74.7704L195.736 74.7825L195.677 70.7508L195.811 70.7488L195.752 66.7171L196.58 66.7051L196.757 78.8104L200.75 78.7522L200.692 74.7205L200.004 74.7305L199.945 70.6988L200.773 70.6867L200.89 78.7603L203.368 78.7242L203.309 74.6925L203.997 74.6825L203.939 70.6508L204.073 70.6488L204.131 74.6806L203.997 74.6825L204.056 78.7142L214.923 78.5559L214.864 74.5242L216.38 74.5021L216.439 78.5338L219.879 78.4837L219.82 74.452L220.508 74.442L220.566 78.4737L228.956 78.3515L228.897 74.3198L229.585 74.3097L229.643 78.3414L251.925 78.0168L251.866 73.9851L252 73.9832L251.942 69.9515L252.629 69.9414L252.747 78.0151L255.225 77.979L255.166 73.9472L255.3 73.9453L255.359 77.977L306.387 77.2336L307.215 77.2215L310.515 77.1735L311.343 77.1614L317.12 77.0772L321.248 77.0171L321.189 72.9854L321.323 72.9834L321.382 77.0151L336.924 76.7887L336.865 72.757L337.693 72.7449L337.752 76.7767L341.051 76.7286L340.993 72.6969L340.165 72.7089L340.106 68.6772L340.934 68.6651L340.875 64.6334L342.525 64.6094L342.466 60.5777L341.638 60.5898L341.65 60.559ZM193.223 14.3L192.535 14.31L192.476 10.2783L193.164 10.2683L193.223 14.3ZM212.399 74.5499L212.34 70.5182L213.028 70.5082L213.086 74.5399L212.399 74.5499Z" fill="#D9FF7A"/>
<path d="M3.43197 9.00063L2.60403 9.0127L2.66277 13.0444L3.49071 13.0323L3.43197 9.00063Z" fill="#D9FF7A"/>
<path d="M2.66292 13.0436L1.83498 13.0557L1.89371 17.0874L2.72165 17.0753L2.66292 13.0436Z" fill="#D9FF7A"/>
</svg>
