<svg width="206" height="45" viewBox="0 0 206 45" fill="none" xmlns="http://www.w3.org/2000/svg">
<path d="M205.257 34.9579V28.0454H204.757V25.7446H204.257V23.4437H202.768V25.7446H202.268V21.133H201.768V18.8321H201.269V21.133H200.769V14.2205H199.779V16.5214H199.28V11.9098H197.79V9.60896H198.29V7.30809H198.79V9.60896H199.779V7.30809H199.28V5.00722H198.78V2.70636H197.79V5.00722H196.801V2.70636H192.323V5.00722H191.823V2.70636H139.12V5.00722H138.708V2.70636H127.196V0.405474H126.696V2.70636H121.807V0.405474H121.307V2.70636H120.729V0.405474H120.229V2.70636H119.318V5.00722H118.818V2.70636H116.829H116.751V5.00722H116.339V2.70636H115.35V0.405474H114.85V2.70636H113.772V5.00722H113.361V2.70636H111.372V5.00722H111.293V0.395646H110.794V2.69651H110.294V0.395646H109.794V2.69651H105.895V0.395646H105.395V2.69651H104.895V0.395646H104.317V2.69651H99.4279V0.395646H98.9281V2.69651H95.8614V0.395646H95.3617V2.69651H92.873V0.395646H92.3733V7.30809H91.9618V2.69651H91.8834V0.395646H91.3837V2.69651H90.4725V0.395646H89.9728V2.69651H88.895V0.395646H88.3952V2.69651H87.8956V4.99738H87.484V0.385819H86.9844V2.68669H86.906V7.29826H86.4945V0.385819H85.9164V2.68669H85.4167V0.385819H84.917V2.68669H83.9273V0.385819H83.0161V2.68669H81.4387V0.385819H80.5275V2.68669H80.0277V0.385819H79.4497V2.68669H78.95V0.385819H77.9604V2.68669H77.4607V0.385819H76.9609V2.68669H76.0497V0.385819H75.55V2.68669H74.972V0.385819H73.9824V2.68669H73.5709V0.385819H72.5813V2.68669H72.5029V0.385819H71.5132V2.68669H71.0135V0.385819H68.6131V2.68669H68.5347V0.385819H67.545V2.68669H67.1335V0.385819H66.1439V2.68669H66.0655V0.385819H51.1529V2.68669H50.7414V0.385819H41.2961V2.68669H40.7964V0.385819H16.4385H16.3601V2.68669H15.9486V0.385819H14.959H14.8806V2.68669H14.4691V0.385819H10.9907H10.4127V2.68669H10.0011V0.385819H9.42304V2.68669H8.51183V0.385819H8.01212V2.68669H7.93372V4.98755H7.52221V0.375977H6.5326V2.67686H6.03289V0.375977H5.04334V2.67686H4.54363V0.375977H4.04392V2.67686H2.5546V14.2009H2.05489V11.9H0.065918V16.5116H0.565628V14.2107H1.06534V21.1231H0.565628V28.0356H1.06534V32.6472H1.56499V30.3463H2.0647V32.6472H2.56441V34.948H3.55402V30.3365H4.05373V37.2489H4.55344V30.3365H5.05309V28.0356H5.5528V32.6472H5.05309V34.948H5.5528V39.5596H7.04212V41.8605H7.54183V39.5596H8.04154V41.8605H13.0092V39.5596H13.4207V41.8605H18.4764V37.2489H18.888V41.8605H26.9223V39.5596H27.3339V41.8605H35.3682V39.5596H35.7798V41.8605H42.8246V44.1613H43.3242V41.8605H48.2135V44.1613H48.7132V41.8605H49.2913V44.1613H49.791V41.8605H50.7806V44.1613H51.2803V41.8605H53.2693V44.1613H53.769V41.8605H54.6802V44.1613H55.2583V41.8605H55.758V44.1613H56.7476V41.8605H57.2473V44.1613H57.747V41.8605H58.6582V44.1613H59.2363V41.8605H60.1475V44.1613H60.7256V41.8605H61.1371V44.1613H62.1267V41.8605H62.6264V44.1613H63.2045V41.8605H63.7042V44.1613H64.6938V41.8605H65.605V44.1613H66.1047V41.8605H66.1831V44.1613H67.1727V41.8605H67.6724V44.1613H68.5836V41.8605H69.0833V44.1613H70.073V41.8605H70.1513V44.1613H71.1409V41.8605H71.5525V44.1613H72.542V41.8605H73.0417V44.1613H73.5414H73.6198V41.8605H74.1196V44.1613H74.5311H75.0308H75.1091V41.8605H75.5207V44.1613H76.5103H76.5886V39.5498H77.0002V44.1613H77.5782V41.8605H78.0779V44.1613H78.9892V41.8605H79.4889V44.1613H80.4785V41.8605H80.5568V44.1613H81.9677V41.8605H82.4674V44.1613H82.9672V41.8605H83.4669V44.1613H84.045V41.8605H84.9562H85.5342V37.2489H85.9457V44.1613H87.0236V41.8605H87.5233V44.1613H88.023V41.8605H88.5226V44.1613H89.5122V37.2489H89.9238V41.8605H90.0021V44.1613H90.9918V37.2489H91.4033V41.8605H91.4817V44.1613H92.4713V41.8605H92.8828V44.1613H93.4609V41.8605H93.8724V44.1613H96.4395V41.8605H96.851V44.1613H98.84V41.8605H99.8296V44.1613H102.397V41.8605H102.808V44.1613H104.876V39.5498H105.287V44.1613H107.776V41.8605H108.354V39.5596H108.854V37.2587H109.265V41.8703H108.354V44.1712H110.343V41.8703H110.754V44.1712H111.254V39.5596H111.333V44.1712H112.743V41.8703H113.733V44.1712H114.233V41.8703H113.821V39.5694H114.732V41.8703H114.321V44.1712H116.31V41.8703H116.721V44.1712H117.711V41.8703H117.211V39.5694H117.29V37.2686H117.789V44.181H120.19V41.8801H119.778V39.5793H120.278V44.1908H121.767V41.89H122.179V39.5891H122.257V41.89H122.179V44.1908H128.724V41.89H129.635V44.1908H131.703V41.89H132.114V44.1908H137.17V41.89H137.581V44.1908H151.005V41.89H151.083V39.5891H151.495V44.2007H152.984V41.8998H153.062V44.2007H183.809H184.308H186.297H186.797H190.275H192.764V41.8998H192.842V44.2007H202.209V41.8998H202.709V44.2007H204.698V41.8998H204.198V39.5989H204.698V37.2981H205.688V34.9972H205.188L205.257 34.9579ZM116.261 7.30809H115.849V5.00722H116.261V7.30809ZM127.284 41.8703V39.5694H127.695V41.8703H127.284Z" fill="#D9FF7A"/>
<path d="M1.98616 2.69629H1.48645V4.99716H1.98616V2.69629Z" fill="#D9FF7A"/>
<path d="M1.48628 4.99707H0.986572V7.29795H1.48628V4.99707Z" fill="#D9FF7A"/>
<mask id="path-4-inside-1_1079_5" fill="white">
<path d="M12.7719 34.1592V13.0392H17.4439V34.1592H12.7719ZM21.5167 34.1592V24.2072V17.3592H25.3247L25.2927 22.8632H25.8367C26.0713 21.5192 26.434 20.4098 26.9247 19.5352C27.4367 18.6605 28.0873 18.0098 28.8767 17.5832C29.666 17.1352 30.6047 16.9112 31.6927 16.9112C33.6127 16.9112 35.0633 17.5832 36.0447 18.9272C37.0473 20.2712 37.5487 22.3512 37.5487 25.1672V34.1592H32.9407V25.6792C32.9407 23.9938 32.6847 22.7565 32.1727 21.9672C31.682 21.1778 30.946 20.7832 29.9647 20.7832C29.1327 20.7832 28.4287 21.0498 27.8527 21.5832C27.298 22.0952 26.8713 22.8205 26.5727 23.7592C26.2953 24.6765 26.146 25.7432 26.1247 26.9592V34.1592H21.5167ZM42.5169 34.1592V23.4392H39.8929V20.0472L44.5009 20.3032V19.7592C43.6476 19.5885 42.9649 19.3112 42.4529 18.9272C41.9409 18.5218 41.5676 18.0525 41.3329 17.5192C41.1196 16.9858 41.0129 16.4205 41.0129 15.8232C41.0129 14.9058 41.2476 14.1058 41.7169 13.4232C42.2076 12.7405 42.8796 12.2178 43.7329 11.8552C44.6076 11.4712 45.6103 11.2792 46.7409 11.2792C47.7223 11.2792 48.6076 11.4072 49.3969 11.6632C50.1863 11.8978 50.8369 12.2178 51.3489 12.6232L51.0289 16.7832C50.4956 16.3992 49.9196 16.1005 49.3009 15.8872C48.6823 15.6525 48.0849 15.5352 47.5089 15.5352C46.8689 15.5352 46.3356 15.7058 45.9089 16.0472C45.5036 16.3885 45.3009 16.9218 45.3009 17.6472C45.3009 18.1592 45.4076 18.5752 45.6209 18.8952C45.8343 19.1938 46.1116 19.4178 46.4529 19.5672C46.8156 19.7165 47.1889 19.8018 47.5729 19.8232H51.2529V23.4392H47.0289V34.1592H42.5169ZM61.3209 34.6072C59.6569 34.6072 58.1849 34.2765 56.9049 33.6152C55.6463 32.9325 54.6543 31.9405 53.9289 30.6392C53.2036 29.3165 52.8409 27.6845 52.8409 25.7432C52.8409 23.7378 53.2036 22.0845 53.9289 20.7832C54.6756 19.4818 55.6889 18.5112 56.9689 17.8712C58.2489 17.2312 59.6996 16.9112 61.3209 16.9112C62.9849 16.9112 64.4569 17.2418 65.7369 17.9032C67.0169 18.5645 68.0196 19.5565 68.7449 20.8792C69.4916 22.1805 69.8649 23.8125 69.8649 25.7752C69.8649 27.7805 69.4916 29.4445 68.7449 30.7672C67.9983 32.0685 66.9743 33.0392 65.6729 33.6792C64.3929 34.2978 62.9423 34.6072 61.3209 34.6072ZM61.4809 31.1832C62.2916 31.1832 62.9743 30.9912 63.5289 30.6072C64.0836 30.2018 64.4996 29.6152 64.7769 28.8472C65.0756 28.0792 65.2249 27.1405 65.2249 26.0312C65.2249 24.8578 65.0649 23.8658 64.7449 23.0552C64.4463 22.2232 63.9983 21.5938 63.4009 21.1672C62.8249 20.7192 62.0996 20.4952 61.2249 20.4952C60.4356 20.4952 59.7529 20.6872 59.1769 21.0712C58.6223 21.4552 58.1956 22.0418 57.8969 22.8312C57.6196 23.5992 57.4809 24.5485 57.4809 25.6792C57.4809 27.4498 57.8329 28.8152 58.5369 29.7752C59.2409 30.7138 60.2223 31.1832 61.4809 31.1832ZM72.8292 34.1592V25.8712V17.3592H76.7012L76.6692 23.3432H77.2132C77.3838 21.8498 77.6718 20.6338 78.0772 19.6952C78.4825 18.7565 79.0372 18.0738 79.7412 17.6472C80.4665 17.1992 81.3412 16.9752 82.3652 16.9752C82.5998 16.9752 82.8452 16.9965 83.1012 17.0392C83.3572 17.0605 83.6452 17.1245 83.9652 17.2312L83.7732 22.1272C83.4105 21.9565 83.0372 21.8392 82.6532 21.7752C82.2692 21.7112 81.9172 21.6792 81.5972 21.6792C80.7865 21.6792 80.0932 21.8818 79.5172 22.2872C78.9412 22.6712 78.4825 23.2365 78.1412 23.9832C77.7998 24.7298 77.5758 25.6472 77.4692 26.7352V34.1592H72.8292ZM86.3917 34.1592V23.8232V17.3592H90.1357L90.1037 22.8632H90.6477C90.9037 21.4978 91.2663 20.3778 91.7357 19.5032C92.2263 18.6285 92.8237 17.9778 93.5277 17.5512C94.2317 17.1245 95.0637 16.9112 96.0237 16.9112C97.0477 16.9112 97.8903 17.1458 98.5517 17.6152C99.213 18.0845 99.7143 18.7565 100.056 19.6312C100.418 20.5058 100.632 21.5725 100.696 22.8312H101.176C101.453 21.4658 101.848 20.3458 102.36 19.4712C102.893 18.5965 103.544 17.9565 104.312 17.5512C105.08 17.1245 105.933 16.9112 106.872 16.9112C107.789 16.9112 108.589 17.0925 109.272 17.4552C109.954 17.7965 110.52 18.3192 110.968 19.0232C111.437 19.7272 111.789 20.6125 112.024 21.6792C112.258 22.7245 112.376 23.9405 112.376 25.3272V34.1592H107.736V25.8392C107.736 24.7512 107.64 23.8338 107.448 23.0872C107.277 22.3405 107 21.7858 106.616 21.4232C106.232 21.0605 105.741 20.8792 105.144 20.8792C104.44 20.8792 103.832 21.1245 103.32 21.6152C102.808 22.1058 102.402 22.7992 102.104 23.6952C101.805 24.5912 101.645 25.6365 101.624 26.8312V34.1592H97.1117V25.9352C97.1117 24.7832 97.0157 23.8445 96.8237 23.1192C96.6317 22.3725 96.333 21.8178 95.9277 21.4552C95.5437 21.0712 95.053 20.8792 94.4557 20.8792C93.7517 20.8792 93.1437 21.1245 92.6317 21.6152C92.141 22.1058 91.7463 22.7992 91.4477 23.6952C91.1703 24.5912 91.021 25.6472 90.9997 26.8632V34.1592H86.3917ZM120.017 34.6072C119.1 34.6072 118.268 34.4365 117.521 34.0952C116.796 33.7325 116.22 33.1992 115.793 32.4952C115.367 31.7912 115.153 30.9165 115.153 29.8712C115.153 28.9325 115.335 28.1538 115.697 27.5352C116.06 26.8952 116.583 26.3832 117.265 25.9992C117.948 25.6152 118.769 25.3058 119.729 25.0712C120.689 24.8152 121.767 24.5912 122.961 24.3992C123.729 24.2712 124.348 24.1538 124.817 24.0472C125.287 23.9405 125.628 23.7805 125.841 23.5672C126.055 23.3538 126.161 23.0552 126.161 22.6712C126.161 22.0312 125.937 21.5085 125.489 21.1032C125.041 20.6765 124.369 20.4632 123.473 20.4632C122.876 20.4632 122.311 20.5698 121.777 20.7832C121.265 20.9965 120.828 21.3272 120.465 21.7752C120.103 22.2018 119.857 22.7565 119.729 23.4392L115.665 22.4152C115.857 21.4552 116.188 20.6338 116.657 19.9512C117.127 19.2472 117.703 18.6712 118.385 18.2232C119.089 17.7752 119.879 17.4445 120.753 17.2312C121.649 17.0178 122.588 16.9112 123.569 16.9112C125.191 16.9112 126.524 17.1885 127.569 17.7432C128.615 18.2765 129.393 19.0978 129.905 20.2072C130.417 21.2952 130.673 22.6925 130.673 24.3992V27.3112C130.673 28.0578 130.684 28.8152 130.705 29.5832C130.748 30.3512 130.791 31.1192 130.833 31.8872C130.876 32.6552 130.919 33.4125 130.961 34.1592H126.897C126.855 33.5618 126.801 32.9112 126.737 32.2072C126.673 31.4818 126.631 30.7352 126.609 29.9672H126.129C125.873 30.8205 125.457 31.5992 124.881 32.3032C124.327 33.0072 123.644 33.5725 122.833 33.9992C122.023 34.4045 121.084 34.6072 120.017 34.6072ZM121.937 31.2472C122.343 31.2472 122.759 31.1725 123.185 31.0232C123.633 30.8738 124.049 30.6605 124.433 30.3832C124.839 30.0845 125.191 29.7112 125.489 29.2632C125.809 28.8152 126.055 28.2925 126.225 27.6952L126.193 25.4232L126.929 25.5192C126.588 25.7965 126.172 26.0205 125.681 26.1912C125.191 26.3405 124.668 26.4685 124.113 26.5752C123.58 26.6605 123.047 26.7565 122.513 26.8632C121.98 26.9485 121.5 27.0765 121.073 27.2472C120.647 27.4178 120.305 27.6525 120.049 27.9512C119.793 28.2498 119.665 28.6552 119.665 29.1672C119.665 29.8072 119.879 30.3192 120.305 30.7032C120.732 31.0658 121.276 31.2472 121.937 31.2472ZM140.633 34.5432C138.735 34.5432 137.337 34.0525 136.441 33.0712C135.567 32.0685 135.129 30.5005 135.129 28.3672V20.9752H132.793L132.857 17.5192H134.233C135.001 17.4765 135.567 17.3165 135.929 17.0392C136.292 16.7405 136.516 16.2498 136.601 15.5672L136.921 13.6152H139.577V17.3592H143.769V21.1032H139.577V28.1432C139.577 28.9112 139.759 29.4765 140.121 29.8392C140.484 30.1805 141.028 30.3512 141.753 30.3512C142.137 30.3512 142.511 30.3085 142.873 30.2232C143.236 30.1165 143.567 29.9778 143.865 29.8072V34.0312C143.204 34.2445 142.596 34.3832 142.041 34.4472C141.508 34.5112 141.039 34.5432 140.633 34.5432ZM146.767 34.1592V17.3592H151.375V34.1592H146.767ZM149.103 15.0872C148.207 15.0872 147.513 14.8952 147.023 14.5112C146.553 14.1272 146.319 13.5725 146.319 12.8472C146.319 12.1218 146.553 11.5672 147.023 11.1832C147.513 10.7992 148.207 10.6072 149.103 10.6072C150.02 10.6072 150.713 10.7992 151.183 11.1832C151.673 11.5672 151.919 12.1218 151.919 12.8472C151.919 13.5725 151.673 14.1272 151.183 14.5112C150.713 14.8952 150.02 15.0872 149.103 15.0872ZM162.883 34.6072C161.219 34.6072 159.747 34.2765 158.467 33.6152C157.209 32.9325 156.217 31.9405 155.491 30.6392C154.766 29.3165 154.403 27.6845 154.403 25.7432C154.403 23.7378 154.766 22.0845 155.491 20.7832C156.238 19.4818 157.251 18.5112 158.531 17.8712C159.811 17.2312 161.262 16.9112 162.883 16.9112C164.547 16.9112 166.019 17.2418 167.299 17.9032C168.579 18.5645 169.582 19.5565 170.307 20.8792C171.054 22.1805 171.427 23.8125 171.427 25.7752C171.427 27.7805 171.054 29.4445 170.307 30.7672C169.561 32.0685 168.537 33.0392 167.235 33.6792C165.955 34.2978 164.505 34.6072 162.883 34.6072ZM163.043 31.1832C163.854 31.1832 164.537 30.9912 165.091 30.6072C165.646 30.2018 166.062 29.6152 166.339 28.8472C166.638 28.0792 166.787 27.1405 166.787 26.0312C166.787 24.8578 166.627 23.8658 166.307 23.0552C166.009 22.2232 165.561 21.5938 164.963 21.1672C164.387 20.7192 163.662 20.4952 162.787 20.4952C161.998 20.4952 161.315 20.6872 160.739 21.0712C160.185 21.4552 159.758 22.0418 159.459 22.8312C159.182 23.5992 159.043 24.5485 159.043 25.6792C159.043 27.4498 159.395 28.8152 160.099 29.7752C160.803 30.7138 161.785 31.1832 163.043 31.1832ZM174.392 34.1592V24.2072V17.3592H178.2L178.168 22.8632H178.712C178.946 21.5192 179.309 20.4098 179.8 19.5352C180.312 18.6605 180.962 18.0098 181.752 17.5832C182.541 17.1352 183.48 16.9112 184.568 16.9112C186.488 16.9112 187.938 17.5832 188.92 18.9272C189.922 20.2712 190.424 22.3512 190.424 25.1672V34.1592H185.816V25.6792C185.816 23.9938 185.56 22.7565 185.048 21.9672C184.557 21.1778 183.821 20.7832 182.84 20.7832C182.008 20.7832 181.304 21.0498 180.728 21.5832C180.173 22.0952 179.746 22.8205 179.448 23.7592C179.17 24.6765 179.021 25.7432 179 26.9592V34.1592H174.392Z"/>
</mask>
<path d="M12.7719 34.1592V13.0392H17.4439V34.1592H12.7719ZM21.5167 34.1592V24.2072V17.3592H25.3247L25.2927 22.8632H25.8367C26.0713 21.5192 26.434 20.4098 26.9247 19.5352C27.4367 18.6605 28.0873 18.0098 28.8767 17.5832C29.666 17.1352 30.6047 16.9112 31.6927 16.9112C33.6127 16.9112 35.0633 17.5832 36.0447 18.9272C37.0473 20.2712 37.5487 22.3512 37.5487 25.1672V34.1592H32.9407V25.6792C32.9407 23.9938 32.6847 22.7565 32.1727 21.9672C31.682 21.1778 30.946 20.7832 29.9647 20.7832C29.1327 20.7832 28.4287 21.0498 27.8527 21.5832C27.298 22.0952 26.8713 22.8205 26.5727 23.7592C26.2953 24.6765 26.146 25.7432 26.1247 26.9592V34.1592H21.5167ZM42.5169 34.1592V23.4392H39.8929V20.0472L44.5009 20.3032V19.7592C43.6476 19.5885 42.9649 19.3112 42.4529 18.9272C41.9409 18.5218 41.5676 18.0525 41.3329 17.5192C41.1196 16.9858 41.0129 16.4205 41.0129 15.8232C41.0129 14.9058 41.2476 14.1058 41.7169 13.4232C42.2076 12.7405 42.8796 12.2178 43.7329 11.8552C44.6076 11.4712 45.6103 11.2792 46.7409 11.2792C47.7223 11.2792 48.6076 11.4072 49.3969 11.6632C50.1863 11.8978 50.8369 12.2178 51.3489 12.6232L51.0289 16.7832C50.4956 16.3992 49.9196 16.1005 49.3009 15.8872C48.6823 15.6525 48.0849 15.5352 47.5089 15.5352C46.8689 15.5352 46.3356 15.7058 45.9089 16.0472C45.5036 16.3885 45.3009 16.9218 45.3009 17.6472C45.3009 18.1592 45.4076 18.5752 45.6209 18.8952C45.8343 19.1938 46.1116 19.4178 46.4529 19.5672C46.8156 19.7165 47.1889 19.8018 47.5729 19.8232H51.2529V23.4392H47.0289V34.1592H42.5169ZM61.3209 34.6072C59.6569 34.6072 58.1849 34.2765 56.9049 33.6152C55.6463 32.9325 54.6543 31.9405 53.9289 30.6392C53.2036 29.3165 52.8409 27.6845 52.8409 25.7432C52.8409 23.7378 53.2036 22.0845 53.9289 20.7832C54.6756 19.4818 55.6889 18.5112 56.9689 17.8712C58.2489 17.2312 59.6996 16.9112 61.3209 16.9112C62.9849 16.9112 64.4569 17.2418 65.7369 17.9032C67.0169 18.5645 68.0196 19.5565 68.7449 20.8792C69.4916 22.1805 69.8649 23.8125 69.8649 25.7752C69.8649 27.7805 69.4916 29.4445 68.7449 30.7672C67.9983 32.0685 66.9743 33.0392 65.6729 33.6792C64.3929 34.2978 62.9423 34.6072 61.3209 34.6072ZM61.4809 31.1832C62.2916 31.1832 62.9743 30.9912 63.5289 30.6072C64.0836 30.2018 64.4996 29.6152 64.7769 28.8472C65.0756 28.0792 65.2249 27.1405 65.2249 26.0312C65.2249 24.8578 65.0649 23.8658 64.7449 23.0552C64.4463 22.2232 63.9983 21.5938 63.4009 21.1672C62.8249 20.7192 62.0996 20.4952 61.2249 20.4952C60.4356 20.4952 59.7529 20.6872 59.1769 21.0712C58.6223 21.4552 58.1956 22.0418 57.8969 22.8312C57.6196 23.5992 57.4809 24.5485 57.4809 25.6792C57.4809 27.4498 57.8329 28.8152 58.5369 29.7752C59.2409 30.7138 60.2223 31.1832 61.4809 31.1832ZM72.8292 34.1592V25.8712V17.3592H76.7012L76.6692 23.3432H77.2132C77.3838 21.8498 77.6718 20.6338 78.0772 19.6952C78.4825 18.7565 79.0372 18.0738 79.7412 17.6472C80.4665 17.1992 81.3412 16.9752 82.3652 16.9752C82.5998 16.9752 82.8452 16.9965 83.1012 17.0392C83.3572 17.0605 83.6452 17.1245 83.9652 17.2312L83.7732 22.1272C83.4105 21.9565 83.0372 21.8392 82.6532 21.7752C82.2692 21.7112 81.9172 21.6792 81.5972 21.6792C80.7865 21.6792 80.0932 21.8818 79.5172 22.2872C78.9412 22.6712 78.4825 23.2365 78.1412 23.9832C77.7998 24.7298 77.5758 25.6472 77.4692 26.7352V34.1592H72.8292ZM86.3917 34.1592V23.8232V17.3592H90.1357L90.1037 22.8632H90.6477C90.9037 21.4978 91.2663 20.3778 91.7357 19.5032C92.2263 18.6285 92.8237 17.9778 93.5277 17.5512C94.2317 17.1245 95.0637 16.9112 96.0237 16.9112C97.0477 16.9112 97.8903 17.1458 98.5517 17.6152C99.213 18.0845 99.7143 18.7565 100.056 19.6312C100.418 20.5058 100.632 21.5725 100.696 22.8312H101.176C101.453 21.4658 101.848 20.3458 102.36 19.4712C102.893 18.5965 103.544 17.9565 104.312 17.5512C105.08 17.1245 105.933 16.9112 106.872 16.9112C107.789 16.9112 108.589 17.0925 109.272 17.4552C109.954 17.7965 110.52 18.3192 110.968 19.0232C111.437 19.7272 111.789 20.6125 112.024 21.6792C112.258 22.7245 112.376 23.9405 112.376 25.3272V34.1592H107.736V25.8392C107.736 24.7512 107.64 23.8338 107.448 23.0872C107.277 22.3405 107 21.7858 106.616 21.4232C106.232 21.0605 105.741 20.8792 105.144 20.8792C104.44 20.8792 103.832 21.1245 103.32 21.6152C102.808 22.1058 102.402 22.7992 102.104 23.6952C101.805 24.5912 101.645 25.6365 101.624 26.8312V34.1592H97.1117V25.9352C97.1117 24.7832 97.0157 23.8445 96.8237 23.1192C96.6317 22.3725 96.333 21.8178 95.9277 21.4552C95.5437 21.0712 95.053 20.8792 94.4557 20.8792C93.7517 20.8792 93.1437 21.1245 92.6317 21.6152C92.141 22.1058 91.7463 22.7992 91.4477 23.6952C91.1703 24.5912 91.021 25.6472 90.9997 26.8632V34.1592H86.3917ZM120.017 34.6072C119.1 34.6072 118.268 34.4365 117.521 34.0952C116.796 33.7325 116.22 33.1992 115.793 32.4952C115.367 31.7912 115.153 30.9165 115.153 29.8712C115.153 28.9325 115.335 28.1538 115.697 27.5352C116.06 26.8952 116.583 26.3832 117.265 25.9992C117.948 25.6152 118.769 25.3058 119.729 25.0712C120.689 24.8152 121.767 24.5912 122.961 24.3992C123.729 24.2712 124.348 24.1538 124.817 24.0472C125.287 23.9405 125.628 23.7805 125.841 23.5672C126.055 23.3538 126.161 23.0552 126.161 22.6712C126.161 22.0312 125.937 21.5085 125.489 21.1032C125.041 20.6765 124.369 20.4632 123.473 20.4632C122.876 20.4632 122.311 20.5698 121.777 20.7832C121.265 20.9965 120.828 21.3272 120.465 21.7752C120.103 22.2018 119.857 22.7565 119.729 23.4392L115.665 22.4152C115.857 21.4552 116.188 20.6338 116.657 19.9512C117.127 19.2472 117.703 18.6712 118.385 18.2232C119.089 17.7752 119.879 17.4445 120.753 17.2312C121.649 17.0178 122.588 16.9112 123.569 16.9112C125.191 16.9112 126.524 17.1885 127.569 17.7432C128.615 18.2765 129.393 19.0978 129.905 20.2072C130.417 21.2952 130.673 22.6925 130.673 24.3992V27.3112C130.673 28.0578 130.684 28.8152 130.705 29.5832C130.748 30.3512 130.791 31.1192 130.833 31.8872C130.876 32.6552 130.919 33.4125 130.961 34.1592H126.897C126.855 33.5618 126.801 32.9112 126.737 32.2072C126.673 31.4818 126.631 30.7352 126.609 29.9672H126.129C125.873 30.8205 125.457 31.5992 124.881 32.3032C124.327 33.0072 123.644 33.5725 122.833 33.9992C122.023 34.4045 121.084 34.6072 120.017 34.6072ZM121.937 31.2472C122.343 31.2472 122.759 31.1725 123.185 31.0232C123.633 30.8738 124.049 30.6605 124.433 30.3832C124.839 30.0845 125.191 29.7112 125.489 29.2632C125.809 28.8152 126.055 28.2925 126.225 27.6952L126.193 25.4232L126.929 25.5192C126.588 25.7965 126.172 26.0205 125.681 26.1912C125.191 26.3405 124.668 26.4685 124.113 26.5752C123.58 26.6605 123.047 26.7565 122.513 26.8632C121.98 26.9485 121.5 27.0765 121.073 27.2472C120.647 27.4178 120.305 27.6525 120.049 27.9512C119.793 28.2498 119.665 28.6552 119.665 29.1672C119.665 29.8072 119.879 30.3192 120.305 30.7032C120.732 31.0658 121.276 31.2472 121.937 31.2472ZM140.633 34.5432C138.735 34.5432 137.337 34.0525 136.441 33.0712C135.567 32.0685 135.129 30.5005 135.129 28.3672V20.9752H132.793L132.857 17.5192H134.233C135.001 17.4765 135.567 17.3165 135.929 17.0392C136.292 16.7405 136.516 16.2498 136.601 15.5672L136.921 13.6152H139.577V17.3592H143.769V21.1032H139.577V28.1432C139.577 28.9112 139.759 29.4765 140.121 29.8392C140.484 30.1805 141.028 30.3512 141.753 30.3512C142.137 30.3512 142.511 30.3085 142.873 30.2232C143.236 30.1165 143.567 29.9778 143.865 29.8072V34.0312C143.204 34.2445 142.596 34.3832 142.041 34.4472C141.508 34.5112 141.039 34.5432 140.633 34.5432ZM146.767 34.1592V17.3592H151.375V34.1592H146.767ZM149.103 15.0872C148.207 15.0872 147.513 14.8952 147.023 14.5112C146.553 14.1272 146.319 13.5725 146.319 12.8472C146.319 12.1218 146.553 11.5672 147.023 11.1832C147.513 10.7992 148.207 10.6072 149.103 10.6072C150.02 10.6072 150.713 10.7992 151.183 11.1832C151.673 11.5672 151.919 12.1218 151.919 12.8472C151.919 13.5725 151.673 14.1272 151.183 14.5112C150.713 14.8952 150.02 15.0872 149.103 15.0872ZM162.883 34.6072C161.219 34.6072 159.747 34.2765 158.467 33.6152C157.209 32.9325 156.217 31.9405 155.491 30.6392C154.766 29.3165 154.403 27.6845 154.403 25.7432C154.403 23.7378 154.766 22.0845 155.491 20.7832C156.238 19.4818 157.251 18.5112 158.531 17.8712C159.811 17.2312 161.262 16.9112 162.883 16.9112C164.547 16.9112 166.019 17.2418 167.299 17.9032C168.579 18.5645 169.582 19.5565 170.307 20.8792C171.054 22.1805 171.427 23.8125 171.427 25.7752C171.427 27.7805 171.054 29.4445 170.307 30.7672C169.561 32.0685 168.537 33.0392 167.235 33.6792C165.955 34.2978 164.505 34.6072 162.883 34.6072ZM163.043 31.1832C163.854 31.1832 164.537 30.9912 165.091 30.6072C165.646 30.2018 166.062 29.6152 166.339 28.8472C166.638 28.0792 166.787 27.1405 166.787 26.0312C166.787 24.8578 166.627 23.8658 166.307 23.0552C166.009 22.2232 165.561 21.5938 164.963 21.1672C164.387 20.7192 163.662 20.4952 162.787 20.4952C161.998 20.4952 161.315 20.6872 160.739 21.0712C160.185 21.4552 159.758 22.0418 159.459 22.8312C159.182 23.5992 159.043 24.5485 159.043 25.6792C159.043 27.4498 159.395 28.8152 160.099 29.7752C160.803 30.7138 161.785 31.1832 163.043 31.1832ZM174.392 34.1592V24.2072V17.3592H178.2L178.168 22.8632H178.712C178.946 21.5192 179.309 20.4098 179.8 19.5352C180.312 18.6605 180.962 18.0098 181.752 17.5832C182.541 17.1352 183.48 16.9112 184.568 16.9112C186.488 16.9112 187.938 17.5832 188.92 18.9272C189.922 20.2712 190.424 22.3512 190.424 25.1672V34.1592H185.816V25.6792C185.816 23.9938 185.56 22.7565 185.048 21.9672C184.557 21.1778 183.821 20.7832 182.84 20.7832C182.008 20.7832 181.304 21.0498 180.728 21.5832C180.173 22.0952 179.746 22.8205 179.448 23.7592C179.17 24.6765 179.021 25.7432 179 26.9592V34.1592H174.392Z" fill="#383838"/>
<path d="M12.7719 34.1592H11.7719V35.1592H12.7719V34.1592ZM12.7719 13.0392V12.0392H11.7719V13.0392H12.7719ZM17.4439 13.0392H18.4439V12.0392H17.4439V13.0392ZM17.4439 34.1592V35.1592H18.4439V34.1592H17.4439ZM13.7719 34.1592V13.0392H11.7719V34.1592H13.7719ZM12.7719 14.0392H17.4439V12.0392H12.7719V14.0392ZM16.4439 13.0392V34.1592H18.4439V13.0392H16.4439ZM17.4439 33.1592H12.7719V35.1592H17.4439V33.1592ZM21.5167 34.1592H20.5167V35.1592H21.5167V34.1592ZM21.5167 17.3592V16.3592H20.5167V17.3592H21.5167ZM25.3247 17.3592L26.3247 17.365L26.3305 16.3592H25.3247V17.3592ZM25.2927 22.8632L24.2927 22.8574L24.2868 23.8632H25.2927V22.8632ZM25.8367 22.8632V23.8632H26.6772L26.8218 23.0352L25.8367 22.8632ZM26.9247 19.5352L26.0617 19.03L26.057 19.0379L26.0525 19.0459L26.9247 19.5352ZM28.8767 17.5832L29.3522 18.4629L29.3613 18.458L29.3703 18.4529L28.8767 17.5832ZM36.0447 18.9272L35.237 19.5169L35.2432 19.5251L36.0447 18.9272ZM37.5487 34.1592V35.1592H38.5487V34.1592H37.5487ZM32.9407 34.1592H31.9407V35.1592H32.9407V34.1592ZM32.1727 21.9672L31.3234 22.4951L31.3285 22.5033L31.3337 22.5114L32.1727 21.9672ZM27.8527 21.5832L28.531 22.318L28.5321 22.3169L27.8527 21.5832ZM26.5727 23.7592L25.6198 23.456L25.6176 23.4629L25.6155 23.4698L26.5727 23.7592ZM26.1247 26.9592L25.1248 26.9416L25.1247 26.9504V26.9592H26.1247ZM26.1247 34.1592V35.1592H27.1247V34.1592H26.1247ZM22.5167 34.1592V24.2072H20.5167V34.1592H22.5167ZM22.5167 24.2072V17.3592H20.5167V24.2072H22.5167ZM21.5167 18.3592H25.3247V16.3592H21.5167V18.3592ZM24.3247 17.3534L24.2927 22.8574L26.2927 22.869L26.3247 17.365L24.3247 17.3534ZM25.2927 23.8632H25.8367V21.8632H25.2927V23.8632ZM26.8218 23.0352C27.0435 21.7652 27.3774 20.7721 27.7968 20.0244L26.0525 19.0459C25.4906 20.0476 25.0992 21.2732 24.8516 22.6912L26.8218 23.0352ZM27.7877 20.0404C28.2195 19.3027 28.744 18.7917 29.3522 18.4629L28.4012 16.7035C27.4307 17.228 26.6539 18.0183 26.0617 19.03L27.7877 20.0404ZM29.3703 18.4529C29.9818 18.1058 30.7433 17.9112 31.6927 17.9112V15.9112C30.466 15.9112 29.3502 16.1646 28.3831 16.7135L29.3703 18.4529ZM31.6927 17.9112C33.3495 17.9112 34.4748 18.4729 35.2371 19.5169L36.8523 18.3375C35.6519 16.6934 33.8758 15.9112 31.6927 15.9112V17.9112ZM35.2432 19.5251C36.0554 20.6139 36.5487 22.4339 36.5487 25.1672H38.5487C38.5487 22.2684 38.0393 19.9284 36.8462 18.3292L35.2432 19.5251ZM36.5487 25.1672V34.1592H38.5487V25.1672H36.5487ZM37.5487 33.1592H32.9407V35.1592H37.5487V33.1592ZM33.9407 34.1592V25.6792H31.9407V34.1592H33.9407ZM33.9407 25.6792C33.9407 23.9334 33.6831 22.4581 33.0116 21.423L31.3337 22.5114C31.6863 23.0549 31.9407 24.0543 31.9407 25.6792H33.9407ZM33.022 21.4392C32.3368 20.3371 31.2683 19.7832 29.9647 19.7832V21.7832C30.6237 21.7832 31.0272 22.0186 31.3234 22.4951L33.022 21.4392ZM29.9647 19.7832C28.8973 19.7832 27.9459 20.134 27.1733 20.8494L28.5321 22.3169C28.9114 21.9657 29.3681 21.7832 29.9647 21.7832V19.7832ZM27.1744 20.8484C26.4592 21.5086 25.9554 22.4011 25.6198 23.456L27.5256 24.0624C27.7873 23.2399 28.1368 22.6818 28.531 22.318L27.1744 20.8484ZM25.6155 23.4698C25.3054 24.4953 25.1474 25.657 25.1248 26.9416L27.1245 26.9767C27.1447 25.8294 27.2853 24.8577 27.5299 24.0486L25.6155 23.4698ZM25.1247 26.9592V34.1592H27.1247V26.9592H25.1247ZM26.1247 33.1592H21.5167V35.1592H26.1247V33.1592ZM42.5169 34.1592H41.5169V35.1592H42.5169V34.1592ZM42.5169 23.4392H43.5169V22.4392H42.5169V23.4392ZM39.8929 23.4392H38.8929V24.4392H39.8929V23.4392ZM39.8929 20.0472L39.9484 19.0487L38.8929 18.9901V20.0472H39.8929ZM44.5009 20.3032L44.4455 21.3016L45.5009 21.3603V20.3032H44.5009ZM44.5009 19.7592H45.5009V18.9394L44.697 18.7786L44.5009 19.7592ZM42.4529 18.9272L41.8322 19.7112L41.8425 19.7193L41.8529 19.7272L42.4529 18.9272ZM41.3329 17.5192L40.4045 17.8906L40.4108 17.9064L40.4176 17.9219L41.3329 17.5192ZM41.7169 13.4232L40.9049 12.8395L40.8988 12.848L40.8929 12.8567L41.7169 13.4232ZM43.7329 11.8552L44.1241 12.7756L44.1349 12.7708L43.7329 11.8552ZM49.3969 11.6632L49.0884 12.6144L49.1001 12.6182L49.112 12.6217L49.3969 11.6632ZM51.3489 12.6232L52.346 12.6999L52.3868 12.1694L51.9696 11.8391L51.3489 12.6232ZM51.0289 16.7832L50.4446 17.5947L51.8894 18.635L52.026 16.8599L51.0289 16.7832ZM49.3009 15.8872L48.9463 16.8222L48.9605 16.8276L48.9749 16.8326L49.3009 15.8872ZM45.9089 16.0472L45.2842 15.2663L45.2744 15.2742L45.2648 15.2823L45.9089 16.0472ZM45.6209 18.8952L44.7889 19.4499L44.7978 19.4633L44.8072 19.4764L45.6209 18.8952ZM46.4529 19.5672L46.0521 20.4833L46.0621 20.4877L46.0722 20.4919L46.4529 19.5672ZM47.5729 19.8232L47.5175 20.8216L47.5452 20.8232H47.5729V19.8232ZM51.2529 19.8232H52.2529V18.8232H51.2529V19.8232ZM51.2529 23.4392V24.4392H52.2529V23.4392H51.2529ZM47.0289 23.4392V22.4392H46.0289V23.4392H47.0289ZM47.0289 34.1592V35.1592H48.0289V34.1592H47.0289ZM43.5169 34.1592V23.4392H41.5169V34.1592H43.5169ZM42.5169 22.4392H39.8929V24.4392H42.5169V22.4392ZM40.8929 23.4392V20.0472H38.8929V23.4392H40.8929ZM39.8375 21.0456L44.4455 21.3016L44.5564 19.3047L39.9484 19.0487L39.8375 21.0456ZM45.5009 20.3032V19.7592H43.5009V20.3032H45.5009ZM44.697 18.7786C43.9403 18.6272 43.4106 18.3954 43.0529 18.1272L41.8529 19.7272C42.5193 20.227 43.3549 20.5498 44.3048 20.7398L44.697 18.7786ZM43.0736 18.1431C42.6738 17.8266 42.4097 17.4833 42.2482 17.1164L40.4176 17.9219C40.7255 18.6217 41.2081 19.2171 41.8322 19.7112L43.0736 18.1431ZM42.2614 17.1478C42.0972 16.7373 42.0129 16.2985 42.0129 15.8232H40.0129C40.0129 16.5426 40.142 17.2344 40.4045 17.8906L42.2614 17.1478ZM42.0129 15.8232C42.0129 15.0855 42.1984 14.4879 42.541 13.9897L40.8929 12.8567C40.2968 13.7237 40.0129 14.7262 40.0129 15.8232H42.0129ZM42.5289 14.0068C42.902 13.4878 43.4213 13.0742 44.1241 12.7755L43.3418 10.9348C42.3379 11.3615 41.5132 11.9932 40.9049 12.8395L42.5289 14.0068ZM44.1349 12.7708C44.8618 12.4517 45.7236 12.2792 46.7409 12.2792V10.2792C45.4969 10.2792 44.3534 10.4906 43.3309 10.9395L44.1349 12.7708ZM46.7409 12.2792C47.6361 12.2792 48.415 12.396 49.0884 12.6144L49.7054 10.712C48.8002 10.4184 47.8084 10.2792 46.7409 10.2792V12.2792ZM49.112 12.6217C49.8099 12.8292 50.3383 13.0985 50.7282 13.4072L51.9696 11.8391C51.3355 11.3371 50.5626 10.9665 49.6819 10.7046L49.112 12.6217ZM50.3519 12.5465L50.0319 16.7065L52.026 16.8599L52.346 12.6999L50.3519 12.5465ZM51.6132 15.9716C51.0011 15.5309 50.3382 15.1871 49.6269 14.9418L48.9749 16.8326C49.501 17.014 49.9901 17.2674 50.4446 17.5947L51.6132 15.9716ZM49.6556 14.9522C48.9403 14.6808 48.2227 14.5352 47.5089 14.5352V16.5352C47.9471 16.5352 48.4243 16.6242 48.9463 16.8222L49.6556 14.9522ZM47.5089 14.5352C46.6825 14.5352 45.9175 14.7597 45.2842 15.2663L46.5336 16.828C46.7537 16.652 47.0554 16.5352 47.5089 16.5352V14.5352ZM45.2648 15.2823C44.5589 15.8767 44.3009 16.7414 44.3009 17.6472H46.3009C46.3009 17.1023 46.4483 16.9003 46.5531 16.8121L45.2648 15.2823ZM44.3009 17.6472C44.3009 18.2925 44.4352 18.9193 44.7889 19.4499L46.453 18.3405C46.38 18.231 46.3009 18.0259 46.3009 17.6472H44.3009ZM44.8072 19.4764C45.1271 19.9243 45.5481 20.2628 46.0521 20.4833L46.8537 18.651C46.6751 18.5729 46.5414 18.4634 46.4347 18.3139L44.8072 19.4764ZM46.0722 20.4919C46.5363 20.683 47.0194 20.794 47.5175 20.8216L47.6284 18.8247C47.3584 18.8097 47.0949 18.7501 46.8337 18.6425L46.0722 20.4919ZM47.5729 20.8232H51.2529V18.8232H47.5729V20.8232ZM50.2529 19.8232V23.4392H52.2529V19.8232H50.2529ZM51.2529 22.4392H47.0289V24.4392H51.2529V22.4392ZM46.0289 23.4392V34.1592H48.0289V23.4392H46.0289ZM47.0289 33.1592H42.5169V35.1592H47.0289V33.1592ZM56.9049 33.6152L56.4282 34.4942L56.437 34.499L56.4459 34.5036L56.9049 33.6152ZM53.9289 30.6392L53.0521 31.12L53.0555 31.126L53.9289 30.6392ZM53.9289 20.7832L53.0615 20.2855L53.0555 20.2963L53.9289 20.7832ZM56.9689 17.8712L57.4161 18.7656H57.4161L56.9689 17.8712ZM65.7369 17.9032L65.2779 18.7916L65.7369 17.9032ZM68.7449 20.8792L67.8681 21.36L67.8728 21.3685L67.8776 21.3768L68.7449 20.8792ZM68.7449 30.7672L69.6123 31.2649L69.6158 31.2588L68.7449 30.7672ZM65.6729 33.6792L66.1081 34.5795L66.1143 34.5765L65.6729 33.6792ZM63.5289 30.6072L64.0981 31.4294L64.1086 31.4221L64.1189 31.4146L63.5289 30.6072ZM64.7769 28.8472L63.8449 28.4847L63.8405 28.4961L63.8364 28.5075L64.7769 28.8472ZM64.7449 23.0552L63.8037 23.393L63.809 23.4078L63.8148 23.4223L64.7449 23.0552ZM63.4009 21.1672L62.787 21.9565L62.8031 21.9691L62.8197 21.9809L63.4009 21.1672ZM59.1769 21.0712L58.6222 20.2391L58.6149 20.244L58.6077 20.249L59.1769 21.0712ZM57.8969 22.8312L56.9616 22.4773L56.959 22.4844L56.9564 22.4915L57.8969 22.8312ZM58.5369 29.7752L57.7305 30.3666L57.7369 30.3752L58.5369 29.7752ZM61.3209 33.6072C59.7918 33.6072 58.4815 33.3042 57.3639 32.7268L56.4459 34.5036C57.8883 35.2489 59.522 35.6072 61.3209 35.6072V33.6072ZM57.3817 32.7361C56.2967 32.1477 55.4393 31.295 54.8024 30.1523L53.0555 31.126C53.8692 32.586 54.9958 33.7173 56.4282 34.4942L57.3817 32.7361ZM54.8057 30.1583C54.1812 29.0194 53.8409 27.5634 53.8409 25.7432H51.8409C51.8409 27.8056 52.226 29.6136 53.0521 31.12L54.8057 30.1583ZM53.8409 25.7432C53.8409 23.8516 54.1838 22.3798 54.8024 21.27L53.0555 20.2963C52.2234 21.7892 51.8409 23.6241 51.8409 25.7432H53.8409ZM54.7963 21.2808C55.45 20.1415 56.321 19.3132 57.4161 18.7656L56.5217 16.9768C55.0569 17.7092 53.9012 18.8222 53.0616 20.2855L54.7963 21.2808ZM57.4161 18.7656C58.5398 18.2038 59.8341 17.9112 61.3209 17.9112V15.9112C59.5651 15.9112 57.958 16.2586 56.5217 16.9768L57.4161 18.7656ZM61.3209 17.9112C62.85 17.9112 64.1603 18.2142 65.2779 18.7916L66.1959 17.0148C64.7535 16.2695 63.1198 15.9112 61.3209 15.9112V17.9112ZM65.2779 18.7916C66.3726 19.3572 67.2337 20.2031 67.8681 21.36L69.6217 20.3983C68.8055 18.91 67.6612 17.7718 66.1959 17.0148L65.2779 18.7916ZM67.8776 21.3768C68.5145 22.487 68.8649 23.9348 68.8649 25.7752H70.8649C70.8649 23.6902 70.4687 21.874 69.6123 20.3815L67.8776 21.3768ZM68.8649 25.7752C68.8649 27.6617 68.5132 29.1434 67.8741 30.2756L69.6158 31.2588C70.47 29.7456 70.8649 27.8993 70.8649 25.7752H68.8649ZM67.8776 30.2695C67.2263 31.4045 66.3479 32.2328 65.2316 32.7818L66.1143 34.5765C67.6007 33.8455 68.7702 32.7325 69.6123 31.2648L67.8776 30.2695ZM65.2378 32.7788C64.1114 33.3233 62.8128 33.6072 61.3209 33.6072V35.6072C63.0718 35.6072 64.6745 35.2724 66.1081 34.5795L65.2378 32.7788ZM61.4809 32.1832C62.4532 32.1832 63.3449 31.9509 64.0981 31.4294L62.9597 29.785C62.6036 30.0315 62.13 30.1832 61.4809 30.1832V32.1832ZM64.1189 31.4146C64.8628 30.871 65.3855 30.1062 65.7175 29.1868L63.8364 28.5075C63.6137 29.1242 63.3044 29.5327 62.9389 29.7998L64.1189 31.4146ZM65.7089 29.2096C66.0651 28.2937 66.2249 27.2242 66.2249 26.0312H64.2249C64.2249 27.0568 64.0861 27.8647 63.8449 28.4847L65.7089 29.2096ZM66.2249 26.0312C66.2249 24.7731 66.0542 23.6484 65.6751 22.688L63.8148 23.4223C64.0757 24.0833 64.2249 24.9426 64.2249 26.0312H66.2249ZM65.6861 22.7173C65.333 21.7336 64.7765 20.9208 63.9822 20.3534L62.8197 21.9809C63.22 22.2669 63.5595 22.7128 63.8037 23.393L65.6861 22.7173ZM64.0149 20.3778C63.2304 19.7677 62.2763 19.4952 61.2249 19.4952V21.4952C61.9229 21.4952 62.4194 21.6707 62.787 21.9565L64.0149 20.3778ZM61.2249 19.4952C60.2667 19.4952 59.3847 19.7308 58.6222 20.2391L59.7316 21.9032C60.1211 21.6436 60.6045 21.4952 61.2249 21.4952V19.4952ZM58.6077 20.249C57.8488 20.7744 57.314 21.5462 56.9616 22.4773L58.8322 23.1851C59.0772 22.5375 59.3957 22.1359 59.7461 21.8934L58.6077 20.249ZM56.9564 22.4915C56.6278 23.4015 56.4809 24.474 56.4809 25.6792H58.4809C58.4809 24.623 58.6114 23.7969 58.8375 23.1708L56.9564 22.4915ZM56.4809 25.6792C56.4809 27.5639 56.8528 29.1697 57.7305 30.3665L59.3433 29.1838C58.813 28.4607 58.4809 27.3357 58.4809 25.6792H56.4809ZM57.7369 30.3752C58.6452 31.5862 59.9341 32.1832 61.4809 32.1832V30.1832C60.5104 30.1832 59.8367 29.8415 59.3369 29.1752L57.7369 30.3752ZM72.8292 34.1592H71.8292V35.1592H72.8292V34.1592ZM72.8292 17.3592V16.3592H71.8292V17.3592H72.8292ZM76.7012 17.3592L77.7012 17.3645L77.7065 16.3592H76.7012V17.3592ZM76.6692 23.3432L75.6692 23.3378L75.6638 24.3432H76.6692V23.3432ZM77.2132 23.3432V24.3432H78.1054L78.2067 23.4567L77.2132 23.3432ZM78.0772 19.6952L77.1591 19.2987L78.0772 19.6952ZM79.7412 17.6472L80.2595 18.5024L80.2667 18.498L79.7412 17.6472ZM83.1012 17.0392L82.9368 18.0256L82.9772 18.0323L83.0181 18.0357L83.1012 17.0392ZM83.9652 17.2312L84.9644 17.2704L84.9938 16.52L84.2814 16.2825L83.9652 17.2312ZM83.7732 22.1272L83.3474 23.032L84.7133 23.6748L84.7724 22.1664L83.7732 22.1272ZM82.6532 21.7752L82.8176 20.7888V20.7888L82.6532 21.7752ZM79.5172 22.2872L80.0719 23.1192L80.0824 23.1122L80.0927 23.105L79.5172 22.2872ZM77.4692 26.7352L76.474 26.6376L76.4692 26.6863V26.7352H77.4692ZM77.4692 34.1592V35.1592H78.4692V34.1592H77.4692ZM73.8292 34.1592V25.8712H71.8292V34.1592H73.8292ZM73.8292 25.8712V17.3592H71.8292V25.8712H73.8292ZM72.8292 18.3592H76.7012V16.3592H72.8292V18.3592ZM75.7012 17.3538L75.6692 23.3378L77.6692 23.3485L77.7012 17.3645L75.7012 17.3538ZM76.6692 24.3432H77.2132V22.3432H76.6692V24.3432ZM78.2067 23.4567C78.371 22.0196 78.6424 20.9087 78.9952 20.0916L77.1591 19.2987C76.7013 20.359 76.3967 21.6801 76.2197 23.2296L78.2067 23.4567ZM78.9952 20.0916C79.3384 19.297 79.7722 18.7977 80.2595 18.5024L79.2229 16.792C78.3022 17.35 77.6267 18.216 77.1591 19.2987L78.9952 20.0916ZM80.2667 18.498C80.8049 18.1655 81.4892 17.9752 82.3652 17.9752V15.9752C81.1932 15.9752 80.1281 16.2328 79.2157 16.7964L80.2667 18.498ZM82.3652 17.9752C82.5393 17.9752 82.7295 17.991 82.9368 18.0256L83.2656 16.0528C82.9609 16.002 82.6604 15.9752 82.3652 15.9752V17.9752ZM83.0181 18.0357C83.1745 18.0488 83.3824 18.091 83.649 18.1799L84.2814 16.2825C83.9079 16.158 83.5398 16.0723 83.1842 16.0426L83.0181 18.0357ZM82.966 17.192L82.7739 22.088L84.7724 22.1664L84.9644 17.2704L82.966 17.192ZM84.199 21.2224C83.7558 21.0138 83.2947 20.8683 82.8176 20.7888L82.4888 22.7616C82.7797 22.8101 83.0652 22.8992 83.3474 23.032L84.199 21.2224ZM82.8176 20.7888C82.3904 20.7176 81.9826 20.6792 81.5972 20.6792V22.6792C81.8518 22.6792 82.1479 22.7048 82.4888 22.7616L82.8176 20.7888ZM81.5972 20.6792C80.6127 20.6792 79.7107 20.9282 78.9417 21.4694L80.0927 23.105C80.4757 22.8355 80.9604 22.6792 81.5972 22.6792V20.6792ZM78.9625 21.4551C78.2051 21.96 77.6358 22.6835 77.2317 23.5674L79.0507 24.3989C79.3292 23.7895 79.6772 23.3823 80.0719 23.1192L78.9625 21.4551ZM77.2317 23.5674C76.832 24.4418 76.5881 25.4738 76.474 26.6376L78.4644 26.8328C78.5636 25.8206 78.7677 25.0179 79.0507 24.3989L77.2317 23.5674ZM76.4692 26.7352V34.1592H78.4692V26.7352H76.4692ZM77.4692 33.1592H72.8292V35.1592H77.4692V33.1592ZM86.3917 34.1592H85.3917V35.1592H86.3917V34.1592ZM86.3917 17.3592V16.3592H85.3917V17.3592H86.3917ZM90.1357 17.3592L91.1357 17.365L91.1415 16.3592H90.1357V17.3592ZM90.1037 22.8632L89.1037 22.8574L89.0978 23.8632H90.1037V22.8632ZM90.6477 22.8632V23.8632H91.4776L91.6306 23.0475L90.6477 22.8632ZM91.7357 19.5032L90.8635 19.0139L90.8589 19.0221L90.8545 19.0304L91.7357 19.5032ZM93.5277 17.5512L93.0094 16.696L93.5277 17.5512ZM98.5517 17.6152L97.9729 18.4307L98.5517 17.6152ZM100.056 19.6312L99.1241 19.9947L99.1279 20.0045L99.1319 20.0142L100.056 19.6312ZM100.696 22.8312L99.697 22.882L99.7452 23.8312H100.696V22.8312ZM101.176 22.8312V23.8312H101.993L102.156 23.0302L101.176 22.8312ZM102.36 19.4712L101.506 18.9506L101.501 18.9582L101.497 18.966L102.36 19.4712ZM104.312 17.5512L104.778 18.4356L104.788 18.4306L104.797 18.4253L104.312 17.5512ZM109.272 17.4552L108.803 18.3383L108.813 18.3441L108.824 18.3496L109.272 17.4552ZM110.968 19.0232L110.124 19.5601L110.13 19.569L110.136 19.5779L110.968 19.0232ZM112.024 21.6792L111.047 21.894L111.048 21.8982L112.024 21.6792ZM112.376 34.1592V35.1592H113.376V34.1592H112.376ZM107.736 34.1592H106.736V35.1592H107.736V34.1592ZM107.448 23.0872L106.473 23.31L106.476 23.3232L106.479 23.3362L107.448 23.0872ZM106.616 21.4232L107.302 20.6962L106.616 21.4232ZM103.32 21.6152L104.012 22.3372L103.32 21.6152ZM101.624 26.8312L100.624 26.8133L100.624 26.8223V26.8312H101.624ZM101.624 34.1592V35.1592H102.624V34.1592H101.624ZM97.1117 34.1592H96.1117V35.1592H97.1117V34.1592ZM96.8237 23.1192L95.8552 23.3682L95.857 23.3751L96.8237 23.1192ZM95.9277 21.4552L95.2206 22.1623L95.2402 22.1819L95.2609 22.2004L95.9277 21.4552ZM92.6317 21.6152L91.9398 20.8932L91.9321 20.9006L91.9246 20.9081L92.6317 21.6152ZM91.4477 23.6952L90.499 23.379L90.4956 23.3892L90.4924 23.3995L91.4477 23.6952ZM90.9997 26.8632L89.9998 26.8456L89.9997 26.8544V26.8632H90.9997ZM90.9997 34.1592V35.1592H91.9997V34.1592H90.9997ZM87.3917 34.1592V23.8232H85.3917V34.1592H87.3917ZM87.3917 23.8232V17.3592H85.3917V23.8232H87.3917ZM86.3917 18.3592H90.1357V16.3592H86.3917V18.3592ZM89.1357 17.3534L89.1037 22.8574L91.1037 22.869L91.1357 17.365L89.1357 17.3534ZM90.1037 23.8632H90.6477V21.8632H90.1037V23.8632ZM91.6306 23.0475C91.8746 21.746 92.2111 20.7322 92.6168 19.976L90.8545 19.0304C90.3216 20.0235 89.9328 21.2497 89.6648 22.6789L91.6306 23.0475ZM92.6078 19.9924C93.0324 19.2356 93.5185 18.726 94.046 18.4064L93.0094 16.696C92.1288 17.2297 91.4203 18.0215 90.8635 19.0139L92.6078 19.9924ZM94.046 18.4064C94.5693 18.0892 95.2156 17.9112 96.0237 17.9112V15.9112C94.9117 15.9112 93.8941 16.1598 93.0094 16.696L94.046 18.4064ZM96.0237 17.9112C96.8951 17.9112 97.5205 18.1096 97.9729 18.4307L99.1304 16.7997C98.2602 16.1821 97.2003 15.9112 96.0237 15.9112V17.9112ZM97.9729 18.4307C98.4511 18.7701 98.8423 19.2725 99.1241 19.9947L100.987 19.2676C100.586 18.2405 99.9749 17.399 99.1304 16.7997L97.9729 18.4307ZM99.1319 20.0142C99.439 20.7547 99.637 21.702 99.697 22.882L101.694 22.7804C101.626 21.443 101.398 20.257 100.979 19.2482L99.1319 20.0142ZM100.696 23.8312H101.176V21.8312H100.696V23.8312ZM102.156 23.0302C102.419 21.7352 102.783 20.728 103.223 19.9764L101.497 18.966C100.913 19.9637 100.487 21.1964 100.196 22.6321L102.156 23.0302ZM103.213 19.9918C103.67 19.2431 104.197 18.7427 104.778 18.4356L103.845 16.6668C102.891 17.1703 102.116 17.9499 101.506 18.9506L103.213 19.9918ZM104.797 18.4253C105.407 18.0868 106.091 17.9112 106.872 17.9112V15.9112C105.775 15.9112 104.753 16.1622 103.826 16.677L104.797 18.4253ZM106.872 17.9112C107.656 17.9112 108.289 18.0655 108.803 18.3383L109.741 16.5721C108.889 16.1195 107.922 15.9112 106.872 15.9112V17.9112ZM108.824 18.3496C109.33 18.6024 109.764 18.9942 110.124 19.5601L111.811 18.4863C111.275 17.6441 110.579 16.9906 109.719 16.5608L108.824 18.3496ZM110.136 19.5779C110.519 20.1533 110.832 20.915 111.047 21.894L113 21.4643C112.746 20.31 112.355 19.301 111.8 18.4685L110.136 19.5779ZM111.048 21.8982C111.263 22.8542 111.376 23.9939 111.376 25.3272H113.376C113.376 23.8871 113.254 22.5948 112.999 21.4601L111.048 21.8982ZM111.376 25.3272V34.1592H113.376V25.3272H111.376ZM112.376 33.1592H107.736V35.1592H112.376V33.1592ZM108.736 34.1592V25.8392H106.736V34.1592H108.736ZM108.736 25.8392C108.736 24.6986 108.636 23.6918 108.416 22.8381L106.479 23.3362C106.644 23.9758 106.736 24.8037 106.736 25.8392H108.736ZM108.423 22.8644C108.227 22.0074 107.881 21.243 107.302 20.6962L105.929 22.1502C106.118 22.3286 106.327 22.6737 106.473 23.31L108.423 22.8644ZM107.302 20.6962C106.708 20.1349 105.96 19.8792 105.144 19.8792V21.8792C105.522 21.8792 105.755 21.9862 105.929 22.1502L107.302 20.6962ZM105.144 19.8792C104.18 19.8792 103.324 20.2256 102.628 20.8932L104.012 22.3372C104.339 22.0235 104.7 21.8792 105.144 21.8792V19.8792ZM102.628 20.8932C101.966 21.5273 101.489 22.3779 101.155 23.379L103.052 24.0114C103.316 23.2204 103.649 22.6844 104.012 22.3372L102.628 20.8932ZM101.155 23.379C100.817 24.3928 100.647 25.5428 100.624 26.8133L102.624 26.849C102.644 25.7303 102.793 24.7895 103.052 24.0114L101.155 23.379ZM100.624 26.8312V34.1592H102.624V26.8312H100.624ZM101.624 33.1592H97.1117V35.1592H101.624V33.1592ZM98.1117 34.1592V25.9352H96.1117V34.1592H98.1117ZM98.1117 25.9352C98.1117 24.7376 98.0129 23.7041 97.7904 22.8633L95.857 23.3751C96.0184 23.985 96.1117 24.8287 96.1117 25.9352H98.1117ZM97.7922 22.8701C97.5706 22.0086 97.1969 21.2489 96.5945 20.7099L95.2609 22.2004C95.4691 22.3867 95.6927 22.7364 95.8552 23.3682L97.7922 22.8701ZM96.6348 20.7481C96.0436 20.1569 95.2891 19.8792 94.4557 19.8792V21.8792C94.8169 21.8792 95.0437 21.9855 95.2206 22.1623L96.6348 20.7481ZM94.4557 19.8792C93.4917 19.8792 92.6364 20.2256 91.9398 20.8932L93.3236 22.3372C93.6509 22.0235 94.0116 21.8792 94.4557 21.8792V19.8792ZM91.9246 20.9081C91.2919 21.5408 90.8299 22.3861 90.499 23.379L92.3964 24.0114C92.6628 23.2122 92.9902 22.6709 93.3388 22.3223L91.9246 20.9081ZM90.4924 23.3995C90.1803 24.4078 90.0224 25.5616 89.9998 26.8456L91.9995 26.8807C92.0197 25.7327 92.1604 24.7746 92.403 23.9909L90.4924 23.3995ZM89.9997 26.8632V34.1592H91.9997V26.8632H89.9997ZM90.9997 33.1592H86.3917V35.1592H90.9997V33.1592ZM117.521 34.0952L117.074 34.9896L117.09 34.9974L117.106 35.0047L117.521 34.0952ZM115.697 27.5352L116.56 28.0409L116.564 28.0346L116.567 28.0282L115.697 27.5352ZM117.265 25.9992L116.775 25.1276L117.265 25.9992ZM119.729 25.0712L119.967 26.0426L119.977 26.0401L119.987 26.0374L119.729 25.0712ZM122.961 24.3992L123.12 25.3865L123.126 25.3856L122.961 24.3992ZM124.817 24.0472L125.039 25.0223L124.817 24.0472ZM125.489 21.1032L124.8 21.8273L124.809 21.8361L124.819 21.8447L125.489 21.1032ZM121.777 20.7832L121.406 19.8547L121.399 19.8574L121.393 19.8601L121.777 20.7832ZM120.465 21.7752L121.227 22.4228L121.235 22.4137L121.243 22.4044L120.465 21.7752ZM119.729 23.4392L119.485 24.4089L120.516 24.6687L120.712 23.6235L119.729 23.4392ZM115.665 22.4152L114.685 22.2191L114.498 23.1523L115.421 23.3849L115.665 22.4152ZM116.657 19.9512L117.481 20.5177L117.486 20.5118L117.489 20.5059L116.657 19.9512ZM118.385 18.2232L117.849 17.3794L117.837 17.3871L118.385 18.2232ZM120.753 17.2312L120.522 16.2584L120.516 16.2597L120.753 17.2312ZM127.569 17.7432L127.101 18.6265L127.108 18.6303L127.115 18.6339L127.569 17.7432ZM129.905 20.2072L128.997 20.6262L129.001 20.633L129.905 20.2072ZM130.705 29.5832L129.706 29.6109L129.706 29.6248L129.707 29.6386L130.705 29.5832ZM130.833 31.8872L131.832 31.8317V31.8317L130.833 31.8872ZM130.961 34.1592V35.1592H132.02L131.96 34.1021L130.961 34.1592ZM126.897 34.1592L125.9 34.2304L125.966 35.1592H126.897V34.1592ZM126.737 32.2072L125.741 32.2951L125.742 32.2977L126.737 32.2072ZM126.609 29.9672L127.609 29.9394L127.582 28.9672H126.609V29.9672ZM126.129 29.9672V28.9672H125.385L125.172 29.6798L126.129 29.9672ZM124.881 32.3032L124.107 31.6699L124.102 31.6771L124.096 31.6843L124.881 32.3032ZM122.833 33.9992L123.281 34.8936L123.29 34.8889L123.299 34.8841L122.833 33.9992ZM123.185 31.0232L122.869 30.0745L122.862 30.0769L122.855 30.0793L123.185 31.0232ZM124.433 30.3832L125.019 31.1939L125.027 31.1882L124.433 30.3832ZM125.489 29.2632L124.676 28.6819L124.666 28.6951L124.657 28.7085L125.489 29.2632ZM126.225 27.6952L127.187 27.9699L127.227 27.8283L127.225 27.6811L126.225 27.6952ZM126.193 25.4232L126.323 24.4316L125.177 24.2822L125.194 25.4373L126.193 25.4232ZM126.929 25.5192L127.56 26.2953L129.365 24.8284L127.059 24.5276L126.929 25.5192ZM125.681 26.1912L125.973 27.1479L125.991 27.1421L126.01 27.1357L125.681 26.1912ZM124.113 26.5752L124.271 27.5626L124.287 27.5601L124.302 27.5572L124.113 26.5752ZM122.513 26.8632L122.671 27.8506L122.691 27.8476L122.71 27.8438L122.513 26.8632ZM120.049 27.9512L119.29 27.3004L120.049 27.9512ZM120.305 30.7032L119.636 31.4465L119.647 31.4559L119.658 31.4651L120.305 30.7032ZM120.017 33.6072C119.227 33.6072 118.539 33.4607 117.937 33.1857L117.106 35.0047C117.997 35.4123 118.974 35.6072 120.017 35.6072V33.6072ZM117.969 33.2008C117.415 32.9238 116.979 32.5221 116.649 31.9769L114.938 33.0135C115.461 33.8763 116.177 34.5412 117.074 34.9896L117.969 33.2008ZM116.649 31.9769C116.339 31.4661 116.153 30.7824 116.153 29.8712H114.153C114.153 31.0506 114.394 32.1162 114.938 33.0135L116.649 31.9769ZM116.153 29.8712C116.153 29.0568 116.311 28.4658 116.56 28.0409L114.835 27.0295C114.358 27.8419 114.153 28.8082 114.153 29.8712H116.153ZM116.567 28.0282C116.834 27.5569 117.221 27.1715 117.756 26.8708L116.775 25.1276C115.945 25.5949 115.286 26.2334 114.827 27.0422L116.567 28.0282ZM117.756 26.8708C118.341 26.5412 119.073 26.261 119.967 26.0426L119.492 24.0998C118.466 24.3507 117.555 24.6891 116.775 25.1276L117.756 26.8708ZM119.987 26.0374C120.908 25.7917 121.952 25.5743 123.12 25.3865L122.803 23.4118C121.582 23.6081 120.47 23.8386 119.472 24.1049L119.987 26.0374ZM123.126 25.3856C123.903 25.2561 124.543 25.1351 125.039 25.0223L124.596 23.072C124.153 23.1726 123.556 23.2863 122.797 23.4128L123.126 25.3856ZM125.039 25.0223C125.593 24.8965 126.144 24.6783 126.549 24.2743L125.134 22.8601C125.112 22.8827 124.981 22.9845 124.596 23.072L125.039 25.0223ZM126.549 24.2743C126.997 23.8258 127.161 23.2444 127.161 22.6712H125.161C125.161 22.772 125.147 22.8255 125.14 22.8468C125.136 22.8572 125.133 22.8612 125.133 22.8612C125.133 22.8613 125.133 22.8611 125.134 22.8607C125.134 22.8602 125.134 22.86 125.134 22.8601L126.549 24.2743ZM127.161 22.6712C127.161 21.7675 126.832 20.9689 126.16 20.3616L124.819 21.8447C125.043 22.0481 125.161 22.2948 125.161 22.6712H127.161ZM126.179 20.379C125.476 19.7096 124.512 19.4632 123.473 19.4632V21.4632C124.227 21.4632 124.607 21.6435 124.8 21.8273L126.179 20.379ZM123.473 19.4632C122.754 19.4632 122.062 19.5922 121.406 19.8547L122.149 21.7117C122.559 21.5475 122.998 21.4632 123.473 21.4632V19.4632ZM121.393 19.8601C120.721 20.1398 120.151 20.5742 119.688 21.146L121.243 22.4044C121.505 22.0802 121.809 21.8532 122.162 21.7063L121.393 19.8601ZM119.703 21.1275C119.204 21.7151 118.899 22.4419 118.747 23.2549L120.712 23.6235C120.816 23.0712 121.001 22.6886 121.227 22.4228L119.703 21.1275ZM119.974 22.4695L115.91 21.4455L115.421 23.3849L119.485 24.4089L119.974 22.4695ZM116.646 22.6113C116.816 21.7603 117.101 21.0704 117.481 20.5177L115.833 19.3847C115.275 20.1973 114.899 21.15 114.685 22.2191L116.646 22.6113ZM117.489 20.5059C117.887 19.9096 118.368 19.4308 118.934 19.0592L117.837 17.3871C117.038 17.9116 116.367 18.5847 115.825 19.3965L117.489 20.5059ZM118.922 19.0668C119.527 18.682 120.214 18.3922 120.99 18.2027L120.516 16.2597C119.544 16.4969 118.652 16.8683 117.849 17.3795L118.922 19.0668ZM120.985 18.204C121.8 18.0099 122.661 17.9112 123.569 17.9112V15.9112C122.515 15.9112 121.498 16.0258 120.522 16.2584L120.985 18.204ZM123.569 17.9112C125.085 17.9112 126.243 18.1715 127.101 18.6265L128.038 16.8598C126.805 16.2055 125.297 15.9112 123.569 15.9112V17.9112ZM127.115 18.6339C127.952 19.0609 128.575 19.7115 128.997 20.6262L130.813 19.7881C130.212 18.4842 129.278 17.4921 128.024 16.8524L127.115 18.6339ZM129.001 20.633C129.429 21.5441 129.673 22.7822 129.673 24.3992H131.673C131.673 22.6028 131.406 21.0463 130.81 19.7814L129.001 20.633ZM129.673 24.3992V27.3112H131.673V24.3992H129.673ZM129.673 27.3112C129.673 28.0674 129.684 28.834 129.706 29.6109L131.705 29.5554C131.684 28.7964 131.673 28.0483 131.673 27.3112H129.673ZM129.707 29.6386C129.75 30.4066 129.792 31.1747 129.835 31.9426L131.832 31.8317C131.789 31.0637 131.747 30.2957 131.704 29.5277L129.707 29.6386ZM129.835 31.9426C129.878 32.7112 129.92 33.469 129.963 34.2162L131.96 34.1021C131.917 33.356 131.875 32.5992 131.832 31.8317L129.835 31.9426ZM130.961 33.1592H126.897V35.1592H130.961V33.1592ZM127.895 34.0879C127.852 33.4831 127.798 32.826 127.733 32.1166L125.742 32.2977C125.805 32.9964 125.858 33.6405 125.9 34.2304L127.895 34.0879ZM127.734 32.1193C127.671 31.415 127.63 30.6884 127.609 29.9394L125.61 29.9949C125.632 30.7819 125.675 31.5487 125.741 32.2951L127.734 32.1193ZM126.609 28.9672H126.129V30.9672H126.609V28.9672ZM125.172 29.6798C124.954 30.4042 124.602 31.0658 124.107 31.6699L125.655 32.9364C126.313 32.1326 126.793 31.2368 127.087 30.2545L125.172 29.6798ZM124.096 31.6843C123.63 32.2757 123.057 32.7514 122.368 33.1143L123.299 34.8841C124.231 34.3936 125.024 33.7386 125.667 32.9221L124.096 31.6843ZM122.386 33.1048C121.737 33.4294 120.956 33.6072 120.017 33.6072V35.6072C121.212 35.6072 122.309 35.3796 123.281 34.8936L122.386 33.1048ZM121.937 32.2472C122.467 32.2472 122.995 32.1493 123.516 31.967L122.855 30.0793C122.522 30.1957 122.218 30.2472 121.937 30.2472V32.2472ZM123.502 31.9719C124.046 31.7904 124.553 31.5304 125.019 31.1939L123.848 29.5725C123.546 29.7906 123.221 29.9573 122.869 30.0745L123.502 31.9719ZM125.027 31.1882C125.532 30.816 125.963 30.3558 126.321 29.8179L124.657 28.7085C124.419 29.0665 124.146 29.353 123.84 29.5781L125.027 31.1882ZM126.303 29.8444C126.698 29.2923 126.989 28.6631 127.187 27.9699L125.264 27.4205C125.121 27.9219 124.921 28.338 124.676 28.6819L126.303 29.8444ZM127.225 27.6811L127.193 25.4091L125.194 25.4373L125.226 27.7093L127.225 27.6811ZM126.064 26.4148L126.8 26.5108L127.059 24.5276L126.323 24.4316L126.064 26.4148ZM126.299 24.7431C126.062 24.9352 125.753 25.1074 125.353 25.2467L126.01 27.1357C126.591 26.9336 127.114 26.6578 127.56 26.2953L126.299 24.7431ZM125.39 25.2345C124.936 25.3726 124.448 25.4925 123.925 25.5932L124.302 27.5572C124.888 27.4445 125.445 27.3084 125.973 27.1479L125.39 25.2345ZM123.955 25.5877C123.409 25.6751 122.863 25.7734 122.317 25.8826L122.71 27.8438C123.23 27.7396 123.751 27.6459 124.271 27.5626L123.955 25.5877ZM122.355 25.8757C121.761 25.9708 121.208 26.1163 120.702 26.3187L121.445 28.1757C121.792 28.0368 122.199 27.9262 122.671 27.8506L122.355 25.8757ZM120.702 26.3187C120.151 26.5392 119.668 26.8601 119.29 27.3004L120.809 28.602C120.943 28.4449 121.143 28.2965 121.445 28.1757L120.702 26.3187ZM119.29 27.3004C118.837 27.8291 118.665 28.4898 118.665 29.1672H120.665C120.665 28.8206 120.75 28.6706 120.809 28.602L119.29 27.3004ZM118.665 29.1672C118.665 30.0544 118.974 30.8498 119.636 31.4465L120.974 29.9599C120.784 29.7885 120.665 29.56 120.665 29.1672H118.665ZM119.658 31.4651C120.297 32.0084 121.084 32.2472 121.937 32.2472V30.2472C121.468 30.2472 121.167 30.1233 120.953 29.9412L119.658 31.4651ZM136.441 33.0712L135.688 33.7285L135.695 33.7371L135.703 33.7454L136.441 33.0712ZM135.129 20.9752H136.129V19.9752H135.129V20.9752ZM132.793 20.9752L131.793 20.9567L131.774 21.9752H132.793V20.9752ZM132.857 17.5192V16.5192H131.876L131.857 17.5007L132.857 17.5192ZM134.233 17.5192V18.5192H134.261L134.289 18.5176L134.233 17.5192ZM135.929 17.0392L136.537 17.8335L136.551 17.8226L136.565 17.8111L135.929 17.0392ZM136.601 15.5672L135.614 15.4054L135.611 15.4242L135.609 15.4431L136.601 15.5672ZM136.921 13.6152V12.6152H136.072L135.934 13.4534L136.921 13.6152ZM139.577 13.6152H140.577V12.6152H139.577V13.6152ZM139.577 17.3592H138.577V18.3592H139.577V17.3592ZM143.769 17.3592H144.769V16.3592H143.769V17.3592ZM143.769 21.1032V22.1032H144.769V21.1032H143.769ZM139.577 21.1032V20.1032H138.577V21.1032H139.577ZM140.121 29.8392L139.414 30.5463L139.425 30.557L139.436 30.5674L140.121 29.8392ZM142.873 30.2232L143.102 31.1966L143.129 31.1903L143.155 31.1825L142.873 30.2232ZM143.865 29.8072H144.865V28.084L143.369 28.9389L143.865 29.8072ZM143.865 34.0312L144.172 34.9829L144.865 34.7593V34.0312H143.865ZM142.041 34.4472L141.927 33.4538L141.922 33.4543L142.041 34.4472ZM140.633 33.5432C138.892 33.5432 137.817 33.0945 137.18 32.3969L135.703 33.7454C136.858 35.0105 138.577 35.5432 140.633 35.5432V33.5432ZM137.195 32.4138C136.551 31.6754 136.129 30.3963 136.129 28.3672H134.129C134.129 30.6047 134.582 32.4616 135.688 33.7285L137.195 32.4138ZM136.129 28.3672V20.9752H134.129V28.3672H136.129ZM135.129 19.9752H132.793V21.9752H135.129V19.9752ZM133.793 20.9937L133.857 17.5377L131.857 17.5007L131.793 20.9567L133.793 20.9937ZM132.857 18.5192H134.233V16.5192H132.857V18.5192ZM134.289 18.5176C135.134 18.4707 135.939 18.2906 136.537 17.8335L135.322 16.2448C135.194 16.3424 134.868 16.4824 134.178 16.5207L134.289 18.5176ZM136.565 17.8111C137.2 17.2882 137.491 16.511 137.593 15.6912L135.609 15.4431C135.541 15.9887 135.384 16.1928 135.293 16.2672L136.565 17.8111ZM137.588 15.729L137.908 13.777L135.934 13.4534L135.614 15.4054L137.588 15.729ZM136.921 14.6152H139.577V12.6152H136.921V14.6152ZM138.577 13.6152V17.3592H140.577V13.6152H138.577ZM139.577 18.3592H143.769V16.3592H139.577V18.3592ZM142.769 17.3592V21.1032H144.769V17.3592H142.769ZM143.769 20.1032H139.577V22.1032H143.769V20.1032ZM138.577 21.1032V28.1432H140.577V21.1032H138.577ZM138.577 28.1432C138.577 29.0459 138.788 29.9205 139.414 30.5463L140.828 29.1321C140.729 29.0325 140.577 28.7764 140.577 28.1432H138.577ZM139.436 30.5674C140.054 31.1488 140.888 31.3512 141.753 31.3512V29.3512C141.167 29.3512 140.914 29.2122 140.807 29.111L139.436 30.5674ZM141.753 31.3512C142.212 31.3512 142.662 31.3001 143.102 31.1966L142.644 29.2498C142.359 29.3169 142.062 29.3512 141.753 29.3512V31.3512ZM143.155 31.1825C143.585 31.0561 143.989 30.8883 144.361 30.6754L143.369 28.9389C143.144 29.0674 142.886 29.177 142.591 29.2638L143.155 31.1825ZM142.865 29.8072V34.0312H144.865V29.8072H142.865ZM143.558 33.0795C142.945 33.2773 142.402 33.3989 141.927 33.4538L142.156 35.4406C142.789 35.3675 143.463 35.2117 144.172 34.9829L143.558 33.0795ZM141.922 33.4543C141.416 33.515 140.988 33.5432 140.633 33.5432V35.5432C141.089 35.5432 141.599 35.5074 142.16 35.4401L141.922 33.4543ZM146.767 34.1592H145.767V35.1592H146.767V34.1592ZM146.767 17.3592V16.3592H145.767V17.3592H146.767ZM151.375 17.3592H152.375V16.3592H151.375V17.3592ZM151.375 34.1592V35.1592H152.375V34.1592H151.375ZM147.023 14.5112L146.389 15.2851L146.398 15.292L146.406 15.2987L147.023 14.5112ZM147.023 11.1832L146.406 10.3957L146.398 10.4024L146.389 10.4092L147.023 11.1832ZM151.183 11.1832L150.549 11.9571L150.558 11.964L150.566 11.9707L151.183 11.1832ZM151.183 14.5112L150.566 13.7237L150.558 13.7304L150.549 13.7372L151.183 14.5112ZM147.767 34.1592V17.3592H145.767V34.1592H147.767ZM146.767 18.3592H151.375V16.3592H146.767V18.3592ZM150.375 17.3592V34.1592H152.375V17.3592H150.375ZM151.375 33.1592H146.767V35.1592H151.375V33.1592ZM149.103 14.0872C148.335 14.0872 147.891 13.9211 147.639 13.7237L146.406 15.2987C147.135 15.8693 148.078 16.0872 149.103 16.0872V14.0872ZM147.656 13.7372C147.465 13.5809 147.319 13.3377 147.319 12.8472H145.319C145.319 13.8073 145.642 14.6735 146.389 15.2851L147.656 13.7372ZM147.319 12.8472C147.319 12.3566 147.465 12.1135 147.656 11.9571L146.389 10.4092C145.642 11.0209 145.319 11.8871 145.319 12.8472H147.319ZM147.639 11.9707C147.891 11.7733 148.335 11.6072 149.103 11.6072V9.60718C148.078 9.60718 147.135 9.82507 146.406 10.3957L147.639 11.9707ZM149.103 11.6072C149.902 11.6072 150.33 11.7778 150.549 11.9571L151.816 10.4092C151.096 9.82055 150.138 9.60718 149.103 9.60718V11.6072ZM150.566 11.9707C150.773 12.1327 150.919 12.3725 150.919 12.8472H152.919C152.919 11.8712 152.573 11.0017 151.799 10.3957L150.566 11.9707ZM150.919 12.8472C150.919 13.3218 150.773 13.5617 150.566 13.7237L151.799 15.2987C152.573 14.6927 152.919 13.8232 152.919 12.8472H150.919ZM150.549 13.7372C150.33 13.9166 149.902 14.0872 149.103 14.0872V16.0872C150.138 16.0872 151.096 15.8738 151.816 15.2851L150.549 13.7372ZM158.467 33.6152L157.991 34.4942L157.999 34.499L158.008 34.5036L158.467 33.6152ZM155.491 30.6392L154.615 31.12L154.618 31.126L155.491 30.6392ZM155.491 20.7832L154.624 20.2855L154.618 20.2963L155.491 20.7832ZM158.531 17.8712L158.979 18.7656L158.531 17.8712ZM167.299 17.9032L166.84 18.7916L167.299 17.9032ZM170.307 20.8792L169.431 21.36L169.435 21.3685L169.44 21.3768L170.307 20.8792ZM170.307 30.7672L171.175 31.2649L171.178 31.2588L170.307 30.7672ZM167.235 33.6792L167.671 34.5795L167.677 34.5765L167.235 33.6792ZM165.091 30.6072L165.661 31.4294L165.671 31.4221L165.681 31.4146L165.091 30.6072ZM166.339 28.8472L165.407 28.4847L165.403 28.4961L165.399 28.5075L166.339 28.8472ZM166.307 23.0552L165.366 23.393L165.372 23.4078L165.377 23.4223L166.307 23.0552ZM164.963 21.1672L164.349 21.9565L164.366 21.9691L164.382 21.9809L164.963 21.1672ZM160.739 21.0712L160.185 20.2391L160.177 20.244L160.17 20.249L160.739 21.0712ZM159.459 22.8312L158.524 22.4773L158.521 22.4844L158.519 22.4915L159.459 22.8312ZM160.099 29.7752L159.293 30.3666L159.299 30.3752L160.099 29.7752ZM162.883 33.6072C161.354 33.6072 160.044 33.3042 158.926 32.7268L158.008 34.5036C159.451 35.2489 161.085 35.6072 162.883 35.6072V33.6072ZM158.944 32.7361C157.859 32.1477 157.002 31.295 156.365 30.1523L154.618 31.126C155.432 32.586 156.558 33.7173 157.991 34.4942L158.944 32.7361ZM156.368 30.1583C155.744 29.0194 155.403 27.5634 155.403 25.7432H153.403C153.403 27.8056 153.789 29.6136 154.615 31.12L156.368 30.1583ZM155.403 25.7432C155.403 23.8516 155.746 22.3798 156.365 21.27L154.618 20.2963C153.786 21.7892 153.403 23.6241 153.403 25.7432H155.403ZM156.359 21.2808C157.013 20.1415 157.883 19.3132 158.979 18.7656L158.084 16.9768C156.619 17.7092 155.464 18.8222 154.624 20.2855L156.359 21.2808ZM158.979 18.7656C160.102 18.2038 161.397 17.9112 162.883 17.9112V15.9112C161.128 15.9112 159.521 16.2586 158.084 16.9768L158.979 18.7656ZM162.883 17.9112C164.413 17.9112 165.723 18.2142 166.84 18.7916L167.758 17.0148C166.316 16.2695 164.682 15.9112 162.883 15.9112V17.9112ZM166.84 18.7916C167.935 19.3572 168.796 20.2031 169.431 21.36L171.184 20.3983C170.368 18.91 169.224 17.7718 167.758 17.0148L166.84 18.7916ZM169.44 21.3768C170.077 22.487 170.427 23.9348 170.427 25.7752H172.427C172.427 23.6902 172.031 21.874 171.175 20.3815L169.44 21.3768ZM170.427 25.7752C170.427 27.6617 170.076 29.1434 169.437 30.2756L171.178 31.2588C172.032 29.7456 172.427 27.8993 172.427 25.7752H170.427ZM169.44 30.2695C168.789 31.4045 167.91 32.2328 166.794 32.7818L167.677 34.5765C169.163 33.8455 170.333 32.7325 171.175 31.2648L169.44 30.2695ZM166.8 32.7788C165.674 33.3233 164.375 33.6072 162.883 33.6072V35.6072C164.634 35.6072 166.237 35.2724 167.671 34.5795L166.8 32.7788ZM163.043 32.1832C164.016 32.1832 164.907 31.9509 165.661 31.4294L164.522 29.785C164.166 30.0315 163.692 30.1832 163.043 30.1832V32.1832ZM165.681 31.4146C166.425 30.871 166.948 30.1062 167.28 29.1868L165.399 28.5075C165.176 29.1242 164.867 29.5327 164.501 29.7998L165.681 31.4146ZM167.271 29.2096C167.628 28.2937 167.787 27.2242 167.787 26.0312H165.787C165.787 27.0568 165.649 27.8647 165.407 28.4847L167.271 29.2096ZM167.787 26.0312C167.787 24.7731 167.617 23.6484 167.238 22.688L165.377 23.4223C165.638 24.0833 165.787 24.9426 165.787 26.0312H167.787ZM167.249 22.7173C166.895 21.7336 166.339 20.9208 165.545 20.3534L164.382 21.9809C164.783 22.2669 165.122 22.7128 165.366 23.393L167.249 22.7173ZM165.577 20.3778C164.793 19.7677 163.839 19.4952 162.787 19.4952V21.4952C163.485 21.4952 163.982 21.6707 164.349 21.9565L165.577 20.3778ZM162.787 19.4952C161.829 19.4952 160.947 19.7308 160.185 20.2391L161.294 21.9032C161.684 21.6436 162.167 21.4952 162.787 21.4952V19.4952ZM160.17 20.249C159.411 20.7744 158.876 21.5462 158.524 22.4773L160.395 23.1851C160.64 22.5375 160.958 22.1359 161.309 21.8934L160.17 20.249ZM158.519 22.4915C158.19 23.4015 158.043 24.474 158.043 25.6792H160.043C160.043 24.623 160.174 23.7969 160.4 23.1708L158.519 22.4915ZM158.043 25.6792C158.043 27.5639 158.415 29.1697 159.293 30.3665L160.906 29.1838C160.376 28.4607 160.043 27.3357 160.043 25.6792H158.043ZM159.299 30.3752C160.208 31.5862 161.497 32.1832 163.043 32.1832V30.1832C162.073 30.1832 161.399 29.8415 160.899 29.1752L159.299 30.3752ZM174.392 34.1592H173.392V35.1592H174.392V34.1592ZM174.392 17.3592V16.3592H173.392V17.3592H174.392ZM178.2 17.3592L179.2 17.365L179.206 16.3592H178.2V17.3592ZM178.168 22.8632L177.168 22.8574L177.162 23.8632H178.168V22.8632ZM178.712 22.8632V23.8632H179.552L179.697 23.0352L178.712 22.8632ZM179.8 19.5352L178.937 19.03L178.932 19.0379L178.928 19.0459L179.8 19.5352ZM181.752 17.5832L182.227 18.4629L182.236 18.458L182.245 18.4529L181.752 17.5832ZM188.92 18.9272L188.112 19.5169L188.118 19.5251L188.92 18.9272ZM190.424 34.1592V35.1592H191.424V34.1592H190.424ZM185.816 34.1592H184.816V35.1592H185.816V34.1592ZM185.048 21.9672L184.198 22.4951L184.203 22.5033L184.209 22.5114L185.048 21.9672ZM180.728 21.5832L181.406 22.318L181.407 22.3169L180.728 21.5832ZM179.448 23.7592L178.495 23.456L178.493 23.4629L178.49 23.4698L179.448 23.7592ZM179 26.9592L178 26.9416L178 26.9504V26.9592H179ZM179 34.1592V35.1592H180V34.1592H179ZM175.392 34.1592V24.2072H173.392V34.1592H175.392ZM175.392 24.2072V17.3592H173.392V24.2072H175.392ZM174.392 18.3592H178.2V16.3592H174.392V18.3592ZM177.2 17.3534L177.168 22.8574L179.168 22.869L179.2 17.365L177.2 17.3534ZM178.168 23.8632H178.712V21.8632H178.168V23.8632ZM179.697 23.0352C179.919 21.7652 180.252 20.7721 180.672 20.0244L178.928 19.0459C178.366 20.0476 177.974 21.2732 177.727 22.6912L179.697 23.0352ZM180.663 20.0404C181.094 19.3027 181.619 18.7917 182.227 18.4629L181.276 16.7035C180.306 17.228 179.529 18.0183 178.937 19.03L180.663 20.0404ZM182.245 18.4529C182.857 18.1058 183.618 17.9112 184.568 17.9112V15.9112C183.341 15.9112 182.225 16.1646 181.258 16.7135L182.245 18.4529ZM184.568 17.9112C186.225 17.9112 187.35 18.4729 188.112 19.5169L189.727 18.3375C188.527 16.6934 186.751 15.9112 184.568 15.9112V17.9112ZM188.118 19.5251C188.93 20.6139 189.424 22.4339 189.424 25.1672H191.424C191.424 22.2684 190.914 19.9284 189.721 18.3292L188.118 19.5251ZM189.424 25.1672V34.1592H191.424V25.1672H189.424ZM190.424 33.1592H185.816V35.1592H190.424V33.1592ZM186.816 34.1592V25.6792H184.816V34.1592H186.816ZM186.816 25.6792C186.816 23.9334 186.558 22.4581 185.887 21.423L184.209 22.5114C184.561 23.0549 184.816 24.0543 184.816 25.6792H186.816ZM185.897 21.4392C185.212 20.3371 184.143 19.7832 182.84 19.7832V21.7832C183.499 21.7832 183.902 22.0186 184.198 22.4951L185.897 21.4392ZM182.84 19.7832C181.772 19.7832 180.821 20.134 180.048 20.8494L181.407 22.3169C181.786 21.9657 182.243 21.7832 182.84 21.7832V19.7832ZM180.049 20.8484C179.334 21.5086 178.83 22.4011 178.495 23.456L180.401 24.0624C180.662 23.2399 181.012 22.6818 181.406 22.318L180.049 20.8484ZM178.49 23.4698C178.18 24.4953 178.022 25.657 178 26.9416L180 26.9767C180.02 25.8294 180.16 24.8577 180.405 24.0486L178.49 23.4698ZM178 26.9592V34.1592H180V26.9592H178ZM179 33.1592H174.392V35.1592H179V33.1592Z" fill="black" mask="url(#path-4-inside-1_1079_5)"/>
</svg>
