<svg width="45" height="46" viewBox="0 0 45 46" fill="none" xmlns="http://www.w3.org/2000/svg">
<path d="M14.2012 9.07584C14.6517 8.62372 15.1122 8.19176 15.5728 7.76977C12.4591 7.20713 9.18524 8.17163 6.86251 10.5026L1.64642 15.7372C0.935584 16.4505 0.585151 17.4453 0.685268 18.45C0.785386 19.4547 1.34605 20.3489 2.19705 20.9015L5.56099 23.0918C7.14285 18.028 10.1264 13.1651 14.2012 9.07584Z" fill="#1A1A1A"/>
<path d="M36.8578 31.813C32.783 35.9022 27.9273 38.8963 22.8914 40.4838L25.0739 43.8596C25.6246 44.7137 26.5156 45.2663 27.5168 45.3768C27.6369 45.3868 27.7571 45.3969 27.8773 45.3969C28.7583 45.3969 29.5992 45.0453 30.22 44.4224L35.4261 39.1977C37.7588 36.8567 38.72 33.5713 38.1593 30.4365C37.7388 30.9087 37.3083 31.3709 36.8578 31.8231V31.813Z" fill="#1A1A1A"/>
<path d="M28.3078 11.3271C26.6959 11.3271 25.074 11.9401 23.8525 13.1759C21.3896 15.6476 21.3896 19.6563 23.8525 22.128C26.3154 24.5895 30.3101 24.5895 32.773 22.128C35.2359 19.6563 35.2359 15.6476 32.773 13.1759C31.5416 11.9401 29.9297 11.3271 28.3178 11.3271H28.3078Z" fill="#1A1A1A"/>
<path d="M43.6458 2.77654L43.4956 2.41485L43.1352 2.26424C34.8154 -1.11164 23.7123 2.15367 15.5027 10.3824C10.667 15.2352 7.45324 21.2333 6.45206 27.2617L6.37195 27.734L18.2659 39.6702L18.7365 39.5897C24.7436 38.585 30.7206 35.3599 35.5563 30.5071C43.7559 22.2784 47.0097 11.1258 43.6458 2.77654ZM34.0745 23.4438C32.4827 25.0413 30.4002 25.8351 28.3078 25.8351C26.2153 25.8351 24.1328 25.0413 22.541 23.4438C19.3672 20.2588 19.3672 15.0644 22.541 11.8794C25.7147 8.69443 30.8908 8.69443 34.0645 11.8794C37.2383 15.0644 37.2383 20.2588 34.0645 23.4438H34.0745Z" fill="#1A1A1A"/>
<path d="M6.67233 31.502L6.00156 32.0746C5.64114 32.3861 5.28071 32.7277 4.9303 33.0793C1.4462 36.5758 0.324922 41.4888 1.02575 44.3423L1.16586 44.905L1.72658 45.0456C2.2572 45.1763 2.8679 45.2465 3.51866 45.2465C6.35199 45.2465 10.1264 43.9706 12.9497 41.1272C13.3001 40.7755 13.6405 40.4139 13.9509 40.0522L14.5216 39.379L6.68236 31.512L6.67233 31.502Z" fill="#1A1A1A"/>
</svg>
