<svg width="114" height="113" viewBox="0 0 114 113" fill="none" xmlns="http://www.w3.org/2000/svg">
<path d="M113.406 55.383L91.5806 9.88897C90.6095 7.85942 88.2467 6.93508 86.1442 7.73886C83.0806 8.84406 80.5377 9.50717 78.1148 9.84878C71.2668 10.7932 63.9482 9.33637 57.5306 5.7696C49.4912 1.12776 40.3605 -0.77117 31.1296 0.283792C23.0902 1.18805 15.6114 4.27255 9.33401 9.2359L8.19265 6.84465C8.13258 6.70399 8.0525 6.57338 7.95238 6.46286C8.13259 6.02078 8.22269 5.51841 8.22269 4.99596C8.22269 2.77551 6.43059 0.956959 4.19797 0.956959C1.96534 0.956959 0.173218 2.75542 0.173218 4.99596C0.173218 6.86475 1.44472 8.44217 3.15673 8.88424C3.18677 8.98472 3.23683 9.09524 3.28689 9.18566L52.0842 111.015C52.5448 111.989 53.5159 112.552 54.5171 112.552C54.9175 112.552 55.308 112.471 55.6885 112.281C57.0401 111.628 57.6007 110.01 56.9599 108.664L34.894 62.6773C47.0183 52.5597 64.0483 51.0526 77.8645 59.0402C82.8404 61.8936 88.497 63.6217 94.2237 64.0135C95.0848 64.0738 95.9257 64.0939 96.7867 64.0939C101.662 64.0939 106.578 63.1495 111.094 61.3209C112.205 60.8788 113.076 59.9645 113.506 58.8694C113.947 57.734 113.907 56.4781 113.396 55.4231L113.406 55.383ZM96.176 58.6483L89.2279 43.9994C89.6083 44.0195 89.9888 44.0195 90.3692 44.0195C94.0235 44.0195 97.6778 43.4468 101.162 42.3416L108.03 56.6489C104.165 58.0555 100.161 58.7186 96.176 58.6483ZM62.937 48.6814L55.9888 34.0526C61.7255 34.5449 67.4223 36.2731 72.6484 39.2872C72.7585 39.3475 72.8587 39.3978 72.9688 39.4681L79.8168 53.8759C74.5406 50.9722 68.8139 49.2139 62.937 48.6915V48.6814ZM31.6202 20.2577C36.8864 18.409 42.4929 17.6756 48.0395 18.1076L55.4482 33.6909C49.8817 33.289 44.3051 34.0426 39.0389 35.8913L31.6202 20.2577ZM54.8575 10.4717C54.8575 10.4717 54.8775 10.4717 54.8775 10.4918L54.8975 10.5119C56.6796 11.4965 58.5218 12.3505 60.394 13.0438L65.1496 23.0609C59.8434 19.9965 54.0666 18.2784 48.2497 17.7962L42.6431 5.98059C46.8581 6.74418 50.9929 8.24122 54.8675 10.4818L54.8575 10.4717ZM65.8804 23.8145C70.3156 26.2057 75.2915 27.6626 80.3274 27.9941C80.6478 28.0142 80.9782 28.0243 81.2986 28.0444L88.7173 43.6779C83.361 43.4267 78.0547 41.9196 73.199 39.2069L65.8704 23.8145H65.8804ZM78.8357 15.214C81.4087 14.8624 84.0618 14.1892 87.1454 13.1242L93.3828 26.1253C89.4982 27.3712 85.4935 27.9138 81.5288 27.7731L75.692 15.5054C76.7532 15.4552 77.8044 15.3647 78.8357 15.214ZM24.9724 6.99536L31.1897 20.0568C26.5042 21.7447 22.079 24.3168 18.1844 27.7329L11.7168 14.2193C15.6915 10.8836 20.2068 8.46226 24.9724 6.99536ZM25.9435 43.9391C29.8081 40.5231 34.2132 37.9711 38.8787 36.2831L45.6867 50.5904C40.9211 52.1276 36.4659 54.4988 32.4912 57.6134L25.9435 43.9391Z" fill="black"/>
</svg>
