<?xml version="1.0" encoding="UTF-8"?>
<svg xmlns="http://www.w3.org/2000/svg" xmlns:xlink="http://www.w3.org/1999/xlink" viewBox="0 0 1700 8002">
  <defs>
    <style>
      .cls-1 {
        opacity: .25;
      }

      .cls-2 {
        fill: none;
      }

      .cls-3 {
        clipPath: url(#clippath-1);
      }

      .cls-4 {
        fill: #888;
      }

      .cls-5 {
        isolation: isolate;
      }

      .cls-6 {
        clipPath: url(#clippath);
      }

      .cls-7 {
        fill: url(#Lane_Pattern_2);
        mix-blend-mode: luminosity;
        opacity: .23;
      }
    </style>
    <clipPath id="clippath">
      <rect class="cls-2" x="189.69" y="0" width="742.83" height="1124.58"/>
    </clipPath>
    <clipPath id="clippath-1">
      <rect class="cls-2" x="-560.31" y="0" width="742.83" height="1124.58"/>
    </clipPath>
    <pattern id="Lane_Pattern_2" data-name="Lane Pattern 2" x="0" y="0" width="750" height="1124.58" patternTransform="translate(-8881.75 -1678.78) scale(.42)" patternUnits="userSpaceOnUse" viewBox="0 0 750 1124.58">
      <g>
        <rect class="cls-2" width="750" height="1124.58"/>
        <g class="cls-1">
          <g class="cls-6">
            <g>
              <path class="cls-4" d="M-1.68,176.21v-49.33c0-2.01-1.63-3.64-3.64-3.64h-59.66c-26.7,0-48.42-23.74-48.42-52.92V7.41c0-2.01-1.63-3.64-3.64-3.64h-59.75c-2.01,0-3.64,1.63-3.64,3.64v168.8c0,2.01,1.63,3.64,3.64,3.64H-5.31c2.01,0,3.64-1.63,3.64-3.64ZM-173.14,11.04h52.48v59.28c0,33.19,24.98,60.2,55.69,60.2H-8.95v42.06h-164.19V11.04Z"/>
              <path class="cls-4" d="M182.71,364.95v-49.11c0-2.01-1.63-3.64-3.64-3.64H52.92v-11.07h124.22c2.01,0,3.64-1.63,3.64-3.64v-34.04c0-2.01-1.63-3.64-3.64-3.64H52.92v-11.44h126.16c2.01,0,3.64-1.63,3.64-3.64v-48.75c0-2.01-1.63-3.64-3.64-3.64H39.94c-19.79,0-35.89,17.59-35.89,39.22v97.79c0,21.63,16.1,39.22,35.89,39.22h139.14c2.01,0,3.64-1.63,3.64-3.64ZM175.44,199.63v41.47H49.31c-2.01,0-3.64,1.63-3.64,3.64v1.31c-.02.14-.03.29-.03.43v14.9c0,.15,0,.29.03.43v1.64c0,2.01,1.63,3.64,3.64,3.64h124.19v26.77H49.31c-2.01,0-3.64,1.63-3.64,3.64v1.63c-.02.14-.03.29-.03.43v14.07c0,.15,0,.29.03.43v1.77c0,2.01,1.63,3.64,3.64,3.64h126.13v41.84H39.94c-15.78,0-28.62-14.33-28.62-31.95v-97.79c0-17.62,12.84-31.95,28.62-31.95h135.5Z"/>
              <path class="cls-4" d="M-1.5,330.5v-134.51c0-2.01-1.63-3.64-3.64-3.64h-101.08c-1.51,0-2.87.94-3.4,2.36-.53,1.42-.13,3.02,1.01,4.02l59.87,52.39-7.25,8.29-75.6-66.16c-.66-.58-1.51-.9-2.39-.9h-13.45c-18.09,0-32.8,17.08-32.8,38.07v134.52c0,2.01,1.63,3.64,3.64,3.64h101.08c1.51,0,2.87-.94,3.4-2.36.53-1.42.13-3.02-1.01-4.02l-59.87-52.39,7.25-8.29,75.6,66.16c.66.58,1.51.9,2.39.9h13.45c18.09,0,32.8-17.08,32.8-38.08ZM-123.69,293.66c-1.51-1.32-3.81-1.17-5.13.34l-12.04,13.76c-.63.73-.96,1.67-.89,2.64.06.96.51,1.86,1.23,2.49l55.33,48.41h-87.77v-130.88c0-16.98,11.45-30.8,25.53-30.8h12.08l77.31,67.65c.73.63,1.68.95,2.64.89.96-.06,1.86-.51,2.49-1.23l12.04-13.76c1.32-1.51,1.17-3.81-.34-5.13l-55.33-48.41H-8.77v130.87c0,16.99-11.45,30.81-25.53,30.81h-12.08l-77.31-67.65Z"/>
              <path class="cls-4" d="M181.3,178.53c.69-.83.97-1.93.77-3l-22.97-120.83c-2.65-13.97-10.53-26.75-22.2-36.01-12.14-9.62-27.64-14.92-43.66-14.92-32.39,0-60.09,21.29-65.87,50.63L3.54,175.51c-.21,1.07.07,2.17.76,3.01.69.84,1.72,1.33,2.81,1.33h76.55c2.01,0,3.64-1.63,3.64-3.64v-80.91h11.02v80.91c0,2.01,1.63,3.64,3.64,3.64h76.55c1.08,0,2.11-.48,2.8-1.32ZM105.58,91.66c0-2.01-1.63-3.64-3.64-3.64h-18.29c-2.01,0-3.64,1.63-3.64,3.64v80.91H11.53l22.98-116.77c5.1-25.94,29.8-44.77,58.73-44.77,14.38,0,28.28,4.74,39.14,13.35,10.3,8.17,17.25,19.42,19.57,31.67l22.15,116.52h-68.52v-80.91ZM105.58,75.3v-24.06c0-2.01-1.63-3.64-3.64-3.64h-18.29c-2.01,0-3.64,1.63-3.64,3.64v24.06c0,2.01,1.63,3.64,3.64,3.64h18.29c2.01,0,3.64-1.63,3.64-3.64ZM87.3,54.87h11.02v16.79h-11.02v-16.79Z"/>
              <path class="cls-4" d="M741.9,176.21v-49.33c0-2.01-1.63-3.64-3.64-3.64h-59.66c-26.7,0-48.42-23.74-48.42-52.92V7.41c0-2.01-1.63-3.64-3.64-3.64h-59.75c-2.01,0-3.64,1.63-3.64,3.64v168.8c0,2.01,1.63,3.64,3.64,3.64h171.47c2.01,0,3.64-1.63,3.64-3.64ZM570.43,11.04h52.48v59.28c0,33.19,24.98,60.2,55.69,60.2h56.03v42.06h-164.19V11.04Z"/>
              <path class="cls-4" d="M926.29,364.95v-49.11c0-2.01-1.63-3.64-3.64-3.64h-126.16v-11.07h124.22c2.01,0,3.64-1.63,3.64-3.64v-34.04c0-2.01-1.63-3.64-3.64-3.64h-124.22v-11.44h126.16c2.01,0,3.64-1.63,3.64-3.64v-48.75c0-2.01-1.63-3.64-3.64-3.64h-139.14c-19.79,0-35.89,17.59-35.89,39.22v97.79c0,21.63,16.1,39.22,35.89,39.22h139.14c2.01,0,3.64-1.63,3.64-3.64ZM919.02,199.63v41.47h-126.13c-2.01,0-3.64,1.63-3.64,3.64v1.31c-.02.14-.03.29-.03.43v14.9c0,.15,0,.29.03.43v1.64c0,2.01,1.63,3.64,3.64,3.64h124.19v26.77h-124.19c-2.01,0-3.64,1.63-3.64,3.64v1.63c-.02.14-.03.29-.03.43v14.07c0,.15,0,.29.03.43v1.77c0,2.01,1.63,3.64,3.64,3.64h126.13v41.84h-135.5c-15.78,0-28.62-14.33-28.62-31.95v-97.79c0-17.62,12.84-31.95,28.62-31.95h135.5Z"/>
              <path class="cls-4" d="M742.07,330.5v-134.51c0-2.01-1.63-3.64-3.64-3.64h-101.08c-1.51,0-2.87.94-3.4,2.36-.53,1.42-.13,3.02,1.01,4.02l59.87,52.39-7.25,8.29-75.6-66.16c-.66-.58-1.51-.9-2.39-.9h-13.45c-18.09,0-32.8,17.08-32.8,38.07v134.52c0,2.01,1.63,3.64,3.64,3.64h101.08c1.51,0,2.87-.94,3.4-2.36.53-1.42.13-3.02-1.01-4.02l-59.87-52.39,7.25-8.29,75.6,66.16c.66.58,1.51.9,2.39.9h13.45c18.09,0,32.8-17.08,32.8-38.08ZM619.88,293.66c-1.51-1.32-3.81-1.17-5.13.34l-12.04,13.76c-.63.73-.96,1.67-.89,2.64.06.96.51,1.86,1.23,2.49l55.33,48.41h-87.77v-130.88c0-16.98,11.45-30.8,25.53-30.8h12.08l77.31,67.65c.73.63,1.68.95,2.64.89.96-.06,1.86-.51,2.49-1.23l12.04-13.76c1.32-1.51,1.17-3.81-.34-5.13l-55.33-48.41h87.77v130.87c0,16.99-11.45,30.81-25.53,30.81h-12.08l-77.31-67.65Z"/>
              <path class="cls-4" d="M924.88,178.53c.69-.83.97-1.93.77-3l-22.97-120.83c-2.65-13.97-10.53-26.75-22.2-36.01-12.14-9.62-27.64-14.92-43.66-14.92-32.39,0-60.09,21.29-65.87,50.63l-23.83,121.1c-.21,1.07.07,2.17.76,3.01.69.84,1.72,1.33,2.81,1.33h76.55c2.01,0,3.64-1.63,3.64-3.64v-80.91h11.02v80.91c0,2.01,1.63,3.64,3.64,3.64h76.55c1.08,0,2.11-.48,2.8-1.32ZM849.16,91.67c0-2.01-1.63-3.64-3.64-3.64h-18.29c-2.01,0-3.64,1.63-3.64,3.64v80.91h-68.49l22.98-116.76c5.1-25.94,29.8-44.77,58.73-44.77,14.38,0,28.28,4.74,39.14,13.35,10.3,8.17,17.25,19.42,19.57,31.67l22.15,116.52h-68.52v-80.91ZM849.16,75.3v-24.06c0-2.01-1.63-3.64-3.64-3.64h-18.29c-2.01,0-3.64,1.63-3.64,3.64v24.06c0,2.01,1.63,3.64,3.64,3.64h18.29c2.01,0,3.64-1.63,3.64-3.64ZM830.87,54.87h11.02v16.79h-11.02v-16.79Z"/>
              <path class="cls-4" d="M741.9,549.57v-49.33c0-2.01-1.63-3.64-3.64-3.64h-59.66c-26.7,0-48.42-23.74-48.42-52.92v-62.91c0-2.01-1.63-3.64-3.64-3.64h-59.75c-2.01,0-3.64,1.63-3.64,3.64v168.8c0,2.01,1.63,3.64,3.64,3.64h171.47c2.01,0,3.64-1.63,3.64-3.64ZM570.43,384.41h52.48v59.28c0,33.19,24.98,60.2,55.69,60.2h56.03v42.06h-164.19v-161.53Z"/>
              <path class="cls-4" d="M926.29,737.93v-49.11c0-2.01-1.63-3.64-3.64-3.64h-126.16v-11.07h124.22c2.01,0,3.64-1.63,3.64-3.64v-34.04c0-2.01-1.63-3.64-3.64-3.64h-124.22v-11.44h126.16c2.01,0,3.64-1.63,3.64-3.64v-48.75c0-2.01-1.63-3.64-3.64-3.64h-139.14c-19.79,0-35.89,17.59-35.89,39.22v97.79c0,21.63,16.1,39.22,35.89,39.22h139.14c2.01,0,3.64-1.63,3.64-3.64ZM919.02,572.61v41.47h-126.13c-2.01,0-3.64,1.63-3.64,3.64v1.31c-.02.14-.03.29-.03.43v14.9c0,.15,0,.29.03.43v1.64c0,2.01,1.63,3.64,3.64,3.64h124.19v26.77h-124.19c-2.01,0-3.64,1.63-3.64,3.64v1.63c-.02.14-.03.29-.03.43v14.07c0,.15,0,.29.03.43v1.77c0,2.01,1.63,3.64,3.64,3.64h126.13v41.84h-135.5c-15.78,0-28.62-14.33-28.62-31.95v-97.79c0-17.62,12.84-31.95,28.62-31.95h135.5Z"/>
              <path class="cls-4" d="M742.07,703.49v-134.51c0-2.01-1.63-3.64-3.64-3.64h-101.08c-1.51,0-2.87.94-3.4,2.36-.53,1.42-.13,3.02,1.01,4.02l59.87,52.39-7.25,8.29-75.6-66.16c-.66-.58-1.51-.9-2.39-.9h-13.45c-18.09,0-32.8,17.08-32.8,38.07v134.52c0,2.01,1.63,3.64,3.64,3.64h101.08c1.51,0,2.87-.94,3.4-2.36.53-1.42.13-3.02-1.01-4.02l-59.87-52.39,7.25-8.29,75.6,66.16c.66.58,1.51.9,2.39.9h13.45c18.09,0,32.8-17.08,32.8-38.08ZM619.88,666.64c-1.51-1.32-3.81-1.17-5.13.34l-12.04,13.76c-.63.73-.96,1.67-.89,2.64.06.96.51,1.86,1.23,2.49l55.33,48.41h-87.77v-130.88c0-16.98,11.45-30.8,25.53-30.8h12.08l77.31,67.65c.73.63,1.68.95,2.64.89.96-.06,1.86-.51,2.49-1.23l12.04-13.76c1.32-1.51,1.17-3.81-.34-5.13l-55.33-48.41h87.77v130.87c0,16.99-11.45,30.81-25.53,30.81h-12.08l-77.31-67.65Z"/>
              <path class="cls-4" d="M924.88,551.89c.69-.83.97-1.93.77-3l-22.97-120.83c-2.65-13.97-10.53-26.75-22.2-36.01-12.14-9.62-27.64-14.92-43.66-14.92-32.39,0-60.09,21.29-65.87,50.63l-23.83,121.1c-.21,1.07.07,2.17.76,3.01.69.84,1.72,1.33,2.81,1.33h76.55c2.01,0,3.64-1.63,3.64-3.64v-80.91h11.02v80.91c0,2.01,1.63,3.64,3.64,3.64h76.55c1.08,0,2.11-.48,2.8-1.32ZM849.16,465.03c0-2.01-1.63-3.64-3.64-3.64h-18.29c-2.01,0-3.64,1.63-3.64,3.64v80.91h-68.49l22.98-116.77c5.1-25.94,29.8-44.77,58.73-44.77,14.38,0,28.28,4.74,39.14,13.35,10.3,8.17,17.25,19.42,19.57,31.67l22.15,116.52h-68.52v-80.91ZM849.16,448.67v-24.06c0-2.01-1.63-3.64-3.64-3.64h-18.29c-2.01,0-3.64,1.63-3.64,3.64v24.06c0,2.01,1.63,3.64,3.64,3.64h18.29c2.01,0,3.64-1.63,3.64-3.64ZM830.87,428.24h11.02v16.79h-11.02v-16.79Z"/>
              <path class="cls-4" d="M374.2,737.93v-49.33c0-2.01-1.63-3.64-3.64-3.64h-59.66c-26.7,0-48.42-23.74-48.42-52.92v-62.91c0-2.01-1.63-3.64-3.64-3.64h-59.75c-2.01,0-3.64,1.63-3.64,3.64v168.8c0,2.01,1.63,3.64,3.64,3.64h171.47c2.01,0,3.64-1.63,3.64-3.64ZM202.74,572.76h52.48v59.28c0,33.19,24.98,60.2,55.69,60.2h56.03v42.06h-164.19v-161.53Z"/>
              <path class="cls-4" d="M557.18,740.25c.69-.83.97-1.93.77-3l-22.97-120.83c-2.65-13.97-10.53-26.75-22.2-36.01-12.14-9.62-27.64-14.92-43.66-14.92-32.39,0-60.09,21.29-65.87,50.63l-23.83,121.1c-.21,1.07.07,2.17.76,3.01.69.84,1.72,1.33,2.81,1.33h76.55c2.01,0,3.64-1.63,3.64-3.64v-80.91h11.02v80.91c0,2.01,1.63,3.64,3.64,3.64h76.55c1.08,0,2.11-.48,2.8-1.32ZM481.46,653.38c0-2.01-1.63-3.64-3.64-3.64h-18.29c-2.01,0-3.64,1.63-3.64,3.64v80.91h-68.49l22.98-116.76c5.1-25.94,29.8-44.77,58.73-44.77,14.38,0,28.28,4.74,39.14,13.35,10.3,8.17,17.25,19.42,19.57,31.67l22.15,116.52h-68.52v-80.91ZM481.46,637.02v-24.06c0-2.01-1.63-3.64-3.64-3.64h-18.29c-2.01,0-3.64,1.63-3.64,3.64v24.06c0,2.01,1.63,3.64,3.64,3.64h18.29c2.01,0,3.64-1.63,3.64-3.64ZM463.18,616.59h11.02v16.79h-11.02v-16.79Z"/>
              <path class="cls-4" d="M551.85,176.36v-49.11c0-2.01-1.63-3.64-3.64-3.64h-126.15v-11.07h124.22c2.01,0,3.64-1.63,3.64-3.64v-34.04c0-2.01-1.63-3.64-3.64-3.64h-124.22v-11.44h126.15c2.01,0,3.64-1.63,3.64-3.64V7.41c0-2.01-1.63-3.64-3.64-3.64h-139.13c-19.79,0-35.89,17.59-35.89,39.22v97.79c0,21.63,16.1,39.22,35.89,39.22h139.13c2.01,0,3.64-1.63,3.64-3.64ZM544.58,11.04v41.47h-126.13c-2.01,0-3.64,1.63-3.64,3.64v1.31c-.02.14-.03.29-.03.43v14.9c0,.15,0,.29.03.43v1.64c0,2.01,1.63,3.64,3.64,3.64h124.19v26.77h-124.19c-2.01,0-3.64,1.63-3.64,3.64v1.63c-.02.14-.03.29-.03.43v14.07c0,.15,0,.29.03.43v1.77c0,2.01,1.63,3.64,3.64,3.64h126.13v41.84h-135.5c-15.78,0-28.62-14.33-28.62-31.95V42.99c0-17.62,12.84-31.95,28.62-31.95h135.5Z"/>
              <path class="cls-4" d="M367.64,141.92V7.41c0-2.01-1.63-3.64-3.64-3.64h-101.08c-1.51,0-2.87.94-3.4,2.36-.53,1.42-.13,3.02,1.01,4.02l59.87,52.39-7.25,8.29L237.55,4.67c-.66-.58-1.51-.9-2.39-.9h-13.45c-18.09,0-32.8,17.08-32.8,38.07v134.52c0,2.01,1.63,3.64,3.64,3.64h101.08c1.51,0,2.87-.94,3.4-2.36.53-1.42.13-3.02-1.01-4.02l-59.87-52.39,7.25-8.29,75.6,66.16c.66.58,1.51.9,2.39.9h13.45c18.09,0,32.8-17.08,32.8-38.08ZM245.45,105.07c-1.51-1.32-3.81-1.17-5.13.34l-12.04,13.76c-1.32,1.51-1.17,3.81.34,5.13l55.33,48.41h-87.77V41.84c0-16.98,11.45-30.8,25.53-30.8h12.08l77.31,67.65c1.51,1.32,3.81,1.17,5.13-.34l12.04-13.76c.63-.73.96-1.67.89-2.64-.06-.96-.51-1.86-1.23-2.49l-55.33-48.41h87.77v130.87c0,16.99-11.45,30.81-25.53,30.81h-12.08l-77.31-67.65Z"/>
              <path class="cls-4" d="M1296.87,176.36v-49.11c0-2.01-1.63-3.64-3.64-3.64h-126.15v-11.07h124.22c2.01,0,3.64-1.63,3.64-3.64v-34.04c0-2.01-1.63-3.64-3.64-3.64h-124.22v-11.44h126.15c2.01,0,3.64-1.63,3.64-3.64V7.41c0-2.01-1.63-3.64-3.64-3.64h-139.13c-19.79,0-35.89,17.59-35.89,39.22v97.79c0,21.63,16.1,39.22,35.89,39.22h139.13c2.01,0,3.64-1.63,3.64-3.64ZM1289.6,11.04v41.47h-126.13c-2.01,0-3.64,1.63-3.64,3.64v1.31c-.02.14-.03.29-.03.43v14.9c0,.15,0,.29.03.43v1.64c0,2.01,1.63,3.64,3.64,3.64h124.19v26.77h-124.19c-2.01,0-3.64,1.63-3.64,3.64v1.63c-.02.14-.03.29-.03.43v14.07c0,.15,0,.29.03.43v1.77c0,2.01,1.63,3.64,3.64,3.64h126.13v41.84h-135.5c-15.78,0-28.62-14.33-28.62-31.95V42.99c0-17.62,12.84-31.95,28.62-31.95h135.5Z"/>
              <path class="cls-4" d="M1112.66,141.92V7.41c0-2.01-1.63-3.64-3.64-3.64h-101.08c-1.51,0-2.87.94-3.4,2.36s-.13,3.02,1.01,4.02l59.87,52.39-7.25,8.29L982.57,4.67c-.66-.58-1.51-.9-2.39-.9h-13.45c-18.09,0-32.8,17.08-32.8,38.07v134.52c0,2.01,1.63,3.64,3.64,3.64h101.08c1.51,0,2.87-.94,3.4-2.36.53-1.42.13-3.02-1.01-4.02l-59.87-52.39,7.25-8.29,75.6,66.16c.66.58,1.51.9,2.39.9h13.45c18.09,0,32.8-17.08,32.8-38.08ZM990.47,105.07c-1.51-1.32-3.81-1.17-5.13.34l-12.04,13.76c-1.32,1.51-1.17,3.81.34,5.13l55.33,48.41h-87.77V41.84c0-16.98,11.45-30.8,25.53-30.8h12.08l77.31,67.65c1.51,1.32,3.81,1.17,5.13-.34l12.04-13.76c.63-.73.96-1.67.89-2.64-.06-.96-.51-1.86-1.23-2.49l-55.33-48.41h87.77v130.87c0,16.99-11.45,30.81-25.53,30.81h-12.08l-77.31-67.65Z"/>
              <path class="cls-4" d="M1112.48,364.8v-49.33c0-2.01-1.63-3.64-3.64-3.64h-59.66c-26.7,0-48.42-23.74-48.42-52.92v-62.91c0-2.01-1.63-3.64-3.64-3.64h-59.75c-2.01,0-3.64,1.63-3.64,3.64v168.8c0,2.01,1.63,3.64,3.64,3.64h171.47c2.01,0,3.64-1.63,3.64-3.64ZM941.02,199.63h52.48v59.28c0,33.19,24.98,60.2,55.69,60.2h56.03v42.06h-164.19v-161.53Z"/>
              <path class="cls-4" d="M1296.87,549.72v-49.11c0-2.01-1.63-3.64-3.64-3.64h-126.15v-11.07h124.22c2.01,0,3.64-1.63,3.64-3.64v-34.04c0-2.01-1.63-3.64-3.64-3.64h-124.22v-11.44h126.15c2.01,0,3.64-1.63,3.64-3.64v-48.75c0-2.01-1.63-3.64-3.64-3.64h-139.13c-19.79,0-35.89,17.59-35.89,39.22v97.79c0,21.62,16.1,39.22,35.89,39.22h139.13c2.01,0,3.64-1.63,3.64-3.64ZM1289.6,384.41v41.47h-126.13c-2.01,0-3.64,1.63-3.64,3.64v1.31c-.02.14-.03.29-.03.43v14.9c0,.15,0,.29.03.43v1.64c0,2.01,1.63,3.64,3.64,3.64h124.19v26.77h-124.19c-2.01,0-3.64,1.63-3.64,3.64v1.63c-.02.14-.03.29-.03.43v14.07c0,.15,0,.29.03.43v1.77c0,2.01,1.63,3.64,3.64,3.64h126.13v41.84h-135.5c-15.78,0-28.62-14.33-28.62-31.95v-97.79c0-17.62,12.84-31.95,28.62-31.95h135.5Z"/>
              <path class="cls-4" d="M1112.66,515.28v-134.51c0-2.01-1.63-3.64-3.64-3.64h-101.08c-1.51,0-2.87.94-3.4,2.36s-.13,3.02,1.01,4.02l59.87,52.39-7.25,8.29-75.6-66.16c-.66-.58-1.51-.9-2.39-.9h-13.45c-18.09,0-32.8,17.08-32.8,38.07v134.52c0,2.01,1.63,3.64,3.64,3.64h101.08c1.51,0,2.87-.94,3.4-2.36.53-1.42.13-3.02-1.01-4.02l-59.87-52.39,7.25-8.29,75.6,66.16c.66.58,1.51.9,2.39.9h13.45c18.09,0,32.8-17.08,32.8-38.08ZM990.47,478.44c-.73-.64-1.68-.95-2.64-.89-.96.06-1.86.51-2.49,1.23l-12.04,13.76c-1.32,1.51-1.17,3.81.34,5.13l55.33,48.41h-87.77v-130.88c0-16.98,11.45-30.8,25.53-30.8h12.08l77.31,67.65c1.51,1.32,3.81,1.17,5.13-.34l12.04-13.76c.63-.73.96-1.67.89-2.64-.06-.96-.51-1.86-1.23-2.49l-55.33-48.41h87.77v130.87c0,16.99-11.45,30.81-25.53,30.81h-12.08l-77.31-67.65Z"/>
              <path class="cls-4" d="M1295.46,367.12c.69-.83.97-1.93.77-3l-22.97-120.83c-2.65-13.97-10.53-26.76-22.2-36.01-12.14-9.62-27.64-14.92-43.66-14.92-32.39,0-60.09,21.29-65.87,50.63l-23.83,121.1c-.21,1.07.07,2.17.76,3.01.69.84,1.72,1.33,2.81,1.33h76.55c2.01,0,3.64-1.63,3.64-3.64v-80.91h11.02v80.91c0,2.01,1.63,3.64,3.64,3.64h76.55c1.08,0,2.11-.48,2.8-1.32ZM1219.75,280.25c0-2.01-1.63-3.64-3.64-3.64h-18.29c-2.01,0-3.64,1.63-3.64,3.64v80.91h-68.49l22.98-116.76c5.1-25.94,29.8-44.77,58.73-44.77,14.38,0,28.29,4.74,39.14,13.35,10.3,8.17,17.25,19.42,19.57,31.67l22.15,116.52h-68.52v-80.91ZM1219.75,263.89v-24.06c0-2.01-1.63-3.64-3.64-3.64h-18.29c-2.01,0-3.64,1.63-3.64,3.64v24.06c0,2.01,1.63,3.64,3.64,3.64h18.29c2.01,0,3.64-1.63,3.64-3.64ZM1201.46,243.46h11.02v16.79h-11.02v-16.79Z"/>
              <path class="cls-4" d="M368.94,364.8v-49.33c0-2.01-1.63-3.64-3.64-3.64h-59.66c-26.7,0-48.42-23.74-48.42-52.92v-62.91c0-2.01-1.63-3.64-3.64-3.64h-59.75c-2.01,0-3.64,1.63-3.64,3.64v168.8c0,2.01,1.63,3.64,3.64,3.64h171.47c2.01,0,3.64-1.63,3.64-3.64ZM197.47,199.63h52.48v59.28c0,33.19,24.98,60.2,55.69,60.2h56.03v42.06h-164.19v-161.53Z"/>
              <path class="cls-4" d="M553.33,549.72v-49.11c0-2.01-1.63-3.64-3.64-3.64h-126.15v-11.07h124.22c2.01,0,3.64-1.63,3.64-3.64v-34.04c0-2.01-1.63-3.64-3.64-3.64h-124.22v-11.44h126.15c2.01,0,3.64-1.63,3.64-3.64v-48.75c0-2.01-1.63-3.64-3.64-3.64h-139.13c-19.79,0-35.89,17.59-35.89,39.22v97.79c0,21.62,16.1,39.22,35.89,39.22h139.13c2.01,0,3.64-1.63,3.64-3.64ZM546.06,384.41v41.47h-126.13c-2.01,0-3.64,1.63-3.64,3.64v1.31c-.02.14-.03.29-.03.43v14.9c0,.15,0,.29.03.43v1.64c0,2.01,1.63,3.64,3.64,3.64h124.19v26.77h-124.19c-2.01,0-3.64,1.63-3.64,3.64v1.63c-.02.14-.03.29-.03.43v14.07c0,.15,0,.29.03.43v1.77c0,2.01,1.63,3.64,3.64,3.64h126.13v41.84h-135.5c-15.78,0-28.62-14.33-28.62-31.95v-97.79c0-17.62,12.84-31.95,28.62-31.95h135.5Z"/>
              <path class="cls-4" d="M369.11,515.28v-134.51c0-2.01-1.63-3.64-3.64-3.64h-101.08c-1.51,0-2.87.94-3.4,2.36s-.13,3.02,1.01,4.02l59.87,52.39-7.25,8.29-75.6-66.16c-.66-.58-1.51-.9-2.39-.9h-13.45c-18.09,0-32.8,17.08-32.8,38.07v134.52c0,2.01,1.63,3.64,3.64,3.64h101.08c1.51,0,2.87-.94,3.4-2.36.53-1.42.13-3.02-1.01-4.02l-59.87-52.39,7.25-8.29,75.6,66.16c.66.58,1.51.9,2.39.9h13.45c18.09,0,32.8-17.08,32.8-38.08ZM246.92,478.44c-.73-.64-1.68-.95-2.64-.89-.96.06-1.86.51-2.49,1.23l-12.04,13.76c-1.32,1.51-1.17,3.81.34,5.13l55.33,48.41h-87.77v-130.88c0-16.98,11.45-30.8,25.53-30.8h12.08l77.31,67.65c1.51,1.32,3.81,1.17,5.13-.34l12.04-13.76c.63-.73.96-1.67.89-2.64-.06-.96-.51-1.86-1.23-2.49l-55.33-48.41h87.77v130.87c0,16.99-11.45,30.81-25.53,30.81h-12.08l-77.31-67.65Z"/>
              <path class="cls-4" d="M551.92,367.12c.69-.83.97-1.93.77-3l-22.97-120.83c-2.65-13.97-10.53-26.76-22.2-36.01-12.14-9.62-27.64-14.92-43.66-14.92-32.39,0-60.09,21.29-65.87,50.63l-23.83,121.1c-.21,1.07.07,2.17.76,3.01.69.84,1.72,1.33,2.81,1.33h76.55c2.01,0,3.64-1.63,3.64-3.64v-80.91h11.02v80.91c0,2.01,1.63,3.64,3.64,3.64h76.55c1.08,0,2.11-.48,2.8-1.32ZM476.2,280.25c0-2.01-1.63-3.64-3.64-3.64h-18.29c-2.01,0-3.64,1.63-3.64,3.64v80.91h-68.49l22.98-116.76c5.1-25.94,29.8-44.77,58.73-44.77,14.38,0,28.29,4.74,39.14,13.35,10.3,8.17,17.25,19.42,19.57,31.67l22.15,116.52h-68.52v-80.91ZM476.2,263.89v-24.06c0-2.01-1.63-3.64-3.64-3.64h-18.29c-2.01,0-3.64,1.63-3.64,3.64v24.06c0,2.01,1.63,3.64,3.64,3.64h18.29c2.01,0,3.64-1.63,3.64-3.64ZM457.91,243.46h11.02v16.79h-11.02v-16.79Z"/>
              <path class="cls-4" d="M1119.22,737.93v-49.33c0-2.01-1.63-3.64-3.64-3.64h-59.66c-26.7,0-48.42-23.74-48.42-52.92v-62.91c0-2.01-1.63-3.64-3.64-3.64h-59.75c-2.01,0-3.64,1.63-3.64,3.64v168.8c0,2.01,1.63,3.64,3.64,3.64h171.47c2.01,0,3.64-1.63,3.64-3.64ZM947.76,572.76h52.48v59.28c0,33.19,24.98,60.2,55.69,60.2h56.03v42.06h-164.19v-161.53Z"/>
              <path class="cls-4" d="M1302.2,740.25c.69-.83.97-1.93.77-3l-22.97-120.83c-2.65-13.97-10.53-26.75-22.2-36.01-12.14-9.62-27.64-14.92-43.66-14.92-32.39,0-60.09,21.3-65.87,50.63l-23.83,121.1c-.21,1.07.07,2.17.76,3.01.69.84,1.72,1.33,2.81,1.33h76.55c2.01,0,3.64-1.63,3.64-3.64v-80.91h11.02v80.91c0,2.01,1.63,3.64,3.64,3.64h76.55c1.08,0,2.11-.48,2.8-1.32ZM1226.48,653.38c0-2.01-1.63-3.64-3.64-3.64h-18.29c-2.01,0-3.64,1.63-3.64,3.64v80.91h-68.49l22.98-116.77c5.1-25.94,29.8-44.77,58.73-44.77,14.38,0,28.28,4.74,39.14,13.35,10.3,8.17,17.25,19.42,19.57,31.67l22.15,116.52h-68.52v-80.91ZM1226.48,637.02v-24.06c0-2.01-1.63-3.64-3.64-3.64h-18.29c-2.01,0-3.64,1.63-3.64,3.64v24.06c0,2.01,1.63,3.64,3.64,3.64h18.29c2.01,0,3.64-1.63,3.64-3.64ZM1208.2,616.59h11.02v16.79h-11.02v-16.79Z"/>
              <path class="cls-4" d="M1483.54,176.21v-49.33c0-2.01-1.63-3.64-3.64-3.64h-59.66c-26.7,0-48.42-23.74-48.42-52.92V7.41c0-2.01-1.63-3.64-3.64-3.64h-59.75c-2.01,0-3.64,1.63-3.64,3.64v168.8c0,2.01,1.63,3.64,3.64,3.64h171.47c2.01,0,3.64-1.63,3.64-3.64ZM1312.07,11.04h52.48v59.28c0,33.19,24.98,60.2,55.69,60.2h56.03v42.06h-164.19V11.04Z"/>
              <path class="cls-4" d="M1667.93,364.95v-49.11c0-2.01-1.63-3.64-3.64-3.64h-126.16v-11.07h124.22c2.01,0,3.64-1.63,3.64-3.64v-34.04c0-2.01-1.63-3.64-3.64-3.64h-124.22v-11.44h126.16c2.01,0,3.64-1.63,3.64-3.64v-48.75c0-2.01-1.63-3.64-3.64-3.64h-139.14c-19.79,0-35.89,17.59-35.89,39.22v97.79c0,21.63,16.1,39.22,35.89,39.22h139.14c2.01,0,3.64-1.63,3.64-3.64ZM1660.65,199.63v41.47h-126.13c-2.01,0-3.64,1.63-3.64,3.64v1.31c-.02.14-.03.29-.03.43v14.9c0,.15,0,.29.03.43v1.64c0,2.01,1.63,3.64,3.64,3.64h124.19v26.77h-124.19c-2.01,0-3.64,1.63-3.64,3.64v1.63c-.02.14-.03.29-.03.43v14.07c0,.15,0,.29.03.43v1.77c0,2.01,1.63,3.64,3.64,3.64h126.13v41.84h-135.5c-15.78,0-28.62-14.33-28.62-31.95v-97.79c0-17.62,12.84-31.95,28.62-31.95h135.5Z"/>
              <path class="cls-4" d="M1483.71,330.5v-134.51c0-2.01-1.63-3.64-3.64-3.64h-101.08c-1.51,0-2.87.94-3.4,2.36-.53,1.42-.13,3.02,1.01,4.02l59.87,52.39-7.25,8.29-75.6-66.16c-.66-.58-1.51-.9-2.39-.9h-13.45c-18.09,0-32.8,17.08-32.8,38.07v134.52c0,2.01,1.63,3.64,3.64,3.64h101.08c1.51,0,2.87-.94,3.4-2.36s.13-3.02-1.01-4.02l-59.87-52.39,7.25-8.29,75.6,66.16c.66.58,1.51.9,2.39.9h13.45c18.09,0,32.8-17.08,32.8-38.08ZM1361.52,293.66c-1.51-1.32-3.81-1.17-5.13.34l-12.04,13.76c-.63.73-.96,1.67-.89,2.64.06.96.51,1.86,1.23,2.49l55.33,48.41h-87.77v-130.88c0-16.98,11.45-30.8,25.53-30.8h12.08l77.31,67.65c.73.63,1.68.95,2.64.89.96-.06,1.86-.51,2.49-1.23l12.04-13.76c1.32-1.51,1.17-3.81-.34-5.13l-55.33-48.41h87.77v130.87c0,16.99-11.45,30.81-25.53,30.81h-12.08l-77.31-67.65Z"/>
              <path class="cls-4" d="M1666.51,178.53c.69-.83.97-1.93.77-3l-22.97-120.83c-2.65-13.97-10.53-26.75-22.2-36.01-12.14-9.62-27.64-14.92-43.66-14.92-32.39,0-60.09,21.29-65.87,50.63l-23.83,121.1c-.21,1.07.07,2.17.76,3.01.69.84,1.72,1.33,2.81,1.33h76.55c2.01,0,3.64-1.63,3.64-3.64v-80.91h11.02v80.91c0,2.01,1.63,3.64,3.64,3.64h76.55c1.08,0,2.11-.48,2.8-1.32ZM1590.8,91.67c0-2.01-1.63-3.64-3.64-3.64h-18.29c-2.01,0-3.64,1.63-3.64,3.64v80.91h-68.49l22.98-116.76c5.1-25.94,29.8-44.77,58.73-44.77,14.38,0,28.28,4.74,39.14,13.35,10.3,8.17,17.25,19.42,19.57,31.67l22.15,116.52h-68.52v-80.91ZM1590.8,75.3v-24.06c0-2.01-1.63-3.64-3.64-3.64h-18.29c-2.01,0-3.64,1.63-3.64,3.64v24.06c0,2.01,1.63,3.64,3.64,3.64h18.29c2.01,0,3.64-1.63,3.64-3.64ZM1572.51,54.87h11.02v16.79h-11.02v-16.79Z"/>
              <path class="cls-4" d="M1483.54,549.57v-49.33c0-2.01-1.63-3.64-3.64-3.64h-59.66c-26.7,0-48.42-23.74-48.42-52.92v-62.91c0-2.01-1.63-3.64-3.64-3.64h-59.75c-2.01,0-3.64,1.63-3.64,3.64v168.8c0,2.01,1.63,3.64,3.64,3.64h171.47c2.01,0,3.64-1.63,3.64-3.64ZM1312.07,384.41h52.48v59.28c0,33.19,24.98,60.2,55.69,60.2h56.03v42.06h-164.19v-161.53Z"/>
              <path class="cls-4" d="M1667.93,737.93v-49.11c0-2.01-1.63-3.64-3.64-3.64h-126.16v-11.07h124.22c2.01,0,3.64-1.63,3.64-3.64v-34.04c0-2.01-1.63-3.64-3.64-3.64h-124.22v-11.44h126.16c2.01,0,3.64-1.63,3.64-3.64v-48.75c0-2.01-1.63-3.64-3.64-3.64h-139.14c-19.79,0-35.89,17.59-35.89,39.22v97.79c0,21.63,16.1,39.22,35.89,39.22h139.14c2.01,0,3.64-1.63,3.64-3.64ZM1660.65,572.61v41.47h-126.13c-2.01,0-3.64,1.63-3.64,3.64v1.31c-.02.14-.03.29-.03.43v14.9c0,.15,0,.29.03.43v1.64c0,2.01,1.63,3.64,3.64,3.64h124.19v26.77h-124.19c-2.01,0-3.64,1.63-3.64,3.64v1.63c-.02.14-.03.29-.03.43v14.07c0,.15,0,.29.03.43v1.77c0,2.01,1.63,3.64,3.64,3.64h126.13v41.84h-135.5c-15.78,0-28.62-14.33-28.62-31.95v-97.79c0-17.62,12.84-31.95,28.62-31.95h135.5Z"/>
              <path class="cls-4" d="M1483.71,703.49v-134.51c0-2.01-1.63-3.64-3.64-3.64h-101.08c-1.51,0-2.87.94-3.4,2.36-.53,1.42-.13,3.02,1.01,4.02l59.87,52.39-7.25,8.29-75.6-66.16c-.66-.58-1.51-.9-2.39-.9h-13.45c-18.09,0-32.8,17.08-32.8,38.07v134.52c0,2.01,1.63,3.64,3.64,3.64h101.08c1.51,0,2.87-.94,3.4-2.36.53-1.42.13-3.02-1.01-4.02l-59.87-52.39,7.25-8.29,75.6,66.16c.66.58,1.51.9,2.39.9h13.45c18.09,0,32.8-17.08,32.8-38.08ZM1361.52,666.64c-1.51-1.32-3.81-1.17-5.13.34l-12.04,13.76c-.63.73-.96,1.67-.89,2.64.06.96.51,1.86,1.23,2.49l55.33,48.41h-87.77v-130.88c0-16.98,11.45-30.8,25.53-30.8h12.08l77.31,67.65c.73.63,1.68.95,2.64.89.96-.06,1.86-.51,2.49-1.23l12.04-13.76c1.32-1.51,1.17-3.81-.34-5.13l-55.33-48.41h87.77v130.87c0,16.99-11.45,30.81-25.53,30.81h-12.08l-77.31-67.65Z"/>
              <path class="cls-4" d="M1666.51,551.89c.69-.83.97-1.93.77-3l-22.97-120.83c-2.65-13.97-10.53-26.75-22.2-36.01-12.14-9.62-27.64-14.92-43.66-14.92-32.39,0-60.09,21.29-65.87,50.63l-23.83,121.1c-.21,1.07.07,2.17.76,3.01.69.84,1.72,1.33,2.81,1.33h76.55c2.01,0,3.64-1.63,3.64-3.64v-80.91h11.02v80.91c0,2.01,1.63,3.64,3.64,3.64h76.55c1.08,0,2.11-.48,2.8-1.32ZM1590.8,465.03c0-2.01-1.63-3.64-3.64-3.64h-18.29c-2.01,0-3.64,1.63-3.64,3.64v80.91h-68.49l22.98-116.77c5.1-25.94,29.8-44.77,58.73-44.77,14.38,0,28.28,4.74,39.14,13.35,10.3,8.17,17.25,19.42,19.57,31.67l22.15,116.52h-68.52v-80.91ZM1590.8,448.67v-24.06c0-2.01-1.63-3.64-3.64-3.64h-18.29c-2.01,0-3.64,1.63-3.64,3.64v24.06c0,2.01,1.63,3.64,3.64,3.64h18.29c2.01,0,3.64-1.63,3.64-3.64ZM1572.51,428.24h11.02v16.79h-11.02v-16.79Z"/>
              <path class="cls-4" d="M2038.51,176.36v-49.11c0-2.01-1.63-3.64-3.64-3.64h-126.15v-11.07h124.22c2.01,0,3.64-1.63,3.64-3.64v-34.04c0-2.01-1.63-3.64-3.64-3.64h-124.22v-11.44h126.15c2.01,0,3.64-1.63,3.64-3.64V7.41c0-2.01-1.63-3.64-3.64-3.64h-139.13c-19.79,0-35.89,17.59-35.89,39.22v97.79c0,21.63,16.1,39.22,35.89,39.22h139.13c2.01,0,3.64-1.63,3.64-3.64ZM2031.24,11.04v41.47h-126.13c-2.01,0-3.64,1.63-3.64,3.64v1.31c-.02.14-.03.29-.03.43v14.9c0,.15,0,.29.03.43v1.64c0,2.01,1.63,3.64,3.64,3.64h124.19v26.77h-124.19c-2.01,0-3.64,1.63-3.64,3.64v1.63c-.02.14-.03.29-.03.43v14.07c0,.15,0,.29.03.43v1.77c0,2.01,1.63,3.64,3.64,3.64h126.13v41.84h-135.5c-15.78,0-28.62-14.33-28.62-31.95V42.99c0-17.62,12.84-31.95,28.62-31.95h135.5Z"/>
              <path class="cls-4" d="M1854.3,141.92V7.41c0-2.01-1.63-3.64-3.64-3.64h-101.08c-1.51,0-2.87.94-3.4,2.36-.53,1.42-.13,3.02,1.01,4.02l59.87,52.39-7.25,8.29-75.6-66.16c-.66-.58-1.51-.9-2.39-.9h-13.45c-18.09,0-32.8,17.08-32.8,38.07v134.52c0,2.01,1.63,3.64,3.64,3.64h101.08c1.51,0,2.87-.94,3.4-2.36s.13-3.02-1.01-4.02l-59.87-52.39,7.25-8.29,75.6,66.16c.66.58,1.51.9,2.39.9h13.45c18.09,0,32.8-17.08,32.8-38.08ZM1732.1,105.07c-1.51-1.32-3.81-1.17-5.13.34l-12.04,13.76c-1.32,1.51-1.17,3.81.34,5.13l55.33,48.41h-87.77V41.84c0-16.98,11.45-30.8,25.53-30.8h12.08l77.31,67.65c1.51,1.32,3.81,1.17,5.13-.34l12.04-13.76c.63-.73.96-1.67.89-2.64-.06-.96-.51-1.86-1.23-2.49l-55.33-48.41h87.77v130.87c0,16.99-11.45,30.81-25.53,30.81h-12.08l-77.31-67.65Z"/>
              <path class="cls-4" d="M1854.12,364.8v-49.33c0-2.01-1.63-3.64-3.64-3.64h-59.66c-26.7,0-48.42-23.74-48.42-52.92v-62.91c0-2.01-1.63-3.64-3.64-3.64h-59.75c-2.01,0-3.64,1.63-3.64,3.64v168.8c0,2.01,1.63,3.64,3.64,3.64h171.47c2.01,0,3.64-1.63,3.64-3.64ZM1682.65,199.63h52.48v59.28c0,33.19,24.98,60.2,55.69,60.2h56.03v42.06h-164.19v-161.53Z"/>
              <path class="cls-4" d="M2038.51,549.72v-49.11c0-2.01-1.63-3.64-3.64-3.64h-126.15v-11.07h124.22c2.01,0,3.64-1.63,3.64-3.64v-34.04c0-2.01-1.63-3.64-3.64-3.64h-124.22v-11.44h126.15c2.01,0,3.64-1.63,3.64-3.64v-48.75c0-2.01-1.63-3.64-3.64-3.64h-139.13c-19.79,0-35.89,17.59-35.89,39.22v97.79c0,21.62,16.1,39.22,35.89,39.22h139.13c2.01,0,3.64-1.63,3.64-3.64ZM2031.24,384.41v41.47h-126.13c-2.01,0-3.64,1.63-3.64,3.64v1.31c-.02.14-.03.29-.03.43v14.9c0,.15,0,.29.03.43v1.64c0,2.01,1.63,3.64,3.64,3.64h124.19v26.77h-124.19c-2.01,0-3.64,1.63-3.64,3.64v1.63c-.02.14-.03.29-.03.43v14.07c0,.15,0,.29.03.43v1.77c0,2.01,1.63,3.64,3.64,3.64h126.13v41.84h-135.5c-15.78,0-28.62-14.33-28.62-31.95v-97.79c0-17.62,12.84-31.95,28.62-31.95h135.5Z"/>
              <path class="cls-4" d="M1854.3,515.28v-134.51c0-2.01-1.63-3.64-3.64-3.64h-101.08c-1.51,0-2.87.94-3.4,2.36-.53,1.42-.13,3.02,1.01,4.02l59.87,52.39-7.25,8.29-75.6-66.16c-.66-.58-1.51-.9-2.39-.9h-13.45c-18.09,0-32.8,17.08-32.8,38.07v134.52c0,2.01,1.63,3.64,3.64,3.64h101.08c1.51,0,2.87-.94,3.4-2.36s.13-3.02-1.01-4.02l-59.87-52.39,7.25-8.29,75.6,66.16c.66.58,1.51.9,2.39.9h13.45c18.09,0,32.8-17.08,32.8-38.08ZM1732.1,478.44c-.73-.64-1.68-.95-2.64-.89-.96.06-1.86.51-2.49,1.23l-12.04,13.76c-1.32,1.51-1.17,3.81.34,5.13l55.33,48.41h-87.77v-130.88c0-16.98,11.45-30.8,25.53-30.8h12.08l77.31,67.65c1.51,1.32,3.81,1.17,5.13-.34l12.04-13.76c.63-.73.96-1.67.89-2.64-.06-.96-.51-1.86-1.23-2.49l-55.33-48.41h87.77v130.87c0,16.99-11.45,30.81-25.53,30.81h-12.08l-77.31-67.65Z"/>
              <path class="cls-4" d="M2037.1,367.12c.69-.83.97-1.93.77-3l-22.97-120.83c-2.65-13.97-10.53-26.76-22.2-36.01-12.14-9.62-27.64-14.92-43.66-14.92-32.39,0-60.09,21.29-65.87,50.63l-23.83,121.1c-.21,1.07.07,2.17.76,3.01.69.84,1.72,1.33,2.81,1.33h76.55c2.01,0,3.64-1.63,3.64-3.64v-80.91h11.02v80.91c0,2.01,1.63,3.64,3.64,3.64h76.55c1.08,0,2.11-.48,2.8-1.32ZM1961.38,280.25c0-2.01-1.63-3.64-3.64-3.64h-18.29c-2.01,0-3.64,1.63-3.64,3.64v80.91h-68.49l22.98-116.76c5.1-25.94,29.8-44.77,58.73-44.77,14.38,0,28.29,4.74,39.14,13.35,10.3,8.17,17.25,19.42,19.57,31.67l22.15,116.52h-68.52v-80.91ZM1961.38,263.89v-24.06c0-2.01-1.63-3.64-3.64-3.64h-18.29c-2.01,0-3.64,1.63-3.64,3.64v24.06c0,2.01,1.63,3.64,3.64,3.64h18.29c2.01,0,3.64-1.63,3.64-3.64ZM1943.09,243.46h11.02v16.79h-11.02v-16.79Z"/>
              <path class="cls-4" d="M1860.86,737.93v-49.33c0-2.01-1.63-3.64-3.64-3.64h-59.66c-26.7,0-48.42-23.74-48.42-52.92v-62.91c0-2.01-1.63-3.64-3.64-3.64h-59.75c-2.01,0-3.64,1.63-3.64,3.64v168.8c0,2.01,1.63,3.64,3.64,3.64h171.47c2.01,0,3.64-1.63,3.64-3.64ZM1689.39,572.76h52.48v59.28c0,33.19,24.98,60.2,55.69,60.2h56.03v42.06h-164.19v-161.53Z"/>
              <path class="cls-4" d="M2043.84,740.25c.69-.83.97-1.93.77-3l-22.97-120.83c-2.65-13.97-10.53-26.75-22.2-36.01-12.14-9.62-27.64-14.92-43.66-14.92-32.39,0-60.09,21.3-65.87,50.63l-23.83,121.1c-.21,1.07.07,2.17.76,3.01.69.84,1.72,1.33,2.81,1.33h76.55c2.01,0,3.64-1.63,3.64-3.64v-80.91h11.02v80.91c0,2.01,1.63,3.64,3.64,3.64h76.55c1.08,0,2.11-.48,2.8-1.32ZM1968.12,653.38c0-2.01-1.63-3.64-3.64-3.64h-18.29c-2.01,0-3.64,1.63-3.64,3.64v80.91h-68.49l22.98-116.77c5.1-25.94,29.8-44.77,58.73-44.77,14.38,0,28.28,4.74,39.14,13.35,10.3,8.17,17.25,19.42,19.57,31.67l22.15,116.52h-68.52v-80.91ZM1968.12,637.02v-24.06c0-2.01-1.63-3.64-3.64-3.64h-18.29c-2.01,0-3.64,1.63-3.64,3.64v24.06c0,2.01,1.63,3.64,3.64,3.64h18.29c2.01,0,3.64-1.63,3.64-3.64ZM1949.83,616.59h11.02v16.79h-11.02v-16.79Z"/>
              <path class="cls-4" d="M-187.08,176.36v-49.11c0-2.01-1.63-3.64-3.64-3.64h-126.15v-11.07h124.22c2.01,0,3.64-1.63,3.64-3.64v-34.04c0-2.01-1.63-3.64-3.64-3.64h-124.22v-11.44h126.15c2.01,0,3.64-1.63,3.64-3.64V7.41c0-2.01-1.63-3.64-3.64-3.64h-139.13c-19.79,0-35.89,17.59-35.89,39.22v97.79c0,21.63,16.1,39.22,35.89,39.22h139.13c2.01,0,3.64-1.63,3.64-3.64ZM-194.35,11.04v41.47h-126.13c-2.01,0-3.64,1.63-3.64,3.64v1.31c-.02.14-.03.29-.03.43v14.9c0,.15,0,.29.03.43v1.64c0,2.01,1.63,3.64,3.64,3.64h124.19v26.77h-124.19c-2.01,0-3.64,1.63-3.64,3.64v1.63c-.02.14-.03.29-.03.43v14.07c0,.15,0,.29.03.43v1.77c0,2.01,1.63,3.64,3.64,3.64h126.13v41.84h-135.5c-15.78,0-28.62-14.33-28.62-31.95V42.99c0-17.62,12.84-31.95,28.62-31.95h135.5Z"/>
              <path class="cls-4" d="M-371.29,141.92V7.41c0-2.01-1.63-3.64-3.64-3.64h-101.08c-1.51,0-2.87.94-3.4,2.36-.53,1.42-.13,3.02,1.01,4.02l59.87,52.39-7.25,8.29L-501.39,4.67c-.66-.58-1.51-.9-2.39-.9h-13.45c-18.09,0-32.8,17.08-32.8,38.07v134.52c0,2.01,1.63,3.64,3.64,3.64h101.08c1.51,0,2.87-.94,3.4-2.36.53-1.42.13-3.02-1.01-4.02l-59.87-52.39,7.25-8.29,75.6,66.16c.66.58,1.51.9,2.39.9h13.45c18.09,0,32.8-17.08,32.8-38.08ZM-493.48,105.07c-1.51-1.32-3.81-1.17-5.13.34l-12.04,13.76c-1.32,1.51-1.17,3.81.34,5.13l55.33,48.41h-87.77V41.84c0-16.98,11.45-30.8,25.53-30.8h12.08l77.31,67.65c1.51,1.32,3.81,1.17,5.13-.34l12.04-13.76c.63-.73.96-1.67.89-2.64-.06-.96-.51-1.86-1.23-2.49l-55.33-48.41h87.77v130.87c0,16.99-11.45,30.81-25.53,30.81h-12.08l-77.31-67.65Z"/>
              <path class="cls-4" d="M-371.47,364.8v-49.33c0-2.01-1.63-3.64-3.64-3.64h-59.66c-26.7,0-48.42-23.74-48.42-52.92v-62.91c0-2.01-1.63-3.64-3.64-3.64h-59.75c-2.01,0-3.64,1.63-3.64,3.64v168.8c0,2.01,1.63,3.64,3.64,3.64h171.47c2.01,0,3.64-1.63,3.64-3.64ZM-542.93,199.63h52.48v59.28c0,33.19,24.98,60.2,55.69,60.2h56.03v42.06h-164.19v-161.53Z"/>
              <path class="cls-4" d="M-187.08,549.72v-49.11c0-2.01-1.63-3.64-3.64-3.64h-126.15v-11.07h124.22c2.01,0,3.64-1.63,3.64-3.64v-34.04c0-2.01-1.63-3.64-3.64-3.64h-124.22v-11.44h126.15c2.01,0,3.64-1.63,3.64-3.64v-48.75c0-2.01-1.63-3.64-3.64-3.64h-139.13c-19.79,0-35.89,17.59-35.89,39.22v97.79c0,21.62,16.1,39.22,35.89,39.22h139.13c2.01,0,3.64-1.63,3.64-3.64ZM-194.35,384.41v41.47h-126.13c-2.01,0-3.64,1.63-3.64,3.64v1.31c-.02.14-.03.29-.03.43v14.9c0,.15,0,.29.03.43v1.64c0,2.01,1.63,3.64,3.64,3.64h124.19v26.77h-124.19c-2.01,0-3.64,1.63-3.64,3.64v1.63c-.02.14-.03.29-.03.43v14.07c0,.15,0,.29.03.43v1.77c0,2.01,1.63,3.64,3.64,3.64h126.13v41.84h-135.5c-15.78,0-28.62-14.33-28.62-31.95v-97.79c0-17.62,12.84-31.95,28.62-31.95h135.5Z"/>
              <path class="cls-4" d="M-371.29,515.28v-134.51c0-2.01-1.63-3.64-3.64-3.64h-101.08c-1.51,0-2.87.94-3.4,2.36-.53,1.42-.13,3.02,1.01,4.02l59.87,52.39-7.25,8.29-75.6-66.16c-.66-.58-1.51-.9-2.39-.9h-13.45c-18.09,0-32.8,17.08-32.8,38.07v134.52c0,2.01,1.63,3.64,3.64,3.64h101.08c1.51,0,2.87-.94,3.4-2.36.53-1.42.13-3.02-1.01-4.02l-59.87-52.39,7.25-8.29,75.6,66.16c.66.58,1.51.9,2.39.9h13.45c18.09,0,32.8-17.08,32.8-38.08ZM-493.48,478.44c-.73-.64-1.68-.95-2.64-.89-.96.06-1.86.51-2.49,1.23l-12.04,13.76c-1.32,1.51-1.17,3.81.34,5.13l55.33,48.41h-87.77v-130.88c0-16.98,11.45-30.8,25.53-30.8h12.08l77.31,67.65c1.51,1.32,3.81,1.17,5.13-.34l12.04-13.76c.63-.73.96-1.67.89-2.64-.06-.96-.51-1.86-1.23-2.49l-55.33-48.41h87.77v130.87c0,16.99-11.45,30.81-25.53,30.81h-12.08l-77.31-67.65Z"/>
              <path class="cls-4" d="M-188.49,367.12c.69-.83.97-1.93.77-3l-22.97-120.83c-2.65-13.97-10.53-26.76-22.2-36.01-12.14-9.62-27.64-14.92-43.66-14.92-32.39,0-60.09,21.29-65.87,50.63l-23.83,121.1c-.21,1.07.07,2.17.76,3.01.69.84,1.72,1.33,2.81,1.33h76.55c2.01,0,3.64-1.63,3.64-3.64v-80.91h11.02v80.91c0,2.01,1.63,3.64,3.64,3.64h76.55c1.08,0,2.11-.48,2.8-1.32ZM-264.21,280.25c0-2.01-1.63-3.64-3.64-3.64h-18.29c-2.01,0-3.64,1.63-3.64,3.64v80.91h-68.49l22.98-116.76c5.1-25.94,29.8-44.77,58.73-44.77,14.38,0,28.29,4.74,39.14,13.35,10.3,8.17,17.25,19.42,19.57,31.67l22.15,116.52h-68.52v-80.91ZM-264.21,263.89v-24.06c0-2.01-1.63-3.64-3.64-3.64h-18.29c-2.01,0-3.64,1.63-3.64,3.64v24.06c0,2.01,1.63,3.64,3.64,3.64h18.29c2.01,0,3.64-1.63,3.64-3.64ZM-282.49,243.46h11.02v16.79h-11.02v-16.79Z"/>
              <path class="cls-4" d="M-364.73,737.93v-49.33c0-2.01-1.63-3.64-3.64-3.64h-59.66c-26.7,0-48.42-23.74-48.42-52.92v-62.91c0-2.01-1.63-3.64-3.64-3.64h-59.75c-2.01,0-3.64,1.63-3.64,3.64v168.8c0,2.01,1.63,3.64,3.64,3.64h171.47c2.01,0,3.64-1.63,3.64-3.64ZM-536.19,572.76h52.48v59.28c0,33.19,24.98,60.2,55.69,60.2h56.03v42.06h-164.19v-161.53Z"/>
              <path class="cls-4" d="M-181.75,740.25c.69-.83.97-1.93.77-3l-22.97-120.83c-2.65-13.97-10.53-26.75-22.2-36.01-12.14-9.62-27.64-14.92-43.66-14.92-32.39,0-60.09,21.3-65.87,50.63l-23.83,121.1c-.21,1.07.07,2.17.76,3.01.69.84,1.72,1.33,2.81,1.33h76.55c2.01,0,3.64-1.63,3.64-3.64v-80.91h11.02v80.91c0,2.01,1.63,3.64,3.64,3.64h76.55c1.08,0,2.11-.48,2.8-1.32ZM-257.47,653.38c0-2.01-1.63-3.64-3.64-3.64h-18.29c-2.01,0-3.64,1.63-3.64,3.64v80.91h-68.49l22.98-116.77c5.1-25.94,29.8-44.77,58.73-44.77,14.38,0,28.28,4.74,39.14,13.35,10.3,8.17,17.25,19.42,19.57,31.67l22.15,116.52h-68.52v-80.91ZM-257.47,637.02v-24.06c0-2.01-1.63-3.64-3.64-3.64h-18.29c-2.01,0-3.64,1.63-3.64,3.64v24.06c0,2.01,1.63,3.64,3.64,3.64h18.29c2.01,0,3.64-1.63,3.64-3.64ZM-275.76,616.59h11.02v16.79h-11.02v-16.79Z"/>
              <path class="cls-4" d="M4.58,549.57v-49.33c0-2.01-1.63-3.64-3.64-3.64h-59.66c-26.7,0-48.42-23.74-48.42-52.92v-62.91c0-2.01-1.63-3.64-3.64-3.64h-59.75c-2.01,0-3.64,1.63-3.64,3.64v168.8c0,2.01,1.63,3.64,3.64,3.64H.94c2.01,0,3.64-1.63,3.64-3.64ZM-166.89,384.41h52.48v59.28c0,33.19,24.98,60.2,55.69,60.2H-2.69v42.06h-164.19v-161.53Z"/>
              <path class="cls-4" d="M188.97,737.93v-49.11c0-2.01-1.63-3.64-3.64-3.64H59.18v-11.07h124.22c2.01,0,3.64-1.63,3.64-3.64v-34.04c0-2.01-1.63-3.64-3.64-3.64H59.18v-11.44h126.16c2.01,0,3.64-1.63,3.64-3.64v-48.75c0-2.01-1.63-3.64-3.64-3.64H46.2c-19.79,0-35.89,17.59-35.89,39.22v97.79c0,21.63,16.1,39.22,35.89,39.22h139.14c2.01,0,3.64-1.63,3.64-3.64ZM181.7,572.61v41.47H55.57c-2.01,0-3.64,1.63-3.64,3.64v1.31c-.02.14-.03.29-.03.43v14.9c0,.15,0,.29.03.43v1.64c0,2.01,1.63,3.64,3.64,3.64h124.19v26.77H55.57c-2.01,0-3.64,1.63-3.64,3.64v1.63c-.02.14-.03.29-.03.43v14.07c0,.15,0,.29.03.43v1.77c0,2.01,1.63,3.64,3.64,3.64h126.13v41.84H46.2c-15.78,0-28.62-14.33-28.62-31.95v-97.79c0-17.62,12.84-31.95,28.62-31.95h135.5Z"/>
              <path class="cls-4" d="M4.75,703.49v-134.51c0-2.01-1.63-3.64-3.64-3.64h-101.08c-1.51,0-2.87.94-3.4,2.36-.53,1.42-.13,3.02,1.01,4.02l59.87,52.39-7.25,8.29-75.6-66.16c-.66-.58-1.51-.9-2.39-.9h-13.45c-18.09,0-32.8,17.08-32.8,38.07v134.52c0,2.01,1.63,3.64,3.64,3.64h101.08c1.51,0,2.87-.94,3.4-2.36.53-1.42.13-3.02-1.01-4.02l-59.87-52.39,7.25-8.29,75.6,66.16c.66.58,1.51.9,2.39.9h13.45c18.09,0,32.8-17.08,32.8-38.08ZM-117.44,666.64c-1.51-1.32-3.81-1.17-5.13.34l-12.04,13.76c-1.32,1.51-1.17,3.81.34,5.13l55.33,48.41h-87.77v-130.88c0-16.98,11.45-30.8,25.53-30.8h12.08l77.31,67.65c1.51,1.32,3.81,1.17,5.13-.34l12.04-13.76c1.32-1.51,1.17-3.81-.34-5.13l-55.33-48.41H-2.52v130.87c0,16.99-11.45,30.81-25.53,30.81h-12.08l-77.31-67.65Z"/>
              <path class="cls-4" d="M187.56,551.89c.69-.83.97-1.93.77-3l-22.97-120.83c-2.65-13.97-10.53-26.75-22.2-36.01-12.14-9.62-27.64-14.92-43.66-14.92-32.39,0-60.09,21.29-65.87,50.63l-23.83,121.1c-.21,1.07.07,2.17.76,3.01.69.84,1.72,1.33,2.81,1.33h76.55c2.01,0,3.64-1.63,3.64-3.64v-80.91h11.02v80.91c0,2.01,1.63,3.64,3.64,3.64h76.55c1.08,0,2.11-.48,2.8-1.32ZM111.84,465.03c0-2.01-1.63-3.64-3.64-3.64h-18.29c-2.01,0-3.64,1.63-3.64,3.64v80.91H17.79l22.98-116.77c5.1-25.94,29.8-44.77,58.73-44.77,14.38,0,28.28,4.74,39.14,13.35,10.3,8.17,17.25,19.42,19.57,31.67l22.15,116.52h-68.52v-80.91ZM111.84,448.67v-24.06c0-2.01-1.63-3.64-3.64-3.64h-18.29c-2.01,0-3.64,1.63-3.64,3.64v24.06c0,2.01,1.63,3.64,3.64,3.64h18.29c2.01,0,3.64-1.63,3.64-3.64ZM93.55,428.24h11.02v16.79h-11.02v-16.79Z"/>
              <path class="cls-4" d="M-746.14,176.21v-49.33c0-2.01-1.63-3.64-3.64-3.64h-59.66c-26.7,0-48.42-23.74-48.42-52.92V7.41c0-2.01-1.63-3.64-3.64-3.64h-59.75c-2.01,0-3.64,1.63-3.64,3.64v168.8c0,2.01,1.63,3.64,3.64,3.64h171.47c2.01,0,3.64-1.63,3.64-3.64ZM-917.61,11.04h52.48v59.28c0,33.19,24.98,60.2,55.69,60.2h56.03v42.06h-164.19V11.04Z"/>
              <path class="cls-4" d="M-561.75,364.95v-49.11c0-2.01-1.63-3.64-3.64-3.64h-126.16v-11.07h124.22c2.01,0,3.64-1.63,3.64-3.64v-34.04c0-2.01-1.63-3.64-3.64-3.64h-124.22v-11.44h126.16c2.01,0,3.64-1.63,3.64-3.64v-48.75c0-2.01-1.63-3.64-3.64-3.64h-139.14c-19.79,0-35.89,17.59-35.89,39.22v97.79c0,21.63,16.1,39.22,35.89,39.22h139.14c2.01,0,3.64-1.63,3.64-3.64ZM-569.03,199.63v41.47h-126.13c-2.01,0-3.64,1.63-3.64,3.64v1.31c-.02.14-.03.29-.03.43v14.9c0,.15,0,.29.03.43v1.64c0,2.01,1.63,3.64,3.64,3.64h124.19v26.77h-124.19c-2.01,0-3.64,1.63-3.64,3.64v1.63c-.02.14-.03.29-.03.43v14.07c0,.15,0,.29.03.43v1.77c0,2.01,1.63,3.64,3.64,3.64h126.13v41.84h-135.5c-15.78,0-28.62-14.33-28.62-31.95v-97.79c0-17.62,12.84-31.95,28.62-31.95h135.5Z"/>
              <path class="cls-4" d="M-745.97,330.5v-134.51c0-2.01-1.63-3.64-3.64-3.64h-101.08c-1.51,0-2.87.94-3.4,2.36-.53,1.42-.13,3.02,1.01,4.02l59.87,52.39-7.25,8.29-75.6-66.16c-.66-.58-1.51-.9-2.39-.9h-13.45c-18.09,0-32.8,17.08-32.8,38.07v134.52c0,2.01,1.63,3.64,3.64,3.64h101.08c1.51,0,2.87-.94,3.4-2.36s.13-3.02-1.01-4.02l-59.87-52.39,7.25-8.29,75.6,66.16c.66.58,1.51.9,2.39.9h13.45c18.09,0,32.8-17.08,32.8-38.08ZM-868.16,293.66c-1.51-1.32-3.81-1.17-5.13.34l-12.04,13.76c-.63.73-.96,1.67-.89,2.64.06.96.51,1.86,1.23,2.49l55.33,48.41h-87.77v-130.88c0-16.98,11.45-30.8,25.53-30.8h12.08l77.31,67.65c.73.63,1.68.95,2.64.89.96-.06,1.86-.51,2.49-1.23l12.04-13.76c1.32-1.51,1.17-3.81-.34-5.13l-55.33-48.41h87.77v130.87c0,16.99-11.45,30.81-25.53,30.81h-12.08l-77.31-67.65Z"/>
              <path class="cls-4" d="M-563.17,178.53c.69-.83.97-1.93.77-3l-22.97-120.83c-2.65-13.97-10.53-26.75-22.2-36.01-12.14-9.62-27.64-14.92-43.66-14.92-32.39,0-60.09,21.29-65.87,50.63l-23.83,121.1c-.21,1.07.07,2.17.76,3.01.69.84,1.72,1.33,2.81,1.33h76.55c2.01,0,3.64-1.63,3.64-3.64v-80.91h11.02v80.91c0,2.01,1.63,3.64,3.64,3.64h76.55c1.08,0,2.11-.48,2.8-1.32ZM-638.88,91.66c0-2.01-1.63-3.64-3.64-3.64h-18.29c-2.01,0-3.64,1.63-3.64,3.64v80.91h-68.49l22.98-116.77c5.1-25.94,29.8-44.77,58.73-44.77,14.38,0,28.28,4.74,39.14,13.35,10.3,8.17,17.25,19.42,19.57,31.67l22.15,116.52h-68.52v-80.91ZM-638.88,75.3v-24.06c0-2.01-1.63-3.64-3.64-3.64h-18.29c-2.01,0-3.64,1.63-3.64,3.64v24.06c0,2.01,1.63,3.64,3.64,3.64h18.29c2.01,0,3.64-1.63,3.64-3.64ZM-657.17,54.87h11.02v16.79h-11.02v-16.79Z"/>
              <path class="cls-4" d="M-931.54,176.36v-49.11c0-2.01-1.63-3.64-3.64-3.64h-126.15v-11.07h124.22c2.01,0,3.64-1.63,3.64-3.64v-34.04c0-2.01-1.63-3.64-3.64-3.64h-124.22v-11.44h126.15c2.01,0,3.64-1.63,3.64-3.64V7.41c0-2.01-1.63-3.64-3.64-3.64h-139.13c-19.79,0-35.89,17.59-35.89,39.22v97.79c0,21.63,16.1,39.22,35.89,39.22h139.13c2.01,0,3.64-1.63,3.64-3.64ZM-938.82,11.04v41.47h-126.13c-2.01,0-3.64,1.63-3.64,3.64v1.31c-.02.14-.03.29-.03.43v14.9c0,.15,0,.29.03.43v1.64c0,2.01,1.63,3.64,3.64,3.64h124.19v26.77h-124.19c-2.01,0-3.64,1.63-3.64,3.64v1.63c-.02.14-.03.29-.03.43v14.07c0,.15,0,.29.03.43v1.77c0,2.01,1.63,3.64,3.64,3.64h126.13v41.84h-135.5c-15.78,0-28.62-14.33-28.62-31.95V42.99c0-17.62,12.84-31.95,28.62-31.95h135.5Z"/>
              <path class="cls-4" d="M-1115.76,141.92V7.41c0-2.01-1.63-3.64-3.64-3.64h-101.08c-1.51,0-2.87.94-3.4,2.36-.53,1.42-.13,3.02,1.01,4.02l59.87,52.39-7.25,8.29-75.6-66.16c-.66-.58-1.51-.9-2.39-.9h-13.45c-18.09,0-32.8,17.08-32.8,38.07v134.52c0,2.01,1.63,3.64,3.64,3.64h101.08c1.51,0,2.87-.94,3.4-2.36s.13-3.02-1.01-4.02l-59.87-52.39,7.25-8.29,75.6,66.16c.66.58,1.51.9,2.39.9h13.45c18.09,0,32.8-17.08,32.8-38.08ZM-1237.95,105.07c-1.51-1.32-3.81-1.17-5.13.34l-12.04,13.76c-1.32,1.51-1.17,3.81.34,5.13l55.33,48.41h-87.77V41.84c0-16.98,11.45-30.8,25.53-30.8h12.08l77.31,67.65c1.51,1.32,3.81,1.17,5.13-.34l12.04-13.76c.63-.73.96-1.67.89-2.64-.06-.96-.51-1.86-1.23-2.49l-55.33-48.41h87.77v130.87c0,16.99-11.45,30.81-25.53,30.81h-12.08l-77.31-67.65Z"/>
              <path class="cls-4" d="M-1115.93,364.8v-49.33c0-2.01-1.63-3.64-3.64-3.64h-59.66c-26.7,0-48.42-23.74-48.42-52.92v-62.91c0-2.01-1.63-3.64-3.64-3.64h-59.75c-2.01,0-3.64,1.63-3.64,3.64v168.8c0,2.01,1.63,3.64,3.64,3.64h171.47c2.01,0,3.64-1.63,3.64-3.64ZM-1287.4,199.63h52.48v59.28c0,33.19,24.98,60.2,55.69,60.2h56.03v42.06h-164.19v-161.53Z"/>
              <path class="cls-4" d="M-931.54,549.72v-49.11c0-2.01-1.63-3.64-3.64-3.64h-126.15v-11.07h124.22c2.01,0,3.64-1.63,3.64-3.64v-34.04c0-2.01-1.63-3.64-3.64-3.64h-124.22v-11.44h126.15c2.01,0,3.64-1.63,3.64-3.64v-48.75c0-2.01-1.63-3.64-3.64-3.64h-139.13c-19.79,0-35.89,17.59-35.89,39.22v97.79c0,21.62,16.1,39.22,35.89,39.22h139.13c2.01,0,3.64-1.63,3.64-3.64ZM-938.82,384.41v41.47h-126.13c-2.01,0-3.64,1.63-3.64,3.64v1.31c-.02.14-.03.29-.03.43v14.9c0,.15,0,.29.03.43v1.64c0,2.01,1.63,3.64,3.64,3.64h124.19v26.77h-124.19c-2.01,0-3.64,1.63-3.64,3.64v1.63c-.02.14-.03.29-.03.43v14.07c0,.15,0,.29.03.43v1.77c0,2.01,1.63,3.64,3.64,3.64h126.13v41.84h-135.5c-15.78,0-28.62-14.33-28.62-31.95v-97.79c0-17.62,12.84-31.95,28.62-31.95h135.5Z"/>
              <path class="cls-4" d="M-1115.76,515.28v-134.51c0-2.01-1.63-3.64-3.64-3.64h-101.08c-1.51,0-2.87.94-3.4,2.36-.53,1.42-.13,3.02,1.01,4.02l59.87,52.39-7.25,8.29-75.6-66.16c-.66-.58-1.51-.9-2.39-.9h-13.45c-18.09,0-32.8,17.08-32.8,38.07v134.52c0,2.01,1.63,3.64,3.64,3.64h101.08c1.51,0,2.87-.94,3.4-2.36s.13-3.02-1.01-4.02l-59.87-52.39,7.25-8.29,75.6,66.16c.66.58,1.51.9,2.39.9h13.45c18.09,0,32.8-17.08,32.8-38.08ZM-1237.95,478.44c-.73-.64-1.68-.95-2.64-.89-.96.06-1.86.51-2.49,1.23l-12.04,13.76c-1.32,1.51-1.17,3.81.34,5.13l55.33,48.41h-87.77v-130.88c0-16.98,11.45-30.8,25.53-30.8h12.08l77.31,67.65c1.51,1.32,3.81,1.17,5.13-.34l12.04-13.76c.63-.73.96-1.67.89-2.64-.06-.96-.51-1.86-1.23-2.49l-55.33-48.41h87.77v130.87c0,16.99-11.45,30.81-25.53,30.81h-12.08l-77.31-67.65Z"/>
              <path class="cls-4" d="M-932.96,367.12c.69-.83.97-1.93.77-3l-22.97-120.83c-2.65-13.97-10.53-26.76-22.2-36.01-12.14-9.62-27.64-14.92-43.66-14.92-32.39,0-60.09,21.29-65.87,50.63l-23.83,121.1c-.21,1.07.07,2.17.76,3.01.69.84,1.72,1.33,2.81,1.33h76.55c2.01,0,3.64-1.63,3.64-3.64v-80.91h11.02v80.91c0,2.01,1.63,3.64,3.64,3.64h76.55c1.08,0,2.11-.48,2.8-1.32ZM-1008.67,280.25c0-2.01-1.63-3.64-3.64-3.64h-18.29c-2.01,0-3.64,1.63-3.64,3.64v80.91h-68.49l22.98-116.76c5.1-25.94,29.8-44.77,58.73-44.77,14.38,0,28.29,4.74,39.14,13.35,10.3,8.17,17.25,19.42,19.57,31.67l22.15,116.52h-68.52v-80.91ZM-1008.67,263.89v-24.06c0-2.01-1.63-3.64-3.64-3.64h-18.29c-2.01,0-3.64,1.63-3.64,3.64v24.06c0,2.01,1.63,3.64,3.64,3.64h18.29c2.01,0,3.64-1.63,3.64-3.64ZM-1026.96,243.46h11.02v16.79h-11.02v-16.79Z"/>
              <path class="cls-4" d="M-1109.2,737.93v-49.33c0-2.01-1.63-3.64-3.64-3.64h-59.66c-26.7,0-48.42-23.74-48.42-52.92v-62.91c0-2.01-1.63-3.64-3.64-3.64h-59.75c-2.01,0-3.64,1.63-3.64,3.64v168.8c0,2.01,1.63,3.64,3.64,3.64h171.47c2.01,0,3.64-1.63,3.64-3.64ZM-1280.66,572.76h52.48v59.28c0,33.19,24.98,60.2,55.69,60.2h56.03v42.06h-164.19v-161.53Z"/>
              <path class="cls-4" d="M-926.22,740.25c.69-.83.97-1.93.77-3l-22.97-120.83c-2.65-13.97-10.53-26.75-22.2-36.01-12.14-9.62-27.64-14.92-43.66-14.92-32.39,0-60.09,21.3-65.87,50.63l-23.83,121.1c-.21,1.07.07,2.17.76,3.01.69.84,1.72,1.33,2.81,1.33h76.55c2.01,0,3.64-1.63,3.64-3.64v-80.91h11.02v80.91c0,2.01,1.63,3.64,3.64,3.64h76.55c1.08,0,2.11-.48,2.8-1.32ZM-1001.93,653.38c0-2.01-1.63-3.64-3.64-3.64h-18.29c-2.01,0-3.64,1.63-3.64,3.64v80.91h-68.49l22.98-116.77c5.1-25.94,29.8-44.77,58.73-44.77,14.38,0,28.28,4.74,39.14,13.35,10.3,8.17,17.25,19.42,19.57,31.67l22.15,116.52h-68.52v-80.91ZM-1001.93,637.02v-24.06c0-2.01-1.63-3.64-3.64-3.64h-18.29c-2.01,0-3.64,1.63-3.64,3.64v24.06c0,2.01,1.63,3.64,3.64,3.64h18.29c2.01,0,3.64-1.63,3.64-3.64ZM-1020.22,616.59h11.02v16.79h-11.02v-16.79Z"/>
              <path class="cls-4" d="M-739.89,549.57v-49.33c0-2.01-1.63-3.64-3.64-3.64h-59.66c-26.7,0-48.42-23.74-48.42-52.92v-62.91c0-2.01-1.63-3.64-3.64-3.64h-59.75c-2.01,0-3.64,1.63-3.64,3.64v168.8c0,2.01,1.63,3.64,3.64,3.64h171.47c2.01,0,3.64-1.63,3.64-3.64ZM-911.35,384.41h52.48v59.28c0,33.19,24.98,60.2,55.69,60.2h56.03v42.06h-164.19v-161.53Z"/>
              <path class="cls-4" d="M-555.5,737.93v-49.11c0-2.01-1.63-3.64-3.64-3.64h-126.16v-11.07h124.22c2.01,0,3.64-1.63,3.64-3.64v-34.04c0-2.01-1.63-3.64-3.64-3.64h-124.22v-11.44h126.16c2.01,0,3.64-1.63,3.64-3.64v-48.75c0-2.01-1.63-3.64-3.64-3.64h-139.14c-19.79,0-35.89,17.59-35.89,39.22v97.79c0,21.63,16.1,39.22,35.89,39.22h139.14c2.01,0,3.64-1.63,3.64-3.64ZM-562.77,572.61v41.47h-126.13c-2.01,0-3.64,1.63-3.64,3.64v1.31c-.02.14-.03.29-.03.43v14.9c0,.15,0,.29.03.43v1.64c0,2.01,1.63,3.64,3.64,3.64h124.19v26.77h-124.19c-2.01,0-3.64,1.63-3.64,3.64v1.63c-.02.14-.03.29-.03.43v14.07c0,.15,0,.29.03.43v1.77c0,2.01,1.63,3.64,3.64,3.64h126.13v41.84h-135.5c-15.78,0-28.62-14.33-28.62-31.95v-97.79c0-17.62,12.84-31.95,28.62-31.95h135.5Z"/>
              <path class="cls-4" d="M-739.71,703.49v-134.51c0-2.01-1.63-3.64-3.64-3.64h-101.08c-1.51,0-2.87.94-3.4,2.36s-.13,3.02,1.01,4.02l59.87,52.39-7.25,8.29-75.6-66.16c-.66-.58-1.51-.9-2.39-.9h-13.45c-18.09,0-32.8,17.08-32.8,38.07v134.52c0,2.01,1.63,3.64,3.64,3.64h101.08c1.51,0,2.87-.94,3.4-2.36s.13-3.02-1.01-4.02l-59.87-52.39,7.25-8.29,75.6,66.16c.66.58,1.51.9,2.39.9h13.45c18.09,0,32.8-17.08,32.8-38.08ZM-861.9,666.64c-1.51-1.32-3.81-1.17-5.13.34l-12.04,13.76c-1.32,1.51-1.17,3.81.34,5.13l55.33,48.41h-87.77v-130.88c0-16.98,11.45-30.8,25.53-30.8h12.08l77.31,67.65c1.51,1.32,3.81,1.17,5.13-.34l12.04-13.76c1.32-1.51,1.17-3.81-.34-5.13l-55.33-48.41h87.77v130.87c0,16.99-11.45,30.81-25.53,30.81h-12.08l-77.31-67.65Z"/>
              <path class="cls-4" d="M-556.91,551.89c.69-.83.97-1.93.77-3l-22.97-120.83c-2.65-13.97-10.53-26.75-22.2-36.01-12.14-9.62-27.64-14.92-43.66-14.92-32.39,0-60.09,21.29-65.87,50.63l-23.83,121.1c-.21,1.07.07,2.17.76,3.01.69.84,1.72,1.33,2.81,1.33h76.55c2.01,0,3.64-1.63,3.64-3.64v-80.91h11.02v80.91c0,2.01,1.63,3.64,3.64,3.64h76.55c1.08,0,2.11-.48,2.8-1.32ZM-632.63,465.03c0-2.01-1.63-3.64-3.64-3.64h-18.29c-2.01,0-3.64,1.63-3.64,3.64v80.91h-68.49l22.98-116.77c5.1-25.94,29.8-44.77,58.73-44.77,14.38,0,28.28,4.74,39.14,13.35,10.3,8.17,17.25,19.42,19.57,31.67l22.15,116.52h-68.52v-80.91ZM-632.63,448.67v-24.06c0-2.01-1.63-3.64-3.64-3.64h-18.29c-2.01,0-3.64,1.63-3.64,3.64v24.06c0,2.01,1.63,3.64,3.64,3.64h18.29c2.01,0,3.64-1.63,3.64-3.64ZM-650.91,428.24h11.02v16.79h-11.02v-16.79Z"/>
              <path class="cls-4" d="M741.9,925.28v-49.33c0-2.01-1.63-3.64-3.64-3.64h-59.66c-26.7,0-48.42-23.74-48.42-52.92v-62.91c0-2.01-1.63-3.64-3.64-3.64h-59.75c-2.01,0-3.64,1.63-3.64,3.64v168.8c0,2.01,1.63,3.64,3.64,3.64h171.47c2.01,0,3.64-1.63,3.64-3.64ZM570.43,760.12h52.48v59.28c0,33.19,24.98,60.2,55.69,60.2h56.03v42.06h-164.19v-161.53Z"/>
              <path class="cls-4" d="M926.29,1113.64v-49.11c0-2.01-1.63-3.64-3.64-3.64h-126.16v-11.07h124.22c2.01,0,3.64-1.63,3.64-3.64v-34.04c0-2.01-1.63-3.64-3.64-3.64h-124.22v-11.44h126.16c2.01,0,3.64-1.63,3.64-3.64v-48.75c0-2.01-1.63-3.64-3.64-3.64h-139.14c-19.79,0-35.89,17.59-35.89,39.22v97.79c0,21.63,16.1,39.22,35.89,39.22h139.14c2.01,0,3.64-1.63,3.64-3.64ZM919.02,948.32v41.47h-126.13c-2.01,0-3.64,1.63-3.64,3.64v1.31c-.02.14-.03.29-.03.43v14.9c0,.15,0,.29.03.43v1.64c0,2.01,1.63,3.64,3.64,3.64h124.19v26.77h-124.19c-2.01,0-3.64,1.63-3.64,3.64v1.63c-.02.14-.03.29-.03.43v14.07c0,.15,0,.29.03.43v1.77c0,2.01,1.63,3.64,3.64,3.64h126.13v41.84h-135.5c-15.78,0-28.62-14.33-28.62-31.95v-97.79c0-17.62,12.84-31.95,28.62-31.95h135.5Z"/>
              <path class="cls-4" d="M742.07,1079.2v-134.51c0-2.01-1.63-3.64-3.64-3.64h-101.08c-1.51,0-2.87.94-3.4,2.36-.53,1.42-.13,3.02,1.01,4.02l59.87,52.39-7.25,8.29-75.6-66.16c-.66-.58-1.51-.9-2.39-.9h-13.45c-18.09,0-32.8,17.08-32.8,38.07v134.52c0,2.01,1.63,3.64,3.64,3.64h101.08c1.51,0,2.87-.94,3.4-2.36.53-1.42.13-3.02-1.01-4.02l-59.87-52.39,7.25-8.29,75.6,66.16c.66.58,1.51.9,2.39.9h13.45c18.09,0,32.8-17.08,32.8-38.08ZM619.88,1042.35c-1.51-1.32-3.81-1.17-5.13.34l-12.04,13.76c-.63.73-.96,1.67-.89,2.64.06.96.51,1.86,1.23,2.49l55.33,48.41h-87.77v-130.88c0-16.98,11.45-30.8,25.53-30.8h12.08l77.31,67.65c.73.63,1.68.95,2.64.89.96-.06,1.86-.51,2.49-1.23l12.04-13.76c1.32-1.51,1.17-3.81-.34-5.13l-55.33-48.41h87.77v130.87c0,16.99-11.45,30.81-25.53,30.81h-12.08l-77.31-67.65Z"/>
              <path class="cls-4" d="M924.88,927.61c.69-.83.97-1.93.77-3l-22.97-120.83c-2.65-13.97-10.53-26.75-22.2-36.01-12.14-9.62-27.64-14.92-43.66-14.92-32.39,0-60.09,21.29-65.87,50.63l-23.83,121.1c-.21,1.07.07,2.17.76,3.01.69.84,1.72,1.33,2.81,1.33h76.55c2.01,0,3.64-1.63,3.64-3.64v-80.91h11.02v80.91c0,2.01,1.63,3.64,3.64,3.64h76.55c1.08,0,2.11-.48,2.8-1.32ZM849.16,840.74c0-2.01-1.63-3.64-3.64-3.64h-18.29c-2.01,0-3.64,1.63-3.64,3.64v80.91h-68.49l22.98-116.77c5.1-25.94,29.8-44.77,58.73-44.77,14.38,0,28.28,4.74,39.14,13.35,10.3,8.17,17.25,19.42,19.57,31.67l22.15,116.52h-68.52v-80.91ZM849.16,824.38v-24.06c0-2.01-1.63-3.64-3.64-3.64h-18.29c-2.01,0-3.64,1.63-3.64,3.64v24.06c0,2.01,1.63,3.64,3.64,3.64h18.29c2.01,0,3.64-1.63,3.64-3.64ZM830.87,803.95h11.02v16.79h-11.02v-16.79Z"/>
              <path class="cls-4" d="M374.2,1113.64v-49.33c0-2.01-1.63-3.64-3.64-3.64h-59.66c-26.7,0-48.42-23.74-48.42-52.92v-62.91c0-2.01-1.63-3.64-3.64-3.64h-59.75c-2.01,0-3.64,1.63-3.64,3.64v168.8c0,2.01,1.63,3.64,3.64,3.64h171.47c2.01,0,3.64-1.63,3.64-3.64ZM202.74,948.47h52.48v59.28c0,33.19,24.98,60.2,55.69,60.2h56.03v42.06h-164.19v-161.53Z"/>
              <path class="cls-4" d="M557.18,1115.96c.69-.83.97-1.93.77-3l-22.97-120.83c-2.65-13.97-10.53-26.75-22.2-36.01-12.14-9.62-27.64-14.92-43.66-14.92-32.39,0-60.09,21.29-65.87,50.63l-23.83,121.1c-.21,1.07.07,2.17.76,3.01.69.84,1.72,1.33,2.81,1.33h76.55c2.01,0,3.64-1.63,3.64-3.64v-80.91h11.02v80.91c0,2.01,1.63,3.64,3.64,3.64h76.55c1.08,0,2.11-.48,2.8-1.32ZM481.46,1029.09c0-2.01-1.63-3.64-3.64-3.64h-18.29c-2.01,0-3.64,1.63-3.64,3.64v80.91h-68.49l22.98-116.76c5.1-25.94,29.8-44.77,58.73-44.77,14.38,0,28.28,4.74,39.14,13.35,10.3,8.17,17.25,19.42,19.57,31.67l22.15,116.52h-68.52v-80.91ZM481.46,1012.73v-24.06c0-2.01-1.63-3.64-3.64-3.64h-18.29c-2.01,0-3.64,1.63-3.64,3.64v24.06c0,2.01,1.63,3.64,3.64,3.64h18.29c2.01,0,3.64-1.63,3.64-3.64ZM463.18,992.3h11.02v16.79h-11.02v-16.79Z"/>
              <path class="cls-4" d="M1296.87,925.43v-49.11c0-2.01-1.63-3.64-3.64-3.64h-126.15v-11.07h124.22c2.01,0,3.64-1.63,3.64-3.64v-34.04c0-2.01-1.63-3.64-3.64-3.64h-124.22v-11.44h126.15c2.01,0,3.64-1.63,3.64-3.64v-48.75c0-2.01-1.63-3.64-3.64-3.64h-139.13c-19.79,0-35.89,17.59-35.89,39.22v97.79c0,21.62,16.1,39.22,35.89,39.22h139.13c2.01,0,3.64-1.63,3.64-3.64ZM1289.6,760.12v41.47h-126.13c-2.01,0-3.64,1.63-3.64,3.64v1.31c-.02.14-.03.29-.03.43v14.9c0,.15,0,.29.03.43v1.64c0,2.01,1.63,3.64,3.64,3.64h124.19v26.77h-124.19c-2.01,0-3.64,1.63-3.64,3.64v1.63c-.02.14-.03.29-.03.43v14.07c0,.15,0,.29.03.43v1.77c0,2.01,1.63,3.64,3.64,3.64h126.13v41.84h-135.5c-15.78,0-28.62-14.33-28.62-31.95v-97.79c0-17.62,12.84-31.95,28.62-31.95h135.5Z"/>
              <path class="cls-4" d="M1112.66,890.99v-134.51c0-2.01-1.63-3.64-3.64-3.64h-101.08c-1.51,0-2.87.94-3.4,2.36s-.13,3.02,1.01,4.02l59.87,52.39-7.25,8.29-75.6-66.16c-.66-.58-1.51-.9-2.39-.9h-13.45c-18.09,0-32.8,17.08-32.8,38.07v134.52c0,2.01,1.63,3.64,3.64,3.64h101.08c1.51,0,2.87-.94,3.4-2.36.53-1.42.13-3.02-1.01-4.02l-59.87-52.39,7.25-8.29,75.6,66.16c.66.58,1.51.9,2.39.9h13.45c18.09,0,32.8-17.08,32.8-38.08ZM990.47,854.15c-.73-.64-1.68-.95-2.64-.89-.96.06-1.86.51-2.49,1.23l-12.04,13.76c-1.32,1.51-1.17,3.81.34,5.13l55.33,48.41h-87.77v-130.88c0-16.98,11.45-30.8,25.53-30.8h12.08l77.31,67.65c1.51,1.32,3.81,1.17,5.13-.34l12.04-13.76c.63-.73.96-1.67.89-2.64-.06-.96-.51-1.86-1.23-2.49l-55.33-48.41h87.77v130.87c0,16.99-11.45,30.81-25.53,30.81h-12.08l-77.31-67.65Z"/>
              <path class="cls-4" d="M553.33,925.43v-49.11c0-2.01-1.63-3.64-3.64-3.64h-126.15v-11.07h124.22c2.01,0,3.64-1.63,3.64-3.64v-34.04c0-2.01-1.63-3.64-3.64-3.64h-124.22v-11.44h126.15c2.01,0,3.64-1.63,3.64-3.64v-48.75c0-2.01-1.63-3.64-3.64-3.64h-139.13c-19.79,0-35.89,17.59-35.89,39.22v97.79c0,21.62,16.1,39.22,35.89,39.22h139.13c2.01,0,3.64-1.63,3.64-3.64ZM546.06,760.12v41.47h-126.13c-2.01,0-3.64,1.63-3.64,3.64v1.31c-.02.14-.03.29-.03.43v14.9c0,.15,0,.29.03.43v1.64c0,2.01,1.63,3.64,3.64,3.64h124.19v26.77h-124.19c-2.01,0-3.64,1.63-3.64,3.64v1.63c-.02.14-.03.29-.03.43v14.07c0,.15,0,.29.03.43v1.77c0,2.01,1.63,3.64,3.64,3.64h126.13v41.84h-135.5c-15.78,0-28.62-14.33-28.62-31.95v-97.79c0-17.62,12.84-31.95,28.62-31.95h135.5Z"/>
              <path class="cls-4" d="M369.11,890.99v-134.51c0-2.01-1.63-3.64-3.64-3.64h-101.08c-1.51,0-2.87.94-3.4,2.36s-.13,3.02,1.01,4.02l59.87,52.39-7.25,8.29-75.6-66.16c-.66-.58-1.51-.9-2.39-.9h-13.45c-18.09,0-32.8,17.08-32.8,38.07v134.52c0,2.01,1.63,3.64,3.64,3.64h101.08c1.51,0,2.87-.94,3.4-2.36.53-1.42.13-3.02-1.01-4.02l-59.87-52.39,7.25-8.29,75.6,66.16c.66.58,1.51.9,2.39.9h13.45c18.09,0,32.8-17.08,32.8-38.08ZM246.92,854.15c-.73-.64-1.68-.95-2.64-.89-.96.06-1.86.51-2.49,1.23l-12.04,13.76c-1.32,1.51-1.17,3.81.34,5.13l55.33,48.41h-87.77v-130.88c0-16.98,11.45-30.8,25.53-30.8h12.08l77.31,67.65c1.51,1.32,3.81,1.17,5.13-.34l12.04-13.76c.63-.73.96-1.67.89-2.64-.06-.96-.51-1.86-1.23-2.49l-55.33-48.41h87.77v130.87c0,16.99-11.45,30.81-25.53,30.81h-12.08l-77.31-67.65Z"/>
              <path class="cls-4" d="M1119.22,1113.64v-49.33c0-2.01-1.63-3.64-3.64-3.64h-59.66c-26.7,0-48.42-23.74-48.42-52.92v-62.91c0-2.01-1.63-3.64-3.64-3.64h-59.75c-2.01,0-3.64,1.63-3.64,3.64v168.8c0,2.01,1.63,3.64,3.64,3.64h171.47c2.01,0,3.64-1.63,3.64-3.64ZM947.76,948.47h52.48v59.28c0,33.19,24.98,60.2,55.69,60.2h56.03v42.06h-164.19v-161.53Z"/>
              <path class="cls-4" d="M1302.2,1115.96c.69-.83.97-1.93.77-3l-22.97-120.83c-2.65-13.97-10.53-26.75-22.2-36.01-12.14-9.62-27.64-14.92-43.66-14.92-32.39,0-60.09,21.3-65.87,50.63l-23.83,121.1c-.21,1.07.07,2.17.76,3.01.69.84,1.72,1.33,2.81,1.33h76.55c2.01,0,3.64-1.63,3.64-3.64v-80.91h11.02v80.91c0,2.01,1.63,3.64,3.64,3.64h76.55c1.08,0,2.11-.48,2.8-1.32ZM1226.48,1029.09c0-2.01-1.63-3.64-3.64-3.64h-18.29c-2.01,0-3.64,1.63-3.64,3.64v80.91h-68.49l22.98-116.77c5.1-25.94,29.8-44.77,58.73-44.77,14.38,0,28.28,4.74,39.14,13.35,10.3,8.17,17.25,19.42,19.57,31.67l22.15,116.52h-68.52v-80.91ZM1226.48,1012.73v-24.06c0-2.01-1.63-3.64-3.64-3.64h-18.29c-2.01,0-3.64,1.63-3.64,3.64v24.06c0,2.01,1.63,3.64,3.64,3.64h18.29c2.01,0,3.64-1.63,3.64-3.64ZM1208.2,992.3h11.02v16.79h-11.02v-16.79Z"/>
              <path class="cls-4" d="M1483.54,925.28v-49.33c0-2.01-1.63-3.64-3.64-3.64h-59.66c-26.7,0-48.42-23.74-48.42-52.92v-62.91c0-2.01-1.63-3.64-3.64-3.64h-59.75c-2.01,0-3.64,1.63-3.64,3.64v168.8c0,2.01,1.63,3.64,3.64,3.64h171.47c2.01,0,3.64-1.63,3.64-3.64ZM1312.07,760.12h52.48v59.28c0,33.19,24.98,60.2,55.69,60.2h56.03v42.06h-164.19v-161.53Z"/>
              <path class="cls-4" d="M1667.93,1113.64v-49.11c0-2.01-1.63-3.64-3.64-3.64h-126.16v-11.07h124.22c2.01,0,3.64-1.63,3.64-3.64v-34.04c0-2.01-1.63-3.64-3.64-3.64h-124.22v-11.44h126.16c2.01,0,3.64-1.63,3.64-3.64v-48.75c0-2.01-1.63-3.64-3.64-3.64h-139.14c-19.79,0-35.89,17.59-35.89,39.22v97.79c0,21.63,16.1,39.22,35.89,39.22h139.14c2.01,0,3.64-1.63,3.64-3.64ZM1660.65,948.32v41.47h-126.13c-2.01,0-3.64,1.63-3.64,3.64v1.31c-.02.14-.03.29-.03.43v14.9c0,.15,0,.29.03.43v1.64c0,2.01,1.63,3.64,3.64,3.64h124.19v26.77h-124.19c-2.01,0-3.64,1.63-3.64,3.64v1.63c-.02.14-.03.29-.03.43v14.07c0,.15,0,.29.03.43v1.77c0,2.01,1.63,3.64,3.64,3.64h126.13v41.84h-135.5c-15.78,0-28.62-14.33-28.62-31.95v-97.79c0-17.62,12.84-31.95,28.62-31.95h135.5Z"/>
              <path class="cls-4" d="M1483.71,1079.2v-134.51c0-2.01-1.63-3.64-3.64-3.64h-101.08c-1.51,0-2.87.94-3.4,2.36-.53,1.42-.13,3.02,1.01,4.02l59.87,52.39-7.25,8.29-75.6-66.16c-.66-.58-1.51-.9-2.39-.9h-13.45c-18.09,0-32.8,17.08-32.8,38.07v134.52c0,2.01,1.63,3.64,3.64,3.64h101.08c1.51,0,2.87-.94,3.4-2.36.53-1.42.13-3.02-1.01-4.02l-59.87-52.39,7.25-8.29,75.6,66.16c.66.58,1.51.9,2.39.9h13.45c18.09,0,32.8-17.08,32.8-38.08ZM1361.52,1042.35c-1.51-1.32-3.81-1.17-5.13.34l-12.04,13.76c-.63.73-.96,1.67-.89,2.64.06.96.51,1.86,1.23,2.49l55.33,48.41h-87.77v-130.88c0-16.98,11.45-30.8,25.53-30.8h12.08l77.31,67.65c.73.63,1.68.95,2.64.89.96-.06,1.86-.51,2.49-1.23l12.04-13.76c1.32-1.51,1.17-3.81-.34-5.13l-55.33-48.41h87.77v130.87c0,16.99-11.45,30.81-25.53,30.81h-12.08l-77.31-67.65Z"/>
              <path class="cls-4" d="M1666.51,927.61c.69-.83.97-1.93.77-3l-22.97-120.83c-2.65-13.97-10.53-26.75-22.2-36.01-12.14-9.62-27.64-14.92-43.66-14.92-32.39,0-60.09,21.29-65.87,50.63l-23.83,121.1c-.21,1.07.07,2.17.76,3.01.69.84,1.72,1.33,2.81,1.33h76.55c2.01,0,3.64-1.63,3.64-3.64v-80.91h11.02v80.91c0,2.01,1.63,3.64,3.64,3.64h76.55c1.08,0,2.11-.48,2.8-1.32ZM1590.8,840.74c0-2.01-1.63-3.64-3.64-3.64h-18.29c-2.01,0-3.64,1.63-3.64,3.64v80.91h-68.49l22.98-116.77c5.1-25.94,29.8-44.77,58.73-44.77,14.38,0,28.28,4.74,39.14,13.35,10.3,8.17,17.25,19.42,19.57,31.67l22.15,116.52h-68.52v-80.91ZM1590.8,824.38v-24.06c0-2.01-1.63-3.64-3.64-3.64h-18.29c-2.01,0-3.64,1.63-3.64,3.64v24.06c0,2.01,1.63,3.64,3.64,3.64h18.29c2.01,0,3.64-1.63,3.64-3.64ZM1572.51,803.95h11.02v16.79h-11.02v-16.79Z"/>
              <path class="cls-4" d="M2038.51,925.43v-49.11c0-2.01-1.63-3.64-3.64-3.64h-126.15v-11.07h124.22c2.01,0,3.64-1.63,3.64-3.64v-34.04c0-2.01-1.63-3.64-3.64-3.64h-124.22v-11.44h126.15c2.01,0,3.64-1.63,3.64-3.64v-48.75c0-2.01-1.63-3.64-3.64-3.64h-139.13c-19.79,0-35.89,17.59-35.89,39.22v97.79c0,21.62,16.1,39.22,35.89,39.22h139.13c2.01,0,3.64-1.63,3.64-3.64ZM2031.24,760.12v41.47h-126.13c-2.01,0-3.64,1.63-3.64,3.64v1.31c-.02.14-.03.29-.03.43v14.9c0,.15,0,.29.03.43v1.64c0,2.01,1.63,3.64,3.64,3.64h124.19v26.77h-124.19c-2.01,0-3.64,1.63-3.64,3.64v1.63c-.02.14-.03.29-.03.43v14.07c0,.15,0,.29.03.43v1.77c0,2.01,1.63,3.64,3.64,3.64h126.13v41.84h-135.5c-15.78,0-28.62-14.33-28.62-31.95v-97.79c0-17.62,12.84-31.95,28.62-31.95h135.5Z"/>
              <path class="cls-4" d="M1854.3,890.99v-134.51c0-2.01-1.63-3.64-3.64-3.64h-101.08c-1.51,0-2.87.94-3.4,2.36-.53,1.42-.13,3.02,1.01,4.02l59.87,52.39-7.25,8.29-75.6-66.16c-.66-.58-1.51-.9-2.39-.9h-13.45c-18.09,0-32.8,17.08-32.8,38.07v134.52c0,2.01,1.63,3.64,3.64,3.64h101.08c1.51,0,2.87-.94,3.4-2.36s.13-3.02-1.01-4.02l-59.87-52.39,7.25-8.29,75.6,66.16c.66.58,1.51.9,2.39.9h13.45c18.09,0,32.8-17.08,32.8-38.08ZM1732.1,854.15c-.73-.64-1.68-.95-2.64-.89-.96.06-1.86.51-2.49,1.23l-12.04,13.76c-1.32,1.51-1.17,3.81.34,5.13l55.33,48.41h-87.77v-130.88c0-16.98,11.45-30.8,25.53-30.8h12.08l77.31,67.65c1.51,1.32,3.81,1.17,5.13-.34l12.04-13.76c.63-.73.96-1.67.89-2.64-.06-.96-.51-1.86-1.23-2.49l-55.33-48.41h87.77v130.87c0,16.99-11.45,30.81-25.53,30.81h-12.08l-77.31-67.65Z"/>
              <path class="cls-4" d="M1860.86,1113.64v-49.33c0-2.01-1.63-3.64-3.64-3.64h-59.66c-26.7,0-48.42-23.74-48.42-52.92v-62.91c0-2.01-1.63-3.64-3.64-3.64h-59.75c-2.01,0-3.64,1.63-3.64,3.64v168.8c0,2.01,1.63,3.64,3.64,3.64h171.47c2.01,0,3.64-1.63,3.64-3.64ZM1689.39,948.47h52.48v59.28c0,33.19,24.98,60.2,55.69,60.2h56.03v42.06h-164.19v-161.53Z"/>
              <path class="cls-4" d="M2043.84,1115.96c.69-.83.97-1.93.77-3l-22.97-120.83c-2.65-13.97-10.53-26.75-22.2-36.01-12.14-9.62-27.64-14.92-43.66-14.92-32.39,0-60.09,21.3-65.87,50.63l-23.83,121.1c-.21,1.07.07,2.17.76,3.01.69.84,1.72,1.33,2.81,1.33h76.55c2.01,0,3.64-1.63,3.64-3.64v-80.91h11.02v80.91c0,2.01,1.63,3.64,3.64,3.64h76.55c1.08,0,2.11-.48,2.8-1.32ZM1968.12,1029.09c0-2.01-1.63-3.64-3.64-3.64h-18.29c-2.01,0-3.64,1.63-3.64,3.64v80.91h-68.49l22.98-116.77c5.1-25.94,29.8-44.77,58.73-44.77,14.38,0,28.28,4.74,39.14,13.35,10.3,8.17,17.25,19.42,19.57,31.67l22.15,116.52h-68.52v-80.91ZM1968.12,1012.73v-24.06c0-2.01-1.63-3.64-3.64-3.64h-18.29c-2.01,0-3.64,1.63-3.64,3.64v24.06c0,2.01,1.63,3.64,3.64,3.64h18.29c2.01,0,3.64-1.63,3.64-3.64ZM1949.83,992.3h11.02v16.79h-11.02v-16.79Z"/>
              <path class="cls-4" d="M-187.08,925.43v-49.11c0-2.01-1.63-3.64-3.64-3.64h-126.15v-11.07h124.22c2.01,0,3.64-1.63,3.64-3.64v-34.04c0-2.01-1.63-3.64-3.64-3.64h-124.22v-11.44h126.15c2.01,0,3.64-1.63,3.64-3.64v-48.75c0-2.01-1.63-3.64-3.64-3.64h-139.13c-19.79,0-35.89,17.59-35.89,39.22v97.79c0,21.62,16.1,39.22,35.89,39.22h139.13c2.01,0,3.64-1.63,3.64-3.64ZM-194.35,760.12v41.47h-126.13c-2.01,0-3.64,1.63-3.64,3.64v1.31c-.02.14-.03.29-.03.43v14.9c0,.15,0,.29.03.43v1.64c0,2.01,1.63,3.64,3.64,3.64h124.19v26.77h-124.19c-2.01,0-3.64,1.63-3.64,3.64v1.63c-.02.14-.03.29-.03.43v14.07c0,.15,0,.29.03.43v1.77c0,2.01,1.63,3.64,3.64,3.64h126.13v41.84h-135.5c-15.78,0-28.62-14.33-28.62-31.95v-97.79c0-17.62,12.84-31.95,28.62-31.95h135.5Z"/>
              <path class="cls-4" d="M-371.29,890.99v-134.51c0-2.01-1.63-3.64-3.64-3.64h-101.08c-1.51,0-2.87.94-3.4,2.36-.53,1.42-.13,3.02,1.01,4.02l59.87,52.39-7.25,8.29-75.6-66.16c-.66-.58-1.51-.9-2.39-.9h-13.45c-18.09,0-32.8,17.08-32.8,38.07v134.52c0,2.01,1.63,3.64,3.64,3.64h101.08c1.51,0,2.87-.94,3.4-2.36.53-1.42.13-3.02-1.01-4.02l-59.87-52.39,7.25-8.29,75.6,66.16c.66.58,1.51.9,2.39.9h13.45c18.09,0,32.8-17.08,32.8-38.08ZM-493.48,854.15c-.73-.64-1.68-.95-2.64-.89-.96.06-1.86.51-2.49,1.23l-12.04,13.76c-1.32,1.51-1.17,3.81.34,5.13l55.33,48.41h-87.77v-130.88c0-16.98,11.45-30.8,25.53-30.8h12.08l77.31,67.65c1.51,1.32,3.81,1.17,5.13-.34l12.04-13.76c.63-.73.96-1.67.89-2.64-.06-.96-.51-1.86-1.23-2.49l-55.33-48.41h87.77v130.87c0,16.99-11.45,30.81-25.53,30.81h-12.08l-77.31-67.65Z"/>
              <path class="cls-4" d="M-364.73,1113.64v-49.33c0-2.01-1.63-3.64-3.64-3.64h-59.66c-26.7,0-48.42-23.74-48.42-52.92v-62.91c0-2.01-1.63-3.64-3.64-3.64h-59.75c-2.01,0-3.64,1.63-3.64,3.64v168.8c0,2.01,1.63,3.64,3.64,3.64h171.47c2.01,0,3.64-1.63,3.64-3.64ZM-536.19,948.47h52.48v59.28c0,33.19,24.98,60.2,55.69,60.2h56.03v42.06h-164.19v-161.53Z"/>
              <path class="cls-4" d="M-181.75,1115.96c.69-.83.97-1.93.77-3l-22.97-120.83c-2.65-13.97-10.53-26.75-22.2-36.01-12.14-9.62-27.64-14.92-43.66-14.92-32.39,0-60.09,21.3-65.87,50.63l-23.83,121.1c-.21,1.07.07,2.17.76,3.01.69.84,1.72,1.33,2.81,1.33h76.55c2.01,0,3.64-1.63,3.64-3.64v-80.91h11.02v80.91c0,2.01,1.63,3.64,3.64,3.64h76.55c1.08,0,2.11-.48,2.8-1.32ZM-257.47,1029.09c0-2.01-1.63-3.64-3.64-3.64h-18.29c-2.01,0-3.64,1.63-3.64,3.64v80.91h-68.49l22.98-116.77c5.1-25.94,29.8-44.77,58.73-44.77,14.38,0,28.28,4.74,39.14,13.35,10.3,8.17,17.25,19.42,19.57,31.67l22.15,116.52h-68.52v-80.91ZM-257.47,1012.73v-24.06c0-2.01-1.63-3.64-3.64-3.64h-18.29c-2.01,0-3.64,1.63-3.64,3.64v24.06c0,2.01,1.63,3.64,3.64,3.64h18.29c2.01,0,3.64-1.63,3.64-3.64ZM-275.76,992.3h11.02v16.79h-11.02v-16.79Z"/>
              <path class="cls-4" d="M4.58,925.28v-49.33c0-2.01-1.63-3.64-3.64-3.64h-59.66c-26.7,0-48.42-23.74-48.42-52.92v-62.91c0-2.01-1.63-3.64-3.64-3.64h-59.75c-2.01,0-3.64,1.63-3.64,3.64v168.8c0,2.01,1.63,3.64,3.64,3.64H.94c2.01,0,3.64-1.63,3.64-3.64ZM-166.89,760.12h52.48v59.28c0,33.19,24.98,60.2,55.69,60.2H-2.69v42.06h-164.19v-161.53Z"/>
              <path class="cls-4" d="M188.97,1113.64v-49.11c0-2.01-1.63-3.64-3.64-3.64H59.18v-11.07h124.22c2.01,0,3.64-1.63,3.64-3.64v-34.04c0-2.01-1.63-3.64-3.64-3.64H59.18v-11.44h126.16c2.01,0,3.64-1.63,3.64-3.64v-48.75c0-2.01-1.63-3.64-3.64-3.64H46.2c-19.79,0-35.89,17.59-35.89,39.22v97.79c0,21.63,16.1,39.22,35.89,39.22h139.14c2.01,0,3.64-1.63,3.64-3.64ZM181.7,948.32v41.47H55.57c-2.01,0-3.64,1.63-3.64,3.64v1.31c-.02.14-.03.29-.03.43v14.9c0,.15,0,.29.03.43v1.64c0,2.01,1.63,3.64,3.64,3.64h124.19v26.77H55.57c-2.01,0-3.64,1.63-3.64,3.64v1.63c-.02.14-.03.29-.03.43v14.07c0,.15,0,.29.03.43v1.77c0,2.01,1.63,3.64,3.64,3.64h126.13v41.84H46.2c-15.78,0-28.62-14.33-28.62-31.95v-97.79c0-17.62,12.84-31.95,28.62-31.95h135.5Z"/>
              <path class="cls-4" d="M4.75,1079.2v-134.51c0-2.01-1.63-3.64-3.64-3.64h-101.08c-1.51,0-2.87.94-3.4,2.36-.53,1.42-.13,3.02,1.01,4.02l59.87,52.39-7.25,8.29-75.6-66.16c-.66-.58-1.51-.9-2.39-.9h-13.45c-18.09,0-32.8,17.08-32.8,38.07v134.52c0,2.01,1.63,3.64,3.64,3.64h101.08c1.51,0,2.87-.94,3.4-2.36.53-1.42.13-3.02-1.01-4.02l-59.87-52.39,7.25-8.29,75.6,66.16c.66.58,1.51.9,2.39.9h13.45c18.09,0,32.8-17.08,32.8-38.08ZM-117.44,1042.35c-1.51-1.32-3.81-1.17-5.13.34l-12.04,13.76c-1.32,1.51-1.17,3.81.34,5.13l55.33,48.41h-87.77v-130.88c0-16.98,11.45-30.8,25.53-30.8h12.08l77.31,67.65c1.51,1.32,3.81,1.17,5.13-.34l12.04-13.76c1.32-1.51,1.17-3.81-.34-5.13l-55.33-48.41H-2.52v130.87c0,16.99-11.45,30.81-25.53,30.81h-12.08l-77.31-67.65Z"/>
              <path class="cls-4" d="M187.56,927.61c.69-.83.97-1.93.77-3l-22.97-120.83c-2.65-13.97-10.53-26.75-22.2-36.01-12.14-9.62-27.64-14.92-43.66-14.92-32.39,0-60.09,21.29-65.87,50.63l-23.83,121.1c-.21,1.07.07,2.17.76,3.01.69.84,1.72,1.33,2.81,1.33h76.55c2.01,0,3.64-1.63,3.64-3.64v-80.91h11.02v80.91c0,2.01,1.63,3.64,3.64,3.64h76.55c1.08,0,2.11-.48,2.8-1.32ZM111.84,840.74c0-2.01-1.63-3.64-3.64-3.64h-18.29c-2.01,0-3.64,1.63-3.64,3.64v80.91H17.79l22.98-116.77c5.1-25.94,29.8-44.77,58.73-44.77,14.38,0,28.28,4.74,39.14,13.35,10.3,8.17,17.25,19.42,19.57,31.67l22.15,116.52h-68.52v-80.91ZM111.84,824.38v-24.06c0-2.01-1.63-3.64-3.64-3.64h-18.29c-2.01,0-3.64,1.63-3.64,3.64v24.06c0,2.01,1.63,3.64,3.64,3.64h18.29c2.01,0,3.64-1.63,3.64-3.64ZM93.55,803.95h11.02v16.79h-11.02v-16.79Z"/>
              <path class="cls-4" d="M-931.54,925.43v-49.11c0-2.01-1.63-3.64-3.64-3.64h-126.15v-11.07h124.22c2.01,0,3.64-1.63,3.64-3.64v-34.04c0-2.01-1.63-3.64-3.64-3.64h-124.22v-11.44h126.15c2.01,0,3.64-1.63,3.64-3.64v-48.75c0-2.01-1.63-3.64-3.64-3.64h-139.13c-19.79,0-35.89,17.59-35.89,39.22v97.79c0,21.62,16.1,39.22,35.89,39.22h139.13c2.01,0,3.64-1.63,3.64-3.64ZM-938.82,760.12v41.47h-126.13c-2.01,0-3.64,1.63-3.64,3.64v1.31c-.02.14-.03.29-.03.43v14.9c0,.15,0,.29.03.43v1.64c0,2.01,1.63,3.64,3.64,3.64h124.19v26.77h-124.19c-2.01,0-3.64,1.63-3.64,3.64v1.63c-.02.14-.03.29-.03.43v14.07c0,.15,0,.29.03.43v1.77c0,2.01,1.63,3.64,3.64,3.64h126.13v41.84h-135.5c-15.78,0-28.62-14.33-28.62-31.95v-97.79c0-17.62,12.84-31.95,28.62-31.95h135.5Z"/>
              <path class="cls-4" d="M-1115.76,890.99v-134.51c0-2.01-1.63-3.64-3.64-3.64h-101.08c-1.51,0-2.87.94-3.4,2.36-.53,1.42-.13,3.02,1.01,4.02l59.87,52.39-7.25,8.29-75.6-66.16c-.66-.58-1.51-.9-2.39-.9h-13.45c-18.09,0-32.8,17.08-32.8,38.07v134.52c0,2.01,1.63,3.64,3.64,3.64h101.08c1.51,0,2.87-.94,3.4-2.36.53-1.42.13-3.02-1.01-4.02l-59.87-52.39,7.25-8.29,75.6,66.16c.66.58,1.51.9,2.39.9h13.45c18.09,0,32.8-17.08,32.8-38.08ZM-1237.95,854.15c-.73-.64-1.68-.95-2.64-.89-.96.06-1.86.51-2.49,1.23l-12.04,13.76c-1.32,1.51-1.17,3.81.34,5.13l55.33,48.41h-87.77v-130.88c0-16.98,11.45-30.8,25.53-30.8h12.08l77.31,67.65c1.51,1.32,3.81,1.17,5.13-.34l12.04-13.76c.63-.73.96-1.67.89-2.64-.06-.96-.51-1.86-1.23-2.49l-55.33-48.41h87.77v130.87c0,16.99-11.45,30.81-25.53,30.81h-12.08l-77.31-67.65Z"/>
              <path class="cls-4" d="M-1109.2,1113.64v-49.33c0-2.01-1.63-3.64-3.64-3.64h-59.66c-26.7,0-48.42-23.74-48.42-52.92v-62.91c0-2.01-1.63-3.64-3.64-3.64h-59.75c-2.01,0-3.64,1.63-3.64,3.64v168.8c0,2.01,1.63,3.64,3.64,3.64h171.47c2.01,0,3.64-1.63,3.64-3.64ZM-1280.66,948.47h52.48v59.28c0,33.19,24.98,60.2,55.69,60.2h56.03v42.06h-164.19v-161.53Z"/>
              <path class="cls-4" d="M-926.22,1115.96c.69-.83.97-1.93.77-3l-22.97-120.83c-2.65-13.97-10.53-26.75-22.2-36.01-12.14-9.62-27.64-14.92-43.66-14.92-32.39,0-60.09,21.3-65.87,50.63l-23.83,121.1c-.21,1.07.07,2.17.76,3.01.69.84,1.72,1.33,2.81,1.33h76.55c2.01,0,3.64-1.63,3.64-3.64v-80.91h11.02v80.91c0,2.01,1.63,3.64,3.64,3.64h76.55c1.08,0,2.11-.48,2.8-1.32ZM-1001.93,1029.09c0-2.01-1.63-3.64-3.64-3.64h-18.29c-2.01,0-3.64,1.63-3.64,3.64v80.91h-68.49l22.98-116.77c5.1-25.94,29.8-44.77,58.73-44.77,14.38,0,28.28,4.74,39.14,13.35,10.3,8.17,17.25,19.42,19.57,31.67l22.15,116.52h-68.52v-80.91ZM-1001.93,1012.73v-24.06c0-2.01-1.63-3.64-3.64-3.64h-18.29c-2.01,0-3.64,1.63-3.64,3.64v24.06c0,2.01,1.63,3.64,3.64,3.64h18.29c2.01,0,3.64-1.63,3.64-3.64ZM-1020.22,992.3h11.02v16.79h-11.02v-16.79Z"/>
              <path class="cls-4" d="M-739.89,925.28v-49.33c0-2.01-1.63-3.64-3.64-3.64h-59.66c-26.7,0-48.42-23.74-48.42-52.92v-62.91c0-2.01-1.63-3.64-3.64-3.64h-59.75c-2.01,0-3.64,1.63-3.64,3.64v168.8c0,2.01,1.63,3.64,3.64,3.64h171.47c2.01,0,3.64-1.63,3.64-3.64ZM-911.35,760.12h52.48v59.28c0,33.19,24.98,60.2,55.69,60.2h56.03v42.06h-164.19v-161.53Z"/>
              <path class="cls-4" d="M-555.5,1113.64v-49.11c0-2.01-1.63-3.64-3.64-3.64h-126.16v-11.07h124.22c2.01,0,3.64-1.63,3.64-3.64v-34.04c0-2.01-1.63-3.64-3.64-3.64h-124.22v-11.44h126.16c2.01,0,3.64-1.63,3.64-3.64v-48.75c0-2.01-1.63-3.64-3.64-3.64h-139.14c-19.79,0-35.89,17.59-35.89,39.22v97.79c0,21.63,16.1,39.22,35.89,39.22h139.14c2.01,0,3.64-1.63,3.64-3.64ZM-562.77,948.32v41.47h-126.13c-2.01,0-3.64,1.63-3.64,3.64v1.31c-.02.14-.03.29-.03.43v14.9c0,.15,0,.29.03.43v1.64c0,2.01,1.63,3.64,3.64,3.64h124.19v26.77h-124.19c-2.01,0-3.64,1.63-3.64,3.64v1.63c-.02.14-.03.29-.03.43v14.07c0,.15,0,.29.03.43v1.77c0,2.01,1.63,3.64,3.64,3.64h126.13v41.84h-135.5c-15.78,0-28.62-14.33-28.62-31.95v-97.79c0-17.62,12.84-31.95,28.62-31.95h135.5Z"/>
              <path class="cls-4" d="M-739.71,1079.2v-134.51c0-2.01-1.63-3.64-3.64-3.64h-101.08c-1.51,0-2.87.94-3.4,2.36s-.13,3.02,1.01,4.02l59.87,52.39-7.25,8.29-75.6-66.16c-.66-.58-1.51-.9-2.39-.9h-13.45c-18.09,0-32.8,17.08-32.8,38.07v134.52c0,2.01,1.63,3.64,3.64,3.64h101.08c1.51,0,2.87-.94,3.4-2.36.53-1.42.13-3.02-1.01-4.02l-59.87-52.39,7.25-8.29,75.6,66.16c.66.58,1.51.9,2.39.9h13.45c18.09,0,32.8-17.08,32.8-38.08ZM-861.9,1042.35c-1.51-1.32-3.81-1.17-5.13.34l-12.04,13.76c-1.32,1.51-1.17,3.81.34,5.13l55.33,48.41h-87.77v-130.88c0-16.98,11.45-30.8,25.53-30.8h12.08l77.31,67.65c1.51,1.32,3.81,1.17,5.13-.34l12.04-13.76c1.32-1.51,1.17-3.81-.34-5.13l-55.33-48.41h87.77v130.87c0,16.99-11.45,30.81-25.53,30.81h-12.08l-77.31-67.65Z"/>
              <path class="cls-4" d="M-556.91,927.61c.69-.83.97-1.93.77-3l-22.97-120.83c-2.65-13.97-10.53-26.75-22.2-36.01-12.14-9.62-27.64-14.92-43.66-14.92-32.39,0-60.09,21.29-65.87,50.63l-23.83,121.1c-.21,1.07.07,2.17.76,3.01.69.84,1.72,1.33,2.81,1.33h76.55c2.01,0,3.64-1.63,3.64-3.64v-80.91h11.02v80.91c0,2.01,1.63,3.64,3.64,3.64h76.55c1.08,0,2.11-.48,2.8-1.32ZM-632.63,840.74c0-2.01-1.63-3.64-3.64-3.64h-18.29c-2.01,0-3.64,1.63-3.64,3.64v80.91h-68.49l22.98-116.77c5.1-25.94,29.8-44.77,58.73-44.77,14.38,0,28.28,4.74,39.14,13.35,10.3,8.17,17.25,19.42,19.57,31.67l22.15,116.52h-68.52v-80.91ZM-632.63,824.38v-24.06c0-2.01-1.63-3.64-3.64-3.64h-18.29c-2.01,0-3.64,1.63-3.64,3.64v24.06c0,2.01,1.63,3.64,3.64,3.64h18.29c2.01,0,3.64-1.63,3.64-3.64ZM-650.91,803.95h11.02v16.79h-11.02v-16.79Z"/>
            </g>
          </g>
        </g>
        <g class="cls-1">
          <g class="cls-3">
            <g>
              <path class="cls-4" d="M176.29,364.95v-49.11c0-2.01-1.63-3.64-3.64-3.64H46.5v-11.07h124.22c2.01,0,3.64-1.63,3.64-3.64v-34.04c0-2.01-1.63-3.64-3.64-3.64H46.5v-11.44h126.16c2.01,0,3.64-1.63,3.64-3.64v-48.75c0-2.01-1.63-3.64-3.64-3.64H33.52c-19.79,0-35.89,17.59-35.89,39.22v97.79c0,21.63,16.1,39.22,35.89,39.22h139.14c2.01,0,3.64-1.63,3.64-3.64ZM169.02,199.63v41.47H42.89c-2.01,0-3.64,1.63-3.64,3.64v1.31c-.02.14-.03.29-.03.43v14.9c0,.15,0,.29.03.43v1.64c0,2.01,1.63,3.64,3.64,3.64h124.19v26.77H42.89c-2.01,0-3.64,1.63-3.64,3.64v1.63c-.02.14-.03.29-.03.43v14.07c0,.15,0,.29.03.43v1.77c0,2.01,1.63,3.64,3.64,3.64h126.13v41.84H33.52c-15.78,0-28.62-14.33-28.62-31.95v-97.79c0-17.62,12.84-31.95,28.62-31.95h135.5Z"/>
              <path class="cls-4" d="M174.88,178.53c.69-.83.97-1.93.77-3l-22.97-120.83c-2.65-13.97-10.53-26.75-22.2-36.01-12.14-9.62-27.64-14.92-43.66-14.92C54.42,3.77,26.72,25.06,20.95,54.4L-2.88,175.51c-.21,1.07.07,2.17.76,3.01.69.84,1.72,1.33,2.81,1.33h76.55c2.01,0,3.64-1.63,3.64-3.64v-80.91h11.02v80.91c0,2.01,1.63,3.64,3.64,3.64h76.55c1.08,0,2.11-.48,2.8-1.32ZM99.16,91.67c0-2.01-1.63-3.64-3.64-3.64h-18.29c-2.01,0-3.64,1.63-3.64,3.64v80.91H5.11L28.08,55.81c5.1-25.94,29.8-44.77,58.73-44.77,14.38,0,28.28,4.74,39.14,13.35,10.3,8.17,17.25,19.42,19.57,31.67l22.15,116.52h-68.52v-80.91ZM99.16,75.3v-24.06c0-2.01-1.63-3.64-3.64-3.64h-18.29c-2.01,0-3.64,1.63-3.64,3.64v24.06c0,2.01,1.63,3.64,3.64,3.64h18.29c2.01,0,3.64-1.63,3.64-3.64ZM80.87,54.87h11.02v16.79h-11.02v-16.79Z"/>
              <path class="cls-4" d="M176.29,737.93v-49.11c0-2.01-1.63-3.64-3.64-3.64H46.5v-11.07h124.22c2.01,0,3.64-1.63,3.64-3.64v-34.04c0-2.01-1.63-3.64-3.64-3.64H46.5v-11.44h126.16c2.01,0,3.64-1.63,3.64-3.64v-48.75c0-2.01-1.63-3.64-3.64-3.64H33.52c-19.79,0-35.89,17.59-35.89,39.22v97.79c0,21.63,16.1,39.22,35.89,39.22h139.14c2.01,0,3.64-1.63,3.64-3.64ZM169.02,572.61v41.47H42.89c-2.01,0-3.64,1.63-3.64,3.64v1.31c-.02.14-.03.29-.03.43v14.9c0,.15,0,.29.03.43v1.64c0,2.01,1.63,3.64,3.64,3.64h124.19v26.77H42.89c-2.01,0-3.64,1.63-3.64,3.64v1.63c-.02.14-.03.29-.03.43v14.07c0,.15,0,.29.03.43v1.77c0,2.01,1.63,3.64,3.64,3.64h126.13v41.84H33.52c-15.78,0-28.62-14.33-28.62-31.95v-97.79c0-17.62,12.84-31.95,28.62-31.95h135.5Z"/>
              <path class="cls-4" d="M174.88,551.89c.69-.83.97-1.93.77-3l-22.97-120.83c-2.65-13.97-10.53-26.75-22.2-36.01-12.14-9.62-27.64-14.92-43.66-14.92-32.39,0-60.09,21.29-65.87,50.63l-23.83,121.1c-.21,1.07.07,2.17.76,3.01.69.84,1.72,1.33,2.81,1.33h76.55c2.01,0,3.64-1.63,3.64-3.64v-80.91h11.02v80.91c0,2.01,1.63,3.64,3.64,3.64h76.55c1.08,0,2.11-.48,2.8-1.32ZM99.16,465.03c0-2.01-1.63-3.64-3.64-3.64h-18.29c-2.01,0-3.64,1.63-3.64,3.64v80.91H5.11l22.98-116.77c5.1-25.94,29.8-44.77,58.73-44.77,14.38,0,28.28,4.74,39.14,13.35,10.3,8.17,17.25,19.42,19.57,31.67l22.15,116.52h-68.52v-80.91ZM99.16,448.67v-24.06c0-2.01-1.63-3.64-3.64-3.64h-18.29c-2.01,0-3.64,1.63-3.64,3.64v24.06c0,2.01,1.63,3.64,3.64,3.64h18.29c2.01,0,3.64-1.63,3.64-3.64ZM80.87,428.24h11.02v16.79h-11.02v-16.79Z"/>
              <path class="cls-4" d="M546.87,176.36v-49.11c0-2.01-1.63-3.64-3.64-3.64h-126.15v-11.07h124.22c2.01,0,3.64-1.63,3.64-3.64v-34.04c0-2.01-1.63-3.64-3.64-3.64h-124.22v-11.44h126.15c2.01,0,3.64-1.63,3.64-3.64V7.41c0-2.01-1.63-3.64-3.64-3.64h-139.13c-19.79,0-35.89,17.59-35.89,39.22v97.79c0,21.63,16.1,39.22,35.89,39.22h139.13c2.01,0,3.64-1.63,3.64-3.64ZM539.6,11.04v41.47h-126.13c-2.01,0-3.64,1.63-3.64,3.64v1.31c-.02.14-.03.29-.03.43v14.9c0,.15,0,.29.03.43v1.64c0,2.01,1.63,3.64,3.64,3.64h124.19v26.77h-124.19c-2.01,0-3.64,1.63-3.64,3.64v1.63c-.02.14-.03.29-.03.43v14.07c0,.15,0,.29.03.43v1.77c0,2.01,1.63,3.64,3.64,3.64h126.13v41.84h-135.5c-15.78,0-28.62-14.33-28.62-31.95V42.99c0-17.62,12.84-31.95,28.62-31.95h135.5Z"/>
              <path class="cls-4" d="M362.66,141.92V7.41c0-2.01-1.63-3.64-3.64-3.64h-101.08c-1.51,0-2.87.94-3.4,2.36s-.13,3.02,1.01,4.02l59.87,52.39-7.25,8.29L232.57,4.67c-.66-.58-1.51-.9-2.39-.9h-13.45c-18.09,0-32.8,17.08-32.8,38.07v134.52c0,2.01,1.63,3.64,3.64,3.64h101.08c1.51,0,2.87-.94,3.4-2.36.53-1.42.13-3.02-1.01-4.02l-59.87-52.39,7.25-8.29,75.6,66.16c.66.58,1.51.9,2.39.9h13.45c18.09,0,32.8-17.08,32.8-38.08ZM240.47,105.07c-1.51-1.32-3.81-1.17-5.13.34l-12.04,13.76c-1.32,1.51-1.17,3.81.34,5.13l55.33,48.41h-87.77V41.84c0-16.98,11.45-30.8,25.53-30.8h12.08l77.31,67.65c1.51,1.32,3.81,1.17,5.13-.34l12.04-13.76c.63-.73.96-1.67.89-2.64-.06-.96-.51-1.86-1.23-2.49l-55.33-48.41h87.77v130.87c0,16.99-11.45,30.81-25.53,30.81h-12.08l-77.31-67.65Z"/>
              <path class="cls-4" d="M362.48,364.8v-49.33c0-2.01-1.63-3.64-3.64-3.64h-59.66c-26.7,0-48.42-23.74-48.42-52.92v-62.91c0-2.01-1.63-3.64-3.64-3.64h-59.75c-2.01,0-3.64,1.63-3.64,3.64v168.8c0,2.01,1.63,3.64,3.64,3.64h171.47c2.01,0,3.64-1.63,3.64-3.64ZM191.02,199.63h52.48v59.28c0,33.19,24.98,60.2,55.69,60.2h56.03v42.06h-164.19v-161.53Z"/>
              <path class="cls-4" d="M546.87,549.72v-49.11c0-2.01-1.63-3.64-3.64-3.64h-126.15v-11.07h124.22c2.01,0,3.64-1.63,3.64-3.64v-34.04c0-2.01-1.63-3.64-3.64-3.64h-124.22v-11.44h126.15c2.01,0,3.64-1.63,3.64-3.64v-48.75c0-2.01-1.63-3.64-3.64-3.64h-139.13c-19.79,0-35.89,17.59-35.89,39.22v97.79c0,21.62,16.1,39.22,35.89,39.22h139.13c2.01,0,3.64-1.63,3.64-3.64ZM539.6,384.41v41.47h-126.13c-2.01,0-3.64,1.63-3.64,3.64v1.31c-.02.14-.03.29-.03.43v14.9c0,.15,0,.29.03.43v1.64c0,2.01,1.63,3.64,3.64,3.64h124.19v26.77h-124.19c-2.01,0-3.64,1.63-3.64,3.64v1.63c-.02.14-.03.29-.03.43v14.07c0,.15,0,.29.03.43v1.77c0,2.01,1.63,3.64,3.64,3.64h126.13v41.84h-135.5c-15.78,0-28.62-14.33-28.62-31.95v-97.79c0-17.62,12.84-31.95,28.62-31.95h135.5Z"/>
              <path class="cls-4" d="M362.66,515.28v-134.51c0-2.01-1.63-3.64-3.64-3.64h-101.08c-1.51,0-2.87.94-3.4,2.36s-.13,3.02,1.01,4.02l59.87,52.39-7.25,8.29-75.6-66.16c-.66-.58-1.51-.9-2.39-.9h-13.45c-18.09,0-32.8,17.08-32.8,38.07v134.52c0,2.01,1.63,3.64,3.64,3.64h101.08c1.51,0,2.87-.94,3.4-2.36.53-1.42.13-3.02-1.01-4.02l-59.87-52.39,7.25-8.29,75.6,66.16c.66.58,1.51.9,2.39.9h13.45c18.09,0,32.8-17.08,32.8-38.08ZM240.47,478.44c-.73-.64-1.68-.95-2.64-.89-.96.06-1.86.51-2.49,1.23l-12.04,13.76c-1.32,1.51-1.17,3.81.34,5.13l55.33,48.41h-87.77v-130.88c0-16.98,11.45-30.8,25.53-30.8h12.08l77.31,67.65c1.51,1.32,3.81,1.17,5.13-.34l12.04-13.76c.63-.73.96-1.67.89-2.64-.06-.96-.51-1.86-1.23-2.49l-55.33-48.41h87.77v130.87c0,16.99-11.45,30.81-25.53,30.81h-12.08l-77.31-67.65Z"/>
              <path class="cls-4" d="M545.46,367.12c.69-.83.97-1.93.77-3l-22.97-120.83c-2.65-13.97-10.53-26.76-22.2-36.01-12.14-9.62-27.64-14.92-43.66-14.92-32.39,0-60.09,21.29-65.87,50.63l-23.83,121.1c-.21,1.07.07,2.17.76,3.01.69.84,1.72,1.33,2.81,1.33h76.55c2.01,0,3.64-1.63,3.64-3.64v-80.91h11.02v80.91c0,2.01,1.63,3.64,3.64,3.64h76.55c1.08,0,2.11-.48,2.8-1.32ZM469.75,280.25c0-2.01-1.63-3.64-3.64-3.64h-18.29c-2.01,0-3.64,1.63-3.64,3.64v80.91h-68.49l22.98-116.76c5.1-25.94,29.8-44.77,58.73-44.77,14.38,0,28.29,4.74,39.14,13.35,10.3,8.17,17.25,19.42,19.57,31.67l22.15,116.52h-68.52v-80.91ZM469.75,263.89v-24.06c0-2.01-1.63-3.64-3.64-3.64h-18.29c-2.01,0-3.64,1.63-3.64,3.64v24.06c0,2.01,1.63,3.64,3.64,3.64h18.29c2.01,0,3.64-1.63,3.64-3.64ZM451.46,243.46h11.02v16.79h-11.02v-16.79Z"/>
              <path class="cls-4" d="M369.22,737.93v-49.33c0-2.01-1.63-3.64-3.64-3.64h-59.66c-26.7,0-48.42-23.74-48.42-52.92v-62.91c0-2.01-1.63-3.64-3.64-3.64h-59.75c-2.01,0-3.64,1.63-3.64,3.64v168.8c0,2.01,1.63,3.64,3.64,3.64h171.47c2.01,0,3.64-1.63,3.64-3.64ZM197.76,572.76h52.48v59.28c0,33.19,24.98,60.2,55.69,60.2h56.03v42.06h-164.19v-161.53Z"/>
              <path class="cls-4" d="M552.2,740.25c.69-.83.97-1.93.77-3l-22.97-120.83c-2.65-13.97-10.53-26.75-22.2-36.01-12.14-9.62-27.64-14.92-43.66-14.92-32.39,0-60.09,21.3-65.87,50.63l-23.83,121.1c-.21,1.07.07,2.17.76,3.01.69.84,1.72,1.33,2.81,1.33h76.55c2.01,0,3.64-1.63,3.64-3.64v-80.91h11.02v80.91c0,2.01,1.63,3.64,3.64,3.64h76.55c1.08,0,2.11-.48,2.8-1.32ZM476.48,653.38c0-2.01-1.63-3.64-3.64-3.64h-18.29c-2.01,0-3.64,1.63-3.64,3.64v80.91h-68.49l22.98-116.77c5.1-25.94,29.8-44.77,58.73-44.77,14.38,0,28.28,4.74,39.14,13.35,10.3,8.17,17.25,19.42,19.57,31.67l22.15,116.52h-68.52v-80.91ZM476.48,637.02v-24.06c0-2.01-1.63-3.64-3.64-3.64h-18.29c-2.01,0-3.64,1.63-3.64,3.64v24.06c0,2.01,1.63,3.64,3.64,3.64h18.29c2.01,0,3.64-1.63,3.64-3.64ZM458.2,616.59h11.02v16.79h-11.02v-16.79Z"/>
              <path class="cls-4" d="M733.54,176.21v-49.33c0-2.01-1.63-3.64-3.64-3.64h-59.66c-26.7,0-48.42-23.74-48.42-52.92V7.41c0-2.01-1.63-3.64-3.64-3.64h-59.75c-2.01,0-3.64,1.63-3.64,3.64v168.8c0,2.01,1.63,3.64,3.64,3.64h171.47c2.01,0,3.64-1.63,3.64-3.64ZM562.07,11.04h52.48v59.28c0,33.19,24.98,60.2,55.69,60.2h56.03v42.06h-164.19V11.04Z"/>
              <path class="cls-4" d="M917.93,364.95v-49.11c0-2.01-1.63-3.64-3.64-3.64h-126.16v-11.07h124.22c2.01,0,3.64-1.63,3.64-3.64v-34.04c0-2.01-1.63-3.64-3.64-3.64h-124.22v-11.44h126.16c2.01,0,3.64-1.63,3.64-3.64v-48.75c0-2.01-1.63-3.64-3.64-3.64h-139.14c-19.79,0-35.89,17.59-35.89,39.22v97.79c0,21.63,16.1,39.22,35.89,39.22h139.14c2.01,0,3.64-1.63,3.64-3.64ZM910.65,199.63v41.47h-126.13c-2.01,0-3.64,1.63-3.64,3.64v1.31c-.02.14-.03.29-.03.43v14.9c0,.15,0,.29.03.43v1.64c0,2.01,1.63,3.64,3.64,3.64h124.19v26.77h-124.19c-2.01,0-3.64,1.63-3.64,3.64v1.63c-.02.14-.03.29-.03.43v14.07c0,.15,0,.29.03.43v1.77c0,2.01,1.63,3.64,3.64,3.64h126.13v41.84h-135.5c-15.78,0-28.62-14.33-28.62-31.95v-97.79c0-17.62,12.84-31.95,28.62-31.95h135.5Z"/>
              <path class="cls-4" d="M733.71,330.5v-134.51c0-2.01-1.63-3.64-3.64-3.64h-101.08c-1.51,0-2.87.94-3.4,2.36-.53,1.42-.13,3.02,1.01,4.02l59.87,52.39-7.25,8.29-75.6-66.16c-.66-.58-1.51-.9-2.39-.9h-13.45c-18.09,0-32.8,17.08-32.8,38.07v134.52c0,2.01,1.63,3.64,3.64,3.64h101.08c1.51,0,2.87-.94,3.4-2.36s.13-3.02-1.01-4.02l-59.87-52.39,7.25-8.29,75.6,66.16c.66.58,1.51.9,2.39.9h13.45c18.09,0,32.8-17.08,32.8-38.08ZM611.52,293.66c-1.51-1.32-3.81-1.17-5.13.34l-12.04,13.76c-.63.73-.96,1.67-.89,2.64.06.96.51,1.86,1.23,2.49l55.33,48.41h-87.77v-130.88c0-16.98,11.45-30.8,25.53-30.8h12.08l77.31,67.65c.73.63,1.68.95,2.64.89.96-.06,1.86-.51,2.49-1.23l12.04-13.76c1.32-1.51,1.17-3.81-.34-5.13l-55.33-48.41h87.77v130.87c0,16.99-11.45,30.81-25.53,30.81h-12.08l-77.31-67.65Z"/>
              <path class="cls-4" d="M916.51,178.53c.69-.83.97-1.93.77-3l-22.97-120.83c-2.65-13.97-10.53-26.75-22.2-36.01-12.14-9.62-27.64-14.92-43.66-14.92-32.39,0-60.09,21.29-65.87,50.63l-23.83,121.1c-.21,1.07.07,2.17.76,3.01.69.84,1.72,1.33,2.81,1.33h76.55c2.01,0,3.64-1.63,3.64-3.64v-80.91h11.02v80.91c0,2.01,1.63,3.64,3.64,3.64h76.55c1.08,0,2.11-.48,2.8-1.32ZM840.8,91.67c0-2.01-1.63-3.64-3.64-3.64h-18.29c-2.01,0-3.64,1.63-3.64,3.64v80.91h-68.49l22.98-116.76c5.1-25.94,29.8-44.77,58.73-44.77,14.38,0,28.28,4.74,39.14,13.35,10.3,8.17,17.25,19.42,19.57,31.67l22.15,116.52h-68.52v-80.91ZM840.8,75.3v-24.06c0-2.01-1.63-3.64-3.64-3.64h-18.29c-2.01,0-3.64,1.63-3.64,3.64v24.06c0,2.01,1.63,3.64,3.64,3.64h18.29c2.01,0,3.64-1.63,3.64-3.64ZM822.51,54.87h11.02v16.79h-11.02v-16.79Z"/>
              <path class="cls-4" d="M733.54,549.57v-49.33c0-2.01-1.63-3.64-3.64-3.64h-59.66c-26.7,0-48.42-23.74-48.42-52.92v-62.91c0-2.01-1.63-3.64-3.64-3.64h-59.75c-2.01,0-3.64,1.63-3.64,3.64v168.8c0,2.01,1.63,3.64,3.64,3.64h171.47c2.01,0,3.64-1.63,3.64-3.64ZM562.07,384.41h52.48v59.28c0,33.19,24.98,60.2,55.69,60.2h56.03v42.06h-164.19v-161.53Z"/>
              <path class="cls-4" d="M917.93,737.93v-49.11c0-2.01-1.63-3.64-3.64-3.64h-126.16v-11.07h124.22c2.01,0,3.64-1.63,3.64-3.64v-34.04c0-2.01-1.63-3.64-3.64-3.64h-124.22v-11.44h126.16c2.01,0,3.64-1.63,3.64-3.64v-48.75c0-2.01-1.63-3.64-3.64-3.64h-139.14c-19.79,0-35.89,17.59-35.89,39.22v97.79c0,21.63,16.1,39.22,35.89,39.22h139.14c2.01,0,3.64-1.63,3.64-3.64ZM910.65,572.61v41.47h-126.13c-2.01,0-3.64,1.63-3.64,3.64v1.31c-.02.14-.03.29-.03.43v14.9c0,.15,0,.29.03.43v1.64c0,2.01,1.63,3.64,3.64,3.64h124.19v26.77h-124.19c-2.01,0-3.64,1.63-3.64,3.64v1.63c-.02.14-.03.29-.03.43v14.07c0,.15,0,.29.03.43v1.77c0,2.01,1.63,3.64,3.64,3.64h126.13v41.84h-135.5c-15.78,0-28.62-14.33-28.62-31.95v-97.79c0-17.62,12.84-31.95,28.62-31.95h135.5Z"/>
              <path class="cls-4" d="M733.71,703.49v-134.51c0-2.01-1.63-3.64-3.64-3.64h-101.08c-1.51,0-2.87.94-3.4,2.36-.53,1.42-.13,3.02,1.01,4.02l59.87,52.39-7.25,8.29-75.6-66.16c-.66-.58-1.51-.9-2.39-.9h-13.45c-18.09,0-32.8,17.08-32.8,38.07v134.52c0,2.01,1.63,3.64,3.64,3.64h101.08c1.51,0,2.87-.94,3.4-2.36.53-1.42.13-3.02-1.01-4.02l-59.87-52.39,7.25-8.29,75.6,66.16c.66.58,1.51.9,2.39.9h13.45c18.09,0,32.8-17.08,32.8-38.08ZM611.52,666.64c-1.51-1.32-3.81-1.17-5.13.34l-12.04,13.76c-.63.73-.96,1.67-.89,2.64.06.96.51,1.86,1.23,2.49l55.33,48.41h-87.77v-130.88c0-16.98,11.45-30.8,25.53-30.8h12.08l77.31,67.65c.73.63,1.68.95,2.64.89.96-.06,1.86-.51,2.49-1.23l12.04-13.76c1.32-1.51,1.17-3.81-.34-5.13l-55.33-48.41h87.77v130.87c0,16.99-11.45,30.81-25.53,30.81h-12.08l-77.31-67.65Z"/>
              <path class="cls-4" d="M916.51,551.89c.69-.83.97-1.93.77-3l-22.97-120.83c-2.65-13.97-10.53-26.75-22.2-36.01-12.14-9.62-27.64-14.92-43.66-14.92-32.39,0-60.09,21.29-65.87,50.63l-23.83,121.1c-.21,1.07.07,2.17.76,3.01.69.84,1.72,1.33,2.81,1.33h76.55c2.01,0,3.64-1.63,3.64-3.64v-80.91h11.02v80.91c0,2.01,1.63,3.64,3.64,3.64h76.55c1.08,0,2.11-.48,2.8-1.32ZM840.8,465.03c0-2.01-1.63-3.64-3.64-3.64h-18.29c-2.01,0-3.64,1.63-3.64,3.64v80.91h-68.49l22.98-116.77c5.1-25.94,29.8-44.77,58.73-44.77,14.38,0,28.28,4.74,39.14,13.35,10.3,8.17,17.25,19.42,19.57,31.67l22.15,116.52h-68.52v-80.91ZM840.8,448.67v-24.06c0-2.01-1.63-3.64-3.64-3.64h-18.29c-2.01,0-3.64,1.63-3.64,3.64v24.06c0,2.01,1.63,3.64,3.64,3.64h18.29c2.01,0,3.64-1.63,3.64-3.64ZM822.51,428.24h11.02v16.79h-11.02v-16.79Z"/>
              <path class="cls-4" d="M176.29,1113.64v-49.11c0-2.01-1.63-3.64-3.64-3.64H46.5v-11.07h124.22c2.01,0,3.64-1.63,3.64-3.64v-34.04c0-2.01-1.63-3.64-3.64-3.64H46.5v-11.44h126.16c2.01,0,3.64-1.63,3.64-3.64v-48.75c0-2.01-1.63-3.64-3.64-3.64H33.52c-19.79,0-35.89,17.59-35.89,39.22v97.79c0,21.63,16.1,39.22,35.89,39.22h139.14c2.01,0,3.64-1.63,3.64-3.64ZM169.02,948.32v41.47H42.89c-2.01,0-3.64,1.63-3.64,3.64v1.31c-.02.14-.03.29-.03.43v14.9c0,.15,0,.29.03.43v1.64c0,2.01,1.63,3.64,3.64,3.64h124.19v26.77H42.89c-2.01,0-3.64,1.63-3.64,3.64v1.63c-.02.14-.03.29-.03.43v14.07c0,.15,0,.29.03.43v1.77c0,2.01,1.63,3.64,3.64,3.64h126.13v41.84H33.52c-15.78,0-28.62-14.33-28.62-31.95v-97.79c0-17.62,12.84-31.95,28.62-31.95h135.5Z"/>
              <path class="cls-4" d="M174.88,927.61c.69-.83.97-1.93.77-3l-22.97-120.83c-2.65-13.97-10.53-26.75-22.2-36.01-12.14-9.62-27.64-14.92-43.66-14.92-32.39,0-60.09,21.29-65.87,50.63l-23.83,121.1c-.21,1.07.07,2.17.76,3.01.69.84,1.72,1.33,2.81,1.33h76.55c2.01,0,3.64-1.63,3.64-3.64v-80.91h11.02v80.91c0,2.01,1.63,3.64,3.64,3.64h76.55c1.08,0,2.11-.48,2.8-1.32ZM99.16,840.74c0-2.01-1.63-3.64-3.64-3.64h-18.29c-2.01,0-3.64,1.63-3.64,3.64v80.91H5.11l22.98-116.77c5.1-25.94,29.8-44.77,58.73-44.77,14.38,0,28.28,4.74,39.14,13.35,10.3,8.17,17.25,19.42,19.57,31.67l22.15,116.52h-68.52v-80.91ZM99.16,824.38v-24.06c0-2.01-1.63-3.64-3.64-3.64h-18.29c-2.01,0-3.64,1.63-3.64,3.64v24.06c0,2.01,1.63,3.64,3.64,3.64h18.29c2.01,0,3.64-1.63,3.64-3.64ZM80.87,803.95h11.02v16.79h-11.02v-16.79Z"/>
              <path class="cls-4" d="M546.87,925.43v-49.11c0-2.01-1.63-3.64-3.64-3.64h-126.15v-11.07h124.22c2.01,0,3.64-1.63,3.64-3.64v-34.04c0-2.01-1.63-3.64-3.64-3.64h-124.22v-11.44h126.15c2.01,0,3.64-1.63,3.64-3.64v-48.75c0-2.01-1.63-3.64-3.64-3.64h-139.13c-19.79,0-35.89,17.59-35.89,39.22v97.79c0,21.62,16.1,39.22,35.89,39.22h139.13c2.01,0,3.64-1.63,3.64-3.64ZM539.6,760.12v41.47h-126.13c-2.01,0-3.64,1.63-3.64,3.64v1.31c-.02.14-.03.29-.03.43v14.9c0,.15,0,.29.03.43v1.64c0,2.01,1.63,3.64,3.64,3.64h124.19v26.77h-124.19c-2.01,0-3.64,1.63-3.64,3.64v1.63c-.02.14-.03.29-.03.43v14.07c0,.15,0,.29.03.43v1.77c0,2.01,1.63,3.64,3.64,3.64h126.13v41.84h-135.5c-15.78,0-28.62-14.33-28.62-31.95v-97.79c0-17.62,12.84-31.95,28.62-31.95h135.5Z"/>
              <path class="cls-4" d="M362.66,890.99v-134.51c0-2.01-1.63-3.64-3.64-3.64h-101.08c-1.51,0-2.87.94-3.4,2.36s-.13,3.02,1.01,4.02l59.87,52.39-7.25,8.29-75.6-66.16c-.66-.58-1.51-.9-2.39-.9h-13.45c-18.09,0-32.8,17.08-32.8,38.07v134.52c0,2.01,1.63,3.64,3.64,3.64h101.08c1.51,0,2.87-.94,3.4-2.36.53-1.42.13-3.02-1.01-4.02l-59.87-52.39,7.25-8.29,75.6,66.16c.66.58,1.51.9,2.39.9h13.45c18.09,0,32.8-17.08,32.8-38.08ZM240.47,854.15c-.73-.64-1.68-.95-2.64-.89-.96.06-1.86.51-2.49,1.23l-12.04,13.76c-1.32,1.51-1.17,3.81.34,5.13l55.33,48.41h-87.77v-130.88c0-16.98,11.45-30.8,25.53-30.8h12.08l77.31,67.65c1.51,1.32,3.81,1.17,5.13-.34l12.04-13.76c.63-.73.96-1.67.89-2.64-.06-.96-.51-1.86-1.23-2.49l-55.33-48.41h87.77v130.87c0,16.99-11.45,30.81-25.53,30.81h-12.08l-77.31-67.65Z"/>
              <path class="cls-4" d="M369.22,1113.64v-49.33c0-2.01-1.63-3.64-3.64-3.64h-59.66c-26.7,0-48.42-23.74-48.42-52.92v-62.91c0-2.01-1.63-3.64-3.64-3.64h-59.75c-2.01,0-3.64,1.63-3.64,3.64v168.8c0,2.01,1.63,3.64,3.64,3.64h171.47c2.01,0,3.64-1.63,3.64-3.64ZM197.76,948.47h52.48v59.28c0,33.19,24.98,60.2,55.69,60.2h56.03v42.06h-164.19v-161.53Z"/>
              <path class="cls-4" d="M552.2,1115.96c.69-.83.97-1.93.77-3l-22.97-120.83c-2.65-13.97-10.53-26.75-22.2-36.01-12.14-9.62-27.64-14.92-43.66-14.92-32.39,0-60.09,21.3-65.87,50.63l-23.83,121.1c-.21,1.07.07,2.17.76,3.01.69.84,1.72,1.33,2.81,1.33h76.55c2.01,0,3.64-1.63,3.64-3.64v-80.91h11.02v80.91c0,2.01,1.63,3.64,3.64,3.64h76.55c1.08,0,2.11-.48,2.8-1.32ZM476.48,1029.09c0-2.01-1.63-3.64-3.64-3.64h-18.29c-2.01,0-3.64,1.63-3.64,3.64v80.91h-68.49l22.98-116.77c5.1-25.94,29.8-44.77,58.73-44.77,14.38,0,28.28,4.74,39.14,13.35,10.3,8.17,17.25,19.42,19.57,31.67l22.15,116.52h-68.52v-80.91ZM476.48,1012.73v-24.06c0-2.01-1.63-3.64-3.64-3.64h-18.29c-2.01,0-3.64,1.63-3.64,3.64v24.06c0,2.01,1.63,3.64,3.64,3.64h18.29c2.01,0,3.64-1.63,3.64-3.64ZM458.2,992.3h11.02v16.79h-11.02v-16.79Z"/>
              <path class="cls-4" d="M733.54,925.28v-49.33c0-2.01-1.63-3.64-3.64-3.64h-59.66c-26.7,0-48.42-23.74-48.42-52.92v-62.91c0-2.01-1.63-3.64-3.64-3.64h-59.75c-2.01,0-3.64,1.63-3.64,3.64v168.8c0,2.01,1.63,3.64,3.64,3.64h171.47c2.01,0,3.64-1.63,3.64-3.64ZM562.07,760.12h52.48v59.28c0,33.19,24.98,60.2,55.69,60.2h56.03v42.06h-164.19v-161.53Z"/>
              <path class="cls-4" d="M917.93,1113.64v-49.11c0-2.01-1.63-3.64-3.64-3.64h-126.16v-11.07h124.22c2.01,0,3.64-1.63,3.64-3.64v-34.04c0-2.01-1.63-3.64-3.64-3.64h-124.22v-11.44h126.16c2.01,0,3.64-1.63,3.64-3.64v-48.75c0-2.01-1.63-3.64-3.64-3.64h-139.14c-19.79,0-35.89,17.59-35.89,39.22v97.79c0,21.63,16.1,39.22,35.89,39.22h139.14c2.01,0,3.64-1.63,3.64-3.64ZM910.65,948.32v41.47h-126.13c-2.01,0-3.64,1.63-3.64,3.64v1.31c-.02.14-.03.29-.03.43v14.9c0,.15,0,.29.03.43v1.64c0,2.01,1.63,3.64,3.64,3.64h124.19v26.77h-124.19c-2.01,0-3.64,1.63-3.64,3.64v1.63c-.02.14-.03.29-.03.43v14.07c0,.15,0,.29.03.43v1.77c0,2.01,1.63,3.64,3.64,3.64h126.13v41.84h-135.5c-15.78,0-28.62-14.33-28.62-31.95v-97.79c0-17.62,12.84-31.95,28.62-31.95h135.5Z"/>
              <path class="cls-4" d="M733.71,1079.2v-134.51c0-2.01-1.63-3.64-3.64-3.64h-101.08c-1.51,0-2.87.94-3.4,2.36-.53,1.42-.13,3.02,1.01,4.02l59.87,52.39-7.25,8.29-75.6-66.16c-.66-.58-1.51-.9-2.39-.9h-13.45c-18.09,0-32.8,17.08-32.8,38.07v134.52c0,2.01,1.63,3.64,3.64,3.64h101.08c1.51,0,2.87-.94,3.4-2.36.53-1.42.13-3.02-1.01-4.02l-59.87-52.39,7.25-8.29,75.6,66.16c.66.58,1.51.9,2.39.9h13.45c18.09,0,32.8-17.08,32.8-38.08ZM611.52,1042.35c-1.51-1.32-3.81-1.17-5.13.34l-12.04,13.76c-.63.73-.96,1.67-.89,2.64.06.96.51,1.86,1.23,2.49l55.33,48.41h-87.77v-130.88c0-16.98,11.45-30.8,25.53-30.8h12.08l77.31,67.65c.73.63,1.68.95,2.64.89.96-.06,1.86-.51,2.49-1.23l12.04-13.76c1.32-1.51,1.17-3.81-.34-5.13l-55.33-48.41h87.77v130.87c0,16.99-11.45,30.81-25.53,30.81h-12.08l-77.31-67.65Z"/>
              <path class="cls-4" d="M916.51,927.61c.69-.83.97-1.93.77-3l-22.97-120.83c-2.65-13.97-10.53-26.75-22.2-36.01-12.14-9.62-27.64-14.92-43.66-14.92-32.39,0-60.09,21.29-65.87,50.63l-23.83,121.1c-.21,1.07.07,2.17.76,3.01.69.84,1.72,1.33,2.81,1.33h76.55c2.01,0,3.64-1.63,3.64-3.64v-80.91h11.02v80.91c0,2.01,1.63,3.64,3.64,3.64h76.55c1.08,0,2.11-.48,2.8-1.32ZM840.8,840.74c0-2.01-1.63-3.64-3.64-3.64h-18.29c-2.01,0-3.64,1.63-3.64,3.64v80.91h-68.49l22.98-116.77c5.1-25.94,29.8-44.77,58.73-44.77,14.38,0,28.28,4.74,39.14,13.35,10.3,8.17,17.25,19.42,19.57,31.67l22.15,116.52h-68.52v-80.91ZM840.8,824.38v-24.06c0-2.01-1.63-3.64-3.64-3.64h-18.29c-2.01,0-3.64,1.63-3.64,3.64v24.06c0,2.01,1.63,3.64,3.64,3.64h18.29c2.01,0,3.64-1.63,3.64-3.64ZM822.51,803.95h11.02v16.79h-11.02v-16.79Z"/>
            </g>
          </g>
        </g>
      </g>
    </pattern>
  </defs>
  <g class="cls-5">
    <g id="Layer_2">
      <g id="Layer_1-2" data-name="Layer_1">
        <rect class="cls-7" width="1700" height="8002"/>
      </g>
    </g>
  </g>
</svg>