<svg width="281" height="154" viewBox="0 0 281 154" fill="none" xmlns="http://www.w3.org/2000/svg">
<path d="M160.291 122.42V121.024H167.219C167.68 121.024 168.12 120.994 168.531 120.923C168.941 120.853 169.302 120.732 169.612 120.551C169.922 120.371 170.173 120.119 170.353 119.798C170.533 119.476 170.633 119.054 170.633 118.552C170.633 118.14 170.543 117.788 170.363 117.487C170.183 117.186 169.942 116.934 169.652 116.733C169.352 116.533 169.011 116.382 168.611 116.281C168.21 116.181 167.78 116.141 167.319 116.141H160.271V114.744H167.079C167.97 114.744 168.731 114.825 169.372 114.995C170.013 115.166 170.543 115.397 170.964 115.709C171.384 116.02 171.685 116.412 171.885 116.894C172.085 117.377 172.185 117.919 172.185 118.552C172.185 119.185 172.085 119.728 171.895 120.22C171.705 120.712 171.384 121.114 170.944 121.436C170.503 121.757 169.922 122.008 169.202 122.169C168.481 122.34 167.6 122.42 166.548 122.42H160.301H160.291ZM160.271 114.754H161.723V128.7H160.271V114.754ZM160.271 128.69V127.293H167.419C167.99 127.293 168.511 127.253 168.981 127.183C169.452 127.112 169.852 126.982 170.183 126.781C170.513 126.58 170.773 126.339 170.954 126.027C171.134 125.716 171.234 125.324 171.234 124.842C171.234 124.44 171.114 124.088 170.884 123.787C170.653 123.485 170.353 123.224 169.993 123.023C169.632 122.822 169.212 122.661 168.751 122.561C168.291 122.46 167.83 122.41 167.359 122.41H160.291V121.014H166.659C167.61 121.014 168.461 121.094 169.222 121.265C169.972 121.436 170.613 121.677 171.144 121.998C171.674 122.32 172.075 122.722 172.355 123.194C172.636 123.666 172.776 124.209 172.776 124.842C172.776 125.475 172.686 126.017 172.505 126.509C172.325 126.992 172.025 127.394 171.604 127.715C171.184 128.037 170.623 128.278 169.922 128.439C169.232 128.609 168.371 128.69 167.349 128.69H160.261H160.271Z" fill="#00CE84"/>
<path d="M173.096 118.732H174.728L179.814 128.157L178.903 129.513L173.106 118.732H173.096ZM179.203 130.488C178.983 131.08 178.733 131.593 178.462 132.005C178.182 132.417 177.852 132.728 177.461 132.949C177.071 133.17 176.57 133.281 175.96 133.281C175.479 133.281 175.078 133.18 174.738 132.989C174.398 132.799 174.127 132.527 173.907 132.186C173.687 131.844 173.527 131.432 173.427 130.96C173.326 130.488 173.276 129.985 173.276 129.433H174.588C174.588 129.955 174.628 130.377 174.708 130.709C174.788 131.04 174.888 131.302 175.018 131.482C175.149 131.663 175.289 131.794 175.469 131.864C175.639 131.934 175.819 131.965 176.01 131.965C176.29 131.965 176.53 131.904 176.74 131.774C176.951 131.643 177.141 131.472 177.311 131.251C177.471 131.03 177.621 130.769 177.752 130.478C177.882 130.176 178.002 129.855 178.122 129.513L181.876 118.732H183.368L179.954 128.448C179.694 129.202 179.444 129.885 179.233 130.478L179.203 130.488Z" fill="#00CE84"/>
<path d="M188.494 114.754H190.296L195.392 121.305L194.481 122.42L188.484 114.754H188.494ZM193.961 121.305L199.067 114.754H200.869L194.892 122.42L193.961 121.305ZM193.961 121.305H195.412V128.7H193.961V121.305Z" fill="#00CE84"/>
<path d="M201.219 119.767C202.1 118.873 203.482 118.431 205.344 118.431C207.206 118.431 208.568 118.873 209.459 119.767C210.35 120.661 210.8 121.967 210.8 123.716C210.8 125.464 210.35 126.77 209.459 127.664C208.568 128.558 207.196 129 205.344 129C203.492 129 202.1 128.558 201.219 127.664C200.328 126.77 199.888 125.464 199.888 123.716C199.888 121.967 200.328 120.661 201.219 119.767ZM202.381 126.629C203.021 127.282 204.012 127.614 205.344 127.614C206.676 127.614 207.667 127.282 208.308 126.629C208.948 125.976 209.269 125.002 209.269 123.716C209.269 122.429 208.948 121.455 208.308 120.802C207.667 120.149 206.676 119.817 205.344 119.817C204.012 119.817 203.001 120.149 202.371 120.802C201.74 121.455 201.419 122.429 201.419 123.716C201.419 125.002 201.74 125.976 202.381 126.629Z" fill="#00CE84"/>
<path d="M213.624 118.732V124.349C213.624 124.831 213.674 125.273 213.764 125.675C213.854 126.077 214.024 126.429 214.275 126.71C214.515 126.991 214.855 127.222 215.276 127.373C215.696 127.534 216.247 127.614 216.928 127.614C218.129 127.614 219.04 127.283 219.651 126.63C220.262 125.976 220.562 125.002 220.562 123.736V123.535H221.293V123.716C221.293 124.51 221.223 125.233 221.083 125.876C220.942 126.519 220.702 127.072 220.352 127.544C220.001 128.006 219.531 128.368 218.93 128.619C218.329 128.87 217.578 129.001 216.667 129.001C215.886 129.001 215.216 128.9 214.655 128.709C214.094 128.518 213.634 128.227 213.263 127.855C212.903 127.474 212.633 127.001 212.462 126.419C212.292 125.836 212.202 125.163 212.202 124.399V118.742H213.634L213.624 118.732ZM221.984 118.732V128.689H220.552V118.732H221.984Z" fill="#00CE84"/>
<path d="M223.966 128.689V118.732H225.398V128.689H223.966ZM231.034 122.761C231.034 122.319 230.994 121.927 230.914 121.565C230.834 121.204 230.704 120.902 230.504 120.641C230.303 120.38 230.053 120.179 229.723 120.038C229.392 119.888 228.982 119.817 228.491 119.817C227.51 119.817 226.749 120.149 226.209 120.802C225.668 121.455 225.398 122.429 225.398 123.695V123.896H224.667V123.716C224.667 122.922 224.737 122.198 224.887 121.555C225.037 120.912 225.267 120.36 225.578 119.888C225.888 119.415 226.309 119.064 226.829 118.812C227.35 118.561 227.961 118.431 228.671 118.431C229.322 118.431 229.873 118.531 230.343 118.722C230.804 118.913 231.194 119.194 231.505 119.546C231.815 119.908 232.045 120.36 232.186 120.902C232.336 121.445 232.406 122.068 232.406 122.751H231.034V122.761Z" fill="#00CE84"/>
<path d="M241.977 121.827C241.306 121.646 240.736 121.405 240.255 121.113C239.785 120.812 239.404 120.44 239.134 119.988C238.863 119.536 238.723 118.963 238.723 118.26C238.723 116.923 239.194 115.949 240.125 115.356C241.056 114.763 242.528 114.462 244.52 114.462C245.391 114.462 246.182 114.542 246.883 114.713C247.584 114.884 248.174 115.145 248.645 115.517C249.125 115.889 249.486 116.381 249.746 116.984C250.007 117.587 250.137 118.33 250.137 119.204H248.705C248.705 118.491 248.585 117.908 248.355 117.476C248.124 117.044 247.814 116.712 247.423 116.491C247.033 116.27 246.583 116.12 246.062 116.049C245.541 115.979 245.001 115.949 244.43 115.949C243.639 115.949 242.968 115.999 242.438 116.1C241.897 116.2 241.477 116.351 241.156 116.542C240.836 116.733 240.615 116.974 240.485 117.245C240.355 117.516 240.285 117.848 240.285 118.22C240.285 118.591 240.385 118.943 240.585 119.224C240.786 119.506 241.066 119.757 241.426 119.948C241.787 120.139 242.237 120.319 242.768 120.46C243.299 120.601 243.889 120.731 244.55 120.852C245.501 121.013 246.332 121.194 247.053 121.405C247.764 121.605 248.365 121.877 248.845 122.188C249.326 122.5 249.686 122.902 249.926 123.364C250.167 123.826 250.287 124.409 250.287 125.092C250.287 126.468 249.806 127.473 248.845 128.076C247.884 128.689 246.372 128.99 244.31 128.99C243.429 128.99 242.618 128.91 241.897 128.739C241.176 128.578 240.575 128.307 240.085 127.935C239.594 127.564 239.214 127.071 238.944 126.468C238.673 125.866 238.533 125.122 238.533 124.248H239.965C239.965 124.991 240.085 125.584 240.335 126.016C240.585 126.458 240.906 126.79 241.316 127.011C241.727 127.232 242.197 127.383 242.748 127.463C243.289 127.533 243.849 127.574 244.44 127.574C245.892 127.574 246.973 127.373 247.674 126.981C248.375 126.589 248.725 125.986 248.725 125.162C248.725 124.579 248.565 124.127 248.254 123.796C247.944 123.474 247.554 123.223 247.083 123.042C246.613 122.861 246.112 122.731 245.581 122.64C245.051 122.55 244.58 122.46 244.15 122.369C243.359 122.178 242.628 121.997 241.957 121.816L241.977 121.827Z" fill="#00CE84"/>
<path d="M251.729 114.834C251.909 114.653 252.199 114.553 252.61 114.553C253.02 114.553 253.31 114.643 253.491 114.834C253.671 115.025 253.761 115.316 253.761 115.708C253.761 116.1 253.671 116.381 253.491 116.572C253.31 116.763 253.02 116.864 252.61 116.864C252.199 116.864 251.909 116.763 251.729 116.572C251.548 116.381 251.458 116.09 251.458 115.708C251.458 115.326 251.548 115.015 251.729 114.834ZM251.889 118.732H253.32V128.689H251.889V118.732Z" fill="#00CE84"/>
<path d="M256.184 119.767C257.035 118.873 258.236 118.431 259.798 118.431C260.719 118.431 261.47 118.562 262.051 118.813C262.621 119.064 263.082 119.416 263.422 119.878C263.763 120.34 263.993 120.893 264.113 121.546C264.243 122.199 264.303 122.922 264.303 123.716C264.303 124.429 264.243 125.112 264.133 125.745C264.023 126.378 263.803 126.941 263.482 127.423C263.162 127.906 262.711 128.287 262.131 128.569C261.56 128.85 260.799 129.001 259.878 129.001C259.177 129.001 258.517 128.89 257.916 128.659C257.315 128.428 256.784 128.097 256.334 127.654C255.883 127.212 255.543 126.66 255.293 125.997C255.042 125.344 254.912 124.58 254.912 123.716C254.912 121.978 255.333 120.662 256.184 119.767ZM257.345 126.62C257.946 127.283 258.837 127.614 260.018 127.614C261.2 127.614 262.151 127.283 262.762 126.62C263.372 125.956 263.673 124.982 263.673 123.696C263.673 122.41 263.372 121.455 262.762 120.802C262.151 120.149 261.24 119.818 260.018 119.818C259.348 119.818 258.777 119.898 258.316 120.069C257.856 120.24 257.495 120.481 257.215 120.802C256.935 121.124 256.734 121.536 256.614 122.018C256.494 122.5 256.434 123.063 256.434 123.706C256.434 124.992 256.734 125.966 257.335 126.63L257.345 126.62ZM263.663 113.749H265.094V128.689H263.663V113.749Z" fill="#00CE84"/>
<path d="M277.038 124.188H275.547V123.535C275.547 122.832 275.456 122.239 275.286 121.767C275.116 121.284 274.866 120.903 274.545 120.601C274.225 120.3 273.835 120.089 273.394 119.958C272.953 119.828 272.453 119.757 271.892 119.757C271.332 119.757 270.881 119.838 270.431 120.008C269.99 120.179 269.6 120.42 269.259 120.752C268.919 121.083 268.658 121.495 268.478 121.988C268.288 122.48 268.198 123.053 268.198 123.716C268.198 124.459 268.288 125.082 268.468 125.585C268.648 126.087 268.909 126.499 269.249 126.81C269.59 127.122 270.01 127.343 270.511 127.473C271.011 127.604 271.572 127.674 272.213 127.674C272.703 127.674 273.144 127.614 273.554 127.484C273.955 127.353 274.305 127.182 274.605 126.961C274.906 126.74 275.136 126.489 275.296 126.208C275.466 125.926 275.547 125.615 275.547 125.283L276.918 125.303C276.918 126.408 276.518 127.293 275.707 127.976C274.896 128.649 273.724 128.991 272.193 128.991C270.33 128.991 268.939 128.538 268.038 127.644C267.127 126.75 266.676 125.434 266.676 123.686C266.676 121.937 267.117 120.682 268.008 119.777C268.889 118.873 270.17 118.421 271.842 118.421C273.704 118.421 275.046 118.883 275.837 119.797C276.638 120.712 277.038 122.038 277.038 123.776V124.178V124.188ZM267.477 122.952H276.127V124.188H267.477V122.952Z" fill="#00CE84"/>
<path d="M278.76 127.022C278.941 126.831 279.231 126.74 279.621 126.74C280.012 126.74 280.302 126.831 280.482 127.022C280.663 127.212 280.753 127.484 280.753 127.855C280.753 128.267 280.703 128.669 280.612 129.061C280.522 129.453 280.382 129.815 280.202 130.156C280.022 130.498 279.792 130.799 279.511 131.071C279.231 131.342 278.89 131.563 278.51 131.734L278.27 131.352C278.77 130.91 279.121 130.508 279.311 130.126C279.501 129.744 279.621 129.363 279.661 128.981C279.261 128.981 278.971 128.9 278.78 128.73C278.59 128.569 278.49 128.267 278.49 127.845C278.49 127.474 278.58 127.192 278.76 127.011V127.022Z" fill="#00CE84"/>
<path d="M160.271 134.667H161.723V148.613H160.271V134.667ZM160.531 134.667H170.793V136.064H160.531V134.667ZM160.531 140.947H170.003V142.343H160.531V140.947ZM160.531 147.216H170.994V148.613H160.531V147.216Z" fill="#00CE84"/>
<path d="M171.034 138.656H172.606L176.931 148.613H175.359L171.034 138.656ZM175.359 148.613L179.704 138.656H181.276L176.931 148.613H175.359Z" fill="#00CE84"/>
<path d="M191.828 144.112H190.336V143.459C190.336 142.755 190.246 142.163 190.076 141.69C189.906 141.208 189.656 140.826 189.335 140.525C189.015 140.224 188.624 140.013 188.184 139.882C187.743 139.751 187.243 139.681 186.682 139.681C186.121 139.681 185.671 139.761 185.22 139.932C184.78 140.103 184.389 140.344 184.049 140.676C183.709 141.007 183.448 141.419 183.268 141.911C183.078 142.404 182.988 142.977 182.988 143.64C182.988 144.383 183.078 145.006 183.258 145.508C183.438 146.011 183.699 146.423 184.039 146.734C184.379 147.046 184.8 147.267 185.301 147.397C185.801 147.528 186.362 147.598 187.002 147.598C187.493 147.598 187.934 147.538 188.344 147.407C188.745 147.277 189.095 147.106 189.395 146.885C189.696 146.664 189.926 146.413 190.086 146.131C190.256 145.85 190.336 145.539 190.336 145.207L191.708 145.227C191.708 146.332 191.308 147.216 190.497 147.9C189.686 148.573 188.514 148.914 186.982 148.914C185.12 148.914 183.729 148.462 182.828 147.568C181.917 146.674 181.466 145.358 181.466 143.609C181.466 141.861 181.907 140.605 182.798 139.701C183.679 138.797 184.96 138.345 186.632 138.345C188.494 138.345 189.836 138.807 190.627 139.721C191.428 140.635 191.828 141.962 191.828 143.7V144.102V144.112ZM182.267 142.876H190.917V144.112H182.267V142.876Z" fill="#00CE84"/>
<path d="M193.42 148.613V138.656H194.852V148.613H193.42ZM200.488 142.675C200.488 142.233 200.448 141.841 200.368 141.479C200.288 141.118 200.158 140.816 199.958 140.555C199.757 140.294 199.507 140.093 199.177 139.952C198.846 139.802 198.436 139.731 197.945 139.731C196.964 139.731 196.203 140.063 195.663 140.716C195.122 141.369 194.852 142.344 194.852 143.609V143.81H194.121V143.63C194.121 142.836 194.191 142.112 194.341 141.469C194.491 140.826 194.722 140.274 195.032 139.802C195.342 139.329 195.763 138.978 196.283 138.727C196.804 138.475 197.415 138.345 198.126 138.345C198.776 138.345 199.327 138.445 199.798 138.636C200.258 138.827 200.649 139.108 200.959 139.46C201.269 139.822 201.5 140.274 201.64 140.816C201.79 141.359 201.86 141.982 201.86 142.665H200.488V142.675Z" fill="#00CE84"/>
<path d="M202.27 138.657H203.902L208.988 148.081L208.077 149.437L202.28 138.657H202.27ZM208.378 150.402C208.157 150.995 207.907 151.507 207.637 151.919C207.356 152.331 207.026 152.642 206.636 152.863C206.245 153.084 205.745 153.195 205.134 153.195C204.653 153.195 204.253 153.094 203.912 152.904C203.572 152.713 203.302 152.441 203.081 152.1C202.861 151.758 202.701 151.346 202.601 150.874C202.501 150.402 202.451 149.899 202.451 149.347H203.762C203.762 149.869 203.802 150.291 203.882 150.623C203.962 150.954 204.063 151.216 204.193 151.396C204.323 151.577 204.463 151.708 204.643 151.778C204.813 151.849 204.994 151.879 205.184 151.879C205.464 151.879 205.704 151.818 205.915 151.688C206.125 151.557 206.315 151.386 206.485 151.165C206.646 150.944 206.796 150.683 206.926 150.392C207.056 150.09 207.176 149.769 207.296 149.427L211.051 138.646H212.543L209.128 148.362C208.868 149.116 208.618 149.799 208.408 150.392L208.378 150.402Z" fill="#00CE84"/>
<path d="M218.67 142.896V141.499H224.917C225.628 141.499 226.239 141.439 226.739 141.329C227.24 141.218 227.65 141.047 227.961 140.816C228.271 140.595 228.501 140.304 228.631 139.962C228.772 139.621 228.842 139.229 228.842 138.787C228.842 138.324 228.772 137.923 228.631 137.581C228.491 137.239 228.271 136.958 227.961 136.737C227.65 136.516 227.24 136.345 226.739 136.225C226.239 136.114 225.628 136.054 224.917 136.054H218.67V134.657H224.847C225.828 134.657 226.659 134.748 227.36 134.918C228.051 135.089 228.631 135.35 229.092 135.702C229.552 136.054 229.883 136.486 230.103 136.988C230.323 137.491 230.434 138.093 230.434 138.777C230.434 139.46 230.323 140.033 230.113 140.545C229.903 141.057 229.583 141.499 229.152 141.841C228.722 142.183 228.171 142.444 227.51 142.615C226.849 142.785 226.068 142.876 225.167 142.876H218.68L218.67 142.896ZM218.67 134.667H220.121V148.613H218.67V134.667ZM230.103 148.613H228.281L222.624 141.64H224.447L230.103 148.613Z" fill="#00CE84"/>
<path d="M231.835 134.748C232.015 134.567 232.306 134.467 232.716 134.467C233.127 134.467 233.417 134.557 233.597 134.748C233.777 134.939 233.868 135.23 233.868 135.622C233.868 136.014 233.777 136.295 233.597 136.486C233.417 136.677 233.127 136.778 232.716 136.778C232.306 136.778 232.015 136.677 231.835 136.486C231.655 136.295 231.565 136.004 231.565 135.622C231.565 135.24 231.655 134.929 231.835 134.748ZM232.005 138.657H233.437V148.613H232.005V138.657Z" fill="#00CE84"/>
<path d="M236.29 139.691C237.141 138.797 238.343 138.355 239.905 138.355C240.826 138.355 241.577 138.485 242.157 138.737C242.728 138.988 243.189 139.34 243.529 139.802C243.869 140.264 244.1 140.816 244.22 141.47C244.35 142.123 244.41 142.846 244.41 143.64C244.41 144.353 244.35 145.036 244.24 145.669C244.13 146.302 243.909 146.865 243.589 147.347C243.269 147.829 242.818 148.211 242.237 148.493C241.667 148.774 240.906 148.925 239.985 148.925C239.284 148.925 238.623 148.814 238.022 148.583C237.422 148.352 236.891 148.02 236.441 147.578C235.99 147.136 235.65 146.584 235.399 145.92C235.149 145.267 235.019 144.504 235.019 143.64C235.019 141.902 235.439 140.585 236.29 139.691ZM237.452 146.543C238.052 147.207 238.944 147.538 240.125 147.538C241.306 147.538 242.257 147.207 242.868 146.543C243.479 145.88 243.779 144.906 243.779 143.62C243.779 142.334 243.479 141.379 242.868 140.726C242.257 140.073 241.346 139.741 240.125 139.741C239.454 139.741 238.883 139.822 238.423 139.993C237.962 140.163 237.602 140.405 237.322 140.726C237.041 141.048 236.841 141.459 236.721 141.942C236.601 142.424 236.541 142.987 236.541 143.63C236.541 144.916 236.841 145.89 237.442 146.553L237.452 146.543ZM243.779 133.673H245.211V148.613H243.779V133.673Z" fill="#00CE84"/>
<path d="M257.155 144.112H255.663V143.459C255.663 142.755 255.573 142.163 255.403 141.69C255.233 141.208 254.982 140.826 254.662 140.525C254.342 140.224 253.951 140.013 253.511 139.882C253.07 139.751 252.57 139.681 252.009 139.681C251.448 139.681 250.998 139.761 250.547 139.932C250.107 140.103 249.716 140.344 249.376 140.676C249.035 141.007 248.775 141.419 248.595 141.911C248.405 142.404 248.315 142.977 248.315 143.64C248.315 144.383 248.405 145.006 248.585 145.508C248.765 146.011 249.025 146.423 249.366 146.734C249.706 147.046 250.127 147.267 250.627 147.397C251.128 147.528 251.688 147.598 252.329 147.598C252.82 147.598 253.26 147.538 253.671 147.407C254.071 147.277 254.422 147.106 254.722 146.885C255.022 146.664 255.253 146.413 255.413 146.131C255.583 145.85 255.663 145.539 255.663 145.207L257.035 145.227C257.035 146.332 256.634 147.216 255.823 147.9C255.012 148.573 253.841 148.914 252.309 148.914C250.447 148.914 249.055 148.462 248.154 147.568C247.243 146.674 246.793 145.358 246.793 143.609C246.793 141.861 247.233 140.605 248.124 139.701C249.005 138.797 250.287 138.345 251.959 138.345C253.821 138.345 255.163 138.807 255.954 139.721C256.754 140.635 257.155 141.962 257.155 143.7V144.102V144.112ZM247.584 142.876H256.234V144.112H247.584V142.876Z" fill="#00CE84"/>
<path d="M72.6581 50.4413H47.5686C35.4844 50.4413 25.6829 39.761 25.6829 26.579V0.0341797H0.563416V71.2592H72.6581V50.4413Z" fill="#00CE84"/>
<path d="M78.1246 91.8566V133.121C78.1246 141.41 84.1917 148.131 91.6905 148.131H150.189V127.404H95.6251V126.479H95.6151V120.542H95.6251V119.667H149.378V105.3H95.6251V104.426H95.6151V98.1361H95.6251V97.4027H150.189V76.8359H91.6905C84.2017 76.8359 78.1246 83.5576 78.1246 91.8465V91.8566Z" fill="#00CE84"/>
<path d="M16.8125 125.022L21.8784 119.215L54.8172 148.141H60.4738C67.2418 148.141 72.7382 141.63 72.7382 133.612V76.8555H30.2383L56.5592 99.9742L51.4933 105.782L18.5546 76.8555H12.8979C6.12996 76.8555 0.633499 83.356 0.633499 91.3838V148.141H43.1334L16.8125 125.022Z" fill="#00CE84"/>
<path d="M110.072 35.5817H117.761V71.2595H149.949L140.288 20.2696C139.216 14.613 136.073 9.6296 131.507 5.99249C126.802 2.25491 120.705 0.0244141 114.097 0.0244141C100.931 0.0244141 90.1587 8.62487 87.9061 20.1491L77.8843 71.2494H110.072V35.5716V35.5817ZM110.072 18.5315H117.761V28.6892H110.072V18.5315Z" fill="#00CE84"/>
</svg>
