<svg width="428" height="113" viewBox="0 0 428 113" fill="none" xmlns="http://www.w3.org/2000/svg">
<path d="M426.767 84.5922L426.515 67.2712L425.481 67.2863L425.397 61.5175L424.363 61.5325L424.279 55.7637L421.185 55.8088L421.269 61.5776L420.236 61.5927L420.067 50.0405L419.033 50.0556L418.949 44.2867L417.916 44.3018L418 50.0706L416.966 50.0857L416.713 32.7647L414.653 32.7947L414.737 38.5635L413.704 38.5785L413.535 27.0264L410.441 27.0714L410.357 21.3026L411.391 21.2876L411.307 15.5188L412.341 15.5037L412.425 21.2725L414.485 21.2425L414.401 15.4737L413.367 15.4888L413.283 9.71993L412.249 9.73499L412.165 3.96619L410.105 3.99621L410.189 9.765L408.129 9.79501L408.045 4.02622L398.771 4.16133L398.855 9.93013L397.821 9.94519L397.737 4.17639L288.508 5.7677L288.592 11.5365L287.733 11.549L287.649 5.78021L263.78 6.12795L263.696 0.359157L262.662 0.374219L262.746 6.14302L252.613 6.29064L252.529 0.521842L251.495 0.536904L251.579 6.3057L250.378 6.3232L250.294 0.554402L249.26 0.569464L249.344 6.33826L247.452 6.36584L247.536 12.1346L246.502 12.1497L246.418 6.3809L242.298 6.44092L242.13 6.44336L242.214 12.2122L241.355 12.2247L241.271 6.45587L239.211 6.48588L239.127 0.717087L238.093 0.732149L238.178 6.50095L235.95 6.53339L236.034 12.3022L235.175 12.3147L235.091 6.54591L230.971 6.60593L231.055 12.3747L230.888 12.3772L230.72 0.82499L229.686 0.840052L229.77 6.60885L228.736 6.62391L228.652 0.855114L227.618 0.870175L227.702 6.63897L219.629 6.75658L219.545 0.987787L218.511 1.00285L218.595 6.77165L217.561 6.78671L217.477 1.01791L216.276 1.03541L216.36 6.8042L206.227 6.95183L206.143 1.18303L205.11 1.19809L205.194 6.96689L198.838 7.05947L198.754 1.29068L197.721 1.30574L197.805 7.07454L192.651 7.14962L192.567 1.38082L191.533 1.39589L191.785 18.7169L190.926 18.7294L190.758 7.1772L190.591 7.17963L190.507 1.41084L189.473 1.4259L189.557 7.19469L187.664 7.22227L187.58 1.45347L186.546 1.46854L186.63 7.23733L184.403 7.26978L184.319 1.50098L183.285 1.51605L183.369 7.28484L182.335 7.2999L182.419 13.0687L181.56 13.0813L181.392 1.52904L180.358 1.5441L180.442 7.31294L180.275 7.31538L180.443 18.8676L179.584 18.8801L179.332 1.55905L178.131 1.57655L178.215 7.34539L177.181 7.36045L177.097 1.59161L176.063 1.60667L176.147 7.37551L174.087 7.40553L174.003 1.63668L172.11 1.66426L172.194 7.4331L168.933 7.48061L168.849 1.71177L166.956 1.73935L167.04 7.50819L166.007 7.52325L165.922 1.75441L164.721 1.7719L164.806 7.54075L163.772 7.55581L163.688 1.78697L161.628 1.81698L161.712 7.58582L160.678 7.60088L160.594 1.83204L159.56 1.8471L159.644 7.61594L157.751 7.64352L157.667 1.87468L156.633 1.88974L156.717 7.65858L155.516 7.67608L155.432 1.90724L153.372 1.93725L153.456 7.70609L152.597 7.7186L152.513 1.94976L150.453 1.97977L150.537 7.74862L150.37 7.75105L150.286 1.98221L148.226 2.01222L148.31 7.78106L147.276 7.79613L147.192 2.02728L142.205 2.09993L142.289 7.86878L142.122 7.87121L142.038 2.10237L139.978 2.13238L140.062 7.90122L139.203 7.91374L139.119 2.1449L137.059 2.17491L137.143 7.94375L136.976 7.94619L136.892 2.17735L105.975 2.62775L106.06 8.39659L105.201 8.4091L105.116 2.64026L85.5345 2.92554L85.6186 8.69439L84.5847 8.70945L84.5007 2.94061L34.0102 3.67618L33.8429 3.67862L33.927 9.44746L33.068 9.45997L32.984 3.69113L30.9239 3.72114L30.7567 3.72358L30.8407 9.49242L29.9817 9.50494L29.8977 3.73609L22.6837 3.84119L21.4826 3.85869L21.5667 9.62753L20.7077 9.64005L20.6236 3.8712L19.4225 3.8887L19.5066 9.65754L17.6138 9.68512L17.5297 3.91628L16.4959 3.93134L16.58 9.70018L16.4127 9.70262L16.4967 15.4714L15.6377 15.4839L15.4694 3.93175L13.4094 3.96176L13.4935 9.73056L12.4596 9.74562L12.3755 3.97683L10.3155 4.00684L10.3996 9.77563L9.36569 9.7907L9.28165 4.0219L8.24783 4.03696L8.33187 9.80576L5.23797 9.85083L5.6584 38.7094L4.62458 38.7245L4.54054 32.9557L0.420429 33.0157L0.588727 44.5679L1.62255 44.5528L1.5385 38.7841L2.57232 38.769L2.82467 56.09L1.79085 56.105L2.04319 73.426L3.07701 73.411L3.24531 84.9632L4.27913 84.9481L4.19508 79.1793L5.22895 79.1642L5.31299 84.933L6.34681 84.918L6.43086 90.6868L8.49093 90.6568L8.32264 79.1046L9.35646 79.0895L9.6088 96.4105L10.6426 96.3955L10.3903 79.0745L11.4241 79.0594L11.3401 73.2906L12.3739 73.2755L12.5422 84.8277L11.5084 84.8428L11.5924 90.6116L12.6263 90.5965L12.7946 102.149L15.8884 102.104L15.9725 107.872L17.0063 107.857L16.9223 102.089L17.9561 102.074L18.0401 107.842L28.348 107.692L28.264 101.923L29.123 101.911L29.207 107.68L39.6822 107.527L39.5139 95.9749L40.3729 95.9623L40.5412 107.515L57.1965 107.272L57.1125 101.503L57.9715 101.491L58.0555 107.259L74.7108 107.017L74.6268 101.248L75.4858 101.235L75.5698 107.004L90.1651 106.792L90.2491 112.56L91.2829 112.545L91.1989 106.777L101.332 106.629L101.416 112.398L102.45 112.383L102.366 106.614L103.567 106.596L103.651 112.365L104.685 112.35L104.601 106.581L106.661 106.551L106.745 112.32L107.779 112.305L107.695 106.536L111.815 106.476L111.899 112.245L112.933 112.23L112.849 106.461L114.741 106.434L114.825 112.202L116.026 112.185L115.942 106.416L116.976 106.401L117.06 112.17L119.12 112.14L119.036 106.371L120.07 106.356L120.154 112.125L121.188 112.11L121.104 106.341L122.997 106.313L123.081 112.082L124.282 112.065L124.198 106.296L126.091 106.268L126.175 112.037L127.376 112.019L127.292 106.251L128.151 106.238L128.235 112.007L130.295 111.977L130.211 106.208L131.245 106.193L131.329 111.962L132.53 111.944L132.446 106.176L133.48 106.161L133.564 111.929L135.624 111.899L135.54 106.131L137.432 106.103L137.516 111.872L138.55 111.857L138.466 106.088L138.634 106.085L138.718 111.854L140.778 111.824L140.694 106.055L141.727 106.04L141.811 111.809L143.704 111.782L143.62 106.013L144.654 105.998L144.738 111.767L146.798 111.737L146.714 105.968L146.881 105.965L146.965 111.734L149.025 111.704L148.941 105.935L149.8 105.923L149.884 111.692L151.944 111.662L151.86 105.893L152.894 105.878L152.978 111.646L154.012 111.631L154.179 111.629L154.095 105.86L155.129 105.845L155.213 111.614L156.072 111.601L157.106 111.586L157.273 111.584L157.189 105.815L158.048 105.803L158.132 111.571L160.192 111.541L160.36 111.539L160.191 99.9868L161.05 99.9743L161.219 111.526L162.42 111.509L162.336 105.74L163.369 105.725L163.453 111.494L165.346 111.466L165.262 105.698L166.296 105.682L166.38 111.451L168.44 111.421L168.356 105.652L168.523 105.65L168.607 111.419L171.526 111.376L171.442 105.607L172.476 105.592L172.56 111.361L173.594 111.346L173.51 105.577L174.544 105.562L174.628 111.331L175.829 111.314L175.745 105.545L177.638 105.517L178.839 105.5L178.671 93.9475L179.53 93.935L179.782 111.256L182.009 111.224L181.925 105.455L182.959 105.44L183.043 111.208L184.077 111.193L183.993 105.425L185.027 105.41L185.111 111.178L187.171 111.148L186.918 93.8274L187.777 93.8149L187.946 105.367L188.113 105.365L188.197 111.133L190.257 111.103L190.005 93.7824L190.864 93.7699L191.032 105.322L191.199 105.32L191.283 111.088L193.343 111.058L193.259 105.29L194.118 105.277L194.202 111.046L195.403 111.028L195.319 105.26L196.178 105.247L196.262 111.016L201.584 110.938L201.5 105.17L202.359 105.157L202.443 110.926L206.563 110.866L206.479 105.097L208.539 105.067L208.623 110.836L213.944 110.758L213.86 104.99L214.719 104.977L214.803 110.746L219.098 110.683L218.93 99.1311L219.789 99.1185L219.957 110.671L225.111 110.596L225.027 104.827L226.228 104.809L226.144 99.0405L227.178 99.0255L227.094 93.2566L227.953 93.2441L228.121 104.796L226.228 104.824L226.312 110.593L230.432 110.533L230.348 104.764L231.207 104.751L231.291 110.52L232.325 110.505L232.157 98.9529L232.324 98.9505L232.492 110.503L235.411 110.46L235.327 104.691L237.387 104.661L237.471 110.43L238.505 110.415L238.421 104.646L237.562 104.659L237.478 98.89L239.371 98.8624L239.455 104.631L238.596 104.644L238.68 110.413L242.8 110.353L242.716 104.584L243.575 104.571L243.659 110.34L245.719 110.31L245.635 104.541L244.601 104.556L244.517 98.7874L244.685 98.785L244.601 93.0162L245.634 93.0011L245.887 110.322L250.873 110.249L250.789 104.481L249.93 104.493L249.846 98.7244L250.88 98.7093L251.049 110.261L254.142 110.216L254.058 104.448L254.917 104.435L254.833 98.6663L255.001 98.6638L255.085 104.433L254.917 104.435L255.001 110.204L268.57 110.006L268.486 104.237L270.379 104.21L270.463 109.979L274.758 109.916L274.674 104.147L275.533 104.135L275.617 109.904L286.092 109.751L286.008 103.982L286.867 103.97L286.951 109.738L314.774 109.333L314.69 103.564L314.857 103.562L314.773 97.7931L315.632 97.7805L315.8 109.333L318.894 109.288L318.81 103.519L318.977 103.516L319.061 109.285L382.779 108.357L383.812 108.342L387.933 108.282L388.966 108.267L396.18 108.162L401.334 108.087L401.25 102.318L401.418 102.315L401.502 108.084L420.909 107.801L420.825 102.033L421.858 102.018L421.943 107.786L426.063 107.726L425.979 101.958L424.945 101.973L424.861 96.2038L425.895 96.1887L425.811 90.4199L427.871 90.3899L427.787 84.6211L426.753 84.6362L426.767 84.5922ZM241.303 18.01L240.444 18.0226L240.36 12.2538L241.219 12.2412L241.303 18.01ZM265.407 104.268L265.323 98.4989L266.182 98.4864L266.266 104.255L265.407 104.268Z" fill="#D9FF7A"/>
</svg>
