<svg width="1702" height="21" viewBox="0 0 1702 21" fill="none" xmlns="http://www.w3.org/2000/svg">
<path d="M1703 0.0299129L1702.97 20.1244C1674.69 20.0842 1646.05 20.0842 1617.82 20.1244L1617.79 0.0299129C1646.04 -0.0102761 1674.7 -0.0102761 1702.99 0.0299129H1703Z" fill="black"/>
<path d="M1702.98 8.82126H1699.72V11.3331H1702.98V8.82126ZM1660.38 8.79112H1658.77V11.3029H1660.38C1666.67 11.3029 1672.96 11.3029 1679.24 11.3029V8.79112C1672.96 8.79112 1666.67 8.79112 1660.38 8.79112ZM1638.29 8.80117C1631.46 8.80117 1624.63 8.81122 1617.81 8.82126V11.3331C1624.64 11.3331 1631.46 11.313 1638.29 11.313V8.80117Z" fill="white"/>
<path d="M1617.8 0.0299129L1617.77 20.1244C1589.49 20.0842 1560.85 20.0842 1532.63 20.1244L1532.6 0.0299129C1560.85 -0.0102761 1589.51 -0.0102761 1617.8 0.0299129Z" fill="black"/>
<path d="M1617.78 8.82126H1614.52V11.3331H1617.78V8.82126ZM1575.18 8.79112H1573.57V11.3029H1575.18C1581.47 11.3029 1587.76 11.3029 1594.04 11.3029V8.79112C1587.76 8.79112 1581.47 8.79112 1575.18 8.79112ZM1553.09 8.80117C1546.26 8.80117 1539.43 8.81122 1532.61 8.82126V11.3331C1539.44 11.3331 1546.26 11.313 1553.09 11.313V8.80117Z" fill="white"/>
<path d="M1532.6 0.0299129L1532.57 20.1244C1504.3 20.0842 1475.65 20.0842 1447.43 20.1244L1447.4 0.0299129C1475.64 -0.0102761 1504.31 -0.0102761 1532.6 0.0299129Z" fill="black"/>
<path d="M1532.58 8.82126H1529.32V11.3331H1532.59V8.82126H1532.58ZM1489.98 8.79112H1488.37V11.3029H1489.98C1496.27 11.3029 1502.56 11.3029 1508.84 11.3029V8.79112C1502.56 8.79112 1496.27 8.79112 1489.98 8.79112ZM1467.9 8.80117C1461.07 8.80117 1454.24 8.81122 1447.42 8.82126V11.3331C1454.25 11.3331 1461.07 11.313 1467.9 11.313V8.80117Z" fill="white"/>
<path d="M1447.4 0.0299129L1447.37 20.1244C1419.1 20.0842 1390.45 20.0842 1362.23 20.1244L1362.2 0.0299129C1390.45 -0.0102761 1419.11 -0.0102761 1447.4 0.0299129Z" fill="black"/>
<path d="M1447.38 8.82126H1444.12V11.3331H1447.39V8.82126H1447.38ZM1404.78 8.79112H1403.17V11.3029H1404.78C1411.07 11.3029 1417.36 11.3029 1423.64 11.3029V8.79112C1417.36 8.79112 1411.07 8.79112 1404.78 8.79112ZM1382.69 8.80117C1375.86 8.80117 1369.03 8.81122 1362.21 8.82126V11.3331C1369.04 11.3331 1375.86 11.313 1382.69 11.313V8.80117Z" fill="white"/>
<path d="M1362.2 0.0299129L1362.17 20.1244C1333.89 20.0842 1305.25 20.0842 1277.02 20.1244L1276.99 0.0299129C1305.24 -0.0102761 1333.9 -0.0102761 1362.19 0.0299129H1362.2Z" fill="black"/>
<path d="M1362.18 8.82126H1358.92V11.3331H1362.19V8.82126H1362.18ZM1319.58 8.79112H1317.97V11.3029H1319.58C1325.87 11.3029 1332.16 11.3029 1338.44 11.3029V8.79112C1332.16 8.79112 1325.87 8.79112 1319.58 8.79112ZM1297.49 8.80117C1290.66 8.80117 1283.83 8.81122 1277.01 8.82126V11.3331C1283.84 11.3331 1290.66 11.313 1297.49 11.313V8.80117Z" fill="white"/>
<path d="M1277 0.0299129L1276.97 20.1244C1248.69 20.0842 1220.04 20.0842 1191.82 20.1244L1191.79 0.0299129C1220.03 -0.0102761 1248.7 -0.0102761 1276.99 0.0299129H1277Z" fill="black"/>
<path d="M1276.98 8.82126H1273.72V11.3331H1276.98V8.82126ZM1234.38 8.79112H1232.77V11.3029H1234.38C1240.67 11.3029 1246.96 11.3029 1253.24 11.3029V8.79112C1246.96 8.79112 1240.67 8.79112 1234.38 8.79112ZM1212.29 8.80117C1205.46 8.80117 1198.63 8.81122 1191.81 8.82126V11.3331C1198.64 11.3331 1205.46 11.313 1212.29 11.313V8.80117Z" fill="white"/>
<path d="M1191.8 0.0299129L1191.77 20.1244C1163.49 20.0842 1134.84 20.0842 1106.63 20.1244L1106.6 0.0299129C1134.84 -0.0102761 1163.51 -0.0102761 1191.8 0.0299129Z" fill="black"/>
<path d="M1191.78 8.82126H1188.52V11.3331H1191.78V8.82126ZM1149.18 8.79112H1147.57V11.3029H1149.18C1155.47 11.3029 1161.76 11.3029 1168.04 11.3029V8.79112C1161.76 8.79112 1155.47 8.79112 1149.18 8.79112ZM1127.09 8.80117C1120.26 8.80117 1113.43 8.81122 1106.61 8.82126V11.3331C1113.44 11.3331 1120.26 11.313 1127.09 11.313V8.80117Z" fill="white"/>
<path d="M1106.6 0.0299129L1106.57 20.1244C1078.3 20.0842 1049.64 20.0842 1021.43 20.1244L1021.4 0.0299129C1049.63 -0.0102761 1078.31 -0.0102761 1106.6 0.0299129Z" fill="black"/>
<path d="M1106.58 8.82126H1103.32V11.3331H1106.59V8.82126H1106.58ZM1063.98 8.79112H1062.37V11.3029H1063.98C1070.27 11.3029 1076.56 11.3029 1082.84 11.3029V8.79112C1076.56 8.79112 1070.27 8.79112 1063.98 8.79112ZM1041.9 8.80117C1035.07 8.80117 1028.24 8.81122 1021.42 8.82126V11.3331C1028.25 11.3331 1035.07 11.313 1041.9 11.313V8.80117Z" fill="white"/>
<path d="M1021.4 0.0299129L1021.37 20.1244C993.098 20.0842 964.444 20.0842 936.231 20.1244L936.201 0.0299129C964.444 -0.0102761 993.108 -0.0102761 1021.4 0.0299129Z" fill="black"/>
<path d="M1021.38 8.82126H1018.12V11.3331H1021.39V8.82126H1021.38ZM978.781 8.79112H977.169V11.3029H978.781C985.068 11.3029 991.356 11.3029 997.643 11.3029V8.79112C991.356 8.79112 985.068 8.79112 978.781 8.79112ZM956.685 8.80117C949.857 8.80117 943.029 8.81122 936.211 8.82126V11.3331C943.039 11.3331 949.857 11.313 956.685 11.313V8.80117Z" fill="white"/>
<path d="M936.201 0.0299129L936.171 20.1244C907.888 20.0842 879.244 20.0842 851.021 20.1244L850.991 0.0299129C879.234 -0.0102761 907.898 -0.0102761 936.191 0.0299129H936.201Z" fill="black"/>
<path d="M936.182 8.82126H932.918V11.3331H936.192V8.82126H936.182ZM893.582 8.79112H891.97V11.3029H893.582C899.869 11.3029 906.157 11.3029 912.444 11.3029V8.79112C906.157 8.79112 899.869 8.79112 893.582 8.79112ZM871.486 8.80117C864.658 8.80117 857.83 8.81122 851.012 8.82126V11.3331C857.84 11.3331 864.658 11.313 871.486 11.313V8.80117Z" fill="white"/>
<path d="M851.001 0.0299129L850.971 20.1244C822.688 20.0842 794.044 20.0842 765.821 20.1244L765.791 0.0299129C794.034 -0.0102761 822.698 -0.0102761 850.991 0.0299129H851.001Z" fill="black"/>
<path d="M850.981 8.82126H847.717V11.3331H850.991V8.82126H850.981ZM808.381 8.79112H806.769V11.3029H808.381C814.668 11.3029 820.955 11.3029 827.243 11.3029V8.79112C820.955 8.79112 814.668 8.79112 808.381 8.79112ZM786.285 8.80117C779.457 8.80117 772.629 8.81122 765.811 8.82126V11.3331C772.639 11.3331 779.457 11.313 786.285 11.313V8.80117Z" fill="white"/>
<path d="M765.801 0.0299129L765.771 20.1244C737.498 20.0842 708.844 20.0842 680.621 20.1244L680.591 0.0299129C708.824 -0.0102761 737.498 -0.0102761 765.791 0.0299129H765.801Z" fill="black"/>
<path d="M765.781 8.82126H762.518V11.3331H765.781V8.82126ZM723.181 8.79112H721.569V11.3029H723.181C729.469 11.3029 735.756 11.3029 742.044 11.3029V8.79112C735.756 8.79112 729.469 8.79112 723.181 8.79112ZM701.085 8.80117C694.257 8.80117 687.429 8.81122 680.611 8.82126V11.3331C687.439 11.3331 694.257 11.313 701.085 11.313V8.80117Z" fill="white"/>
<path d="M680.6 0.0299129L680.57 20.1244C652.297 20.0842 623.644 20.0842 595.43 20.1244L595.4 0.0299129C623.644 -0.0102761 652.307 -0.0102761 680.6 0.0299129Z" fill="black"/>
<path d="M680.58 8.82126H677.316V11.3331H680.58V8.82126ZM637.98 8.79112H636.368V11.3029H637.98C644.268 11.3029 650.555 11.3029 656.842 11.3029V8.79112C650.555 8.79112 644.268 8.79112 637.98 8.79112ZM615.884 8.80117C609.056 8.80117 602.228 8.81122 595.41 8.82126V11.3331C602.238 11.3331 609.056 11.313 615.884 11.313V8.80117Z" fill="white"/>
<path d="M595.401 0.0299129L595.371 20.1244C567.097 20.0842 538.444 20.0842 510.22 20.1244L510.19 0.0299129C538.424 -0.0102761 567.097 -0.0102761 595.391 0.0299129H595.401Z" fill="black"/>
<path d="M595.38 8.82126H592.116V11.3331H595.39V8.82126H595.38ZM552.78 8.79112H551.168V11.3029H552.78C559.067 11.3029 565.355 11.3029 571.642 11.3029V8.79112C565.355 8.79112 559.067 8.79112 552.78 8.79112ZM530.684 8.80117C523.856 8.80117 517.028 8.81122 510.21 8.82126V11.3331C517.038 11.3331 523.856 11.313 530.684 11.313V8.80117Z" fill="white"/>
<path d="M510.2 0.0299129L510.17 20.1244C481.897 20.0842 453.243 20.0842 425.02 20.1244L424.99 0.0299129C453.233 -0.0102761 481.897 -0.0102761 510.19 0.0299129H510.2Z" fill="black"/>
<path d="M510.181 8.82126H506.917V11.3331H510.181V8.82126ZM467.581 8.79112H465.969V11.3029H467.581C473.868 11.3029 480.156 11.3029 486.443 11.3029V8.79112C480.156 8.79112 473.868 8.79112 467.581 8.79112ZM445.485 8.80117C438.657 8.80117 431.829 8.81122 425.011 8.82126V11.3331C431.839 11.3331 438.657 11.313 445.485 11.313V8.80117Z" fill="white"/>
<path d="M425 0.0299129L424.97 20.1244C396.687 20.0842 368.043 20.0842 339.82 20.1244L339.79 0.0299129C368.033 -0.0102761 396.697 -0.0102761 424.99 0.0299129H425Z" fill="black"/>
<path d="M424.981 8.82126H421.717V11.3331H424.991V8.82126H424.981ZM382.381 8.79112H380.769V11.3029H382.381C388.668 11.3029 394.955 11.3029 401.243 11.3029V8.79112C394.955 8.79112 388.668 8.79112 382.381 8.79112ZM360.285 8.80117C353.457 8.80117 346.629 8.81122 339.811 8.82126V11.3331C346.639 11.3331 353.457 11.313 360.285 11.313V8.80117Z" fill="white"/>
<path d="M339.8 0.0299129L339.77 20.1244C311.497 20.0842 282.843 20.0842 254.62 20.1244L254.59 0.0299129C282.823 -0.0102761 311.497 -0.0102761 339.79 0.0299129H339.8Z" fill="black"/>
<path d="M339.78 8.82126H336.517V11.3331H339.78V8.82126ZM297.18 8.79112H295.568V11.3029H297.18C303.468 11.3029 309.755 11.3029 316.043 11.3029V8.79112C309.755 8.79112 303.468 8.79112 297.18 8.79112ZM275.084 8.80117C268.256 8.80117 261.428 8.81122 254.61 8.82126V11.3331C261.438 11.3331 268.256 11.313 275.084 11.313V8.80117Z" fill="white"/>
<path d="M254.601 0.0299153L254.57 20.1244C226.297 20.0842 197.644 20.0842 169.43 20.1244L169.4 0.0299153C197.644 -0.000226484 226.307 -0.000226484 254.601 0.0299153Z" fill="black"/>
<path d="M254.58 8.82126H251.316V11.3331H254.58V8.82126ZM211.98 8.79112H210.368V11.3029H211.98C218.268 11.3029 224.555 11.3029 230.842 11.3029V8.79112C224.555 8.79112 218.268 8.79112 211.98 8.79112ZM189.884 8.80117C183.056 8.80117 176.228 8.81122 169.41 8.82126V11.3331C176.238 11.3331 183.056 11.313 189.884 11.313V8.80117Z" fill="white"/>
<path d="M169.401 0.0299153L169.371 20.1244C141.097 20.0842 112.444 20.0842 84.2205 20.1244L84.1904 0.0299153C112.434 -0.000226484 141.107 -0.000226484 169.401 0.0299153Z" fill="black"/>
<path d="M169.381 8.82126H166.117V11.3331H169.391V8.82126H169.381ZM126.781 8.79112H125.169V11.3029H126.781C133.068 11.3029 139.356 11.3029 145.643 11.3029V8.79112C139.356 8.79112 133.068 8.79112 126.781 8.79112ZM104.685 8.80117C97.857 8.80117 91.0289 8.81122 84.2109 8.82126V11.3331C91.039 11.3331 97.857 11.313 104.685 11.313V8.80117Z" fill="white"/>
<path d="M84.2001 0.030106L84.1701 20.1246C55.8969 20.0844 27.2432 20.0844 -0.979976 20.1246L-1 0.030106C27.2432 -3.57493e-05 55.9069 -3.57493e-05 84.2001 0.030106Z" fill="black"/>
<path d="M84.1798 8.82126H80.916V11.3331H84.1798V8.82126ZM41.5798 8.79112H39.9679V11.3029H41.5798C47.8672 11.3029 54.1546 11.3029 60.442 11.3029V8.79112C54.1546 8.79112 47.8672 8.79112 41.5798 8.79112ZM19.4838 8.80117C12.6558 8.80117 5.82778 8.81122 -0.990234 8.82126V11.3331C5.83779 11.3331 12.6558 11.313 19.4838 11.313V8.80117Z" fill="white"/>
</svg>
