<svg width="100%" height="100%" viewBox="0 0 1702 545" fill="none" xmlns="http://www.w3.org/2000/svg">
    <path
        d="M1703 0.0301418L1702.97 20.1247C1674.69 20.0845 1646.04 20.0845 1617.82 20.1247L1617.79 0.0301418C1646.03 -0.0100473 1674.7 -0.0100473 1702.99 0.0301418H1703Z"
        fill="black" />
    <path
        d="M1702.98 8.82116H1699.72V11.333H1702.98V8.82116ZM1660.38 8.79102H1658.77V11.3028H1660.38C1666.67 11.3028 1672.96 11.3028 1679.24 11.3028V8.79102C1672.96 8.79102 1666.67 8.79102 1660.38 8.79102ZM1638.29 8.80106C1631.46 8.80106 1624.63 8.81111 1617.81 8.82116V11.333C1624.64 11.333 1631.46 11.3129 1638.29 11.3129V8.80106Z"
        fill="white" />
    <path
        d="M1617.8 0.0301418L1617.77 20.1247C1589.49 20.0845 1560.84 20.0845 1532.63 20.1247L1532.6 0.0301418C1560.84 -0.0100473 1589.51 -0.0100473 1617.8 0.0301418Z"
        fill="black" />
    <path
        d="M1617.78 8.82116H1614.52V11.333H1617.78V8.82116ZM1575.18 8.79102H1573.57V11.3028H1575.18C1581.47 11.3028 1587.76 11.3028 1594.04 11.3028V8.79102C1587.76 8.79102 1581.47 8.79102 1575.18 8.79102ZM1553.08 8.80106C1546.26 8.80106 1539.43 8.81111 1532.61 8.82116V11.333C1539.44 11.333 1546.26 11.3129 1553.08 11.3129V8.80106Z"
        fill="white" />
    <path
        d="M1532.6 0.0301418L1532.57 20.1247C1504.3 20.0845 1475.64 20.0845 1447.43 20.1247L1447.4 0.0301418C1475.63 -0.0100473 1504.31 -0.0100473 1532.6 0.0301418Z"
        fill="black" />
    <path
        d="M1532.58 8.82116H1529.32V11.333H1532.59V8.82116H1532.58ZM1489.98 8.79102H1488.37V11.3028H1489.98C1496.27 11.3028 1502.56 11.3028 1508.84 11.3028V8.79102C1502.56 8.79102 1496.27 8.79102 1489.98 8.79102ZM1467.89 8.80106C1461.07 8.80106 1454.24 8.81111 1447.42 8.82116V11.333C1454.25 11.333 1461.07 11.3129 1467.89 11.3129V8.80106Z"
        fill="white" />
    <path
        d="M1447.4 0.0301418L1447.37 20.1247C1419.1 20.0845 1390.44 20.0845 1362.23 20.1247L1362.2 0.0301418C1390.44 -0.0100473 1419.11 -0.0100473 1447.4 0.0301418Z"
        fill="black" />
    <path
        d="M1447.38 8.82116H1444.12V11.333H1447.39V8.82116H1447.38ZM1404.78 8.79102H1403.17V11.3028H1404.78C1411.07 11.3028 1417.36 11.3028 1423.64 11.3028V8.79102C1417.36 8.79102 1411.07 8.79102 1404.78 8.79102ZM1382.68 8.80106C1375.86 8.80106 1369.03 8.81111 1362.21 8.82116V11.333C1369.04 11.333 1375.86 11.3129 1382.68 11.3129V8.80106Z"
        fill="white" />
    <path
        d="M1362.2 0.0301418L1362.17 20.1247C1333.89 20.0845 1305.24 20.0845 1277.02 20.1247L1276.99 0.0301418C1305.23 -0.0100473 1333.9 -0.0100473 1362.19 0.0301418H1362.2Z"
        fill="black" />
    <path
        d="M1362.18 8.82116H1358.92V11.333H1362.19V8.82116H1362.18ZM1319.58 8.79102H1317.97V11.3028H1319.58C1325.87 11.3028 1332.16 11.3028 1338.44 11.3028V8.79102C1332.16 8.79102 1325.87 8.79102 1319.58 8.79102ZM1297.48 8.80106C1290.66 8.80106 1283.83 8.81111 1277.01 8.82116V11.333C1283.84 11.333 1290.66 11.3129 1297.48 11.3129V8.80106Z"
        fill="white" />
    <path
        d="M1277 0.0301418L1276.97 20.1247C1248.69 20.0845 1220.04 20.0845 1191.82 20.1247L1191.79 0.0301418C1220.03 -0.0100473 1248.7 -0.0100473 1276.99 0.0301418H1277Z"
        fill="black" />
    <path
        d="M1276.98 8.82116H1273.72V11.333H1276.98V8.82116ZM1234.38 8.79102H1232.77V11.3028H1234.38C1240.67 11.3028 1246.96 11.3028 1253.24 11.3028V8.79102C1246.96 8.79102 1240.67 8.79102 1234.38 8.79102ZM1212.28 8.80106C1205.46 8.80106 1198.63 8.81111 1191.81 8.82116V11.333C1198.64 11.333 1205.46 11.3129 1212.28 11.3129V8.80106Z"
        fill="white" />
    <path
        d="M1191.8 0.0301418L1191.77 20.1247C1163.49 20.0845 1134.84 20.0845 1106.63 20.1247L1106.6 0.0301418C1134.84 -0.0100473 1163.51 -0.0100473 1191.8 0.0301418Z"
        fill="black" />
    <path
        d="M1191.78 8.82116H1188.52V11.333H1191.78V8.82116ZM1149.18 8.79102H1147.57V11.3028H1149.18C1155.47 11.3028 1161.76 11.3028 1168.04 11.3028V8.79102C1161.76 8.79102 1155.47 8.79102 1149.18 8.79102ZM1127.08 8.80106C1120.26 8.80106 1113.43 8.81111 1106.61 8.82116V11.333C1113.44 11.333 1120.26 11.3129 1127.08 11.3129V8.80106Z"
        fill="white" />
    <path
        d="M1106.6 0.0301418L1106.57 20.1247C1078.3 20.0845 1049.64 20.0845 1021.43 20.1247L1021.4 0.0301418C1049.63 -0.0100473 1078.31 -0.0100473 1106.6 0.0301418Z"
        fill="black" />
    <path
        d="M1106.58 8.82116H1103.32V11.333H1106.59V8.82116H1106.58ZM1063.98 8.79102H1062.37V11.3028H1063.98C1070.27 11.3028 1076.55 11.3028 1082.84 11.3028V8.79102C1076.55 8.79102 1070.27 8.79102 1063.98 8.79102ZM1041.89 8.80106C1035.07 8.80106 1028.24 8.81111 1021.42 8.82116V11.333C1028.25 11.333 1035.07 11.3129 1041.89 11.3129V8.80106Z"
        fill="white" />
    <path
        d="M1021.4 0.0301418L1021.37 20.1247C993.097 20.0845 964.443 20.0845 936.23 20.1247L936.2 0.0301418C964.443 -0.0100473 993.107 -0.0100473 1021.4 0.0301418Z"
        fill="black" />
    <path
        d="M1021.38 8.82116H1018.12V11.333H1021.39V8.82116H1021.38ZM978.78 8.79102H977.168V11.3028H978.78C985.068 11.3028 991.355 11.3028 997.642 11.3028V8.79102C991.355 8.79102 985.068 8.79102 978.78 8.79102ZM956.684 8.80106C949.856 8.80106 943.028 8.81111 936.21 8.82116V11.333C943.038 11.333 949.856 11.3129 956.684 11.3129V8.80106Z"
        fill="white" />
    <path
        d="M936.2 0.0301418L936.17 20.1247C907.887 20.0845 879.243 20.0845 851.02 20.1247L850.99 0.0301418C879.233 -0.0100473 907.897 -0.0100473 936.19 0.0301418H936.2Z"
        fill="black" />
    <path
        d="M936.18 8.82116H932.916V11.333H936.19V8.82116H936.18ZM893.58 8.79102H891.968V11.3028H893.58C899.867 11.3028 906.155 11.3028 912.442 11.3028V8.79102C906.155 8.79102 899.867 8.79102 893.58 8.79102ZM871.484 8.80106C864.656 8.80106 857.828 8.81111 851.01 8.82116V11.333C857.838 11.333 864.656 11.3129 871.484 11.3129V8.80106Z"
        fill="white" />
    <path
        d="M851 0.0301418L850.97 20.1247C822.687 20.0845 794.043 20.0845 765.82 20.1247L765.79 0.0301418C794.033 -0.0100473 822.697 -0.0100473 850.99 0.0301418H851Z"
        fill="black" />
    <path
        d="M850.98 8.82116H847.716V11.333H850.99V8.82116H850.98ZM808.38 8.79102H806.768V11.3028H808.38C814.667 11.3028 820.955 11.3028 827.242 11.3028V8.79102C820.955 8.79102 814.667 8.79102 808.38 8.79102ZM786.284 8.80106C779.456 8.80106 772.628 8.81111 765.81 8.82116V11.333C772.638 11.333 779.456 11.3129 786.284 11.3129V8.80106Z"
        fill="white" />
    <path
        d="M765.8 0.0301418L765.77 20.1247C737.497 20.0845 708.843 20.0845 680.62 20.1247L680.59 0.0301418C708.823 -0.0100473 737.497 -0.0100473 765.79 0.0301418H765.8Z"
        fill="black" />
    <path
        d="M765.78 8.82116H762.516V11.333H765.78V8.82116ZM723.18 8.79102H721.568V11.3028H723.18C729.467 11.3028 735.755 11.3028 742.042 11.3028V8.79102C735.755 8.79102 729.467 8.79102 723.18 8.79102ZM701.084 8.80106C694.256 8.80106 687.428 8.81111 680.61 8.82116V11.333C687.438 11.333 694.256 11.3129 701.084 11.3129V8.80106Z"
        fill="white" />
    <path
        d="M680.6 0.0301418L680.57 20.1247C652.297 20.0845 623.643 20.0845 595.43 20.1247L595.4 0.0301418C623.643 -0.0100473 652.307 -0.0100473 680.6 0.0301418Z"
        fill="black" />
    <path
        d="M680.58 8.82116H677.316V11.333H680.58V8.82116ZM637.98 8.79102H636.368V11.3028H637.98C644.267 11.3028 650.554 11.3028 656.842 11.3028V8.79102C650.554 8.79102 644.267 8.79102 637.98 8.79102ZM615.884 8.80106C609.056 8.80106 602.228 8.81111 595.41 8.82116V11.333C602.238 11.333 609.056 11.3129 615.884 11.3129V8.80106Z"
        fill="white" />
    <path
        d="M595.4 0.0301418L595.37 20.1247C567.096 20.0845 538.443 20.0845 510.22 20.1247L510.19 0.0301418C538.423 -0.0100473 567.096 -0.0100473 595.39 0.0301418H595.4Z"
        fill="black" />
    <path
        d="M595.38 8.82116H592.116V11.333H595.39V8.82116H595.38ZM552.78 8.79102H551.168V11.3028H552.78C559.067 11.3028 565.354 11.3028 571.642 11.3028V8.79102C565.354 8.79102 559.067 8.79102 552.78 8.79102ZM530.684 8.80106C523.856 8.80106 517.028 8.81111 510.21 8.82116V11.333C517.038 11.333 523.856 11.3129 530.684 11.3129V8.80106Z"
        fill="white" />
    <path
        d="M510.2 0.0301418L510.17 20.1247C481.896 20.0845 453.243 20.0845 425.019 20.1247L424.989 0.0301418C453.233 -0.0100473 481.896 -0.0100473 510.19 0.0301418H510.2Z"
        fill="black" />
    <path
        d="M510.179 8.82116H506.916V11.333H510.179V8.82116ZM467.579 8.79102H465.968V11.3028H467.579C473.867 11.3028 480.154 11.3028 486.442 11.3028V8.79102C480.154 8.79102 473.867 8.79102 467.579 8.79102ZM445.483 8.80106C438.655 8.80106 431.827 8.81111 425.009 8.82116V11.333C431.837 11.333 438.655 11.3129 445.483 11.3129V8.80106Z"
        fill="white" />
    <path
        d="M424.999 0.0301418L424.969 20.1247C396.686 20.0845 368.042 20.0845 339.819 20.1247L339.789 0.0301418C368.032 -0.0100473 396.696 -0.0100473 424.989 0.0301418H424.999Z"
        fill="black" />
    <path
        d="M424.979 8.82116H421.716V11.333H424.989V8.82116H424.979ZM382.379 8.79102H380.767V11.3028H382.379C388.667 11.3028 394.954 11.3028 401.241 11.3028V8.79102C394.954 8.79102 388.667 8.79102 382.379 8.79102ZM360.283 8.80106C353.455 8.80106 346.627 8.81111 339.809 8.82116V11.333C346.637 11.333 353.455 11.3129 360.283 11.3129V8.80106Z"
        fill="white" />
    <path
        d="M339.799 0.0301418L339.769 20.1247C311.496 20.0845 282.842 20.0845 254.619 20.1247L254.589 0.0301418C282.822 -0.0100473 311.496 -0.0100473 339.789 0.0301418H339.799Z"
        fill="black" />
    <path
        d="M339.779 8.82116H336.515V11.333H339.779V8.82116ZM297.179 8.79102H295.567V11.3028H297.179C303.467 11.3028 309.754 11.3028 316.041 11.3028V8.79102C309.754 8.79102 303.467 8.79102 297.179 8.79102ZM275.083 8.80106C268.255 8.80106 261.427 8.81111 254.609 8.82116V11.333C261.437 11.333 268.255 11.3129 275.083 11.3129V8.80106Z"
        fill="white" />
    <path
        d="M254.599 0.0294423L254.569 20.124C226.296 20.0838 197.642 20.0838 169.429 20.124L169.399 0.0294423C197.642 -0.000699507 226.306 -0.000699507 254.599 0.0294423Z"
        fill="black" />
    <path
        d="M254.579 8.82116H251.315V11.333H254.579V8.82116ZM211.979 8.79102H210.367V11.3028H211.979C218.266 11.3028 224.554 11.3028 230.841 11.3028V8.79102C224.554 8.79102 218.266 8.79102 211.979 8.79102ZM189.883 8.80106C183.055 8.80106 176.227 8.81111 169.409 8.82116V11.333C176.237 11.333 183.055 11.3129 189.883 11.3129V8.80106Z"
        fill="white" />
    <path
        d="M169.399 0.0294423L169.369 20.124C141.096 20.0838 112.442 20.0838 84.219 20.124L84.1889 0.0294423C112.432 -0.000699507 141.106 -0.000699507 169.399 0.0294423Z"
        fill="black" />
    <path
        d="M169.379 8.82116H166.115V11.333H169.389V8.82116H169.379ZM126.779 8.79102H125.167V11.3028H126.779C133.066 11.3028 139.354 11.3028 145.641 11.3028V8.79102C139.354 8.79102 133.066 8.79102 126.779 8.79102ZM104.683 8.80106C97.855 8.80106 91.027 8.81111 84.209 8.82116V11.333C91.037 11.333 97.855 11.3129 104.683 11.3129V8.80106Z"
        fill="white" />
    <path
        d="M84.1989 0.0304188L84.1689 20.1249C55.8957 20.0847 27.242 20.0847 -0.981151 20.1249L-1.00117 0.0304188C27.242 0.000277056 55.9057 0.000277056 84.1989 0.0304188Z"
        fill="black" />
    <path
        d="M84.1789 8.82116H80.9151V11.333H84.1789V8.82116ZM41.5789 8.79102H39.967V11.3028H41.5789C47.8662 11.3028 54.1536 11.3028 60.441 11.3028V8.79102C54.1536 8.79102 47.8662 8.79102 41.5789 8.79102ZM19.4829 8.80106C12.6549 8.80106 5.82685 8.81111 -0.991165 8.82116V11.333C5.83686 11.333 12.6549 11.3129 19.4829 11.3129V8.80106Z"
        fill="white" />
    <path
        d="M103.422 20.0945L103.452 0C131.274 0.040189 159.457 0.040189 187.23 0L187.26 20.0945C159.477 20.1347 131.274 20.1347 103.432 20.0945H103.422Z"
        fill="black" />
    <path
        d="M103.442 11.3028H106.645V8.79102H103.432V11.3028H103.442ZM145.361 11.333H146.943V8.82116H145.361C139.174 8.82116 132.986 8.82116 126.799 8.82116V11.333C132.986 11.333 139.174 11.333 145.361 11.333ZM167.096 11.3229C173.814 11.3229 180.532 11.3129 187.24 11.3028V8.79102C180.522 8.79102 173.814 8.81111 167.096 8.81111V11.3229Z"
        fill="white" />
    <path
        d="M187.25 20.0945L187.28 0C201.196 0 215.193 0.0200945 229.189 0.0301418C236.188 0.0301418 243.186 0.0301418 250.164 0.0301418C253.658 0.0301418 257.152 0.0301418 260.646 0.0301418L266.173 0.160756L268.936 0.231087L271.679 0.421985L270.438 20.4763L267.985 20.3055L265.532 20.2452L260.626 20.1247C257.152 20.1247 253.668 20.1247 250.184 20.1247C243.196 20.1247 236.198 20.1247 229.199 20.1247C215.193 20.1247 201.186 20.1046 187.26 20.0945H187.25Z"
        fill="black" />
    <path
        d="M187.27 11.3028H190.474V8.79102H187.26V11.3028H187.27ZM229.189 11.333H230.771V8.82116H210.628V11.333H229.189ZM250.925 11.3229H260.997L265.993 11.4535L268.496 11.5239L270.988 11.7047L271.149 9.19291L268.616 9.01206L266.083 8.94172L261.007 8.82116H250.925V11.3229Z"
        fill="white" />
    <path
        d="M270.438 20.4664L271.739 0.412109C286.397 1.40679 300.914 3.96884 314.95 7.86718C329.007 11.7253 342.653 16.7289 355.768 22.5663L347.628 40.9227C335.354 35.457 322.649 30.8151 309.694 27.2483C296.759 23.6514 283.533 21.3506 270.428 20.4564L270.438 20.4664Z"
        fill="black" />
    <path
        d="M271.008 11.6954L274.182 11.9265L274.392 9.42473L271.159 9.18359L271.008 11.6954ZM311.997 18.7888L313.518 19.2208L314.189 16.7994L312.657 16.3674L310.415 15.7344L308.152 15.1818L303.617 14.0766C302.115 13.6848 300.583 13.3934 299.061 13.0819L294.486 12.1475L294.025 14.6192L298.551 15.5435C300.053 15.855 301.574 16.1363 303.056 16.5281L307.541 17.6233L309.784 18.1658L312.007 18.7888H311.997ZM332.591 25.3697C338.888 27.6404 345.065 30.2025 351.183 32.9052L352.204 30.6144C346.037 27.8916 339.799 25.3094 333.442 23.0187L332.581 25.3798L332.591 25.3697Z"
        fill="white" />
    <path
        d="M347.629 40.9329L355.818 22.5967C382.059 34.3922 406.848 49.8951 429.224 67.729L416.75 83.4529C395.645 66.6238 372.197 51.9749 347.629 40.943V40.9329Z"
        fill="black" />
    <path
        d="M351.223 32.9148C352.204 33.3267 353.165 33.7889 354.126 34.2511L355.177 31.9704C354.206 31.5082 353.235 31.046 352.244 30.624L351.233 32.9248L351.223 32.9148ZM388.076 52.5371L389.418 53.371L390.739 51.241L389.388 50.397C386.774 48.7191 384.061 47.202 381.388 45.6145C378.725 44.007 375.982 42.5602 373.259 41.0531L372.067 43.2635C374.77 44.7505 377.494 46.1973 380.137 47.7847C382.79 49.3622 385.483 50.8592 388.076 52.527V52.5371ZM406.147 64.4933C407.509 65.4679 408.901 66.4023 410.242 67.407L414.267 70.4212C416.97 72.4005 419.583 74.5004 422.206 76.5802L423.768 74.6109C421.125 72.5111 418.492 70.4011 415.769 68.4118L411.714 65.3775C410.362 64.3728 408.961 63.4183 407.589 62.4437L406.147 64.4933Z"
        fill="white" />
    <path
        d="M416.75 83.4523L429.264 67.7686C440.448 76.7508 451.17 86.4665 461.232 96.8554C471.274 107.264 480.645 118.357 489.105 130.052L472.906 141.857C465.047 130.996 456.276 120.617 446.855 110.841C437.404 101.085 427.292 91.9222 416.75 83.4523Z"
        fill="black" />
    <path
        d="M422.236 76.5904L424.739 78.5797L426.321 76.6305L423.788 74.6211L422.226 76.5904H422.236ZM453.153 104.713L454.234 105.868L456.036 104.13L454.945 102.964L448.357 96.3533L441.589 89.9331L439.897 91.7818L446.615 98.1518L453.153 104.713ZM467.64 120.838C469.762 123.431 471.945 125.973 473.957 128.655L477.031 132.634C478.062 133.96 479.003 135.337 479.994 136.693L482.016 135.216C481.015 133.85 480.064 132.453 479.023 131.127L475.919 127.118C473.887 124.415 471.684 121.843 469.542 119.231L467.63 120.849L467.64 120.838Z"
        fill="white" />
    <path
        d="M472.916 141.857L489.145 130.092L492.309 134.503L495.322 139.034C497.374 142.028 499.257 145.153 501.159 148.267L502.591 150.598L503.942 152.99L506.635 157.772C508.377 160.927 509.979 163.971 511.661 167.076C518.319 179.434 524.967 191.782 531.575 204.03L513.964 213.595C507.356 201.327 500.698 188.979 494.041 176.611C492.379 173.546 490.707 170.371 489.055 167.387L486.582 162.997L485.35 160.806L484.029 158.656C482.267 155.793 480.545 152.909 478.632 150.136L475.839 145.936L472.906 141.837L472.916 141.857Z"
        fill="black" />
    <path
        d="M480.014 136.713L481.876 139.316L483.919 137.869L482.026 135.236L480.004 136.713H480.014ZM501.75 172.441L502.5 173.838L504.703 172.642L503.952 171.246L499.547 163.047L494.952 154.899L492.799 156.175L497.344 164.243L501.75 172.441ZM512.082 191.632C515.275 197.559 518.479 203.487 521.673 209.415L523.876 208.22C520.682 202.292 517.488 196.374 514.284 190.436L512.082 191.632Z"
        fill="white" />
    <path
        d="M513.964 213.595L531.595 204.07C544.78 228.656 558.166 253.543 571.391 278.048L553.781 287.623C540.545 263.108 527.149 238.201 513.954 213.595H513.964Z"
        fill="black" />
    <path
        d="M521.683 209.446L523.205 212.279L525.407 211.084L523.886 208.24L521.683 209.436V209.446ZM541.566 246.47L542.317 247.867L544.52 246.671L543.769 245.274C540.836 239.809 537.892 234.353 534.959 228.887L532.756 230.083C535.69 235.549 538.633 241.014 541.566 246.47ZM551.899 265.66C555.092 271.588 558.286 277.516 561.49 283.444L563.692 282.248C560.499 276.331 557.295 270.403 554.101 264.465L551.899 265.66Z"
        fill="white" />
    <path
        d="M553.791 287.622L571.421 278.098C584.607 302.683 597.993 327.57 611.218 352.076L593.608 361.651C580.372 337.135 566.976 312.228 553.781 287.622H553.791Z"
        fill="black" />
    <path
        d="M561.5 283.463L563.022 286.296L565.224 285.1L563.702 282.257L561.5 283.452V283.463ZM581.393 320.497L582.144 321.893L584.347 320.698L583.596 319.301C580.662 313.835 577.719 308.38 574.785 302.914L572.583 304.11C575.516 309.575 578.46 315.041 581.393 320.507V320.497ZM591.725 339.677C594.919 345.605 598.113 351.533 601.317 357.461L603.519 356.265C600.325 350.347 597.122 344.419 593.928 338.481L591.725 339.677Z"
        fill="white" />
    <path
        d="M593.608 361.651L611.238 352.126C614.532 358.275 617.846 364.434 621.16 370.613C622.822 373.697 624.474 376.792 626.136 379.877L627.377 382.197L628.619 384.408L631.102 388.829C637.82 400.564 645.469 411.756 653.858 422.216L638.24 434.795C629.209 423.542 620.98 411.505 613.761 398.876L611.088 394.113L609.757 391.732L608.505 389.411C606.843 386.317 605.181 383.232 603.519 380.138C600.205 373.959 596.891 367.79 593.588 361.641L593.608 361.651Z"
        fill="black" />
    <path
        d="M601.327 357.491L602.848 360.324L605.051 359.129L603.529 356.285L601.327 357.481V357.491ZM621.35 394.485L622.131 395.881L624.294 394.615L623.523 393.229C622.021 390.526 620.489 387.864 619.017 385.131L614.612 376.932L612.41 378.128L616.815 386.326C618.287 389.059 619.848 391.762 621.36 394.485H621.35ZM632.994 413.012C634.966 415.765 636.858 418.568 638.891 421.271L641.954 425.31C642.976 426.656 643.987 428.003 645.078 429.299L647.03 427.731C645.959 426.445 644.948 425.109 643.937 423.773L640.893 419.774C638.881 417.091 636.999 414.318 635.046 411.595L632.984 413.022L632.994 413.012Z"
        fill="white" />
    <path
        d="M638.25 434.795L653.898 422.256C670.638 443.275 690.812 462.013 713.018 477.034L701.805 493.682C677.947 477.546 656.261 457.411 638.25 434.795Z"
        fill="black" />
    <path
        d="M645.098 429.319L647.13 431.831L649.073 430.244L647.05 427.752L645.098 429.329V429.319ZM673.772 460.205L674.933 461.3L676.615 459.441L675.464 458.356C673.221 456.236 670.928 454.176 668.776 451.956C666.613 449.765 664.381 447.625 662.308 445.335L660.496 447.063C662.589 449.374 664.831 451.524 667.024 453.744C669.186 455.985 671.509 458.065 673.772 460.205ZM690.361 474.442C693.044 476.491 695.728 478.551 698.431 480.57C701.194 482.51 703.917 484.509 706.71 486.398L708.112 484.318C705.339 482.449 702.646 480.46 699.902 478.541C697.219 476.541 694.566 474.492 691.903 472.462L690.351 474.432L690.361 474.442Z"
        fill="white" />
    <path
        d="M701.805 493.683L713.068 477.064C735.264 492.186 760.033 504.152 785.643 512.069L779.746 531.269C752.264 522.769 725.663 509.929 701.815 493.673L701.805 493.683Z"
        fill="black" />
    <path
        d="M706.73 486.419L709.414 488.207L710.795 486.117L708.122 484.339L706.72 486.419H706.73ZM743.193 507.458L744.625 508.151L745.696 505.88L744.275 505.187C741.501 503.841 738.718 502.514 736.015 501.037C733.292 499.601 730.548 498.184 727.895 496.617L726.664 498.807C729.347 500.384 732.11 501.821 734.853 503.268C737.587 504.755 740.39 506.101 743.183 507.458H743.193ZM763.207 516.199C766.351 517.414 769.534 518.54 772.698 519.715L782.309 522.88L783.05 520.479L773.519 517.344C770.385 516.179 767.232 515.063 764.108 513.858L763.197 516.199H763.207Z"
        fill="white" />
    <path
        d="M779.726 531.269L785.673 512.079C811.313 520.067 838.475 524.276 865.277 524.427L865.157 544.522C836.403 544.361 807.249 539.85 779.726 531.269Z"
        fill="black" />
    <path
        d="M782.339 522.88L785.433 523.794L786.154 521.383L783.08 520.479L782.349 522.88H782.339ZM823.327 532.374L824.899 532.616L825.27 530.134L823.708 529.893L819.143 529.179L814.607 528.325L810.072 527.471L805.567 526.467L805.026 528.918L809.571 529.933L814.147 530.797L818.732 531.661L823.337 532.374H823.327ZM845.003 534.896C851.731 535.429 858.479 535.69 865.217 535.74V533.228C858.549 533.178 851.861 532.917 845.193 532.395L845.003 534.896Z"
        fill="white" />
    <path
        d="M865.167 544.531L865.337 524.437C866.989 524.477 868.741 524.477 870.483 524.477H875.709C879.193 524.477 882.687 524.487 886.181 524.487C893.17 524.487 900.168 524.487 907.166 524.487C921.162 524.487 935.149 524.467 949.035 524.457L949.065 544.551C935.169 544.551 921.172 544.571 907.176 544.581C900.178 544.581 893.17 544.581 886.181 544.581C882.687 544.581 879.193 544.581 875.699 544.581H870.463C868.721 544.581 866.989 544.581 865.167 544.531Z"
        fill="black" />
    <path
        d="M865.247 535.739C866.318 535.759 867.399 535.78 868.461 535.78V533.268C867.389 533.268 866.328 533.248 865.257 533.228V535.739H865.247ZM907.166 535.8H908.748V533.288H888.604V535.8H907.166ZM928.902 535.79C935.619 535.79 942.337 535.78 949.045 535.77V533.258C942.327 533.258 935.609 533.268 928.902 533.278V535.79Z"
        fill="white" />
    <path
        d="M949.065 544.561L949.095 524.467C976.918 524.507 1005.1 524.507 1032.86 524.467L1032.89 544.561C1005.11 544.602 976.908 544.602 949.065 544.561Z"
        fill="black" />
    <path
        d="M949.085 535.77H952.289V533.258H949.075V535.77H949.085ZM990.995 535.8H992.576V533.288H990.995C984.807 533.288 978.62 533.288 972.433 533.288V535.8C978.62 535.8 984.807 535.8 990.995 535.8ZM1012.73 535.79C1019.45 535.79 1026.17 535.78 1032.87 535.77V533.258C1026.16 533.258 1019.44 533.278 1012.73 533.278V535.79Z"
        fill="white" />
    <path
        d="M1032.88 544.561L1032.91 524.467C1060.74 524.507 1088.92 524.507 1116.68 524.467L1116.71 544.561C1088.93 544.602 1060.73 544.602 1032.88 544.561Z"
        fill="black" />
    <path
        d="M1032.9 535.77H1036.11V533.258H1032.89V535.77H1032.9ZM1074.82 535.8H1076.4V533.288H1074.82C1068.64 533.288 1062.45 533.288 1056.26 533.288V535.8C1062.45 535.8 1068.64 535.8 1074.82 535.8ZM1096.56 535.79C1103.28 535.79 1109.99 535.78 1116.7 535.77V533.258C1109.98 533.258 1103.28 533.278 1096.56 533.278V535.79Z"
        fill="white" />
    <path
        d="M1116.71 544.561L1116.74 524.467C1144.57 524.507 1172.75 524.507 1200.51 524.467L1200.54 544.561C1172.76 544.602 1144.55 544.602 1116.71 544.561Z"
        fill="black" />
    <path
        d="M1116.73 535.77H1119.94V533.258H1116.72V535.77H1116.73ZM1158.65 535.8H1160.23V533.288H1158.65C1152.46 533.288 1146.28 533.288 1140.09 533.288V535.8C1146.28 535.8 1152.46 535.8 1158.65 535.8ZM1180.39 535.79C1187.1 535.79 1193.82 535.78 1200.53 535.77V533.258C1193.81 533.258 1187.09 533.278 1180.39 533.278V535.79Z"
        fill="white" />
    <path
        d="M1200.54 544.561L1200.57 524.467C1228.39 524.507 1256.58 524.507 1284.34 524.467L1284.37 544.561C1256.59 544.602 1228.38 544.602 1200.54 544.561Z"
        fill="black" />
    <path
        d="M1200.56 535.77H1203.76V533.258H1200.55V535.77H1200.56ZM1242.48 535.8H1244.06V533.288H1242.48C1236.29 533.288 1230.11 533.288 1223.92 533.288V535.8C1230.11 535.8 1236.29 535.8 1242.48 535.8ZM1264.21 535.79C1270.92 535.79 1277.64 535.78 1284.35 535.77V533.258C1277.63 533.258 1270.92 533.278 1264.21 533.278V535.79Z"
        fill="white" />
    <path
        d="M1284.37 544.561L1284.4 524.467C1312.22 524.507 1340.41 524.507 1368.17 524.467L1368.2 544.561C1340.41 544.602 1312.21 544.602 1284.37 544.561Z"
        fill="black" />
    <path
        d="M1284.39 535.77H1287.59V533.258H1284.38V535.77H1284.39ZM1326.3 535.8H1327.88V533.288H1326.3C1320.11 533.288 1313.92 533.288 1307.74 533.288V535.8C1313.92 535.8 1320.11 535.8 1326.3 535.8ZM1348.03 535.79C1354.75 535.79 1361.47 535.78 1368.18 535.77V533.258C1361.46 533.258 1354.74 533.278 1348.03 533.278V535.79Z"
        fill="white" />
    <path
        d="M1368.2 544.561L1368.23 524.467C1396.05 524.507 1424.23 524.507 1452 524.467L1452.03 544.561C1424.24 544.602 1396.04 544.602 1368.2 544.561Z"
        fill="black" />
    <path
        d="M1368.22 535.77H1371.42V533.258H1368.21V535.77H1368.22ZM1410.13 535.8H1411.71V533.288H1410.13C1403.94 533.288 1397.75 533.288 1391.57 533.288V535.8C1397.75 535.8 1403.94 535.8 1410.13 535.8ZM1431.86 535.79C1438.58 535.79 1445.3 535.78 1452.01 535.77V533.258C1445.29 533.258 1438.58 533.278 1431.86 533.278V535.79Z"
        fill="white" />
    <path
        d="M1452.03 544.561L1452.06 524.467C1479.88 524.507 1508.06 524.507 1535.82 524.467L1535.85 544.561C1508.07 544.602 1479.87 544.602 1452.03 544.561Z"
        fill="black" />
    <path
        d="M1452.05 535.77H1455.25V533.258H1452.04V535.77H1452.05ZM1493.96 535.8H1495.54V533.288H1493.96C1487.77 533.288 1481.58 533.288 1475.39 533.288V535.8C1481.58 535.8 1487.77 535.8 1493.96 535.8ZM1515.69 535.79C1522.41 535.79 1529.13 535.78 1535.83 535.77V533.258C1529.12 533.258 1522.4 533.278 1515.69 533.278V535.79Z"
        fill="white" />
    <path
        d="M1535.84 544.561L1535.87 524.467C1563.7 524.507 1591.88 524.507 1619.64 524.467L1619.67 544.561C1591.89 544.602 1563.69 544.602 1535.84 544.561Z"
        fill="black" />
    <path
        d="M1535.86 535.77H1539.07V533.258H1535.85V535.77H1535.86ZM1577.78 535.8H1579.37V533.288H1577.78C1571.6 533.288 1565.41 533.288 1559.22 533.288V535.8C1565.41 535.8 1571.6 535.8 1577.78 535.8ZM1599.52 535.79C1606.24 535.79 1612.96 535.78 1619.66 535.77V533.258C1612.95 533.258 1606.23 533.278 1599.52 533.278V535.79Z"
        fill="white" />
    <path
        d="M1619.67 544.561L1619.7 524.467C1647.53 524.507 1675.71 524.507 1703.47 524.467L1703.5 544.561C1675.72 544.602 1647.52 544.602 1619.67 544.561Z"
        fill="black" />
    <path
        d="M1619.69 535.77H1622.9V533.258H1619.68V535.77H1619.69ZM1661.61 535.8H1663.19V533.288H1661.61C1655.43 533.288 1649.24 533.288 1643.05 533.288V535.8C1649.24 535.8 1655.43 535.8 1661.61 535.8ZM1683.35 535.79C1690.07 535.79 1696.78 535.78 1703.49 535.77V533.258C1696.77 533.258 1690.06 533.278 1683.35 533.278V535.79Z"
        fill="white" />
</svg>