<svg width="24" height="24" viewBox="0 0 24 24" fill="none" xmlns="http://www.w3.org/2000/svg">
  <path d="M4.5 16.5C4.5 17.3284 5.17157 18 6 18C6.82843 18 7.5 17.3284 7.5 16.5C7.5 15.6716 6.82843 15 6 15C5.17157 15 4.5 15.6716 4.5 16.5Z" fill="currentColor"/>
  <path d="M12 4.5C7 4.5 4.5 7 4.5 12C4.5 17 7 19.5 12 19.5C17 19.5 19.5 17 19.5 12C19.5 7 17 4.5 12 4.5ZM12 16.5C8.5 16.5 7.5 15.5 7.5 12C7.5 8.5 8.5 7.5 12 7.5C15.5 7.5 16.5 8.5 16.5 12C16.5 15.5 15.5 16.5 12 16.5Z" fill="currentColor"/>
</svg> 