<?xml version="1.0" encoding="UTF-8"?>
<svg id="Layer_1" data-name="Layer 1" xmlns="http://www.w3.org/2000/svg" version="1.1" viewBox="0 0 964.7 232">
  <defs>
    <style>
      .cls-1 {
        fill: #d1b3ff;
        strokeWidth: 0px;
      }
    </style>
  </defs>
  <path class="cls-1" d="M536.9,34.7l-8.6.2.3,9.8h-2.1c0,0,.3,9.9.3,9.9h-4.3c0,.1.3,9.9.3,9.9h-2.1c0,0-.3-9.8-.3-9.8h2.1c0,0-.5-19.7-.5-19.7l-6.4.2.3,9.8h-2.1c0,0,.3,9.9.3,9.9h-2.1c0,0-.3-9.8-.3-9.8h2.1c0,0-.3-9.9-.3-9.9l-6.4.2.3,9.8h2.1c0,0,.8,29.4.8,29.4h-2.1c0,0,.3,9.9.3,9.9h-2.1c0,0-.3-9.8-.3-9.8h2.1c0,0-.8-29.5-.8-29.5h-2.1c0,0-.3-9.8-.3-9.8h-2.1c0,0-2.1.1-2.1.1h-2.1c0,0-2.1.1-2.1.1l.3,9.8h2.1c0,0,.3,9.8.3,9.8h2.1c0,0-.3-9.9-.3-9.9h2.1c0,0,1.5,58.9,1.5,58.9h-4.3c0,.1-.3-9.7-.3-9.7h2.1c0,0-.8-29.5-.8-29.5h-2.1c0,0-2.1.1-2.1.1l-.3-9.8h-2.1c0,0-.5-19.6-.5-19.6l-17.2.5h-2.1c0,0-15,.5-15,.5l.8,29.5h-2.1c0,0,.5,19.7.5,19.7h-2.1c0,0-.3-9.8-.3-9.8h-2.1c0,0-2.1.1-2.1.1l-.5-19.7h2.1c0,0,.3,9.8.3,9.8h2.1c0,0-.5-19.7-.5-19.7h2.1c0,0-.3-9.9-.3-9.9l-10.7.3.5,19.7h-2.1c0,0,.5,19.7.5,19.7h-2.1c0,0-.5-19.6-.5-19.6h2.1c0,0-.5-19.7-.5-19.7l-6.4.2-.3-9.8h-2.1c0,0,.3,9.9.3,9.9l-6.4.2.5,19.7h2.1c0,0-.3-9.9-.3-9.9h2.1c0,0,.3,9.8.3,9.8h-2.1c0,0,.5,19.7.5,19.7h-2.1c0,0,.3,9.9.3,9.9h-2.1c0,0,.3,9.9.3,9.9h-2.1c0,0-.8-29.4-.8-29.4h2.1c0,0-.5-19.7-.5-19.7h-2.1c0,0-.3-9.8-.3-9.8h-2.1c0,0,.8,29.5.8,29.5h-2.1c0,0,.3,9.9.3,9.9h-2.1c0,0-.5-19.6-.5-19.6h2.1c0,0-.8-29.5-.8-29.5h-2.1c0,0,.3,9.9.3,9.9h-4.3c0,.1.3,9.9.3,9.9l.3,9.8h-4.3c0,.1.3,9.9.3,9.9h-2.1c0,0,.3,9.9.3,9.9h-4.3c0,.1.3,9.9.3,9.9h-2.1c0,0-.5-19.6-.5-19.6h4.3c0-.1-.3-9.9-.3-9.9h4.3c0-.1-.3-9.9-.3-9.9l-.3-9.8h-2.1c0,0-2.1.1-2.1.1h-2.1c0,0,.3,9.9.3,9.9h-2.1c0,0-.3-9.8-.3-9.8h-2.1c0,0,.5,19.7.5,19.7h-2.1c0,0-.5-19.6-.5-19.6h-2.1c0,0-2.1.1-2.1.1l-.3-9.8h-2.1c0,0,.5,19.7.5,19.7h-2.1c0,0-.3-9.8-.3-9.8h-2.1c0,0,.5,19.7.5,19.7h-2.1c0,0-.5-19.6-.5-19.6l-8.6.2.3,9.8h-2.1c0,0,.5,19.7.5,19.7h2.1c0,0,.3,9.8.3,9.8h-2.1c0,0-.3-9.8-.3-9.8h-2.1c0,0-.5-19.6-.5-19.6h2.1c0,0-.3-9.9-.3-9.9h-4.3c0,.1-2.1.2-2.1.2h-2.1c0,0,.3,9.9.3,9.9h-2.1c0,0,.3,9.9.3,9.9h-2.1c0,0-.5-19.6-.5-19.6h-2.1c0,0-.3-9.8-.3-9.8h-2.1c0,0,.3,9.9.3,9.9l-8.6.2-.3-9.8h-2.1c0,0,.3,9.9.3,9.9h-2.1c0,0-2.1.1-2.1.1l.3,9.8.3,9.8h-2.1c0,0,.3,9.9.3,9.9h-2.1c0,0-.3-9.8-.3-9.8h-2.1c0,0-.3-9.8-.3-9.8h2.1c0,0-.3-9.9-.3-9.9h-2.1c0,0-.3-9.8-.3-9.8h-2.1c0,0,.3,9.9.3,9.9h-2.1c0,0-.3-9.8-.3-9.8h-2.1c0,0,.3,9.9.3,9.9h-4.3c0,.1-.3-9.7-.3-9.7h-2.1c0,0,.3,9.9.3,9.9h-2.1c0,0-.3-9.8-.3-9.8h-4.3c0,.1.3,9.9.3,9.9h2.1c0,0,.3,9.8.3,9.8h-2.1c0,0-.3-9.8-.3-9.8h-2.1c0,0-.3-9.8-.3-9.8h-2.1c0,0,.3,9.9.3,9.9h-2.1c0,0-.3-9.8-.3-9.8h-2.1c0,0,.3,9.9.3,9.9l.3,9.8h-2.1c0,0-.3-9.8-.3-9.8h-2.1c0,0-.3-9.8-.3-9.8h-2.1c0,0,.3,9.9.3,9.9h-4.3c0,.1-.3-9.7-.3-9.7h-2.1c0,0,.3,9.9.3,9.9h-2.1c0,0-.3-9.8-.3-9.8h-4.3c0,.1.3,9.9.3,9.9h-2.1c0,0-.3-9.8-.3-9.8h-4.3c0,.1.3,9.9.3,9.9h-2.1c0,0-.3-9.8-.3-9.8h-2.1c0,0,.3,9.9.3,9.9h-2.1c0,0-2.1.1-2.1.1l-.3-9.8h-2.1c0,0,.3,9.9.3,9.9h-4.3c0,.1-.3-9.7-.3-9.7h-2.1c0,0,.3,9.9.3,9.9h-2.1c0,0-4.3.2-4.3.2l-.3-9.8h-2.1c0,0,.3,9.9.3,9.9h-4.3c0,.1.3,9.9.3,9.9h-2.1c0,0-.3-9.8-.3-9.8h-2.1c0,0-.3-9.8-.3-9.8h-2.1c0,0,.3,9.9.3,9.9h-2.1c0,0-2.1.1-2.1.1l-.3-9.8h-2.1c0,0,.3,9.9.3,9.9h-2.1c0,0-2.1.1-2.1.1l.8,29.5h-2.1c0,0-.8-29.4-.8-29.4h-2.1c0,0-.3-9.8-.3-9.8h-2.1c0,0,.3,9.9.3,9.9h-2.1c0,0-2.1.1-2.1.1l-.3-9.8h-2.1c0,0,.3,9.9.3,9.9h-4.3c0,.1-.3-9.7-.3-9.7h-2.1c0,0,.3,9.9.3,9.9h-2.1c0,0-.3-9.8-.3-9.8h-4.3c0,.1.3,9.9.3,9.9h-2.1c0,0-6.4.2-6.4.2l.5,19.7h-2.1c0,0-.5-19.6-.5-19.6h2.1c0,0-.3-9.9-.3-9.9l-6.4.2.3,9.8h-4.3c0,.1.3,9.9.3,9.9h-2.1c0,0-.3-9.8-.3-9.8l-.3-9.8-12.9.3.3,9.8h-2.1c0,0-.3-9.8-.3-9.8l-10.7.3.3,9.8h-2.1c0,0-.3-9.8-.3-9.8l-10.7.3.3,9.8h-2.1c0,0-.3-9.8-.3-9.8h-4.3c0,.1.3,9.9.3,9.9h2.1c0,0,.3,9.8.3,9.8h-2.1c0,0-.3-9.8-.3-9.8h-2.1c0,0-.3-9.8-.3-9.8l-8.6.2.3,9.8h-2.1c0,0-.3-9.8-.3-9.8h-4.3c0,.1.3,9.9.3,9.9l.3,9.8h-2.1c0,0,.3,9.9.3,9.9h-2.1c0,0-.3-9.8-.3-9.8h2.1c0,0-.3-9.9-.3-9.9l-.3-9.8h-4.3c0,.1.3,9.9.3,9.9h-2.1c0,0-.3-9.8-.3-9.8h-4.3c0,.1.5,19.8.5,19.8h-2.1c0,0-.5-19.6-.5-19.6l-15,.4.5,19.7h-2.1c0,0,.3,9.9.3,9.9h-2.1c0,0-.8-29.4-.8-29.4h-2.1c0,0,.3,9.9.3,9.9h-4.3c0,.1-.3-9.7-.3-9.7h-2.1c0,0,.5,19.7.5,19.7h-2.1c0,0,.5,19.7.5,19.7h-2.1c0,0-.5-19.6-.5-19.6h2.1c0,0-.5-19.7-.5-19.7h-4.3c0,.1.3,9.9.3,9.9h-2.1c0,0-.3-9.8-.3-9.8h-4.3c0,.1.3,9.9.3,9.9h-2.1c0,0-2.1.1-2.1.1l-6.4.2.5,19.7h2.1c0,0-.3-9.9-.3-9.9h4.3c0-.1.5,19.5.5,19.5l.3,9.8h-2.1c0,0-2.1.1-2.1.1h-2.1c0,0,.3,9.9.3,9.9h-2.1c0,0-.3-9.8-.3-9.8h-4.3c0,.1.3,9.9.3,9.9l.8,29.5h2.1c0,0,.3,9.8.3,9.8h-2.1c0,0-2.1.1-2.1.1l.5,19.7h2.1c0,0,.3,9.8.3,9.8h2.1c0,0,2.1-.1,2.1-.1l.3,9.8h2.1c0,0,.3,9.8.3,9.8h4.3c0-.1-.5-19.8-.5-19.8h2.1c0,0,.8,29.4.8,29.4h2.1c0,0-.8-29.5-.8-29.5h2.1c0,0-.3-9.9-.3-9.9h2.1c0,0,.5,19.6.5,19.6h-2.1c0,0,.3,9.9.3,9.9h2.1c0,0,.5,19.6.5,19.6l6.4-.2.3,9.8h2.1c0,0-.3-9.9-.3-9.9h2.1c0,0,.3,9.8.3,9.8l15-.4-.3-9.8-.5-19.7h2.1c0,0,.5,19.6.5,19.6l.3,9.8h4.3c0-.1-.5-19.8-.5-19.8h2.1c0,0,.5,19.6.5,19.6h4.3c0-.1-.3-9.9-.3-9.9h2.1c0,0,.3,9.8.3,9.8l10.7-.3-.8-29.5h-2.1c0,0-.3-9.8-.3-9.8h2.1c0,0,.3,9.8.3,9.8h2.1c0,0,.8,29.4.8,29.4h2.1c0,0-.5-19.7-.5-19.7h2.1c0,0-.3-9.9-.3-9.9h2.1c0,0,.8,29.4.8,29.4l8.6-.2-.5-19.7h2.1c0,0,.5,19.6.5,19.6l21.5-.6-.3-9.8h2.1c0,0,.3,9.8.3,9.8l10.7-.3-.3-9.8h2.1c0,0,.3,9.8.3,9.8h2.1c0,0-.5-19.7-.5-19.7h2.1c0,0,.5,19.6.5,19.6l17.2-.5-.3-9.8h2.1c0,0,.3,9.8.3,9.8l30.1-.8h2.1c0,0,2.1-.1,2.1-.1l-.5-19.7h2.1c0,0,.5,19.6.5,19.6l8.6-.2-.3-9.8-.3-9.8h2.1c0,0,.3,9.8.3,9.8l.3,9.8,10.7-.3h2.1c0,0,2.1-.1,2.1-.1l-.3-9.8h2.1c0,0,.3,9.8.3,9.8h2.1c0,0,8.6-.3,8.6-.3h2.1c0,0,2.1-.1,2.1-.1l-.3-9.8h2.1c0,0,.3,9.8.3,9.8h2.1c0,0,2.1-.1,2.1-.1h4.3c0-.1-.3-9.9-.3-9.9h2.1c0,0,.3,9.8.3,9.8h2.1c0,0,4.3-.2,4.3-.2l.3,9.8h2.1c0,0-.3-9.9-.3-9.9h4.3c0-.1,2.1-.2,2.1-.2l-.3-9.8h2.1c0,0,.3,9.8.3,9.8l6.4-.2h2.1c0,0,2.1-.1,2.1-.1h4.3c0-.1-.5-19.8-.5-19.8h2.1c0,0,.5,19.6.5,19.6h4.3c0-.1,2.1-.2,2.1-.2l-.3-9.8h2.1c0,0,.3,9.8.3,9.8h2.1c0,0,2.1-.1,2.1-.1h4.3c0-.1,2.1-.2,2.1-.2h2.1c0,0,4.3-.2,4.3-.2l-.5-19.7h2.1c0,0-.3-9.9-.3-9.9h2.1c0,0,.3,9.8.3,9.8h-2.1c0,0,.8,29.5.8,29.5h2.1c0,0-.3-9.9-.3-9.9h4.3c0-.1.3,9.7.3,9.7h2.1c0,0-.5-19.7-.5-19.7h2.1c0,0-.3-9.9-.3-9.9h2.1c0,0,.3,9.8.3,9.8h-2.1c0,0,.3,9.9.3,9.9h2.1c0,0,.3,9.8.3,9.8h2.1c0,0-.3-9.9-.3-9.9h4.3c0-.1,2.1-.2,2.1-.2l-.3-9.8h2.1c0,0,.3,9.8.3,9.8h2.1c0,0,2.1-.1,2.1-.1h2.1c0,0-.3-9.9-.3-9.9l-.3-9.8h-2.1c0,0-.3-9.8-.3-9.8h4.3c0-.1.5,19.5.5,19.5l.3,9.8h2.1c0,0-.3-9.9-.3-9.9h2.1c0,0-.5-19.7-.5-19.7h2.1c0,0,.8,29.4.8,29.4h2.1c0,0,.3,9.8.3,9.8h2.1c0,0-.3-9.9-.3-9.9h4.3c0-.1-.3-9.9-.3-9.9h2.1c0,0,.3,9.8.3,9.8h2.1c0,0,.3,9.8.3,9.8h2.1c0,0-1-39.4-1-39.4h2.1c0,0,.8,29.4.8,29.4h4.3c0-.1-.5-19.8-.5-19.8h2.1c0,0,.5,19.6.5,19.6h2.1c0,0,2.1-.1,2.1-.1h2.1c0,0,.3,9.8.3,9.8h2.1c0,0-.3-9.9-.3-9.9l-.3-9.8h2.1c0,0,.3,9.8.3,9.8l.3,9.8h4.3c0-.1-.8-29.6-.8-29.6h2.1c0,0,.8,29.4.8,29.4h2.1c0,0-.3-9.9-.3-9.9h2.1c0,0-.5-19.7-.5-19.7h2.1c0,0,.8,29.4.8,29.4h2.1c0,0-.3-9.9-.3-9.9h2.1c0,0-.3-9.9-.3-9.9l-.5-19.7h2.1c0,0,.5,19.6.5,19.6l.3,9.8h2.1c0,0,4.3-.2,4.3-.2h2.1c0,0,.3,9.8.3,9.8h2.1c0,0-.3-9.9-.3-9.9h2.1c0,0,.3,9.8.3,9.8h2.1c0,0-.3-9.9-.3-9.9h2.1c0,0-.3-9.9-.3-9.9h2.1c0,0,.5,19.6.5,19.6h4.3c0-.1-.3-9.9-.3-9.9h4.3c0-.1-.3-9.9-.3-9.9h2.1c0,0,.3,9.8.3,9.8h2.1c0,0,.3,9.8.3,9.8l8.6-.2-.3-9.8-.3-9.8h2.1c0,0,2.1-.1,2.1-.1l-.3-9.8h2.1c0,0,.5,19.6.5,19.6h-2.1c0,0,.3,9.9.3,9.9l6.4-.2-.5-19.7h-2.1c0,0-.5-19.6-.5-19.6h2.1c0,0-.3-9.9-.3-9.9h2.1c0,0,1.3,49.1,1.3,49.1h2.1c0,0-.5-19.7-.5-19.7h2.1c0,0-.5-19.7-.5-19.7h2.1c0,0,.5,19.6.5,19.6h-2.1c0,0,.5,19.7.5,19.7h4.3c0-.1-.3-9.9-.3-9.9h4.3c0-.1-.3-9.9-.3-9.9h2.1c0,0-.5-19.7-.5-19.7h2.1c0,0,1,39.3,1,39.3h4.3c0-.1-.3-9.9-.3-9.9h2.1c0,0-.3-9.9-.3-9.9h2.1c0,0,.5,19.6.5,19.6h4.3c0-.1-.3-9.9-.3-9.9h-2.1c0,0-.5-19.6-.5-19.6h2.1c0,0-.8-29.5-.8-29.5h-2.1c0,0-.3-9.8-.3-9.8h2.1c0,0-.3-9.9-.3-9.9h2.1c0,0,.3,9.8.3,9.8h-2.1c0,0,.3,9.9.3,9.9h2.1c0,0,.5,19.6.5,19.6h2.1c0,0-.3-9.9-.3-9.9h2.1c0,0-.3-9.9-.3-9.9h2.1c0,0,.5,19.6.5,19.6h-4.3c0,.1.3,9.9.3,9.9h-2.1c0,0,.5,19.7.5,19.7h4.3c0-.1-.3-9.9-.3-9.9h4.3c0-.1-.3-9.9-.3-9.9h2.1c0,0-.3-9.9-.3-9.9h2.1c0,0,.3,9.8.3,9.8h-2.1c0,0,.5,19.7.5,19.7h2.1c0,0,.3,9.8.3,9.8h2.1c0,0-.3-9.9-.3-9.9h2.1c0,0-.3-9.9-.3-9.9h2.1c0,0-.3-9.9-.3-9.9h2.1c0,0-.5-19.7-.5-19.7h2.1c0,0,.3,9.8.3,9.8h2.1c0,0-.5-19.7-.5-19.7h2.1c0,0,.8,29.4.8,29.4l.3,9.8h-2.1c0,0-.3-9.8-.3-9.8h-4.3c0,.1.8,29.6.8,29.6h2.1c0,0-.3-9.9-.3-9.9h2.1c0,0,.3,9.8.3,9.8h2.1c0,0-.3-9.9-.3-9.9h2.1c0,0-.3-9.9-.3-9.9h2.1c0,0-.3-9.9-.3-9.9h2.1c0,0,.3,9.8.3,9.8h-2.1c0,0,.5,19.7.5,19.7l6.4-.2-.5-19.7h-2.1c0,0-.5-19.6-.5-19.6h2.1c0,0,.5,19.6.5,19.6h2.1c0,0,.5,19.6.5,19.6h4.3c0-.1-.3-9.9-.3-9.9h4.3c0-.1.3,9.7.3,9.7l6.4-.2-.3-9.8h2.1c0,0-.5-19.7-.5-19.7h2.1c0,0,.8,29.4.8,29.4h2.1c0,0-.3-9.9-.3-9.9l-.3-9.8h4.3c0-.1.5,19.5.5,19.5h2.1c0,0-.3-9.9-.3-9.9h4.3c0-.1.3,9.7.3,9.7l8.6-.2-.3-9.8h2.1c0,0,2.1-.1,2.1-.1l.3,9.8h4.3c0-.1-.3-9.9-.3-9.9h2.1c0,0,.3,9.8.3,9.8l12.9-.3-.8-29.5h2.1c0,0,.5,19.6.5,19.6h2.1c0,0,.3,9.8.3,9.8h2.1c0,0-.3-9.9-.3-9.9l-.3-9.8h2.1c0,0,.3,9.8.3,9.8l.3,9.8,10.7-.3-.8-29.5h2.1c0,0,.8,29.4.8,29.4l15-.4-.8-29.5h2.1c0,0,.8,29.4.8,29.4l6.4-.2-.3-9.8h4.3c0-.1.3,9.7.3,9.7l8.6-.2-.3-9.8h2.1c0,0-.3-9.9-.3-9.9h2.1c0,0,.5,19.6.5,19.6h2.1c0,0-.3-9.9-.3-9.9h2.1c0,0,2.1-.1,2.1-.1l.3,9.8,27.9-.7-.3-9.8-.3-9.8h2.1c0,0,.3,9.8.3,9.8l.3,9.8,27.9-.7-.3-9.8h2.1c0,0,.3,9.8.3,9.8l32.2-.8-.3-9.8h2.1c0,0,.3,9.8.3,9.8l15-.4-.3-9.8h2.1c0,0,.3,9.8.3,9.8l8.6-.2-.3-9.8h2.1c0,0,.3,9.8.3,9.8l15-.4-.3-9.8-.3-9.8h2.1c0,0,.3,9.8.3,9.8l.3,9.8,8.6-.2-.3-9.8h2.1c0,0,.3,9.8.3,9.8l6.4-.2-.3-9.8h-2.1c0,0-.5-19.6-.5-19.6h2.1c0,0,.5,19.6.5,19.6h2.1c0,0,.3,9.8.3,9.8l10.7-.3-.3-9.8h2.1c0,0,.3,9.8.3,9.8l17.2-.5-.3-9.8h2.1c0,0,.3,9.8.3,9.8l6.4-.2-.3-9.8h-2.1c0,0-2.1.1-2.1.1l-.3-9.8h2.1c0,0-.3-9.9-.3-9.9h2.1c0,0,.3,9.8.3,9.8h2.1c0,0-.3-9.9-.3-9.9h4.3c0-.1-.3-9.9-.3-9.9h-2.1c0,0-.8-29.4-.8-29.4h-2.1c0,0-.3-9.8-.3-9.8h-2.1c0,0,.8,29.5.8,29.5h-2.1c0,0-.8-29.4-.8-29.4h-2.1c0,0-.3-9.8-.3-9.8h-2.1c0,0,.3,9.9.3,9.9h-2.1c0,0-.5-19.6-.5-19.6h-2.1c0,0-.3-9.8-.3-9.8h-2.1c0,0,.3,9.9.3,9.9h-2.1c0,0-.8-29.4-.8-29.4h-4.3c0,.1.3,9.9.3,9.9h-2.1c0,0-.5-19.6-.5-19.6l-6.4.2-.3-9.8h2.1c0,0-.3-9.9-.3-9.9h2.1c0,0,.3,9.8.3,9.8h2.1c0,0-.3-9.9-.3-9.9l-.3-9.8h-2.1c0,0-.3-9.8-.3-9.8h-4.3c0,.1.3,9.9.3,9.9h-4.3c0,.1.3,9.9.3,9.9h2.1c0,0,.3,9.8.3,9.8h-2.1c0,0-.3-9.8-.3-9.8h-2.1c0,0-.3-9.8-.3-9.8h2.1c0,0-.3-9.9-.3-9.9l-19.3.5.3,9.8h-2.1c0,0-.3-9.8-.3-9.8l-8.6.2.3,9.8h-2.1c0,0-.3-9.8-.3-9.8l-40.8,1.1.3,9.8h-2.1c0,0-.3-9.8-.3-9.8l-10.7.3.5,19.7h-2.1c0,0-.5-19.6-.5-19.6l-10.7.3.3,9.8h-2.1c0,0-.3-9.8-.3-9.8l-21.5.6.3,9.8h-2.1c0,0-.3-9.8-.3-9.8l-23.6.6.3,9.8h-2.1c0,0-.3-9.8-.3-9.8l-30.1.8.5,19.7.3,9.8h-2.1c0,0-.3-9.8-.3-9.8h-2.1c0,0-.3-9.8-.3-9.8h2.1c0,0-.3-9.9-.3-9.9l-10.7.3.3,9.8h-2.1c0,0-.3-9.8-.3-9.8l-17.2.5.3,9.8h-2.1c0,0,.3,9.9.3,9.9h-2.1c0,0-.3-9.8-.3-9.8h2.1c0,0-.3-9.9-.3-9.9l-10.7.3.3,9.8h-2.1c0,0-.3-9.8-.3-9.8l-15,.4.3,9.8h-2.1c0,0,.3,9.9.3,9.9h-2.1c0,0-.5-19.6-.5-19.6h-2.1c0,0,.3,9.9.3,9.9h-2.1c0,0-.3-9.8-.3-9.8h-4.3c0,.1.5,19.8.5,19.8h-2.1c0,0,.3,9.9.3,9.9h-2.1c0,0-.3-9.8-.3-9.8h2.1c0,0-.5-19.7-.5-19.7l-34.4.9.3,9.8.3,9.8h-2.1c0,0-.3-9.8-.3-9.8l-.3-9.8-6.4.2.3,9.8h-2.1c0,0,.3,9.9.3,9.9h-2.1c0,0-.3-9.8-.3-9.8h2.1c0,0-.3-9.9-.3-9.9l-8.6.2.3,9.8h-2.1c0,0-.3-9.8-.3-9.8l-8.6.2.8,29.5h-2.1c0,0-.3-9.8-.3-9.8h-2.1c0,0-.3-9.8-.3-9.8h2.1c0,0-.3-9.9-.3-9.9h-4.3c0,.1-2.1.2-2.1.2h-2.1c0,0,.3,9.9.3,9.9h-2.1c0,0,.3,9.9.3,9.9h-2.1c0,0-.5-19.6-.5-19.6ZM514.8,94.3l-.5-19.7h2.1c0,0-.3-9.9-.3-9.9h2.1c0,0,.8,29.4.8,29.4h-4.3c0,.1.3,9.9.3,9.9h-2.1c0,0-.3-9.8-.3-9.8h2.1ZM523.4,94.1l-.3-9.8-.3-9.8h2.1c0,0,.3,9.8.3,9.8l.3,9.8h-2.1c0,0,.3,9.9.3,9.9h-2.1c0,0-.3-9.8-.3-9.8h2.1ZM508.6,104.3l-.3-9.8h2.1c0,0,.3,9.8.3,9.8h-2.1c0,0,.3,9.9.3,9.9h2.1c0,0,.3,9.8.3,9.8l.3,9.8.3,9.8h2.1c0,0-.3-9.9-.3-9.9h2.1c0,0-.5-19.7-.5-19.7h4.3c0-.1.3,9.7.3,9.7h-2.1c0,0,.3,9.9.3,9.9h-2.1c0,0,.3,9.9.3,9.9h-2.1c0,0,.3,9.9.3,9.9h-2.1c0,0-2.1.1-2.1.1l.3,9.8h-2.1c0,0-.3-9.8-.3-9.8h2.1c0,0-.5-19.7-.5-19.7l-.3-9.8h-2.1c0,0-.5-19.6-.5-19.6h2.1ZM504.8,124.1l.3,9.8h-2.1c0,0,.3,9.9.3,9.9h-2.1c0,0-.3-9.8-.3-9.8h2.1c0,0-.3-9.9-.3-9.9l-.3-9.8h2.1c0,0,.3,9.8.3,9.8ZM524.4,133.4l-.3-9.8h2.1c0,0,.3,9.8.3,9.8h-2.1ZM522.8,153.1l-.3-9.8h2.1c0,0,.3,9.8.3,9.8h-2.1ZM539.8,64.1h2.1c0,0,.5,19.6.5,19.6h-2.1c0,0,.3,9.9.3,9.9h-2.1c0,0-.5-19.6-.5-19.6h2.1c0,0-.3-9.9-.3-9.9ZM535,44.6l.5,19.7h-2.1c0,0-.5-19.6-.5-19.6h2.1ZM540.9,103.5h2.1c0,0,.5,19.6.5,19.6h-2.1c0,0,.3,9.9.3,9.9h-2.1c0,0-.3-9.8-.3-9.8h2.1c0,0-.5-19.7-.5-19.7ZM544.4,73.9l-.5-19.7h2.1c0,0,.5,19.6.5,19.6h-2.1ZM527.4,84.1l-.3-9.8h2.1c0,0,.3,9.8.3,9.8h-2.1ZM534.1,93.8l-.3-9.8h2.1c0,0,.8,29.4.8,29.4l.3,9.8h-2.1c0,0-.3-9.8-.3-9.8l-.3-9.8h-2.1c0,0,.3,9.9.3,9.9h-2.1c0,0,.5,19.7.5,19.7h-2.1c0,0-.5-19.6-.5-19.6h2.1c0,0-.3-9.9-.3-9.9h2.1c0,0-.3-9.9-.3-9.9h2.1ZM529.5,162.8l-.3-9.8h2.1c0,0,.8,29.4.8,29.4h-2.1c0,0-.3-9.8-.3-9.8h-2.1c0,0,.5,19.7.5,19.7h-2.1c0,0-.8-29.4-.8-29.4h4.3ZM546.4,152.5l-.5-19.7h2.1c0,0,.5,19.6.5,19.6h-2.1ZM545.4,113.2l-.5-19.7h2.1c0,0,.5,19.6.5,19.6h-2.1ZM475.1,56h2.1c0,0,.3,9.8.3,9.8h-2.1c0,0-.3-9.8-.3-9.8ZM473.4,75.7h-2.1c0,0,.3,9.9.3,9.9h-2.1c0,0-.8-29.4-.8-29.4h4.3c0-.1.5,19.5.5,19.5ZM463.5,105.5l-.3-9.8h2.1c0,0,.3,9.8.3,9.8h-2.1ZM460.4,154.8l-.3-9.8h2.1c0,0,.3,9.8.3,9.8h-2.1ZM459.4,115.4l.3,9.8h-2.1c0,0-.3-9.8-.3-9.8h2.1ZM477.4,144.5l-.3-9.8h2.1c0,0,.3,9.8.3,9.8h-2.1ZM495.7,104.6l-.5-19.7h2.1c0,0,.5,19.6.5,19.6h-2.1ZM488,55.7l-.3-9.8h2.1c0,0,.3,9.8.3,9.8h-2.1ZM489,95l-.3-9.8h2.1c0,0,.3,9.8.3,9.8h-2.1ZM486.3,75.4h-4.3c0,.1-.3-9.7-.3-9.7h4.3c0-.1.3,9.7.3,9.7ZM489.8,124.5h2.1c0,0,.5,19.6.5,19.6h-2.1c0,0-.5-19.6-.5-19.6ZM483.1,114.8h2.1c0,0,.3,9.8.3,9.8h-2.1c0,0-.3-9.8-.3-9.8ZM490.8,163.8h2.1c0,0,.3,9.8.3,9.8l.3,9.8h-2.1c0,0-.3-9.8-.3-9.8l-.3-9.8ZM493.8,114.5h2.1c0,0,.3,9.8.3,9.8h-2.1c0,0-.3-9.8-.3-9.8ZM494.8,153.9h2.1c0,0-.3-9.9-.3-9.9h2.1c0,0,.3,9.8.3,9.8h-2.1c0,0,.3,9.9.3,9.9h-2.1c0,0-.3-9.8-.3-9.8ZM489.2,183.5l.3,9.8h-2.1c0,0-.3-9.8-.3-9.8h2.1ZM516.9,172.9l.5,19.7h-2.1c0,0-.5-19.6-.5-19.6h2.1ZM601.9,52.7l.5,19.7h-2.1c0,0,.3,9.9.3,9.9h-2.1c0,0-.8-29.4-.8-29.4h4.3ZM595.2,43l.5,19.7h-2.1c0,0-.5-19.6-.5-19.6h2.1ZM594.3,92.2l-.3-9.8h2.1c0,0,.3,9.8.3,9.8h-2.1ZM594.6,102.1h2.1c0,0,.3,9.8.3,9.8h-2.1c0,0-.3-9.8-.3-9.8ZM600.2,151.1l-.3-9.8h2.1c0,0,.3,9.8.3,9.8h-2.1ZM594,161.1h2.1c0,0,.3,9.8.3,9.8h-2.1c0,0-.3-9.8-.3-9.8ZM608,121.4l-.3-9.8h2.1c0,0,.3,9.8.3,9.8h-2.1c0,0,.3,9.9.3,9.9h-2.1c0,0-.3-9.8-.3-9.8h2.1ZM602.6,160.9h2.1c0,0,.5,19.6.5,19.6h-2.1c0,0-.5-19.6-.5-19.6ZM606.9,160.8h2.1c0,0,.5,19.6.5,19.6h2.1c0,0,.3,9.8.3,9.8h-2.1c0,0-.3-9.8-.3-9.8h-2.1c0,0-.5-19.6-.5-19.6ZM590.3,102.2l.3,9.8h-2.1c0,0-.3-9.8-.3-9.8h2.1ZM610.5,52.5h2.1c0,0,.5,19.6.5,19.6h-2.1c0,0-.5-19.6-.5-19.6ZM613.1,150.8l-.3-9.8h2.1c0,0,.3,9.8.3,9.8h-2.1ZM630.5,160.1h2.1c0,0,.3,9.8.3,9.8h-2.1c0,0-.3-9.8-.3-9.8ZM556.5,44h2.1c0,0,.3,9.8.3,9.8h-2.1c0,0-.3-9.8-.3-9.8ZM562.1,93.1l-.3-9.8h2.1c0,0-.3-9.9-.3-9.9h2.1c0,0-.3-9.9-.3-9.9h2.1c0,0,.3,9.8.3,9.8h-2.1c0,0,.3,9.9.3,9.9h-2.1c0,0,.3,9.9.3,9.9h-2.1ZM557.5,83.4l-.3-9.8h2.1c0,0,.3,9.8.3,9.8h-2.1ZM551.3,93.4l-.5-19.7h2.1c0,0,.5,19.6.5,19.6h-2.1ZM557.2,152.2l-.3-9.8h2.1c0,0,.3,9.8.3,9.8h-2.1ZM553.1,162.2h2.1c0,0,.3,9.8.3,9.8h-2.1c0,0-.3-9.8-.3-9.8ZM552.4,132.7l-.3-9.8h2.1c0,0,.3,9.8.3,9.8h-2.1ZM562.9,122.6l-.3-9.8h2.1c0,0,4.3-.2,4.3-.2l-.3-9.8h2.1c0,0,.3,9.8.3,9.8h-2.1c0,0,.3,9.9.3,9.9h-4.3c0,.1.5,19.8.5,19.8h-2.1c0,0-.5-19.6-.5-19.6ZM556.2,112.9l-.5-19.7h2.1c0,0,.5,19.6.5,19.6h-2.1ZM583.8,102.3l-.3-9.8h-2.1c0,0-.3-9.8-.3-9.8h2.1c0,0,.3,9.8.3,9.8h2.1c0,0,.3,9.8.3,9.8h-2.1ZM572.8,92.8l-.3-9.8h2.1c0,0,.3,9.8.3,9.8h-2.1ZM569.6,132.2h2.1c0,0,.3,9.8.3,9.8l.3,9.8h-2.1c0,0-.3-9.8-.3-9.8l-.3-9.8ZM575.8,122.2l.5,19.7h-2.1c0,0-.5-19.6-.5-19.6h2.1ZM586.8,131.8h2.1c0,0,.5,19.6.5,19.6h-2.1c0,0-.5-19.6-.5-19.6ZM582,112.2h2.1c0,0,.3,9.8.3,9.8l.3,9.8h-2.1c0,0-.3-9.8-.3-9.8l-.3-9.8ZM583.2,161.4l-.3-9.8h2.1c0,0,.3,9.8.3,9.8l.3,9.8h-2.1c0,0-.3-9.8-.3-9.8ZM588.3,190.8l-.3-9.8h4.3c0-.1.3,9.7.3,9.7h-4.3ZM631.3,189.6l-.3-9.8h2.1c0,0,.3,9.8.3,9.8h-2.1ZM614.1,190.1l-.3-9.8h2.1c0,0,.3,9.8.3,9.8h-2.1ZM344.2,69.3l-.3-9.8h2.1c0,0,.3,9.8.3,9.8l.3,9.8h-4.3c0,.1-.3-9.7-.3-9.7h2.1ZM340.1,79.2l.3,9.8h-2.1c0,0,.3,9.9.3,9.9h-2.1c0,0-.3-9.8-.3-9.8h2.1c0,0-.3-9.9-.3-9.9h2.1ZM349.3,98.6l-.5-19.7h2.1c0,0-.3-9.9-.3-9.9h2.1c0,0,.3,9.8.3,9.8h-2.1c0,0,.5,19.7.5,19.7h-2.1ZM345.2,108.6l-.3-9.8h2.1c0,0,.3,9.8.3,9.8h-2.1c0,0,.3,9.9.3,9.9h-2.1c0,0-.3-9.8-.3-9.8h2.1ZM330.2,109l-.3-9.8h2.1c0,0-1-39.4-1-39.4h2.1c0,0,1.3,49.1,1.3,49.1h-4.3ZM337.1,128.5l-.3-9.8h2.1c0,0-.3-9.9-.3-9.9h2.1c0,0,.3,9.8.3,9.8h-2.1c0,0,.3,9.9.3,9.9h-2.1ZM334.7,118.7l.3,9.8.3,9.8h-2.1c0,0-.3-9.8-.3-9.8l-.3-9.8h2.1ZM350.3,138l-.3-9.8h2.1c0,0,.3,9.8.3,9.8h-2.1ZM367.6,58.8h2.1c0,0,.5,19.6.5,19.6h-4.3c0,.1-.3-9.7-.3-9.7h2.1c0,0-.3-9.9-.3-9.9ZM361.6,78.6h2.1c0,0,.3,9.8.3,9.8h-2.1c0,0-.3-9.8-.3-9.8ZM368.6,98.1h2.1c0,0,.5,19.6.5,19.6h-2.1c0,0-.5-19.6-.5-19.6ZM354.9,69h2.1c0,0,.3,9.8.3,9.8h-2.1c0,0-.3-9.8-.3-9.8ZM356,108.3l-.3-9.8h2.1c0,0,.3,9.8.3,9.8h-2.1ZM357.3,157.5l-.3-9.8h2.1c0,0,.3,9.8.3,9.8h-2.1ZM369.6,137.5h2.1c0,0,.3,9.8.3,9.8h-2.1c0,0-.3-9.8-.3-9.8ZM363.2,137.6l-.5-19.7h2.1c0,0,.5,19.6.5,19.6h-2.1ZM364,167.1h2.1c0,0,.5,19.6.5,19.6h-2.1c0,0-.5-19.6-.5-19.6ZM350.8,157.6h2.1c0,0,.5,19.6.5,19.6h-2.1c0,0-.5-19.6-.5-19.6ZM306.3,99.8l-.5-19.7h2.1c0,0,.5,19.6.5,19.6h-2.1ZM298.8,60.6h2.1c0,0,.3,9.8.3,9.8h-2.1c0,0-.3-9.8-.3-9.8ZM291.2,100.2l.3,9.8h-2.1c0,0-.3-9.8-.3-9.8h2.1ZM324.6,59.9l-.3-9.8h2.1c0,0,.3,9.8.3,9.8h-2.1c0,0,.5,19.7.5,19.7h-2.1c0,0-.5-19.6-.5-19.6h2.1ZM318.9,89.6l.3,9.8h-2.1c0,0-.3-9.8-.3-9.8h2.1c0,0-.3-9.9-.3-9.9h2.1c0,0,.3,9.8.3,9.8h-2.1ZM323.7,109.1h2.1c0,0,.3,9.8.3,9.8h-2.1c0,0-.3-9.8-.3-9.8ZM313.6,50.4l.5,19.7h-4.3c0,.1-.3-9.7-.3-9.7h2.1c0,0-.3-9.9-.3-9.9h2.1ZM315.9,138.9h2.1c0,0,.3,9.8.3,9.8h-2.1c0,0-.3-9.8-.3-9.8ZM310.2,168.5h2.1c0,0-.3-9.9-.3-9.9h2.1c0,0,.3,9.8.3,9.8h-2.1c0,0,.3,9.9.3,9.9h-2.1c0,0-.3-9.8-.3-9.8ZM325,158.3l-.3-9.8h2.1c0,0,.3,9.8.3,9.8h-2.1ZM323.1,168.2h2.1c0,0,.3,9.8.3,9.8h-2.1c0,0-.3-9.8-.3-9.8ZM306.4,188.3l-.3-9.8h2.1c0,0,.3,9.8.3,9.8h-2.1ZM433.1,96.4h2.1c0,0,.5,19.6.5,19.6h-2.1c0,0-.5-19.6-.5-19.6ZM415.1,67.4h2.1c0,0,.8,29.4.8,29.4h-4.3c0,.1-.3-9.7-.3-9.7h2.1c0,0-.5-19.7-.5-19.7ZM423.4,136l-.3-9.8h2.1c0,0,.3,9.8.3,9.8h-2.1ZM416.9,136.2l-.5-19.7h2.1c0,0,.5,19.6.5,19.6h-2.1ZM427.7,135.9l-.5-19.7h2.1c0,0,.5,19.6.5,19.6h-2.1ZM430.6,165.4h2.1c0,0,.3,9.8.3,9.8h-2.1c0,0-.3-9.8-.3-9.8ZM436.5,145.5l.3,9.8h-2.1c0,0-.3-9.8-.3-9.8h2.1ZM447.9,86.2l.3,9.8.3,9.8h-2.1c0,0-.3-9.8-.3-9.8l-.3-9.8h2.1ZM450,86.2h2.1c0,0,.3,9.8.3,9.8h-2.1c0,0-.3-9.8-.3-9.8ZM438.5,57h2.1c0,0,.8,29.4.8,29.4h-2.1c0,0-.8-29.4-.8-29.4ZM439.8,106.1h2.1c0,0,.8,29.4.8,29.4h-2.1c0,0-.8-29.4-.8-29.4ZM445.4,155.1l-.3-9.8h4.3c0-.1.3,9.7.3,9.7h-4.3ZM455.4,125.4l.3,9.8h-4.3c0,.1-.3-9.7-.3-9.7h4.3ZM456.4,164.7h2.1c0,0,.3,9.8.3,9.8h-2.1c0,0-.3-9.8-.3-9.8ZM385.8,97.7h2.1c0,0,.3,9.8.3,9.8h-2.1c0,0-.3-9.8-.3-9.8ZM392.3,97.5l-1-39.3h2.1c0,0,1,39.3,1,39.3h-2.1ZM378.6,68.4l-.3-9.8h2.1c0,0,.3,9.8.3,9.8h-2.1ZM379.6,107.7l-.3-9.8h2.1c0,0,.3,9.8.3,9.8l.3,9.8h-2.1c0,0-.3-9.8-.3-9.8ZM383.1,156.8l-.3-9.8h2.1c0,0,.3,9.8.3,9.8h-2.1ZM376.9,166.8h2.1c0,0,.3,9.8.3,9.8h-2.1c0,0-.3-9.8-.3-9.8ZM374.2,147.2l-.3-9.8h2.1c0,0,.3,9.8.3,9.8h-2.1ZM390.6,117.2h2.1c0,0-.3-9.9-.3-9.9h2.1c0,0,.3,9.8.3,9.8h-2.1c0,0,.3,9.9.3,9.9h-2.1c0,0-.3-9.8-.3-9.8ZM386.6,127.2h2.1c0,0,.3,9.8.3,9.8h-2.1c0,0-.3-9.8-.3-9.8ZM409.7,106.9l-.5-19.7h2.1c0,0,.5,19.6.5,19.6l.3,9.8h-2.1c0,0-.3-9.8-.3-9.8ZM399,107.2l-.3-9.8h2.1c0,0,.3,9.8.3,9.8h-2.1ZM398.4,87.5l-.3-9.8h2.1c0,0,.3,9.8.3,9.8h-2.1ZM404,136.6l-.3-9.8h2.1c0,0,.3,9.8.3,9.8h-2.1ZM407.5,185.6l-.3-9.8h2.1c0,0,.3,9.8.3,9.8h-2.1ZM385.7,176.4l.3,9.8h-2.1c0,0-.3-9.8-.3-9.8h2.1ZM424.9,195l-.3-9.8h2.1c0,0,.3,9.8.3,9.8h-2.1ZM154.2,44.7h2.1c0,0,.8,29.4.8,29.4h-2.1c0,0-.3-9.8-.3-9.8h-2.1c0,0-.3-9.8-.3-9.8h2.1c0,0-.3-9.9-.3-9.9ZM165.5,64.1l-.3-9.8h2.1c0,0,.3,9.8.3,9.8h-2.1ZM163.1,54.3l.5,19.7h-2.1c0,0,.3,9.9.3,9.9h-2.1c0,0-.5-19.6-.5-19.6h2.1c0,0-.3-9.9-.3-9.9h2.1ZM157.7,93.8h-2.1c0,0,.3,9.9.3,9.9h-2.1c0,0-.3-9.8-.3-9.8h2.1c0,0-.3-9.9-.3-9.9h2.1c0,0,.3,9.8.3,9.8ZM162.5,113.4l-.3-9.8h2.1c0,0,.3,9.8.3,9.8h-2.1ZM170.2,162.4l-.3-9.8h2.1c0,0,.3,9.8.3,9.8h-2.1ZM187.5,83.2l-.3-9.8h2.1c0,0,.3,9.8.3,9.8h-2.1ZM127.1,74.9h2.1c0,0,.3,9.8.3,9.8h-2.1c0,0-.3-9.8-.3-9.8ZM123.3,94.7h2.1c0,0,.3,9.8.3,9.8h-2.1c0,0-.3-9.8-.3-9.8ZM123.8,114.4h2.1c0,0,.3,9.8.3,9.8h-2.1c0,0-.3-9.8-.3-9.8ZM127.8,104.4h4.3c0-.1-.3-9.9-.3-9.9h2.1c0,0,.3,9.8.3,9.8h-2.1c0,0,.3,9.9.3,9.9h-4.3c0,.1-.3-9.7-.3-9.7ZM109.9,75.4h2.1c0,0,.3,9.8.3,9.8h-2.1c0,0-.3-9.8-.3-9.8ZM117.1,104.7h2.1c0,0,.3,9.8.3,9.8h-2.1c0,0-.3-9.8-.3-9.8ZM112.2,163.9h2.1c0,0,.3,9.8.3,9.8h-2.1c0,0-.3-9.8-.3-9.8ZM129.4,163.4l-.3-9.8h2.1c0,0,.3,9.8.3,9.8h-2.1ZM148.3,64.6l.5,19.7h-2.1c0,0-.5-19.6-.5-19.6h2.1ZM137.2,133.7l.3,9.8h-2.1c0,0-.3-9.8-.3-9.8h2.1ZM136.1,173.1h2.1c0,0,.3,9.8.3,9.8h-2.1c0,0-.3-9.8-.3-9.8ZM149,172.7h2.1c0,0,.3,9.8.3,9.8h-2.1c0,0-.3-9.8-.3-9.8ZM140.9,192.6l.3,9.8h-2.1c0,0-.3-9.8-.3-9.8h2.1ZM121.3,183.3l.5,19.7h-2.1c0,0-.5-19.6-.5-19.6h2.1ZM179.3,181.8l.3,9.8h-2.1c0,0-.3-9.8-.3-9.8h2.1ZM173.1,191.8l.3,9.8h-2.1c0,0-.3-9.8-.3-9.8h2.1ZM255.8,61.7l.3,9.8h-2.1c0,0-.3-9.8-.3-9.8l-.3-9.8h2.1c0,0,.3,9.8.3,9.8ZM251.7,71.7l.3,9.8h-2.1c0,0-.3-9.8-.3-9.8h2.1ZM240.7,62.1l.5,19.7h-2.1c0,0-.5-19.6-.5-19.6h2.1ZM242.6,52.2h2.1c0,0,.3,9.8.3,9.8h-2.1c0,0-.3-9.8-.3-9.8ZM260,140.3l-.3-9.8h2.1c0,0,.3,9.8.3,9.8h-2.1ZM222.6,190.5l.3,9.8h-2.1c0,0-.3-9.8-.3-9.8h2.1ZM272,189.2l-.3-9.8h2.1c0,0,.3,9.8.3,9.8h-2.1ZM73.3,76.4l-.3-9.8h2.1c0,0,.3,9.8.3,9.8l.3,9.8h-2.1c0,0-.3-9.8-.3-9.8ZM66.6,66.7h2.1c0,0,.3,9.8.3,9.8h-2.1c0,0-.3-9.8-.3-9.8ZM69.5,96.1h2.1c0,0,.3,9.8.3,9.8h-2.1c0,0-.3-9.8-.3-9.8ZM70,115.8h2.1c0,0,.3,9.8.3,9.8h-2.1c0,0,.3,9.9.3,9.9h-2.1c0,0-.3-9.8-.3-9.8h2.1c0,0-.3-9.9-.3-9.9ZM74.3,115.7l-.3-9.8h2.1c0,0,.3,9.8.3,9.8h-2.1ZM75.1,145.2h2.1c0,0,.3,9.8.3,9.8h-2.1c0,0-.3-9.8-.3-9.8ZM75.9,174.7h2.1c0,0,.5,19.6.5,19.6h-2.1c0,0-.5-19.6-.5-19.6ZM103.2,65.7l-.3-9.8h2.1c0,0,.3,9.8.3,9.8h-2.1ZM95,164.3l.3,9.8h-2.1c0,0-.3-9.8-.3-9.8h2.1ZM56.9,106.3h2.1c0,0,.5,19.6.5,19.6h-2.1c0,0-.5-19.6-.5-19.6ZM61.4,116h2.1c0,0,.3,9.8.3,9.8h-2.1c0,0-.3-9.8-.3-9.8ZM62.5,155.3l-.3-9.8h2.1c0,0,.3,9.8.3,9.8h-2.1ZM93.6,193.9l-.3-9.8h2.1c0,0,.3,9.8.3,9.8h-2.1ZM868.5,45.7h2.1c0,0,1.3,49.1,1.3,49.1h-4.3c0,.1-.3-9.7-.3-9.7h2.1c0,0-1-39.4-1-39.4ZM862,45.9l.3,9.8.3,9.8h-2.1c0,0-.3-9.8-.3-9.8l-.3-9.8h2.1c0,0-.3-9.9-.3-9.9h2.1c0,0,.3,9.8.3,9.8h-2.1ZM851,36.3l.5,19.7h-4.3c0,.1-.3-9.7-.3-9.7h2.1c0,0-.3-9.9-.3-9.9h2.1ZM854.5,85.4l-.3-9.8h2.1c0,0-.3-9.9-.3-9.9h2.1c0,0,.3,9.8.3,9.8h-2.1c0,0,.3,9.9.3,9.9h-2.1ZM862.5,144.2l-.3-9.8h2.1c0,0,.3,9.8.3,9.8h-2.1ZM860.6,154.1h2.1c0,0,.3,9.8.3,9.8h-2.1c0,0-.3-9.8-.3-9.8ZM853.3,124.8h2.2c0,0,.3,9.8.3,9.8h-2.2c0,0-.3-9.8-.3-9.8ZM872.2,104.6l.5,19.7h-2.1c0,0-.5-19.6-.5-19.6h2.1ZM861.4,104.9l-.3-9.8h2.1c0,0,.3,9.8.3,9.8h-2.1ZM884.6,84.6l.3,9.8h-2.1c0,0,.3,9.9.3,9.9h-2.1c0,0-.3-9.8-.3-9.8h2.1c0,0-.3-9.9-.3-9.9h2.1ZM875.7,75l-.3-9.8h2.1c0,0,.3,9.8.3,9.8h-2.1c0,0,.3,9.9.3,9.9h-2.1c0,0-.3-9.8-.3-9.8h2.1ZM876.2,94.7h2.1c0,0,.3,9.8.3,9.8h-2.1c0,0,.3,9.9.3,9.9h-2.1c0,0-.3-9.8-.3-9.8h2.1c0,0-.3-9.9-.3-9.9ZM894.7,143.4l-.3-9.8h2.1c0,0-.3-9.9-.3-9.9l-.3-9.8h2.1c0,0,.3,9.8.3,9.8l.3,9.8h-2.1c0,0,.3,9.9.3,9.9h-2.1ZM888.3,143.5h2.1c0,0,.5,19.6.5,19.6h-2.1c0,0-.5-19.6-.5-19.6ZM887.7,123.9l-.3-9.8h2.1c0,0,.3,9.8.3,9.8h-2.1ZM826.8,96l-.3-9.8h2.1c0,0,.3,9.8.3,9.8h-2.1ZM820.3,96.1l-.3-9.8h2.1c0,0,.3,9.8.3,9.8h-2.1ZM843.7,85.7l-.5-19.7h2.1c0,0,.5,19.6.5,19.6h-2.1ZM836.2,46.5h2.1c0,0,.3,9.8.3,9.8h-2.1c0,0-.3-9.8-.3-9.8ZM832.6,154.8h2.1c0,0,.3,9.8.3,9.8h-2.1c0,0-.3-9.8-.3-9.8ZM847.7,154.4h2.1c0,0,.3,9.8.3,9.8h-2.1c0,0-.3-9.8-.3-9.8ZM809.5,175.1h2.1c0,0,.3,9.8.3,9.8h-2.1c0,0-.3-9.8-.3-9.8ZM896,192.5l-.5-19.7h2.1c0,0-.3-9.9-.3-9.9h2.1c0,0,.3,9.8.3,9.8h-2.1c0,0,.5,19.7.5,19.7h-2.1ZM876.4,183.2h2.1c0,0,.3,9.8.3,9.8h-2.1c0,0-.3-9.8-.3-9.8ZM901.4,153h2.1c0,0,.5,19.6.5,19.6h-2.1c0,0-.5-19.6-.5-19.6ZM691.1,89.7l-.3-9.8h2.1c0,0-.3-9.9-.3-9.9h2.1c0,0,.3,9.8.3,9.8h-2.1c0,0,.3,9.9.3,9.9h-2.1ZM697,69.9l-.5-19.7h2.1c0,0-.3-9.9-.3-9.9h2.1c0,0,.5,19.6.5,19.6h-2.1c0,0,.3,9.9.3,9.9h-2.1ZM685.8,50.5l.5,19.7h-2.1c0,0-.5-19.6-.5-19.6h2.1ZM686.4,158.7h2.1c0,0,.3,9.8.3,9.8h-2.1c0,0-.3-9.8-.3-9.8ZM703,50l-.3-9.8h2.1c0,0,.3,9.8.3,9.8h-2.1ZM699.9,99.3l-.3-9.8h2.1c0,0,.3,9.8.3,9.8h-2.1ZM707.7,148.3l-.3-9.8h2.1c0,0,.3,9.8.3,9.8h-2.1ZM700.7,128.8l-.3-9.8h2.1c0,0,.3,9.8.3,9.8h-2.1ZM647.8,81l-.3-9.8-.3-9.8h2.1c0,0,.3,9.8.3,9.8l.3,9.8h-2.1ZM640.3,41.8h2.1c0,0,.3,9.8.3,9.8h-2.1c0,0-.3-9.8-.3-9.8ZM649.9,159.6l-.3-9.8h2.1c0,0,.3,9.8.3,9.8h-2.1ZM655,110.3l-.5-19.7h2.1c0,0,.5,19.6.5,19.6h-2.1ZM669.6,90.3l-.3-9.8h2.1c0,0,.3,9.8.3,9.8h-2.1c0,0,.3,9.9.3,9.9h-4.3c0,.1-.3-9.7-.3-9.7h4.3ZM666.7,60.8l.3,9.8h-2.1c0,0-.3-9.8-.3-9.8h2.1ZM661.2,100.3h2.1c0,0,.3,9.8.3,9.8h-2.1c0,0-.3-9.8-.3-9.8ZM661,90.5l-.3-9.8h2.1c0,0,.3,9.8.3,9.8h-2.1ZM666.8,149.3l-.3-9.8h2.1c0,0,.3,9.8.3,9.8h-2.1ZM660.6,159.3h2.1c0,0,.3,9.8.3,9.8h-2.1c0,0-.3-9.8-.3-9.8ZM673.5,159h2.1c0,0,.3,9.8.3,9.8h-2.1c0,0-.3-9.8-.3-9.8ZM672.8,129.5l-.3-9.8h2.1c0,0,.3,9.8.3,9.8h-2.1ZM676.5,188.4l-.3-9.8h2.1c0,0,.3,9.8.3,9.8h-2.1ZM669.7,178.8l-.3-9.8h2.1c0,0,.8,29.4.8,29.4h-4.3c0,.1-.5-19.5-.5-19.5h2.1ZM658.7,169.2l.5,19.7h-2.1c0,0-.5-19.6-.5-19.6h2.1ZM637.5,179.6h2.1c0,0,.5,19.6.5,19.6h-2.1c0,0-.5-19.6-.5-19.6ZM717.3,187.4h2.1c0,0,.3,9.8.3,9.8h-2.1c0,0-.3-9.8-.3-9.8ZM716.8,167.7l.3,9.8h-2.1c0,0-.3-9.8-.3-9.8h2.1ZM721.9,197.1l-.5-19.7h2.1c0,0,.5,19.6.5,19.6h-2.1ZM708.7,187.6l-.3-9.8h2.1c0,0,.3,9.8.3,9.8h-2.1ZM780.6,57.8l-.3-9.8h2.1c0,0,.3,9.8.3,9.8h-2.1ZM776.3,57.9h2.1c0,0,.5,19.6.5,19.6h-2.1c0,0-.5-19.6-.5-19.6ZM769.9,58.1l-.5-19.7h2.1c0,0,.5,19.6.5,19.6h-2.1ZM802.4,67.1l-.3-9.8h2.1c0,0,.3,9.8.3,9.8h-2.1ZM791.4,57.6l-.3-9.8h2.1c0,0,.3,9.8.3,9.8h-2.1ZM787.6,77.3l-.3-9.8h2.1c0,0,.3,9.8.3,9.8h-2.1ZM734.9,39.4h2.1c0,0,.3,9.8.3,9.8h-2.1c0,0-.3-9.8-.3-9.8ZM725,69.1h2.1c0,0,.3,9.8.3,9.8h-2.1c0,0-.3-9.8-.3-9.8ZM758.1,186.3l-.3-9.8h2.1c0,0,.3,9.8.3,9.8h-2.1ZM798.7,175.4l-.3-9.8h2.1c0,0,.3,9.8.3,9.8h-2.1ZM788.5,195.3l-.3-9.8h2.1c0,0,.3,9.8.3,9.8h-2.1ZM777.2,176h2.1c0,0,.5,19.6.5,19.6h-2.1c0,0-.5-19.6-.5-19.6Z"/>
  <path class="cls-1" d="M514.3,74.6l.5,19.7h4.3c0-.1-.8-29.6-.8-29.6h-2.1c0,0,.3,9.9.3,9.9h-2.1Z"/>
  <path class="cls-1" d="M515.1,104.1l-.3-9.8h-2.1c0,0,.3,9.9.3,9.9h2.1Z"/>
  <path class="cls-1" d="M523.1,84.3l.3,9.8h2.1c0,0-.3-9.9-.3-9.9h-2.1Z"/>
  <path class="cls-1" d="M522.9,74.4l.3,9.8h2.1c0,0-.3-9.9-.3-9.9h-2.1Z"/>
  <path class="cls-1" d="M521.2,94.1l.3,9.8h2.1c0,0-.3-9.9-.3-9.9h-2.1Z"/>
  <path class="cls-1" d="M508.3,94.5l.3,9.8h2.1c0,0-.3-9.9-.3-9.9h-2.1Z"/>
  <path class="cls-1" d="M508.6,104.3h-2.1c0,0,.5,19.7.5,19.7h2.1c0,0,2.1-.1,2.1-.1l-.3-9.8h-2.1c0,0-.3-9.8-.3-9.8Z"/>
  <path class="cls-1" d="M511.5,133.7l-.3-9.8h-2.1c0,0,.3,9.9.3,9.9h2.1Z"/>
  <path class="cls-1" d="M511.5,133.7h-2.1c0,0,.5,19.7.5,19.7h2.1c0,0-.3-9.9-.3-9.9l-.3-9.8Z"/>
  <path class="cls-1" d="M507.7,153.5l.3,9.8h2.1c0,0-.3-9.9-.3-9.9h-2.1Z"/>
  <path class="cls-1" d="M511.8,143.6l.3,9.8h2.1c0,0-.3-9.9-.3-9.9h-2.1Z"/>
  <path class="cls-1" d="M513.7,133.7l.3,9.8h2.1c0,0-.3-9.9-.3-9.9h-2.1Z"/>
  <path class="cls-1" d="M519.9,123.7l-.3-9.8h-4.3c0,.1.5,19.8.5,19.8h2.1c0,0-.3-9.9-.3-9.9h2.1Z"/>
  <path class="cls-1" d="M505.1,133.9l-.3-9.8h-2.1c0,0,.3,9.9.3,9.9h2.1Z"/>
  <path class="cls-1" d="M504.8,124.1l-.3-9.8h-2.1c0,0,.3,9.9.3,9.9h2.1Z"/>
  <path class="cls-1" d="M502.9,134h-2.1c0,0,.3,9.9.3,9.9h2.1c0,0-.3-9.9-.3-9.9Z"/>
  <path class="cls-1" d="M524.2,123.6l.3,9.8h2.1c0,0-.3-9.9-.3-9.9h-2.1Z"/>
  <path class="cls-1" d="M522.5,143.3l.3,9.8h2.1c0,0-.3-9.9-.3-9.9h-2.1Z"/>
  <path class="cls-1" d="M542,64.1h-2.1c0,0,.3,9.9.3,9.9h-2.1c0,0,.5,19.7.5,19.7h2.1c0,0-.3-9.9-.3-9.9h2.1c0,0-.5-19.7-.5-19.7Z"/>
  <path class="cls-1" d="M535.5,64.3l-.5-19.7h-2.1c0,0,.5,19.7.5,19.7h2.1Z"/>
  <path class="cls-1" d="M543,103.4h-2.1c0,0,.5,19.7.5,19.7h2.1c0,0-.5-19.7-.5-19.7Z"/>
  <path class="cls-1" d="M541.6,133l-.3-9.8h-2.1c0,0,.3,9.9.3,9.9h2.1Z"/>
  <path class="cls-1" d="M543.9,54.2l.5,19.7h2.1c0,0-.5-19.7-.5-19.7h-2.1Z"/>
  <path class="cls-1" d="M527.2,74.3l.3,9.8h2.1c0,0-.3-9.9-.3-9.9h-2.1Z"/>
  <path class="cls-1" d="M533.9,84l.3,9.8h-2.1c0,0,.3,9.9.3,9.9h2.1c0,0,.3,9.8.3,9.8h2.1c0,0-.8-29.5-.8-29.5h-2.1Z"/>
  <path class="cls-1" d="M532.3,103.7h-2.1c0,0,.3,9.9.3,9.9h2.1c0,0-.3-9.9-.3-9.9Z"/>
  <path class="cls-1" d="M530.9,133.2l-.5-19.7h-2.1c0,0,.5,19.7.5,19.7h2.1Z"/>
  <path class="cls-1" d="M534.7,113.5l.3,9.8h2.1c0,0-.3-9.9-.3-9.9h-2.1Z"/>
  <path class="cls-1" d="M529.2,153l.3,9.8h-4.3c0,.1.8,29.6.8,29.6h2.1c0,0-.5-19.7-.5-19.7h2.1c0,0,.3,9.8.3,9.8h2.1c0,0-.8-29.5-.8-29.5h-2.1Z"/>
  <path class="cls-1" d="M545.9,132.8l.5,19.7h2.1c0,0-.5-19.7-.5-19.7h-2.1Z"/>
  <path class="cls-1" d="M544.9,93.5l.5,19.7h2.1c0,0-.5-19.7-.5-19.7h-2.1Z"/>
  <path class="cls-1" d="M477.2,55.9h-2.1c0,0,.3,9.9.3,9.9h2.1c0,0-.3-9.9-.3-9.9Z"/>
  <path class="cls-1" d="M471.3,75.8h2.1c0,0-.5-19.7-.5-19.7h-4.3c0,.1.8,29.6.8,29.6h2.1c0,0-.3-9.9-.3-9.9Z"/>
  <path class="cls-1" d="M463.2,95.7l.3,9.8h2.1c0,0-.3-9.9-.3-9.9h-2.1Z"/>
  <path class="cls-1" d="M460.2,144.9l.3,9.8h2.1c0,0-.3-9.9-.3-9.9h-2.1Z"/>
  <path class="cls-1" d="M459.7,125.3l-.3-9.8h-2.1c0,0,.3,9.9.3,9.9h2.1Z"/>
  <path class="cls-1" d="M477.1,134.6l.3,9.8h2.1c0,0-.3-9.9-.3-9.9h-2.1Z"/>
  <path class="cls-1" d="M495.2,85l.5,19.7h2.1c0,0-.5-19.7-.5-19.7h-2.1Z"/>
  <path class="cls-1" d="M487.7,45.8l.3,9.8h2.1c0,0-.3-9.9-.3-9.9h-2.1Z"/>
  <path class="cls-1" d="M488.7,85.2l.3,9.8h2.1c0,0-.3-9.9-.3-9.9h-2.1Z"/>
  <path class="cls-1" d="M482,75.5h4.3c0-.1-.3-9.9-.3-9.9h-4.3c0,.1.3,9.9.3,9.9Z"/>
  <path class="cls-1" d="M491.9,124.4h-2.1c0,0,.5,19.7.5,19.7h2.1c0,0-.5-19.7-.5-19.7Z"/>
  <path class="cls-1" d="M485.2,114.8h-2.1c0,0,.3,9.9.3,9.9h2.1c0,0-.3-9.9-.3-9.9Z"/>
  <path class="cls-1" d="M492.9,163.7h-2.1c0,0,.3,9.9.3,9.9h2.1c0,0-.3-9.9-.3-9.9Z"/>
  <path class="cls-1" d="M493.5,183.4l-.3-9.8h-2.1c0,0,.3,9.9.3,9.9h2.1Z"/>
  <path class="cls-1" d="M496,114.5h-2.1c0,0,.3,9.9.3,9.9h2.1c0,0-.3-9.9-.3-9.9Z"/>
  <path class="cls-1" d="M497,153.8h-2.1c0,0,.3,9.9.3,9.9h2.1c0,0-.3-9.9-.3-9.9Z"/>
  <path class="cls-1" d="M496.7,144l.3,9.8h2.1c0,0-.3-9.9-.3-9.9h-2.1Z"/>
  <path class="cls-1" d="M489.4,193.3l-.3-9.8h-2.1c0,0,.3,9.9.3,9.9h2.1Z"/>
  <path class="cls-1" d="M517.4,192.6l-.5-19.7h-2.1c0,0,.5,19.7.5,19.7h2.1Z"/>
  <path class="cls-1" d="M602.4,72.3l-.5-19.7h-4.3c0,.1.8,29.6.8,29.6h2.1c0,0-.3-9.9-.3-9.9h2.1Z"/>
  <path class="cls-1" d="M595.7,62.7l-.5-19.7h-2.1c0,0,.5,19.7.5,19.7h2.1Z"/>
  <path class="cls-1" d="M594.1,82.4l.3,9.8h2.1c0,0-.3-9.9-.3-9.9h-2.1Z"/>
  <path class="cls-1" d="M596.7,102h-2.1c0,0,.3,9.9.3,9.9h2.1c0,0-.3-9.9-.3-9.9Z"/>
  <path class="cls-1" d="M599.9,141.3l.3,9.8h2.1c0,0-.3-9.9-.3-9.9h-2.1Z"/>
  <path class="cls-1" d="M596.1,161h-2.1c0,0,.3,9.9.3,9.9h2.1c0,0-.3-9.9-.3-9.9Z"/>
  <path class="cls-1" d="M607.8,111.5l.3,9.8h2.1c0,0-.3-9.9-.3-9.9h-2.1Z"/>
  <path class="cls-1" d="M608.3,131.2l-.3-9.8h-2.1c0,0,.3,9.9.3,9.9h2.1Z"/>
  <path class="cls-1" d="M604.7,160.8h-2.1c0,0,.5,19.7.5,19.7h2.1c0,0-.5-19.7-.5-19.7Z"/>
  <path class="cls-1" d="M609,160.7h-2.1c0,0,.5,19.7.5,19.7h2.1c0,0-.5-19.7-.5-19.7Z"/>
  <path class="cls-1" d="M609.6,180.4l.3,9.8h2.1c0,0-.3-9.9-.3-9.9h-2.1Z"/>
  <path class="cls-1" d="M590.6,112l-.3-9.8h-2.1c0,0,.3,9.9.3,9.9h2.1Z"/>
  <path class="cls-1" d="M612.7,52.4h-2.1c0,0,.5,19.7.5,19.7h2.1c0,0-.5-19.7-.5-19.7Z"/>
  <path class="cls-1" d="M612.8,140.9l.3,9.8h2.1c0,0-.3-9.9-.3-9.9h-2.1Z"/>
  <path class="cls-1" d="M632.7,160.1h-2.1c0,0,.3,9.9.3,9.9h2.1c0,0-.3-9.9-.3-9.9Z"/>
  <path class="cls-1" d="M558.7,44h-2.1c0,0,.3,9.9.3,9.9h2.1c0,0-.3-9.9-.3-9.9Z"/>
  <path class="cls-1" d="M561.8,83.2l.3,9.8h2.1c0,0-.3-9.9-.3-9.9h-2.1Z"/>
  <path class="cls-1" d="M563.7,73.4l.3,9.8h2.1c0,0-.3-9.9-.3-9.9h-2.1Z"/>
  <path class="cls-1" d="M565.6,63.5l.3,9.8h2.1c0,0-.3-9.9-.3-9.9h-2.1Z"/>
  <path class="cls-1" d="M557.3,73.5l.3,9.8h2.1c0,0-.3-9.9-.3-9.9h-2.1Z"/>
  <path class="cls-1" d="M550.8,73.7l.5,19.7h2.1c0,0-.5-19.7-.5-19.7h-2.1Z"/>
  <path class="cls-1" d="M556.9,142.4l.3,9.8h2.1c0,0-.3-9.9-.3-9.9h-2.1Z"/>
  <path class="cls-1" d="M555.3,162.1h-2.1c0,0,.3,9.9.3,9.9h2.1c0,0-.3-9.9-.3-9.9Z"/>
  <path class="cls-1" d="M552.1,122.8l.3,9.8h2.1c0,0-.3-9.9-.3-9.9h-2.1Z"/>
  <path class="cls-1" d="M564.8,112.7l.3,9.8h4.3c0-.1-.3-9.9-.3-9.9h-4.3Z"/>
  <path class="cls-1" d="M565,122.5l-.3-9.8h-2.1c0,0,.3,9.9.3,9.9h2.1Z"/>
  <path class="cls-1" d="M565,122.5h-2.1c0,0,.5,19.7.5,19.7h2.1c0,0-.5-19.7-.5-19.7Z"/>
  <path class="cls-1" d="M570.9,102.7h-2.1c0,0,.3,9.9.3,9.9h2.1c0,0-.3-9.9-.3-9.9Z"/>
  <path class="cls-1" d="M555.6,93.2l.5,19.7h2.1c0,0-.5-19.7-.5-19.7h-2.1Z"/>
  <path class="cls-1" d="M583.6,92.5l.3,9.8h2.1c0,0-.3-9.9-.3-9.9h-2.1Z"/>
  <path class="cls-1" d="M583.3,82.7h-2.1c0,0,.3,9.9.3,9.9h2.1c0,0-.3-9.9-.3-9.9Z"/>
  <path class="cls-1" d="M572.6,83l.3,9.8h2.1c0,0-.3-9.9-.3-9.9h-2.1Z"/>
  <path class="cls-1" d="M571.7,132.2h-2.1c0,0,.3,9.9.3,9.9h2.1c0,0-.3-9.9-.3-9.9Z"/>
  <path class="cls-1" d="M572,142h-2.1c0,0,.3,9.9.3,9.9h2.1c0,0-.3-9.9-.3-9.9Z"/>
  <path class="cls-1" d="M576.3,141.9l-.5-19.7h-2.1c0,0,.5,19.7.5,19.7h2.1Z"/>
  <path class="cls-1" d="M588.9,131.7h-2.1c0,0,.5,19.7.5,19.7h2.1c0,0-.5-19.7-.5-19.7Z"/>
  <path class="cls-1" d="M584.1,112.2h-2.1c0,0,.3,9.9.3,9.9h2.1c0,0-.3-9.9-.3-9.9Z"/>
  <path class="cls-1" d="M584.4,122h-2.1c0,0,.3,9.9.3,9.9h2.1c0,0-.3-9.9-.3-9.9Z"/>
  <path class="cls-1" d="M583.2,161.4h2.1c0,0-.3-9.9-.3-9.9h-2.1c0,0,.3,9.9.3,9.9Z"/>
  <path class="cls-1" d="M585.4,161.3h-2.1c0,0,.3,9.9.3,9.9h2.1c0,0-.3-9.9-.3-9.9Z"/>
  <path class="cls-1" d="M588.1,180.9l.3,9.8h4.3c0-.1-.3-9.9-.3-9.9h-4.3Z"/>
  <path class="cls-1" d="M631.1,179.8l.3,9.8h2.1c0,0-.3-9.9-.3-9.9h-2.1Z"/>
  <path class="cls-1" d="M613.9,180.2l.3,9.8h2.1c0,0-.3-9.9-.3-9.9h-2.1Z"/>
  <path class="cls-1" d="M344.2,69.3h2.1c0,0-.3-9.9-.3-9.9h-2.1c0,0,.3,9.9.3,9.9Z"/>
  <path class="cls-1" d="M346.3,69.2h-2.1c0,0-2.1.1-2.1.1l.3,9.8h4.3c0-.1-.3-9.9-.3-9.9Z"/>
  <path class="cls-1" d="M340.4,89l-.3-9.8h-2.1c0,0,.3,9.9.3,9.9h2.1Z"/>
  <path class="cls-1" d="M336.1,89.1l.3,9.8h2.1c0,0-.3-9.9-.3-9.9h-2.1Z"/>
  <path class="cls-1" d="M348.7,79l.5,19.7h2.1c0,0-.5-19.7-.5-19.7h-2.1Z"/>
  <path class="cls-1" d="M352.8,69h-2.1c0,0,.3,9.9.3,9.9h2.1c0,0-.3-9.9-.3-9.9Z"/>
  <path class="cls-1" d="M345,98.8l.3,9.8h2.1c0,0-.3-9.9-.3-9.9h-2.1Z"/>
  <path class="cls-1" d="M345.2,108.6h-2.1c0,0,.3,9.9.3,9.9h2.1c0,0-.3-9.9-.3-9.9Z"/>
  <path class="cls-1" d="M329.9,99.1l.3,9.8h4.3c0-.1-1.3-49.3-1.3-49.3h-2.1c0,0,1,39.4,1,39.4h-2.1Z"/>
  <path class="cls-1" d="M336.9,118.6l.3,9.8h2.1c0,0-.3-9.9-.3-9.9h-2.1Z"/>
  <path class="cls-1" d="M338.8,108.8l.3,9.8h2.1c0,0-.3-9.9-.3-9.9h-2.1Z"/>
  <path class="cls-1" d="M335,128.5l-.3-9.8h-2.1c0,0,.3,9.9.3,9.9h2.1Z"/>
  <path class="cls-1" d="M335.2,138.4l-.3-9.8h-2.1c0,0,.3,9.9.3,9.9h2.1Z"/>
  <path class="cls-1" d="M350,128.1l.3,9.8h2.1c0,0-.3-9.9-.3-9.9h-2.1Z"/>
  <path class="cls-1" d="M369.7,58.8h-2.1c0,0,.3,9.9.3,9.9h-2.1c0,0,.3,9.9.3,9.9h4.3c0-.1-.5-19.8-.5-19.8Z"/>
  <path class="cls-1" d="M363.8,78.6h-2.1c0,0,.3,9.9.3,9.9h2.1c0,0-.3-9.9-.3-9.9Z"/>
  <path class="cls-1" d="M370.8,98.1h-2.1c0,0,.5,19.7.5,19.7h2.1c0,0-.5-19.7-.5-19.7Z"/>
  <path class="cls-1" d="M357.1,68.9h-2.1c0,0,.3,9.9.3,9.9h2.1c0,0-.3-9.9-.3-9.9Z"/>
  <path class="cls-1" d="M355.7,98.5l.3,9.8h2.1c0,0-.3-9.9-.3-9.9h-2.1Z"/>
  <path class="cls-1" d="M357,147.6l.3,9.8h2.1c0,0-.3-9.9-.3-9.9h-2.1Z"/>
  <path class="cls-1" d="M371.8,137.4h-2.1c0,0,.3,9.9.3,9.9h2.1c0,0-.3-9.9-.3-9.9Z"/>
  <path class="cls-1" d="M362.7,118l.5,19.7h2.1c0,0-.5-19.7-.5-19.7h-2.1Z"/>
  <path class="cls-1" d="M366.1,167.1h-2.1c0,0,.5,19.7.5,19.7h2.1c0,0-.5-19.7-.5-19.7Z"/>
  <path class="cls-1" d="M353,157.6h-2.1c0,0,.5,19.7.5,19.7h2.1c0,0-.5-19.7-.5-19.7Z"/>
  <path class="cls-1" d="M305.7,80.1l.5,19.7h2.1c0,0-.5-19.7-.5-19.7h-2.1Z"/>
  <path class="cls-1" d="M300.9,60.6h-2.1c0,0,.3,9.9.3,9.9h2.1c0,0-.3-9.9-.3-9.9Z"/>
  <path class="cls-1" d="M291.5,110l-.3-9.8h-2.1c0,0,.3,9.9.3,9.9h2.1Z"/>
  <path class="cls-1" d="M324.3,50.1l.3,9.8h2.1c0,0-.3-9.9-.3-9.9h-2.1Z"/>
  <path class="cls-1" d="M324.6,59.9h-2.1c0,0,.5,19.7.5,19.7h2.1c0,0-.5-19.7-.5-19.7Z"/>
  <path class="cls-1" d="M319.2,99.4l-.3-9.8h-2.1c0,0,.3,9.9.3,9.9h2.1Z"/>
  <path class="cls-1" d="M320.8,79.7h-2.1c0,0,.3,9.9.3,9.9h2.1c0,0-.3-9.9-.3-9.9Z"/>
  <path class="cls-1" d="M325.9,109.1h-2.1c0,0,.3,9.9.3,9.9h2.1c0,0-.3-9.9-.3-9.9Z"/>
  <path class="cls-1" d="M314.1,70.1l-.5-19.7h-2.1c0,0,.3,9.9.3,9.9h-2.1c0,0,.3,9.9.3,9.9h4.3Z"/>
  <path class="cls-1" d="M318,138.8h-2.1c0,0,.3,9.9.3,9.9h2.1c0,0-.3-9.9-.3-9.9Z"/>
  <path class="cls-1" d="M312.4,168.5h-2.1c0,0,.3,9.9.3,9.9h2.1c0,0-.3-9.9-.3-9.9Z"/>
  <path class="cls-1" d="M312.1,158.6l.3,9.8h2.1c0,0-.3-9.9-.3-9.9h-2.1Z"/>
  <path class="cls-1" d="M324.7,148.5l.3,9.8h2.1c0,0-.3-9.9-.3-9.9h-2.1Z"/>
  <path class="cls-1" d="M325.3,168.1h-2.1c0,0,.3,9.9.3,9.9h2.1c0,0-.3-9.9-.3-9.9Z"/>
  <path class="cls-1" d="M306.2,178.5l.3,9.8h2.1c0,0-.3-9.9-.3-9.9h-2.1Z"/>
  <path class="cls-1" d="M435.3,96.4h-2.1c0,0,.5,19.7.5,19.7h2.1c0,0-.5-19.7-.5-19.7Z"/>
  <path class="cls-1" d="M417.3,67.3h-2.1c0,0,.5,19.7.5,19.7h-2.1c0,0,.3,9.9.3,9.9h4.3c0-.1-.8-29.6-.8-29.6Z"/>
  <path class="cls-1" d="M423.1,126.2l.3,9.8h2.1c0,0-.3-9.9-.3-9.9h-2.1Z"/>
  <path class="cls-1" d="M416.4,116.6l.5,19.7h2.1c0,0-.5-19.7-.5-19.7h-2.1Z"/>
  <path class="cls-1" d="M427.2,116.3l.5,19.7h2.1c0,0-.5-19.7-.5-19.7h-2.1Z"/>
  <path class="cls-1" d="M432.8,165.3h-2.1c0,0,.3,9.9.3,9.9h2.1c0,0-.3-9.9-.3-9.9Z"/>
  <path class="cls-1" d="M436.8,155.4l-.3-9.8h-2.1c0,0,.3,9.9.3,9.9h2.1Z"/>
  <path class="cls-1" d="M448.2,96.1l-.3-9.8h-2.1c0,0,.3,9.9.3,9.9h2.1Z"/>
  <path class="cls-1" d="M448.4,105.9l-.3-9.8h-2.1c0,0,.3,9.9.3,9.9h2.1Z"/>
  <path class="cls-1" d="M452.2,86.1h-2.1c0,0,.3,9.9.3,9.9h2.1c0,0-.3-9.9-.3-9.9Z"/>
  <path class="cls-1" d="M440.7,56.9h-2.1c0,0,.8,29.5.8,29.5h2.1c0,0-.8-29.5-.8-29.5Z"/>
  <path class="cls-1" d="M442,106.1h-2.1c0,0,.8,29.5.8,29.5h2.1c0,0-.8-29.5-.8-29.5Z"/>
  <path class="cls-1" d="M445.1,145.3l.3,9.8h4.3c0-.1-.3-9.9-.3-9.9h-4.3Z"/>
  <path class="cls-1" d="M455.6,135.2l-.3-9.8h-4.3c0,.1.3,9.9.3,9.9h4.3Z"/>
  <path class="cls-1" d="M458.6,164.6h-2.1c0,0,.3,9.9.3,9.9h2.1c0,0-.3-9.9-.3-9.9Z"/>
  <path class="cls-1" d="M388,97.6h-2.1c0,0,.3,9.9.3,9.9h2.1c0,0-.3-9.9-.3-9.9Z"/>
  <path class="cls-1" d="M391.2,58.2l1,39.3h2.1c0,0-1-39.4-1-39.4h-2.1Z"/>
  <path class="cls-1" d="M378.3,58.5l.3,9.8h2.1c0,0-.3-9.9-.3-9.9h-2.1Z"/>
  <path class="cls-1" d="M379.6,107.7h2.1c0,0-.3-9.9-.3-9.9h-2.1c0,0,.3,9.9.3,9.9Z"/>
  <path class="cls-1" d="M381.8,107.6h-2.1c0,0,.3,9.9.3,9.9h2.1c0,0-.3-9.9-.3-9.9Z"/>
  <path class="cls-1" d="M382.8,146.9l.3,9.8h2.1c0,0-.3-9.9-.3-9.9h-2.1Z"/>
  <path class="cls-1" d="M379,166.7h-2.1c0,0,.3,9.9.3,9.9h2.1c0,0-.3-9.9-.3-9.9Z"/>
  <path class="cls-1" d="M373.9,137.3l.3,9.8h2.1c0,0-.3-9.9-.3-9.9h-2.1Z"/>
  <path class="cls-1" d="M392.8,117.2h-2.1c0,0,.3,9.9.3,9.9h2.1c0,0-.3-9.9-.3-9.9Z"/>
  <path class="cls-1" d="M392.5,107.3l.3,9.8h2.1c0,0-.3-9.9-.3-9.9h-2.1Z"/>
  <path class="cls-1" d="M388.7,127.1h-2.1c0,0,.3,9.9.3,9.9h2.1c0,0-.3-9.9-.3-9.9Z"/>
  <path class="cls-1" d="M409.2,87.2l.5,19.7h2.1c0,0-.5-19.7-.5-19.7h-2.1Z"/>
  <path class="cls-1" d="M411.9,106.8h-2.1c0,0,.3,9.9.3,9.9h2.1c0,0-.3-9.9-.3-9.9Z"/>
  <path class="cls-1" d="M398.7,97.3l.3,9.8h2.1c0,0-.3-9.9-.3-9.9h-2.1Z"/>
  <path class="cls-1" d="M398.2,77.7l.3,9.8h2.1c0,0-.3-9.9-.3-9.9h-2.1Z"/>
  <path class="cls-1" d="M403.8,126.7l.3,9.8h2.1c0,0-.3-9.9-.3-9.9h-2.1Z"/>
  <path class="cls-1" d="M407.2,175.8l.3,9.8h2.1c0,0-.3-9.9-.3-9.9h-2.1Z"/>
  <path class="cls-1" d="M386,186.2l-.3-9.8h-2.1c0,0,.3,9.9.3,9.9h2.1Z"/>
  <path class="cls-1" d="M424.7,185.2l.3,9.8h2.1c0,0-.3-9.9-.3-9.9h-2.1Z"/>
  <path class="cls-1" d="M156.4,44.7h-2.1c0,0,.3,9.9.3,9.9h-2.1c0,0,.3,9.9.3,9.9h2.1c0,0,.3,9.8.3,9.8h2.1c0,0-.8-29.5-.8-29.5Z"/>
  <path class="cls-1" d="M165.2,54.3l.3,9.8h2.1c0,0-.3-9.9-.3-9.9h-2.1Z"/>
  <path class="cls-1" d="M163.6,74l-.5-19.7h-2.1c0,0,.3,9.9.3,9.9h-2.1c0,0,.5,19.7.5,19.7h2.1c0,0-.3-9.9-.3-9.9h2.1Z"/>
  <path class="cls-1" d="M155.5,93.9h2.1c0,0-.3-9.9-.3-9.9h-2.1c0,0,.3,9.9.3,9.9Z"/>
  <path class="cls-1" d="M155.8,103.7l-.3-9.8h-2.1c0,0,.3,9.9.3,9.9h2.1Z"/>
  <path class="cls-1" d="M162.2,103.5l.3,9.8h2.1c0,0-.3-9.9-.3-9.9h-2.1Z"/>
  <path class="cls-1" d="M170,152.5l.3,9.8h2.1c0,0-.3-9.9-.3-9.9h-2.1Z"/>
  <path class="cls-1" d="M187.3,73.4l.3,9.8h2.1c0,0-.3-9.9-.3-9.9h-2.1Z"/>
  <path class="cls-1" d="M129.2,74.9h-2.1c0,0,.3,9.9.3,9.9h2.1c0,0-.3-9.9-.3-9.9Z"/>
  <path class="cls-1" d="M125.4,94.7h-2.1c0,0,.3,9.9.3,9.9h2.1c0,0-.3-9.9-.3-9.9Z"/>
  <path class="cls-1" d="M125.9,114.3h-2.1c0,0,.3,9.9.3,9.9h2.1c0,0-.3-9.9-.3-9.9Z"/>
  <path class="cls-1" d="M132.1,104.3h-4.3c0,.1.3,9.9.3,9.9h4.3c0-.1-.3-9.9-.3-9.9Z"/>
  <path class="cls-1" d="M131.9,94.5l.3,9.8h2.1c0,0-.3-9.9-.3-9.9h-2.1Z"/>
  <path class="cls-1" d="M112,75.3h-2.1c0,0,.3,9.9.3,9.9h2.1c0,0-.3-9.9-.3-9.9Z"/>
  <path class="cls-1" d="M119.2,104.7h-2.1c0,0,.3,9.9.3,9.9h2.1c0,0-.3-9.9-.3-9.9Z"/>
  <path class="cls-1" d="M114.3,163.8h-2.1c0,0,.3,9.9.3,9.9h2.1c0,0-.3-9.9-.3-9.9Z"/>
  <path class="cls-1" d="M129.1,153.6l.3,9.8h2.1c0,0-.3-9.9-.3-9.9h-2.1Z"/>
  <path class="cls-1" d="M148.8,84.2l-.5-19.7h-2.1c0,0,.5,19.7.5,19.7h2.1Z"/>
  <path class="cls-1" d="M137.5,143.5l-.3-9.8h-2.1c0,0,.3,9.9.3,9.9h2.1Z"/>
  <path class="cls-1" d="M138.2,173h-2.1c0,0,.3,9.9.3,9.9h2.1c0,0-.3-9.9-.3-9.9Z"/>
  <path class="cls-1" d="M151.1,172.7h-2.1c0,0,.3,9.9.3,9.9h2.1c0,0-.3-9.9-.3-9.9Z"/>
  <path class="cls-1" d="M141.2,202.5l-.3-9.8h-2.1c0,0,.3,9.9.3,9.9h2.1Z"/>
  <path class="cls-1" d="M121.8,203l-.5-19.7h-2.1c0,0,.5,19.7.5,19.7h2.1Z"/>
  <path class="cls-1" d="M179.6,191.6l-.3-9.8h-2.1c0,0,.3,9.9.3,9.9h2.1Z"/>
  <path class="cls-1" d="M173.4,201.6l-.3-9.8h-2.1c0,0,.3,9.9.3,9.9h2.1Z"/>
  <path class="cls-1" d="M256,71.6l-.3-9.8h-2.1c0,0,.3,9.9.3,9.9h2.1Z"/>
  <path class="cls-1" d="M253.6,61.8h2.1c0,0-.3-9.9-.3-9.9h-2.1c0,0,.3,9.9.3,9.9Z"/>
  <path class="cls-1" d="M252,81.5l-.3-9.8h-2.1c0,0,.3,9.9.3,9.9h2.1Z"/>
  <path class="cls-1" d="M241.3,81.8l-.5-19.7h-2.1c0,0,.5,19.7.5,19.7h2.1Z"/>
  <path class="cls-1" d="M244.8,52.2h-2.1c0,0,.3,9.9.3,9.9h2.1c0,0-.3-9.9-.3-9.9Z"/>
  <path class="cls-1" d="M259.7,130.5l.3,9.8h2.1c0,0-.3-9.9-.3-9.9h-2.1Z"/>
  <path class="cls-1" d="M222.8,200.3l-.3-9.8h-2.1c0,0,.3,9.9.3,9.9h2.1Z"/>
  <path class="cls-1" d="M271.8,179.4l.3,9.8h2.1c0,0-.3-9.9-.3-9.9h-2.1Z"/>
  <path class="cls-1" d="M73.3,76.4h2.1c0,0-.3-9.9-.3-9.9h-2.1c0,0,.3,9.9.3,9.9Z"/>
  <path class="cls-1" d="M75.5,76.3h-2.1c0,0,.3,9.9.3,9.9h2.1c0,0-.3-9.9-.3-9.9Z"/>
  <path class="cls-1" d="M68.8,66.6h-2.1c0,0,.3,9.9.3,9.9h2.1c0,0-.3-9.9-.3-9.9Z"/>
  <path class="cls-1" d="M71.7,96.1h-2.1c0,0,.3,9.9.3,9.9h2.1c0,0-.3-9.9-.3-9.9Z"/>
  <path class="cls-1" d="M72.2,115.7h-2.1c0,0,.3,9.9.3,9.9h2.1c0,0-.3-9.9-.3-9.9Z"/>
  <path class="cls-1" d="M68.1,125.7l.3,9.8h2.1c0,0-.3-9.9-.3-9.9h-2.1Z"/>
  <path class="cls-1" d="M74.1,105.8l.3,9.8h2.1c0,0-.3-9.9-.3-9.9h-2.1Z"/>
  <path class="cls-1" d="M77.3,145.1h-2.1c0,0,.3,9.9.3,9.9h2.1c0,0-.3-9.9-.3-9.9Z"/>
  <path class="cls-1" d="M78,174.6h-2.1c0,0,.5,19.7.5,19.7h2.1c0,0-.5-19.7-.5-19.7Z"/>
  <path class="cls-1" d="M102.9,55.9l.3,9.8h2.1c0,0-.3-9.9-.3-9.9h-2.1Z"/>
  <path class="cls-1" d="M95.2,174.2l-.3-9.8h-2.1c0,0,.3,9.9.3,9.9h2.1Z"/>
  <path class="cls-1" d="M59,106.2h-2.1c0,0,.5,19.7.5,19.7h2.1c0,0-.5-19.7-.5-19.7Z"/>
  <path class="cls-1" d="M63.6,116h-2.1c0,0,.3,9.9.3,9.9h2.1c0,0-.3-9.9-.3-9.9Z"/>
  <path class="cls-1" d="M62.2,145.5l.3,9.8h2.1c0,0-.3-9.9-.3-9.9h-2.1Z"/>
  <path class="cls-1" d="M93.3,184l.3,9.8h2.1c0,0-.3-9.9-.3-9.9h-2.1Z"/>
  <path class="cls-1" d="M870.6,45.6h-2.1c0,0,1,39.4,1,39.4h-2.1c0,0,.3,9.9.3,9.9h4.3c0-.1-1.3-49.3-1.3-49.3Z"/>
  <path class="cls-1" d="M862.3,55.7l-.3-9.8h-2.1c0,0,.3,9.9.3,9.9h2.1Z"/>
  <path class="cls-1" d="M863.9,36h-2.1c0,0,.3,9.9.3,9.9h2.1c0,0-.3-9.9-.3-9.9Z"/>
  <path class="cls-1" d="M862.6,65.5l-.3-9.8h-2.1c0,0,.3,9.9.3,9.9h2.1Z"/>
  <path class="cls-1" d="M851.5,56l-.5-19.7h-2.1c0,0,.3,9.9.3,9.9h-2.1c0,0,.3,9.9.3,9.9h4.3Z"/>
  <path class="cls-1" d="M854.2,75.6l.3,9.8h2.1c0,0-.3-9.9-.3-9.9h-2.1Z"/>
  <path class="cls-1" d="M856.1,65.7l.3,9.8h2.1c0,0-.3-9.9-.3-9.9h-2.1Z"/>
  <path class="cls-1" d="M862.2,134.4l.3,9.8h2.1c0,0-.3-9.9-.3-9.9h-2.1Z"/>
  <path class="cls-1" d="M862.7,154.1h-2.1c0,0,.3,9.9.3,9.9h2.1c0,0-.3-9.9-.3-9.9Z"/>
  <path class="cls-1" d="M855.5,124.7h-2.2c0,0,.3,9.9.3,9.9h2.2c0,0-.3-9.9-.3-9.9Z"/>
  <path class="cls-1" d="M872.7,124.3l-.5-19.7h-2.1c0,0,.5,19.7.5,19.7h2.1Z"/>
  <path class="cls-1" d="M861.2,95.1l.3,9.8h2.1c0,0-.3-9.9-.3-9.9h-2.1Z"/>
  <path class="cls-1" d="M884.8,94.5l-.3-9.8h-2.1c0,0,.3,9.9.3,9.9h2.1Z"/>
  <path class="cls-1" d="M882.7,94.5h-2.1c0,0,.3,9.9.3,9.9h2.1c0,0-.3-9.9-.3-9.9Z"/>
  <path class="cls-1" d="M875.5,65.2l.3,9.8h2.1c0,0-.3-9.9-.3-9.9h-2.1Z"/>
  <path class="cls-1" d="M873.6,75.1l.3,9.8h2.1c0,0-.3-9.9-.3-9.9h-2.1Z"/>
  <path class="cls-1" d="M878.4,94.6h-2.1c0,0,.3,9.9.3,9.9h2.1c0,0-.3-9.9-.3-9.9Z"/>
  <path class="cls-1" d="M874.3,104.6l.3,9.8h2.1c0,0-.3-9.9-.3-9.9h-2.1Z"/>
  <path class="cls-1" d="M894.5,133.5l.3,9.8h2.1c0,0-.3-9.9-.3-9.9h-2.1Z"/>
  <path class="cls-1" d="M896.3,123.7h2.1c0,0-.3-9.9-.3-9.9h-2.1c0,0,.3,9.9.3,9.9Z"/>
  <path class="cls-1" d="M898.5,123.6h-2.1c0,0,.3,9.9.3,9.9h2.1c0,0-.3-9.9-.3-9.9Z"/>
  <path class="cls-1" d="M890.4,143.5h-2.1c0,0,.5,19.7.5,19.7h2.1c0,0-.5-19.7-.5-19.7Z"/>
  <path class="cls-1" d="M887.5,114.1l.3,9.8h2.1c0,0-.3-9.9-.3-9.9h-2.1Z"/>
  <path class="cls-1" d="M826.5,86.1l.3,9.8h2.1c0,0-.3-9.9-.3-9.9h-2.1Z"/>
  <path class="cls-1" d="M820.1,86.3l.3,9.8h2.1c0,0-.3-9.9-.3-9.9h-2.1Z"/>
  <path class="cls-1" d="M843.2,66l.5,19.7h2.1c0,0-.5-19.7-.5-19.7h-2.1Z"/>
  <path class="cls-1" d="M838.4,46.5h-2.1c0,0,.3,9.9.3,9.9h2.1c0,0-.3-9.9-.3-9.9Z"/>
  <path class="cls-1" d="M834.8,154.8h-2.1c0,0,.3,9.9.3,9.9h2.1c0,0-.3-9.9-.3-9.9Z"/>
  <path class="cls-1" d="M849.8,154.4h-2.1c0,0,.3,9.9.3,9.9h2.1c0,0-.3-9.9-.3-9.9Z"/>
  <path class="cls-1" d="M811.6,175.1h-2.1c0,0,.3,9.9.3,9.9h2.1c0,0-.3-9.9-.3-9.9Z"/>
  <path class="cls-1" d="M895.5,172.9l.5,19.7h2.1c0,0-.5-19.7-.5-19.7h-2.1Z"/>
  <path class="cls-1" d="M897.4,163l.3,9.8h2.1c0,0-.3-9.9-.3-9.9h-2.1Z"/>
  <path class="cls-1" d="M878.5,183.2h-2.1c0,0,.3,9.9.3,9.9h2.1c0,0-.3-9.9-.3-9.9Z"/>
  <path class="cls-1" d="M903.6,153h-2.1c0,0,.5,19.7.5,19.7h2.1c0,0-.5-19.7-.5-19.7Z"/>
  <path class="cls-1" d="M690.8,79.9l.3,9.8h2.1c0,0-.3-9.9-.3-9.9h-2.1Z"/>
  <path class="cls-1" d="M692.7,70l.3,9.8h2.1c0,0-.3-9.9-.3-9.9h-2.1Z"/>
  <path class="cls-1" d="M696.5,50.2l.5,19.7h2.1c0,0-.3-9.9-.3-9.9h2.1c0,0-.5-19.7-.5-19.7h-2.1c0,0,.3,9.9.3,9.9h-2.1Z"/>
  <path class="cls-1" d="M686.3,70.1l-.5-19.7h-2.1c0,0,.5,19.7.5,19.7h2.1Z"/>
  <path class="cls-1" d="M688.6,158.6h-2.1c0,0,.3,9.9.3,9.9h2.1c0,0-.3-9.9-.3-9.9Z"/>
  <path class="cls-1" d="M702.7,40.2l.3,9.8h2.1c0,0-.3-9.9-.3-9.9h-2.1Z"/>
  <path class="cls-1" d="M699.7,89.5l.3,9.8h2.1c0,0-.3-9.9-.3-9.9h-2.1Z"/>
  <path class="cls-1" d="M707.4,138.4l.3,9.8h2.1c0,0-.3-9.9-.3-9.9h-2.1Z"/>
  <path class="cls-1" d="M700.5,119l.3,9.8h2.1c0,0-.3-9.9-.3-9.9h-2.1Z"/>
  <path class="cls-1" d="M647.6,71.2l.3,9.8h2.1c0,0-.3-9.9-.3-9.9h-2.1Z"/>
  <path class="cls-1" d="M647.6,71.2h2.1c0,0-.3-9.9-.3-9.9h-2.1c0,0,.3,9.9.3,9.9Z"/>
  <path class="cls-1" d="M642.5,41.8h-2.1c0,0,.3,9.9.3,9.9h2.1c0,0-.3-9.9-.3-9.9Z"/>
  <path class="cls-1" d="M649.6,149.8l.3,9.8h2.1c0,0-.3-9.9-.3-9.9h-2.1Z"/>
  <path class="cls-1" d="M654.5,90.6l.5,19.7h2.1c0,0-.5-19.7-.5-19.7h-2.1Z"/>
  <path class="cls-1" d="M669.3,80.4l.3,9.8h2.1c0,0-.3-9.9-.3-9.9h-2.1Z"/>
  <path class="cls-1" d="M669.8,100.1l-.3-9.8h-4.3c0,.1.3,9.9.3,9.9h4.3Z"/>
  <path class="cls-1" d="M666.9,70.6l-.3-9.8h-2.1c0,0,.3,9.9.3,9.9h2.1Z"/>
  <path class="cls-1" d="M663.4,100.3h-2.1c0,0,.3,9.9.3,9.9h2.1c0,0-.3-9.9-.3-9.9Z"/>
  <path class="cls-1" d="M660.7,80.6l.3,9.8h2.1c0,0-.3-9.9-.3-9.9h-2.1Z"/>
  <path class="cls-1" d="M666.6,139.5l.3,9.8h2.1c0,0-.3-9.9-.3-9.9h-2.1Z"/>
  <path class="cls-1" d="M662.8,159.3h-2.1c0,0,.3,9.9.3,9.9h2.1c0,0-.3-9.9-.3-9.9Z"/>
  <path class="cls-1" d="M675.7,159h-2.1c0,0,.3,9.9.3,9.9h2.1c0,0-.3-9.9-.3-9.9Z"/>
  <path class="cls-1" d="M672.5,119.7l.3,9.8h2.1c0,0-.3-9.9-.3-9.9h-2.1Z"/>
  <path class="cls-1" d="M676.2,178.6l.3,9.8h2.1c0,0-.3-9.9-.3-9.9h-2.1Z"/>
  <path class="cls-1" d="M669.5,169l.3,9.8h-2.1c0,0,.5,19.7.5,19.7h4.3c0-.1-.8-29.6-.8-29.6h-2.1Z"/>
  <path class="cls-1" d="M659.3,188.9l-.5-19.7h-2.1c0,0,.5,19.7.5,19.7h2.1Z"/>
  <path class="cls-1" d="M639.7,179.6h-2.1c0,0,.5,19.7.5,19.7h2.1c0,0-.5-19.7-.5-19.7Z"/>
  <path class="cls-1" d="M719.5,187.3h-2.1c0,0,.3,9.9.3,9.9h2.1c0,0-.3-9.9-.3-9.9Z"/>
  <path class="cls-1" d="M717,177.5l-.3-9.8h-2.1c0,0,.3,9.9.3,9.9h2.1Z"/>
  <path class="cls-1" d="M721.3,177.4l.5,19.7h2.1c0,0-.5-19.7-.5-19.7h-2.1Z"/>
  <path class="cls-1" d="M708.4,177.8l.3,9.8h2.1c0,0-.3-9.9-.3-9.9h-2.1Z"/>
  <path class="cls-1" d="M780.3,48l.3,9.8h2.1c0,0-.3-9.9-.3-9.9h-2.1Z"/>
  <path class="cls-1" d="M778.5,57.9h-2.1c0,0,.5,19.7.5,19.7h2.1c0,0-.5-19.7-.5-19.7Z"/>
  <path class="cls-1" d="M769.3,38.5l.5,19.7h2.1c0,0-.5-19.7-.5-19.7h-2.1Z"/>
  <path class="cls-1" d="M802.1,57.3l.3,9.8h2.1c0,0-.3-9.9-.3-9.9h-2.1Z"/>
  <path class="cls-1" d="M791.1,47.7l.3,9.8h2.1c0,0-.3-9.9-.3-9.9h-2.1Z"/>
  <path class="cls-1" d="M787.3,67.5l.3,9.8h2.1c0,0-.3-9.9-.3-9.9h-2.1Z"/>
  <path class="cls-1" d="M737.1,39.3h-2.1c0,0,.3,9.9.3,9.9h2.1c0,0-.3-9.9-.3-9.9Z"/>
  <path class="cls-1" d="M727.1,69.1h-2.1c0,0,.3,9.9.3,9.9h2.1c0,0-.3-9.9-.3-9.9Z"/>
  <path class="cls-1" d="M757.9,176.5l.3,9.8h2.1c0,0-.3-9.9-.3-9.9h-2.1Z"/>
  <path class="cls-1" d="M798.5,165.6l.3,9.8h2.1c0,0-.3-9.9-.3-9.9h-2.1Z"/>
  <path class="cls-1" d="M788.2,185.5l.3,9.8h2.1c0,0-.3-9.9-.3-9.9h-2.1Z"/>
  <path class="cls-1" d="M779.4,175.9h-2.1c0,0,.5,19.7.5,19.7h2.1c0,0-.5-19.7-.5-19.7Z"/>
  <path class="cls-1" d="M543.1,24.7l.3,9.8h2.1c0,0-.3-9.9-.3-9.9h-2.1Z"/>
  <path class="cls-1" d="M526.2,35h-2.1c0,0,.3,9.9.3,9.9h2.1c0,0-.3-9.9-.3-9.9Z"/>
  <path class="cls-1" d="M504.4,25.7h-2.1c0,0,.3,9.9.3,9.9h2.1c0,0-.3-9.9-.3-9.9Z"/>
  <path class="cls-1" d="M520.2,54.8l.3,9.8h2.1c0,0-.3-9.9-.3-9.9h-2.1Z"/>
  <path class="cls-1" d="M513.8,55l-.3-9.8h-2.1c0,0,.3,9.9.3,9.9h2.1Z"/>
  <path class="cls-1" d="M509.2,45.3h-2.1c0,0,.8,29.5.8,29.5h2.1c0,0-.8-29.5-.8-29.5Z"/>
  <path class="cls-1" d="M505.7,74.9l.3,9.8h2.1c0,0-.3-9.9-.3-9.9h-2.1Z"/>
  <path class="cls-1" d="M504.3,104.4l-1.5-59h-2.1c0,0,.3,9.9.3,9.9h-2.1c0,0,.3,9.9.3,9.9h2.1c0,0,.8,29.4.8,29.4h-2.1c0,0,.3,9.9.3,9.9h4.3Z"/>
  <path class="cls-1" d="M535.7,152.8l-.3-9.8h-2.1c0,0,.3,9.9.3,9.9h2.1Z"/>
  <path class="cls-1" d="M535.2,133.1l.3,9.8h2.1c0,0-.3-9.9-.3-9.9h-2.1Z"/>
  <path class="cls-1" d="M544.3,152.6h-2.1c0,0,.3,9.9.3,9.9h-2.1c0,0,.3,9.9.3,9.9h4.3c0-.1-.5-19.8-.5-19.8Z"/>
  <path class="cls-1" d="M498.2,35.7h2.1c0,0-.3-9.9-.3-9.9h-2.1c0,0,.3,9.9.3,9.9Z"/>
  <path class="cls-1" d="M476.7,36.3l-.3-9.8h-2.1c0,0,.3,9.9.3,9.9h2.1Z"/>
  <path class="cls-1" d="M498.7,55.4h-2.1c0,0,.3,9.9.3,9.9h2.1c0,0-.3-9.9-.3-9.9Z"/>
  <path class="cls-1" d="M496.1,203l-.3-9.8h-2.1c0,0,.3,9.9.3,9.9h2.1Z"/>
  <path class="cls-1" d="M485.6,213.1l-.3-9.8h-2.1c0,0,.3,9.9.3,9.9h2.1Z"/>
  <path class="cls-1" d="M462,213.7l-.3-9.8h-2.1c0,0,.3,9.9.3,9.9h2.1Z"/>
  <path class="cls-1" d="M519.8,202.4l.3,9.8h2.1c0,0-.3-9.9-.3-9.9h-2.1Z"/>
  <path class="cls-1" d="M513.1,192.7l-.5-19.7h-2.1c0,0,.5,19.7.5,19.7h2.1Z"/>
  <path class="cls-1" d="M617.2,62.1l-.3-9.8h-2.1c0,0,.3,9.9.3,9.9h2.1Z"/>
  <path class="cls-1" d="M573.2,23.9h-2.1c0,0,.3,9.9.3,9.9h2.1c0,0-.3-9.9-.3-9.9Z"/>
  <path class="cls-1" d="M573.4,33.7h-2.1c0,0,.3,9.9.3,9.9h2.1c0,0-.3-9.9-.3-9.9Z"/>
  <path class="cls-1" d="M582,33.5h-2.1c0,0,.3,9.9.3,9.9h2.1c0,0-.3-9.9-.3-9.9Z"/>
  <path class="cls-1" d="M561.7,161.9h-2.1c0,0,.5,19.7.5,19.7h4.3c0-.1,2.1-.2,2.1-.2l-.8-29.5h-2.1c0,0,.5,19.7.5,19.7h-2.1c0,0-.3-9.8-.3-9.8Z"/>
  <path class="cls-1" d="M582.3,43.4h-2.1c0,0,.3,9.9.3,9.9h2.1c0,0-.3-9.9-.3-9.9Z"/>
  <path class="cls-1" d="M571.6,43.6h-2.1c0,0,.3,9.9.3,9.9h2.1c0,0-.3-9.9-.3-9.9Z"/>
  <path class="cls-1" d="M577.6,191l-.5-19.7h-2.1c0,0,.5,19.7.5,19.7h2.1Z"/>
  <path class="cls-1" d="M570.9,181.4l.3,9.8h2.1c0,0-.3-9.9-.3-9.9h-2.1Z"/>
  <path class="cls-1" d="M566.8,191.3l-.3-9.8h-2.1c0,0,.3,9.9.3,9.9h2.1Z"/>
  <path class="cls-1" d="M563,211.1h2.1c0,0-.3-9.9-.3-9.9h-2.1c0,0,.3,9.9.3,9.9Z"/>
  <path class="cls-1" d="M569.5,210.9l-.3-9.8h-2.1c0,0,.3,9.9.3,9.9h2.1Z"/>
  <path class="cls-1" d="M551.3,172h-2.1c0,0,.3,9.9.3,9.9h2.1c0,0-.3-9.9-.3-9.9Z"/>
  <path class="cls-1" d="M550.1,211.4h2.1c0,0-.3-9.9-.3-9.9h-2.1c0,0,.3,9.9.3,9.9Z"/>
  <path class="cls-1" d="M556.3,201.4l.3,9.8h2.1c0,0-.3-9.9-.3-9.9h-2.1Z"/>
  <path class="cls-1" d="M625.4,209.5l-.3-9.8h-2.1c0,0,.3,9.9.3,9.9h2.1Z"/>
  <path class="cls-1" d="M629.4,199.5l.3,9.8h2.1c0,0-.3-9.9-.3-9.9h-2.1Z"/>
  <path class="cls-1" d="M603.9,210l-.3-9.8h-2.1c0,0,.3,9.9.3,9.9h2.1Z"/>
  <path class="cls-1" d="M597.2,200.4h-2.1c0,0,.3,9.9.3,9.9h2.1c0,0-.3-9.9-.3-9.9Z"/>
  <path class="cls-1" d="M360.4,29.5l.3,9.8h2.1c0,0-.3-9.9-.3-9.9h-2.1Z"/>
  <path class="cls-1" d="M362.8,39.3h-2.1c0,0,.5,19.7.5,19.7h2.1c0,0-.3-9.9-.3-9.9h2.1c0,0-.3-9.9-.3-9.9h-2.1Z"/>
  <path class="cls-1" d="M362.5,29.4l.3,9.8h2.1c0,0-.3-9.9-.3-9.9h-2.1Z"/>
  <path class="cls-1" d="M366.8,29.3l.3,9.8h2.1c0,0-.3-9.9-.3-9.9h-2.1Z"/>
  <path class="cls-1" d="M328.4,40.2l-.3-9.8h-4.3c0,.1.3,9.9.3,9.9h4.3Z"/>
  <path class="cls-1" d="M334.8,40h2.1c0,0-.3-9.9-.3-9.9h-2.1c0,0,.3,9.9.3,9.9Z"/>
  <path class="cls-1" d="M341,30h-2.1c0,0,.3,9.9.3,9.9h2.1c0,0-.3-9.9-.3-9.9Z"/>
  <path class="cls-1" d="M343.4,39.8h2.1c0,0-.3-9.9-.3-9.9h-2.1c0,0,.3,9.9.3,9.9Z"/>
  <path class="cls-1" d="M339.9,69.4l-.3-9.8h-2.1c0,0,.3,9.9.3,9.9h2.1Z"/>
  <path class="cls-1" d="M341.5,49.7h-2.1c0,0,.3,9.9.3,9.9h2.1c0,0-.3-9.9-.3-9.9Z"/>
  <path class="cls-1" d="M339.6,59.5l-.3-9.8h-2.1c0,0,.3,9.9.3,9.9h2.1Z"/>
  <path class="cls-1" d="M337.5,59.6l-.3-9.8h-2.1c0,0,.3,9.9.3,9.9h2.1Z"/>
  <path class="cls-1" d="M306.9,40.7l-.3-9.8h-4.3c0,.1.3,9.9.3,9.9h2.1c0,0,2.1-.1,2.1-.1Z"/>
  <path class="cls-1" d="M317.6,40.4h-2.1c0,0,.3,9.9.3,9.9h2.1c0,0-.3-9.9-.3-9.9Z"/>
  <path class="cls-1" d="M285.4,41.3h2.1c0,0-.3-9.9-.3-9.9h-2.1c0,0,.3,9.9.3,9.9Z"/>
  <path class="cls-1" d="M294,41.1l-.3-9.8h-2.1c0,0,.3,9.9.3,9.9h2.1Z"/>
  <path class="cls-1" d="M295.9,31.2l.3,9.8h4.3c0-.1-.3-9.9-.3-9.9h-4.3Z"/>
  <path class="cls-1" d="M307.1,50.6l-.3-9.8h-2.1c0,0,.3,9.9.3,9.9h2.1Z"/>
  <path class="cls-1" d="M324.1,207.5h-2.1c0,0,.3,9.9.3,9.9h2.1c0,0-.3-9.9-.3-9.9Z"/>
  <path class="cls-1" d="M330.6,207.3h-4.3c0,.1.3,9.9.3,9.9h4.3c0-.1-.3-9.9-.3-9.9Z"/>
  <path class="cls-1" d="M313.7,217.6l-.3-9.8h-2.1c0,0,.3,9.9.3,9.9h2.1Z"/>
  <path class="cls-1" d="M300.8,218l-.3-9.8h-2.1c0,0,.3,9.9.3,9.9h2.1Z"/>
  <path class="cls-1" d="M290,218.2l-.3-9.8h-2.1c0,0,.3,9.9.3,9.9h2.1Z"/>
  <path class="cls-1" d="M291.9,208.4l.3,9.8h4.3c0-.1-.3-9.9-.3-9.9h-4.3Z"/>
  <path class="cls-1" d="M370.9,186.6l.3,9.8h2.1c0,0-.3-9.9-.3-9.9h-2.1Z"/>
  <path class="cls-1" d="M371.4,206.3l.3,9.8h2.1c0,0-.3-9.9-.3-9.9h-2.1Z"/>
  <path class="cls-1" d="M359.9,177.1l.3,9.8h2.1c0,0-.3-9.9-.3-9.9h-2.1Z"/>
  <path class="cls-1" d="M354.2,206.7l.3,9.8h4.3c0-.1-.3-9.9-.3-9.9h-4.3Z"/>
  <path class="cls-1" d="M345.6,206.9h-2.1c0,0,.3,9.9.3,9.9h2.1c0,0-.3-9.9-.3-9.9Z"/>
  <path class="cls-1" d="M352.3,216.6l-.3-9.8h-2.1c0,0,.3,9.9.3,9.9h2.1Z"/>
  <path class="cls-1" d="M341.1,197.2h-2.1c0,0,.3,9.9.3,9.9h2.1c0,0-.3-9.9-.3-9.9Z"/>
  <path class="cls-1" d="M337.3,217h4.3c0-.1-.3-9.9-.3-9.9h-2.1c0,0-2.1.1-2.1.1l.3,9.8Z"/>
  <path class="cls-1" d="M422.7,27.9l.3,9.8h2.1c0,0-.3-9.9-.3-9.9h-2.1Z"/>
  <path class="cls-1" d="M431.8,47.3l.3,9.8h2.1c0,0-.3-9.9-.3-9.9h-2.1Z"/>
  <path class="cls-1" d="M414.9,57.6l-.3-9.8h-4.3c0,.1.3,9.9.3,9.9h4.3Z"/>
  <path class="cls-1" d="M456,66.3h-2.1c0,0,.3,9.9.3,9.9h2.1c0,0-.3-9.9-.3-9.9Z"/>
  <path class="cls-1" d="M453.8,66.4l-.3-9.8h-2.1c0,0,.5,19.7.5,19.7h2.1c0,0-.3-9.9-.3-9.9Z"/>
  <path class="cls-1" d="M445,56.8h-2.1c0,0,.5,19.7.5,19.7h2.1c0,0-.5-19.7-.5-19.7Z"/>
  <path class="cls-1" d="M414.6,47.7l-.3-9.8h-4.3c0,.1.3,9.9.3,9.9h4.3Z"/>
  <path class="cls-1" d="M396.9,28.5h-2.1c0,0,.3,9.9.3,9.9h2.1c0,0-.3-9.9-.3-9.9Z"/>
  <path class="cls-1" d="M405.8,38.1h2.1c0,0-.3-9.9-.3-9.9h-2.1c0,0,.3,9.9.3,9.9Z"/>
  <path class="cls-1" d="M375.4,29.1h-2.1c0,0,.3,9.9.3,9.9h2.1c0,0-.3-9.9-.3-9.9Z"/>
  <path class="cls-1" d="M375.7,38.9h-2.1c0,0,.3,9.9.3,9.9h2.1c0,0-.3-9.9-.3-9.9Z"/>
  <path class="cls-1" d="M384.3,38.7h2.1c0,0-.3-9.9-.3-9.9h-2.1c0,0,.3,9.9.3,9.9Z"/>
  <path class="cls-1" d="M386.4,38.6h-2.1c0,0,.5,19.7.5,19.7h2.1c0,0-.5-19.7-.5-19.7Z"/>
  <path class="cls-1" d="M376.4,68.4h-2.1c0,0,.3,9.9.3,9.9h2.1c0,0-.3-9.9-.3-9.9Z"/>
  <path class="cls-1" d="M371.6,48.9l.5,19.7h2.1c0,0-.5-19.7-.5-19.7h-2.1Z"/>
  <path class="cls-1" d="M410.8,67.5l-.3-9.8h-4.3c0,.1.3,9.9.3,9.9h-4.3c0,.1.5,19.8.5,19.8h2.1c0,0-.3-9.9-.3-9.9h4.3c0-.1-.3-9.9-.3-9.9h2.1Z"/>
  <path class="cls-1" d="M399.6,215.4h2.1c0,0-.3-9.9-.3-9.9h-2.1c0,0,.3,9.9.3,9.9Z"/>
  <path class="cls-1" d="M392.7,195.9l-.5-19.7h-4.3c0,.1.3,9.9.3,9.9h2.1c0,0,.3,9.8.3,9.8h2.1Z"/>
  <path class="cls-1" d="M391,215.6l-.3-9.8h-2.1c0,0,.3,9.9.3,9.9h2.1Z"/>
  <path class="cls-1" d="M386.7,215.7l-.3-9.8h-2.1c0,0,.3,9.9.3,9.9h2.1Z"/>
  <path class="cls-1" d="M392.9,205.7l-.3-9.8h-2.1c0,0,.3,9.9.3,9.9h2.1Z"/>
  <path class="cls-1" d="M380,206l.3,9.8h2.1c0,0-.3-9.9-.3-9.9h-2.1Z"/>
  <path class="cls-1" d="M450.2,174.7l.5,19.7h2.1c0,0-.5-19.7-.5-19.7h-2.1Z"/>
  <path class="cls-1" d="M452.9,194.3h-2.1c0,0,.3,9.9.3,9.9h2.1c0,0-.3-9.9-.3-9.9Z"/>
  <path class="cls-1" d="M455.3,204.1h-2.1c0,0,.3,9.9.3,9.9h2.1c0,0-.3-9.9-.3-9.9Z"/>
  <path class="cls-1" d="M451.2,214l-.3-9.8h-2.1c0,0,.3,9.9.3,9.9h2.1Z"/>
  <path class="cls-1" d="M444.8,214.2l-.3-9.8h-2.1c0,0,.3,9.9.3,9.9h2.1Z"/>
  <path class="cls-1" d="M433.5,194.8h-2.1c0,0,.3,9.9.3,9.9h2.1c0,0-.3-9.9-.3-9.9Z"/>
  <path class="cls-1" d="M427.6,214.6l-.3-9.8h-2.1c0,0,.3,9.9.3,9.9h2.1Z"/>
  <path class="cls-1" d="M188.6,43.8h-2.1c0,0,.3,9.9.3,9.9h2.1c0,0-.3-9.9-.3-9.9Z"/>
  <path class="cls-1" d="M141.1,35.2h-2.1c0,0,.3,9.9.3,9.9h2.1c0,0-.3-9.9-.3-9.9Z"/>
  <path class="cls-1" d="M143.5,45h-2.1c0,0,.3,9.9.3,9.9h2.1c0,0-.3-9.9-.3-9.9Z"/>
  <path class="cls-1" d="M123.9,35.7h-2.1c0,0,.3,9.9.3,9.9h2.1c0,0-.3-9.9-.3-9.9Z"/>
  <path class="cls-1" d="M124.1,45.5h-2.1c0,0,.3,9.9.3,9.9h2.1c0,0-.3-9.9-.3-9.9Z"/>
  <path class="cls-1" d="M130.6,45.3l-.3-9.8h-2.1c0,0,.3,9.9.3,9.9h2.1Z"/>
  <path class="cls-1" d="M122.5,65.2l-.3-9.8h-2.1c0,0,.3,9.9.3,9.9h2.1Z"/>
  <path class="cls-1" d="M125.3,173.4h-2.1c0,0,.3,9.9.3,9.9h2.1c0,0-.3-9.9-.3-9.9Z"/>
  <path class="cls-1" d="M261.7,41.9l-.3-9.8h-4.3c0,.1.3,9.9.3,9.9h4.3Z"/>
  <path class="cls-1" d="M274.4,31.7h-2.1c0,0,.3,9.9.3,9.9h2.1c0,0-.3-9.9-.3-9.9Z"/>
  <path class="cls-1" d="M280.8,31.6h-2.1c0,0,.3,9.9.3,9.9h2.1c0,0-.3-9.9-.3-9.9Z"/>
  <path class="cls-1" d="M242.1,32.6h-2.1c0,0,.3,9.9.3,9.9h2.1c0,0-.3-9.9-.3-9.9Z"/>
  <path class="cls-1" d="M246.7,42.3h2.1c0,0-.3-9.9-.3-9.9h-2.1c0,0,.3,9.9.3,9.9Z"/>
  <path class="cls-1" d="M251,42.2h4.3c0-.1-.3-9.9-.3-9.9h-4.3c0,.1.3,9.9.3,9.9Z"/>
  <path class="cls-1" d="M220.9,43l-.3-9.8h-4.3c0,.1.3,9.9.3,9.9h4.3Z"/>
  <path class="cls-1" d="M227.3,42.8l-.3-9.8h-2.1c0,0,.3,9.9.3,9.9h2.1Z"/>
  <path class="cls-1" d="M231.4,32.9l.3,9.8h2.1c0,0,2.1-.1,2.1-.1l-.3-9.8h-4.3Z"/>
  <path class="cls-1" d="M233.8,42.6h-2.1c0,0,.8,29.5.8,29.5h2.1c0,0-.8-29.5-.8-29.5Z"/>
  <path class="cls-1" d="M199.4,43.5h-2.1c0,0,.5,19.7.5,19.7h2.1c0,0-.5-19.7-.5-19.7Z"/>
  <path class="cls-1" d="M205.6,33.5l.3,9.8h2.1c0,0-.3-9.9-.3-9.9h-2.1Z"/>
  <path class="cls-1" d="M214.4,43.2l-.3-9.8h-2.1c0,0,.3,9.9.3,9.9h2.1Z"/>
  <path class="cls-1" d="M236,209.8l.3,9.8h2.1c0,0-.3-9.9-.3-9.9h-2.1Z"/>
  <path class="cls-1" d="M283.6,218.4l-.3-9.8h-2.1c0,0,.3,9.9.3,9.9h2.1Z"/>
  <path class="cls-1" d="M270.4,208.9l.3,9.8h2.1c0,0-.3-9.9-.3-9.9h-2.1Z"/>
  <path class="cls-1" d="M266.4,218.9l-.3-9.8h-2.1c0,0,.3,9.9.3,9.9h2.1Z"/>
  <path class="cls-1" d="M252.7,189.7h-2.1c0,0,.3,9.9.3,9.9h2.1c0,0-.3-9.9-.3-9.9Z"/>
  <path class="cls-1" d="M252.9,199.5h-2.1c0,0,.3,9.9.3,9.9h2.1c0,0-.3-9.9-.3-9.9Z"/>
  <path class="cls-1" d="M66.1,47l-.3-9.8h-2.1c0,0,.3,9.9.3,9.9h2.1Z"/>
  <path class="cls-1" d="M79.8,76.2l-.5-19.7h-2.1c0,0,.5,19.7.5,19.7h2.1Z"/>
  <path class="cls-1" d="M64.7,76.6l-.5-19.7h-4.3c0,.1.3,9.9.3,9.9l.5,19.7h2.1c0,0-.3-9.9-.3-9.9h2.1Z"/>
  <path class="cls-1" d="M64.7,76.6h-2.1c0,0,.3,9.9.3,9.9h2.1c0,0-.3-9.9-.3-9.9Z"/>
  <path class="cls-1" d="M60.2,66.9h-2.1c0,0,.5,19.7.5,19.7h2.1c0,0-.5-19.7-.5-19.7Z"/>
  <path class="cls-1" d="M48,96.7h2.1c0,0-.3-9.9-.3-9.9h-2.1c0,0,.3,9.9.3,9.9Z"/>
  <path class="cls-1" d="M50.2,96.6h-2.1c0,0,.3,9.9.3,9.9h2.1c0,0-.3-9.9-.3-9.9Z"/>
  <path class="cls-1" d="M49.9,86.8l.3,9.8h2.1c0,0-.3-9.9-.3-9.9h-2.1Z"/>
  <path class="cls-1" d="M53.1,126.1l.3,9.8h2.1c0,0-.3-9.9-.3-9.9h-2.1Z"/>
  <path class="cls-1" d="M53.4,135.9l-.3-9.8h-2.1c0,0,.3,9.9.3,9.9h2.1Z"/>
  <path class="cls-1" d="M56.3,165.3h-2.1c0,0,.3,9.9.3,9.9h2.1c0,0-.3-9.9-.3-9.9Z"/>
  <path class="cls-1" d="M102.5,203.5l-.5-19.7h-2.1c0,0,.5,19.7.5,19.7h2.1Z"/>
  <path class="cls-1" d="M102.7,213.3l-.3-9.8h-2.1c0,0,.3,9.9.3,9.9h2.1Z"/>
  <path class="cls-1" d="M888.1,55l-.3-9.8h-2.1c0,0,.3,9.9.3,9.9h2.1Z"/>
  <path class="cls-1" d="M877.3,55.3l-.3-9.8h-2.1c0,0,.3,9.9.3,9.9h2.1Z"/>
  <path class="cls-1" d="M872.5,35.8l.3,9.8h2.1c0,0-.3-9.9-.3-9.9h-2.1Z"/>
  <path class="cls-1" d="M852.7,183.8h-2.1c0,0,.3,9.9.3,9.9h2.1c0,0-.3-9.9-.3-9.9Z"/>
  <path class="cls-1" d="M853.3,203.5l-.3-9.8h-2.1c0,0,.3,9.9.3,9.9h2.1Z"/>
  <path class="cls-1" d="M867.5,173.6l.5,19.7h2.1c0,0-.5-19.7-.5-19.7h-2.1Z"/>
  <path class="cls-1" d="M904.7,113.6l.3,9.8h2.1c0,0-.3-9.9-.3-9.9h-2.1Z"/>
  <path class="cls-1" d="M909,113.5h-2.1c0,0,.3,9.9.3,9.9h2.1c0,0-.3-9.9-.3-9.9Z"/>
  <path class="cls-1" d="M909.2,123.3h-2.1c0,0,.8,29.5.8,29.5h2.1c0,0-.8-29.5-.8-29.5Z"/>
  <path class="cls-1" d="M910.5,172.5h-2.1c0,0,.3,9.9.3,9.9h2.1c0,0-.3-9.9-.3-9.9Z"/>
  <path class="cls-1" d="M910.8,182.3h-2.1c0,0,.3,9.9.3,9.9h2.1c0,0-.3-9.9-.3-9.9Z"/>
  <path class="cls-1" d="M911,192.1l.3,9.8h2.1c0,0-.3-9.9-.3-9.9h-2.1Z"/>
  <path class="cls-1" d="M908.9,192.2l-.3-9.8h-2.1c0,0,.3,9.9.3,9.9h2.1Z"/>
  <path class="cls-1" d="M694.6,60.1l-.3-9.8h-2.1c0,0,.3,9.9.3,9.9h2.1Z"/>
  <path class="cls-1" d="M660,51.2l-.3-9.8h-2.1c0,0,.3,9.9.3,9.9h2.1Z"/>
  <path class="cls-1" d="M649,208.8l-.3-9.8h-2.1c0,0,.3,9.9.3,9.9h2.1Z"/>
  <path class="cls-1" d="M652.8,189.1h-2.1c0,0,.3,9.9.3,9.9h2.1c0,0-.3-9.9-.3-9.9Z"/>
  <path class="cls-1" d="M709,197.4l.3,9.8h2.1c0,0-.3-9.9-.3-9.9h-2.1Z"/>
  <path class="cls-1" d="M751.9,29.1h-2.1c0,0,.3,9.9.3,9.9h2.1c0,0-.3-9.9-.3-9.9Z"/>
  <path class="cls-1" d="M741.5,206.4h2.1c0,0-.3-9.9-.3-9.9h-2.1c0,0,.3,9.9.3,9.9Z"/>
  <path class="cls-1" d="M741.2,196.6h2.1c0,0-.3-9.9-.3-9.9h-2.1c0,0,.3,9.9.3,9.9Z"/>
  <path class="cls-1" d="M545.6,201.7l.3,9.8h2.1c0,0-.3-9.9-.3-9.9h-2.1Z"/>
  <path class="cls-1" d="M55.3,47.3h-2.1c0,0,.3,9.9.3,9.9h2.1c0,0-.3-9.9-.3-9.9Z"/>
  <path class="cls-1" d="M51.3,57.3l.3,9.8h2.1c0,0-.3-9.9-.3-9.9h-2.1Z"/>
</svg>