<svg width="800" height="126" viewBox="0 0 800 126" fill="none" xmlns="http://www.w3.org/2000/svg">
<g filter="url(#filter0_d_2_89664)">
<path d="M785.583 85.9019V70.0273H783.711V64.7323H781.839V59.4375H776.222V64.7323H774.35V54.1526H772.478V48.8577H770.605V54.1526H768.733V38.2779H764.989V43.5728H763.117V32.9931H757.5V27.6982H759.372V22.4033H761.245V27.6982H764.989V22.4033H763.117V17.1083H761.245V11.8134H757.5V17.1083H753.756V11.8134H736.906V17.1083H735.034V11.8134H536.551V17.1083H534.989V11.8134H491.618V6.51855H489.745V11.8134H471.324V6.51855H469.452V11.8134H467.269V6.51855H465.397V11.8134H461.963V17.1083H460.091V11.8134H452.602H452.291V17.1083H450.73V11.8134H446.985V6.51855H445.113V11.8134H441.058V17.1083H439.496V11.8134H432.008V17.1083H431.697V6.52858H429.825V11.8235H427.953V6.52858H426.081V11.8235H411.413V6.52858H409.541V11.8235H407.669V6.52858H405.486V11.8235H387.065V6.52858H385.193V11.8235H373.649V6.52858H371.777V11.8235H362.416V6.52858H360.544V22.4033H358.982V11.8235H358.671V6.52858H356.799V11.8235H353.365V6.52858H351.493V11.8235H347.438V6.52858H345.566V11.8235H343.694V17.1184H342.132V6.53864H340.26V11.8335H339.949V22.4133H338.388V6.53864H336.205V11.8335H334.333V6.53864H332.461V11.8335H328.716V6.53864H325.282V11.8335H319.355V6.53864H315.921V11.8335H314.049V6.53864H311.866V11.8335H309.994V6.53864H306.25V11.8335H304.378V6.53864H302.505V11.8335H299.071V6.53864H297.199V11.8335H295.017V6.53864H291.272V11.8335H289.71V6.53864H285.966V11.8335H285.656V6.53864H281.911V11.8335H280.039V6.53864H270.988V11.8335H270.678V6.53864H266.934V11.8335H265.372V6.53864H261.627V11.8335H261.317V6.53864H205.141V11.8335H203.579V6.53864H167.997V11.8335H166.125V6.53864H74.3773H74.067V11.8335H72.5052V6.53864H68.7607H68.4504V11.8335H66.8886V6.53864H53.7832H51.6006V11.8335H50.0387V6.53864H47.8562V11.8335H44.4221V6.53864H42.55V11.8335H42.2396V17.1285H40.6778V6.5487H36.9334V11.8436H35.0612V6.5487H31.3168V11.8436H29.4446V6.5487H27.5724V11.8436H21.9558V38.298H20.0836V33.0031H12.5948V43.5829H14.467V38.288H16.3392V54.1626H14.467V70.0373H16.3392V80.6171H18.2114V75.3222H20.0836V80.6171H21.9558V85.912H25.7002V75.3322H27.5724V91.2069H29.4446V75.3322H31.3168V70.0373H33.189V80.6171H31.3168V85.912H33.189V96.4918H38.8055V101.787H40.6778V96.4918H42.55V101.787H61.272V96.4918H62.8338V101.787H81.8662V91.2069H83.428V101.787H113.694V96.4918H115.255V101.787H145.521V96.4918H147.083V101.787H173.604V107.082H175.476V101.787H193.898V107.082H195.77V101.787H197.953V107.082H199.825V101.787H203.569V107.082H205.441V101.787H212.93V107.082H214.802V101.787H218.236V107.082H220.419V101.787H222.291V107.082H226.036V101.787H227.908V107.082H229.78V101.787H233.214V107.082H235.397V101.787H238.831V107.082H241.013V101.787H242.575V107.082H246.319V101.787H248.192V107.082H250.374V101.787H252.246V107.082H255.991V101.787H259.425V107.082H261.297V101.787H261.607V107.082H265.352V101.787H267.224V107.082H270.658V101.787H272.53V107.082H276.275V101.787H276.585V107.082H280.329V101.787H281.891V107.082H285.636V101.787H287.508V107.082H289.38H289.69V101.787H291.563V107.082H293.124H294.997H295.307V101.787H296.869V107.082H300.613H300.924V96.5018H302.485V107.082H304.668V101.787H306.54V107.082H309.974V101.787H311.846V107.082H315.591V101.787H315.901V107.082H321.207V101.787H323.08V107.082H324.952V101.787H326.824V107.082H329.007V101.787H332.441H334.623V91.2069H336.185V107.082H340.24V101.787H342.112V107.082H343.984V101.787H345.856V107.082H349.601V91.2069H351.163V101.787H351.473V107.082H355.217V91.2069H356.779V101.787H357.09V107.082H360.834V101.787H362.396V107.082H364.578V101.787H366.14V107.082H375.812V101.787H377.373V107.082H384.862V101.787H388.607V107.082H398.278V101.787H399.84V107.082H407.639V96.5018H409.201V107.082H418.562V101.787H420.744V96.4918H422.617V91.1969H424.178V101.777H420.744V107.072H428.233V101.777H429.795V107.072H431.667V96.4918H431.978V107.072H437.284V101.777H441.028V107.072H442.9V101.777H441.339V96.4817H444.773V101.777H443.211V107.072H450.7V101.777H452.261V107.072H456.006V101.777H454.134V96.4817H454.444V91.1868H456.316V107.061H465.367V101.767H463.805V96.4717H465.677V107.051H471.294V101.757H472.856V96.4616H473.166V101.757H472.856V107.051H497.505V101.757H500.939V107.051H508.738V101.757H510.3V107.051H529.332V101.757H530.894V107.051H581.453V101.757H581.764V96.4616H583.325V107.041H588.942V101.746H589.252V107.041H705.038H706.911H714.4H716.272H729.377H738.738V101.746H739.048V107.041H774.32V101.746H776.192V107.041H783.681V101.746H781.809V96.4516H783.681V91.1567H787.425V85.8618H785.553L785.583 85.9019ZM450.399 22.4133H448.837V17.1184H450.399V22.4133ZM491.908 101.777V96.4817H493.47V101.777H491.908Z" fill="#D9FF7A"/>
<path d="M20.0335 11.8237H18.1613V17.1186H20.0335V11.8237Z" fill="#D9FF7A"/>
<path d="M18.1613 17.1187H16.2891V22.4135H18.1613V17.1187Z" fill="#D9FF7A"/>
</g>
<defs>
<filter id="filter0_d_2_89664" x="0.594757" y="0.518555" width="798.831" height="124.563" filterUnits="userSpaceOnUse" color-interpolation-filters="sRGB">
<feFlood flood-opacity="0" result="BackgroundImageFix"/>
<feColorMatrix in="SourceAlpha" type="matrix" values="0 0 0 0 0 0 0 0 0 0 0 0 0 0 0 0 0 0 127 0" result="hardAlpha"/>
<feOffset dy="6"/>
<feGaussianBlur stdDeviation="6"/>
<feColorMatrix type="matrix" values="0 0 0 0 0 0 0 0 0 0 0 0 0 0 0 0 0 0 0.2 0"/>
<feBlend mode="normal" in2="BackgroundImageFix" result="effect1_dropShadow_2_89664"/>
<feBlend mode="normal" in="SourceGraphic" in2="effect1_dropShadow_2_89664" result="shape"/>
</filter>
</defs>
</svg>
