<svg width="582" height="117" viewBox="0 0 722 117" fill="none" xmlns="http://www.w3.org/2000/svg">
    <g filter="url(#filter0_d_2_70)">
        <path
            d="M707.489 78.1853V63.7273H705.807V58.9046H704.125V54.0819H699.069V58.9046H697.387V49.2693H695.705V44.4466H694.023V49.2693H692.341V34.8113H688.977V39.634H687.295V29.9986H682.239V25.176H683.921V20.3533H685.603V25.176H688.967V20.3533H687.285V15.5306H685.603V10.7079H682.239V15.5306H678.875V10.7079H663.717V15.5306H662.036V10.7079H483.516V15.5306H482.104V10.7079H443.088V5.88522H441.406V10.7079H424.837V5.88522H423.155V10.7079H421.192V5.88522H419.51V10.7079H416.417V15.5306H414.735V10.7079H407.997H407.717V15.5306H406.305V10.7079H402.941V5.88522H401.259V10.7079H397.615V15.5306H396.203V10.7079H389.465V15.5306H389.185V5.89528H387.503V10.718H385.821V5.89528H384.139V10.718H370.943V5.89528H369.261V10.718H367.579V5.89528H365.617V10.718H349.048V5.89528H347.366V10.718H336.984V5.89528H335.302V10.718H326.882V5.89528H325.2V20.3533H323.788V10.718H323.508V5.89528H321.826V10.718H318.732V5.89528H317.05V10.718H313.406V5.89528H311.724V10.718H310.042V15.5407H308.63V5.90532H306.948V10.728H306.668V20.3633H305.256V5.90532H303.294V10.728H301.612V5.90532H299.93V10.728H296.566V5.90532H293.472V10.728H288.146V5.90532H285.052V10.728H283.371V5.90532H281.408V10.728H279.726V5.90532H276.362V10.728H274.68V5.90532H272.998V10.728H269.905V5.90532H268.223V10.728H266.26V5.90532H262.896V10.728H261.485V5.90532H258.121V10.728H257.841V5.90532H254.477V10.728H252.795V5.90532H244.655V10.728H244.375V5.90532H241.011V10.728H239.599V5.90532H236.235V10.728H235.955V5.90532H185.435V10.728H184.024V5.90532H152.026V10.728H150.344V5.90532H67.8172H67.5369V10.728H66.1252V5.90532H62.7613H62.481V10.728H61.0693V5.90532H49.2754H47.3131V10.728H45.9015V5.90532H43.9392V10.728H40.8455V5.90532H39.1636V10.728H38.8832V15.5507H37.4716V5.91536H34.1076V10.7381H32.4256V5.91536H29.0617V10.7381H27.3797V5.91536H25.6977V10.7381H20.6418V34.8314H18.9598V30.0087H12.2219V39.644H13.9039V34.8213H15.5859V49.2793H13.9039V63.7374H15.5859V73.3727H17.2678V68.55H18.9498V73.3727H20.6318V78.1954H23.9957V68.56H25.6777V83.0181H27.3597V68.56H29.0417V63.7374H30.7236V73.3727H29.0417V78.1954H30.7236V87.8307H35.7796V92.6534H37.4615V87.8307H39.1435V92.6534H55.9833V87.8307H57.395V92.6534H74.5151V83.0181H75.9268V92.6534H103.149V87.8307H104.56V92.6534H131.782V87.8307H133.194V92.6534H157.052V97.476H158.734V92.6534H175.304V97.476H176.986V92.6534H178.948V97.476H180.63V92.6534H183.994V97.476H185.676V92.6534H192.414V97.476H194.096V92.6534H197.189V97.476H199.152V92.6534H200.834V97.476H204.197V92.6534H205.879V97.476H207.561V92.6534H210.655V97.476H212.617V92.6534H215.711V97.476H217.673V92.6534H219.085V97.476H222.449V92.6534H224.131V97.476H226.093V92.6534H227.775V97.476H231.139V92.6534H234.233V97.476H235.915V92.6534H236.195V97.476H239.559V92.6534H241.241V97.476H244.335V92.6534H246.017V97.476H249.381V92.6534H249.661V97.476H253.025V92.6534H254.437V97.476H257.8V92.6534H259.482V97.476H261.164H261.445V92.6534H263.127V97.476H264.538H266.22H266.501V92.6534H267.912V97.476H271.276H271.557V87.8407H272.968V97.476H274.931V92.6534H276.613V97.476H279.706V92.6534H281.388V97.476H284.752V92.6534H285.032V97.476H289.808V92.6534H291.49V97.476H293.172V92.6534H294.854V97.476H296.816V92.6534H299.91H301.872V83.0181H303.284V97.476H306.928V92.6534H308.61V97.476H310.292V92.6534H311.974V97.476H315.338V83.0181H316.75V92.6534H317.03V97.476H320.394V83.0181H321.806V92.6534H322.086V97.476H325.45V92.6534H326.862V97.476H328.824V92.6534H330.236V97.476H338.936V92.6534H340.347V97.476H347.085V92.6534H350.449V97.476H359.15V92.6534H360.561V97.476H367.579V87.8407H368.991V97.476H377.411V92.6534H379.373V87.8307H381.055V83.008H382.467V92.6433H379.373V97.466H386.111V92.6433H387.523V97.466H389.205V87.8307H389.485V97.466H394.261V92.6433H397.625V97.466H399.307V92.6433H397.895V87.8206H400.989V92.6433H399.577V97.466H406.315V92.6433H407.727V97.466H411.091V92.6433H409.409V87.8206H409.689V82.9979H411.371V97.456H419.51V92.6333H418.099V87.8106H419.781V97.4459H424.837V92.6232H426.248V87.8005H426.529V92.6232H426.248V97.4459H448.414V92.6232H451.508V97.4459H458.526V92.6232H459.938V97.4459H477.058V92.6232H478.47V97.4459H523.943V92.6232H524.224V87.8005H525.635V97.4358H530.691V92.6132H530.971V97.4358H635.114H636.796H643.534H645.216H657.01H665.43V92.6132H665.71V97.4358H697.427V92.6132H699.109V97.4358H705.847V92.6132H704.165V87.7905H705.847V82.9678H709.211V78.1451H707.529L707.489 78.1853ZM406.035 20.3633H404.623V15.5407H406.035V20.3633ZM443.359 92.6333V87.8106H444.77V92.6333H443.359Z"
            fill="white" />
        <path d="M18.9498 10.728H17.2678V15.5507H18.9498V10.728Z" fill="white" />
        <path d="M17.2678 15.5507H15.5858V20.3734H17.2678V15.5507Z" fill="white" />
    </g>
    <defs>
        <filter id="filter0_d_2_70" x="0.221893" y="0.885223" width="720.989" height="115.591"
            filterUnits="userSpaceOnUse" color-interpolation-filters="sRGB">
            <feFlood flood-opacity="0" result="BackgroundImageFix" />
            <feColorMatrix in="SourceAlpha" type="matrix" values="0 0 0 0 0 0 0 0 0 0 0 0 0 0 0 0 0 0 127 0"
                result="hardAlpha" />
            <feOffset dy="7" />
            <feGaussianBlur stdDeviation="6" />
            <feColorMatrix type="matrix" values="0 0 0 0 0 0 0 0 0 0 0 0 0 0 0 0 0 0 0.35 0" />
            <feBlend mode="normal" in2="BackgroundImageFix" result="effect1_dropShadow_2_70" />
            <feBlend mode="normal" in="SourceGraphic" in2="effect1_dropShadow_2_70" result="shape" />
        </filter>
    </defs>
</svg>