<svg width="714" height="109" viewBox="0 0 714 109" fill="none" xmlns="http://www.w3.org/2000/svg">
<g filter="url(#filter0_d_99_32945)">
<path d="M703.528 77.2858V62.8278H701.846V58.0051H700.164V53.1824H695.108V58.0051H693.426V48.3697H691.744V43.5471H690.062V48.3697H688.38V33.9118H685.016V38.7344H683.334V29.0991H678.278V24.2764H679.96V19.4537H681.642V24.2764H685.006V19.4537H683.324V14.6311H681.642V9.80836H678.278V14.6311H674.914V9.80836H659.756V14.6311H658.074V9.80836H479.555V14.6311H478.143V9.80836H439.127V4.98569H437.445V9.80836H420.876V4.98569H419.194V9.80836H417.231V4.98569H415.549V9.80836H412.456V14.6311H410.774V9.80836H404.036H403.756V14.6311H402.344V9.80836H398.98V4.98569H397.298V9.80836H393.654V14.6311H392.242V9.80836H385.504V14.6311H385.224V4.99574H383.542V9.81842H381.86V4.99574H380.178V9.81842H366.982V4.99574H365.3V9.81842H363.618V4.99574H361.656V9.81842H345.087V4.99574H343.405V9.81842H333.022V4.99574H331.34V9.81842H322.921V4.99574H321.239V19.4537H319.827V9.81842H319.547V4.99574H317.865V9.81842H314.771V4.99574H313.089V9.81842H309.445V4.99574H307.763V9.81842H306.081V14.6411H304.669V5.00577H302.987V9.82847H302.707V19.4638H301.295V5.00577H299.333V9.82847H297.651V5.00577H295.969V9.82847H292.605V5.00577H289.511V9.82847H284.185V5.00577H281.091V9.82847H279.409V5.00577H277.447V9.82847H275.765V5.00577H272.401V9.82847H270.719V5.00577H269.037V9.82847H265.944V5.00577H264.262V9.82847H262.299V5.00577H258.935V9.82847H257.524V5.00577H254.16V9.82847H253.879V5.00577H250.515V9.82847H248.833V5.00577H240.694V9.82847H240.414V5.00577H237.05V9.82847H235.638V5.00577H232.274V9.82847H231.994V5.00577H181.474V9.82847H180.063V5.00577H148.065V9.82847H146.383V5.00577H63.8561H63.5758V9.82847H62.1641V5.00577H58.8002H58.5198V9.82847H57.1082V5.00577H45.3143H43.352V9.82847H41.9403V5.00577H39.978V9.82847H36.8844V5.00577H35.2024V9.82847H34.9221V14.6511H33.5104V5.01583H30.1465V9.8385H28.4645V5.01583H25.1006V9.8385H23.4186V5.01583H21.7366V9.8385H16.6807V33.9318H14.9987V29.1092H8.26077V38.7445H9.94274V33.9218H11.6247V48.3798H9.94274V62.8378H11.6247V72.4731H13.3067V67.6504H14.9887V72.4731H16.6706V77.2958H20.0346V67.6605H21.7166V82.1185H23.3986V67.6605H25.0805V62.8378H26.7625V72.4731H25.0805V77.2958H26.7625V86.9311H31.8185V91.7538H33.5004V86.9311H35.1824V91.7538H52.0222V86.9311H53.4339V91.7538H70.554V82.1185H71.9656V91.7538H99.1876V86.9311H100.599V91.7538H127.821V86.9311H129.233V91.7538H153.091V96.5765H154.773V91.7538H171.342V96.5765H173.024V91.7538H174.987V96.5765H176.669V91.7538H180.033V96.5765H181.715V91.7538H188.453V96.5765H190.134V91.7538H193.228V96.5765H195.19V91.7538H196.872V96.5765H200.236V91.7538H201.918V96.5765H203.6V91.7538H206.694V96.5765H208.656V91.7538H211.75V96.5765H213.712V91.7538H215.124V96.5765H218.488V91.7538H220.17V96.5765H222.132V91.7538H223.814V96.5765H227.178V91.7538H230.272V96.5765H231.954V91.7538H232.234V96.5765H235.598V91.7538H237.28V96.5765H240.374V91.7538H242.055V96.5765H245.419V91.7538H245.7V96.5765H249.064V91.7538H250.475V96.5765H253.839V91.7538H255.521V96.5765H257.203H257.484V91.7538H259.166V96.5765H260.577H262.259H262.54V91.7538H263.951V96.5765H267.315H267.596V86.9412H269.007V96.5765H270.969V91.7538H272.651V96.5765H275.745V91.7538H277.427V96.5765H280.791V91.7538H281.071V96.5765H285.847V91.7538H287.529V96.5765H289.211V91.7538H290.893V96.5765H292.855V91.7538H295.949H297.911V82.1185H299.323V96.5765H302.967V91.7538H304.649V96.5765H306.331V91.7538H308.013V96.5765H311.377V82.1185H312.789V91.7538H313.069V96.5765H316.433V82.1185H317.845V91.7538H318.125V96.5765H321.489V91.7538H322.9V96.5765H324.863V91.7538H326.274V96.5765H334.975V91.7538H336.386V96.5765H343.124V91.7538H346.488V96.5765H355.188V91.7538H356.6V96.5765H363.618V86.9412H365.03V96.5765H373.45V91.7538H375.412V86.9311H377.094V82.1085H378.506V91.7438H375.412V96.5664H382.15V91.7438H383.562V96.5664H385.244V86.9311H385.524V96.5664H390.3V91.7438H393.664V96.5664H395.346V91.7438H393.934V86.9211H397.028V91.7438H395.616V96.5664H402.354V91.7438H403.766V96.5664H407.129V91.7438H405.448V86.9211H405.728V82.0984H407.41V96.5564H415.549V91.7337H414.138V86.911H415.82V96.5464H420.876V91.7237H422.287V86.901H422.568V91.7237H422.287V96.5464H444.453V91.7237H447.547V96.5464H454.565V91.7237H455.977V96.5464H473.097V91.7237H474.509V96.5464H519.982V91.7237H520.262V86.901H521.674V96.5363H526.73V91.7136H527.01V96.5363H631.153H632.835H639.573H641.255H653.048H661.468V91.7136H661.749V96.5363H693.466V91.7136H695.148V96.5363H701.886V91.7136H700.204V86.8909H701.886V82.0683H705.25V77.2456H703.568L703.528 77.2858ZM402.064 19.4638H400.652V14.6411H402.064V19.4638ZM439.397 91.7337V86.911H440.809V91.7337H439.397Z" fill="#D9FF7A"/>
<path d="M14.9887 9.82849H13.3067V14.6512H14.9887V9.82849Z" fill="#D9FF7A"/>
<path d="M13.3067 14.6512H11.6247V19.4739H13.3067V14.6512Z" fill="#D9FF7A"/>
</g>
<defs>
<filter id="filter0_d_99_32945" x="0.260773" y="0.985687" width="712.989" height="107.591" filterUnits="userSpaceOnUse" color-interpolation-filters="sRGB">
<feFlood flood-opacity="0" result="BackgroundImageFix"/>
<feColorMatrix in="SourceAlpha" type="matrix" values="0 0 0 0 0 0 0 0 0 0 0 0 0 0 0 0 0 0 127 0" result="hardAlpha"/>
<feOffset dy="4"/>
<feGaussianBlur stdDeviation="4"/>
<feColorMatrix type="matrix" values="0 0 0 0 0 0 0 0 0 0 0 0 0 0 0 0 0 0 0.25 0"/>
<feBlend mode="normal" in2="BackgroundImageFix" result="effect1_dropShadow_99_32945"/>
<feBlend mode="normal" in="SourceGraphic" in2="effect1_dropShadow_99_32945" result="shape"/>
</filter>
</defs>
</svg>
