<svg width="219" height="53" viewBox="0 0 219 53" fill="none" xmlns="http://www.w3.org/2000/svg">
<g filter="url(#filter0_d_99_206)">
<path d="M213.874 35.471V28.4078H213.363V26.0567H212.853V23.7056H211.331V26.0567H210.82V21.3445H210.31V18.9935H209.799V21.3445H209.288V14.2813H208.277V16.6324H207.767V11.9202H206.245V9.56914H206.755V7.21809H207.266V9.56914H208.277V7.21809H207.767V4.86703H207.256V2.51598H206.245V4.86703H205.234V2.51598H200.658V4.86703H200.148V2.51598H146.294V4.86703H145.874V2.51598H134.11V0.164906H133.599V2.51598H128.604V0.164906H128.093V2.51598H127.502V0.164906H126.992V2.51598H126.061V4.86703H125.55V2.51598H123.518H123.438V4.86703H123.017V2.51598H122.006V0.164906H121.495V2.51598H120.394V4.86703H119.973V2.51598H117.941V4.86703H117.861V0.154864H117.35V2.50592H116.84V0.154864H116.329V2.50592H112.345V0.154864H111.834V2.50592H111.323V0.154864H110.733V2.50592H105.737V0.154864H105.226V2.50592H102.093V0.154864H101.582V2.50592H99.0389V0.154864H98.5283V7.21809H98.1078V2.50592H98.0277V0.154864H97.5171V2.50592H96.586V0.154864H96.0754V2.50592H94.9741V0.154864H94.4635V2.50592H93.9529V4.85697H93.5324V0.144823H93.0218V2.49588H92.9417V7.20804H92.5213V0.144823H91.9305V2.49588H91.4199V0.144823H90.9093V2.49588H89.8981V0.144823H88.967V2.49588H87.3552V0.144823H86.4241V2.49588H85.9135V0.144823H85.3228V2.49588H84.8122V0.144823H83.801V2.49588H83.2904V0.144823H82.7798V2.49588H81.8487V0.144823H81.3381V2.49588H80.7474V0.144823H79.7362V2.49588H79.3157V0.144823H78.3045V2.49588H78.2244V0.144823H77.2132V2.49588H76.7026V0.144823H74.2498V2.49588H74.1697V0.144823H73.1585V2.49588H72.738V0.144823H71.7268V2.49588H71.6467V0.144823H56.4088V2.49588H55.9883V0.144823H46.337V2.49588H45.8264V0.144823H20.9371H20.857V2.49588H20.4366V0.144823H19.4254H19.3452V2.49588H18.9248V0.144823H15.3705H14.7799V2.49588H14.3594V0.144823H13.7687V2.49588H12.8376V0.144823H12.327V2.49588H12.2469V4.84693H11.8264V0.134766H10.8152V2.48584H10.3046V0.134766H9.29345V2.48584H8.78284V0.134766H8.27223V2.48584H6.75042V14.2612H6.23981V11.9102H4.20746V16.6223H4.71807V14.2713H5.22868V21.3345H4.71807V28.3977H5.22868V33.1099H5.73923V30.7588H6.24984V33.1099H6.76045V35.4609H7.77164V30.7488H8.28225V37.812H8.79286V30.7488H9.30341V28.3977H9.81402V33.1099H9.30341V35.4609H9.81402V40.1731H11.3358V42.5242H11.8464V40.1731H12.357V42.5242H17.433V40.1731H17.8535V42.5242H23.0195V37.812H23.4401V42.5242H31.6497V40.1731H32.0702V42.5242H40.2798V40.1731H40.7004V42.5242H47.8988V44.8752H48.4094V42.5242H53.4053V44.8752H53.9158V42.5242H54.5066V44.8752H55.0172V42.5242H56.0284V44.8752H56.539V42.5242H58.5713V44.8752H59.0819V42.5242H60.013V44.8752H60.6037V42.5242H61.1143V44.8752H62.1255V42.5242H62.6361V44.8752H63.1467V42.5242H64.0778V44.8752H64.6685V42.5242H65.5996V44.8752H66.1903V42.5242H66.6108V44.8752H67.6219V42.5242H68.1326V44.8752H68.7233V42.5242H69.2339V44.8752H70.2451V42.5242H71.1762V44.8752H71.6867V42.5242H71.7668V44.8752H72.778V42.5242H73.2886V44.8752H74.2197V42.5242H74.7303V44.8752H75.7415V42.5242H75.8216V44.8752H76.8328V42.5242H77.2533V44.8752H78.2645V42.5242H78.7751V44.8752H79.2857H79.3658V42.5242H79.8764V44.8752H80.2969H80.8075H80.8875V42.5242H81.3081V44.8752H82.3193H82.3993V40.1631H82.8199V44.8752H83.4105V42.5242H83.9211V44.8752H84.8522V42.5242H85.3628V44.8752H86.374V42.5242H86.4541V44.8752H87.8958V42.5242H88.4064V44.8752H88.917V42.5242H89.4276V44.8752H90.0183V42.5242H90.9494H91.5401V37.812H91.9605V44.8752H93.0619V42.5242H93.5725V44.8752H94.0831V42.5242H94.5936V44.8752H95.6048V37.812H96.0254V42.5242H96.1054V44.8752H97.1166V37.812H97.5371V42.5242H97.6172V44.8752H98.6284V42.5242H99.0489V44.8752H99.6396V42.5242H100.06V44.8752H102.683V42.5242H103.104V44.8752H105.136V42.5242H106.147V44.8752H108.77V42.5242H109.191V44.8752H111.303V40.1631H111.724V44.8752H114.267V42.5242H114.858V40.1731H115.368V37.822H115.789V42.5342H114.858V44.8853H116.89V42.5342H117.31V44.8853H117.821V40.1731H117.901V44.8853H119.343V42.5342H120.354V44.8853H120.865V42.5342H120.444V40.1831H121.375V42.5342H120.955V44.8853H122.987V42.5342H123.408V44.8853H124.419V42.5342H123.908V40.1831H123.988V37.8321H124.499V44.8953H126.952V42.5443H126.531V40.1932H127.042V44.9054H128.564V42.5543H128.984V40.2032H129.064V42.5543H128.984V44.9054H135.672V42.5543H136.603V44.9054H138.715V42.5543H139.136V44.9054H144.302V42.5543H144.723V44.9054H158.439V42.5543H158.519V40.2032H158.939V44.9154H160.461V42.5644H160.541V44.9154H191.958H192.469H194.501H195.012H198.566H201.109V42.5644H201.189V44.9154H210.76V42.5644H211.271V44.9154H213.303V42.5644H212.793V40.2133H213.303V37.8622H214.314V35.5112H213.804L213.874 35.471ZM122.937 7.21809H122.516V4.86703H122.937V7.21809ZM134.2 42.5342V40.1831H134.621V42.5342H134.2Z" fill="#D9FF7A"/>
<path d="M6.16979 2.50586H5.65918V4.85691H6.16979V2.50586Z" fill="#D9FF7A"/>
<path d="M5.65917 4.85742H5.14856V7.20849H5.65917V4.85742Z" fill="#D9FF7A"/>
</g>
<defs>
<filter id="filter0_d_99_206" x="0.207458" y="0.134766" width="218.107" height="52.7803" filterUnits="userSpaceOnUse" color-interpolation-filters="sRGB">
<feFlood flood-opacity="0" result="BackgroundImageFix"/>
<feColorMatrix in="SourceAlpha" type="matrix" values="0 0 0 0 0 0 0 0 0 0 0 0 0 0 0 0 0 0 127 0" result="hardAlpha"/>
<feOffset dy="4"/>
<feGaussianBlur stdDeviation="2"/>
<feComposite in2="hardAlpha" operator="out"/>
<feColorMatrix type="matrix" values="0 0 0 0 0 0 0 0 0 0 0 0 0 0 0 0 0 0 0.15 0"/>
<feBlend mode="normal" in2="BackgroundImageFix" result="effect1_dropShadow_99_206"/>
<feBlend mode="normal" in="SourceGraphic" in2="effect1_dropShadow_99_206" result="shape"/>
</filter>
</defs>
</svg>
