<svg width="74" height="81" viewBox="0 0 74 81" fill="none" xmlns="http://www.w3.org/2000/svg">
<path opacity="0.82" d="M36.6781 80.3446C56.8831 80.3446 73.2625 63.9071 73.2625 43.6305C73.2625 23.3539 56.8831 6.9164 36.6781 6.9164C16.4731 6.9164 0.09375 23.3539 0.09375 43.6305C0.09375 63.9071 16.4731 80.3446 36.6781 80.3446Z" fill="#D0CFBB"/>
<path d="M36.6781 73.7728C56.8831 73.7728 73.2625 57.3353 73.2625 37.0587C73.2625 16.782 56.8831 0.344574 36.6781 0.344574C16.4731 0.344574 0.09375 16.782 0.09375 37.0587C0.09375 57.3353 16.4731 73.7728 36.6781 73.7728Z" fill="#FFFEEB"/>
<path d="M17.4512 24.5089C17.4512 22.5541 19.0267 20.9731 20.9745 20.9731H52.6843C54.6321 20.9731 56.2076 22.5541 56.2076 24.5089C56.2076 26.4636 54.6321 28.0447 52.6843 28.0447H20.9745C19.0267 28.0447 17.4512 26.4636 17.4512 24.5089Z" fill="#D1B3FF"/>
<path d="M17.4512 36.8842C17.4512 34.9294 19.0267 33.3484 20.9745 33.3484H52.6843C54.6321 33.3484 56.2076 34.9294 56.2076 36.8842C56.2076 38.8389 54.6321 40.42 52.6843 40.42H20.9745C19.0267 40.42 17.4512 38.8389 17.4512 36.8842Z" fill="#D1B3FF"/>
<path d="M20.9745 45.7309C19.0267 45.7309 17.4512 47.3119 17.4512 49.2667C17.4512 51.2214 19.0267 52.8025 20.9745 52.8025H52.6843C54.6321 52.8025 56.2076 51.2214 56.2076 49.2667C56.2076 47.3119 54.6321 45.7309 52.6843 45.7309H20.9745Z" fill="#D1B3FF"/>
</svg>
