<svg width="1702" height="468" viewBox="0 0 1702 468" fill="none" xmlns="http://www.w3.org/2000/svg">
<path d="M106.863 394.804C105.409 380.822 93.5931 369.92 79.2272 369.92C75.545 369.92 72.0357 370.653 68.8209 371.953C64.6656 358.127 51.852 348.049 36.6729 348.049C33.9711 348.049 31.3586 348.402 28.8411 349.005C20.6483 326.868 -0.648804 311.084 -25.6357 311.084C-56.9572 311.084 -82.4742 335.885 -83.6541 366.918C-96.044 370.431 -105.246 381.478 -106 394.802L106.863 394.804Z" fill="white"/>
<g opacity="0.2">
<path d="M55.6979 394.804C54.9322 387.432 48.7021 381.685 41.1268 381.685C39.185 381.685 37.3363 382.07 35.6396 382.756C33.4489 375.466 26.6925 370.153 18.6897 370.153C17.2647 370.153 15.8872 370.34 14.561 370.657C10.2404 358.985 -0.986713 350.663 -14.1613 350.663C-30.6761 350.663 -44.1281 363.739 -44.7513 380.1C-51.2835 381.952 -56.1361 387.776 -56.5332 394.802L55.6979 394.804Z" fill="#6B8DF2"/>
</g>
<path d="M358.883 147.693C356.3 138.075 347.547 130.986 337.114 130.986C336.512 130.986 335.921 131.03 335.33 131.075C334.382 114.895 320.998 102.056 304.581 102.056C300.408 102.056 296.433 102.894 292.804 104.397C284.327 89.2486 268.135 79 249.539 79C228.368 79 210.306 92.2829 203.21 110.967C199.518 109.406 195.46 108.541 191.198 108.541C177.047 108.541 165.153 118.083 161.522 131.075C160.943 131.032 160.361 130.986 159.768 130.986C149.337 130.986 140.582 138.075 138 147.693H358.883Z" fill="white"/>
<g opacity="0.2">
<path d="M303.111 147.693C301.583 142.933 296.41 139.424 290.242 139.424C289.887 139.424 289.537 139.445 289.188 139.468C288.627 131.459 280.716 125.104 271.01 125.104C268.544 125.104 266.194 125.518 264.049 126.263C259.037 118.763 249.466 113.69 238.473 113.69C225.958 113.69 215.281 120.266 211.086 129.513C208.903 128.74 206.505 128.313 203.986 128.313C195.62 128.313 188.588 133.036 186.443 139.468C186.099 139.445 185.757 139.424 185.408 139.424C179.24 139.424 174.067 142.933 172.539 147.693H303.111Z" fill="#6B8DF2"/>
</g>
<g opacity="0.2">
<path d="M216.916 108.237C216.747 108.237 216.574 108.214 216.403 108.165C215.392 107.884 214.801 106.835 215.085 105.824C216.47 100.863 219.578 96.5256 223.834 93.611C230.518 89.0358 239.209 88.5437 246.362 92.2335C246.799 91.8611 247.25 91.5172 247.709 91.2018C251.371 88.6957 255.79 87.7666 260.149 88.5817C264.509 89.3987 268.292 91.8649 270.798 95.5243C271.391 96.3907 271.169 97.5725 270.304 98.1653C269.436 98.7581 268.256 98.5358 267.663 97.6713C265.731 94.8479 262.814 92.946 259.45 92.3171C256.088 91.6882 252.678 92.4045 249.856 94.3387C249.207 94.7833 248.58 95.3096 247.989 95.9043C247.373 96.5256 246.412 96.6453 245.659 96.1931C239.562 92.5204 231.837 92.737 225.981 96.7479C222.46 99.1571 219.891 102.744 218.744 106.846C218.512 107.686 217.748 108.237 216.916 108.237Z" fill="#6B8DF2"/>
</g>
<g style="mix-blend-mode:hard-light">
<path d="M1632.31 78.6543C1632.46 78.2762 1632.64 77.9114 1632.79 77.5295C1632.88 77.9114 1633 78.2781 1633.11 78.6543H1874.76C1873.91 66.1257 1863.51 56.2172 1850.76 56.2172C1846.59 56.2172 1842.67 57.2793 1839.25 59.147C1834.98 43.5727 1820.76 32.1119 1803.83 32.1119C1797.14 32.1119 1790.88 33.9302 1785.47 37.0557C1778.31 15.5287 1758.02 0 1734.08 0C1710.96 0 1691.23 14.5027 1683.46 34.9049C1678.97 32.9764 1674.03 31.8991 1668.84 31.8991C1664.74 31.8991 1660.82 32.5888 1657.13 33.8143C1652.65 25.1237 1643.61 19.1691 1633.16 19.1691C1628.8 19.1691 1624.7 20.2274 1621.05 22.0628C1611.62 12.5932 1598.57 6.7317 1584.14 6.7317C1563.23 6.7317 1545.21 19.0513 1536.91 36.822C1534.51 36.2824 1532.02 35.9765 1529.45 35.9765C1513.4 35.9765 1499.99 47.0839 1496.38 62.0198C1493.78 60.876 1490.92 60.2319 1487.9 60.2319C1477.16 60.2319 1468.31 68.2708 1467 78.6562H1632.31V78.6543Z" fill="white"/>
<g opacity="0.2">
<path d="M1620.85 78.6543C1620.91 78.5042 1620.99 78.3598 1621.04 78.2097C1621.08 78.3598 1621.13 78.5061 1621.17 78.6543H1716.72C1716.38 73.701 1712.27 69.7832 1707.23 69.7832C1705.58 69.7832 1704.03 70.2031 1702.68 70.9403C1700.99 64.7824 1695.37 60.2509 1688.67 60.2509C1686.03 60.2509 1683.55 60.9691 1681.42 62.206C1678.58 53.694 1670.56 47.5532 1661.1 47.5532C1651.95 47.5532 1644.15 53.2874 1641.08 61.3548C1639.31 60.5929 1637.35 60.1654 1635.3 60.1654C1633.68 60.1654 1632.13 60.4371 1630.67 60.9235C1628.9 57.4864 1625.32 55.1323 1621.19 55.1323C1619.47 55.1323 1617.84 55.5503 1616.4 56.2761C1612.67 52.5312 1607.51 50.2151 1601.81 50.2151C1593.54 50.2151 1586.41 55.0867 1583.13 62.1129C1582.18 61.9001 1581.2 61.7785 1580.18 61.7785C1573.84 61.7785 1568.53 66.1713 1567.1 72.0765C1566.08 71.6243 1564.94 71.3697 1563.75 71.3697C1559.5 71.3697 1556.01 74.5484 1555.49 78.6543H1620.85Z" fill="#6B8DF2"/>
</g>
</g>
<g style="mix-blend-mode:hard-light">
<path d="M1781.33 467.088C1779.16 459.207 1772.02 453.385 1763.45 453.385C1760.13 453.385 1757.07 454.324 1754.37 455.844C1752.85 441.845 1741.37 430.868 1727.16 430.078C1727.18 429.519 1727.24 428.974 1727.24 428.412C1727.24 397.808 1702.43 373 1671.83 373C1641.23 373 1616.42 397.808 1616.42 428.412C1616.42 429.348 1616.51 430.26 1616.56 431.186C1613.96 430.422 1611.22 429.994 1608.37 429.994C1594.73 429.994 1583.33 439.418 1580.22 452.101C1578.1 451.263 1575.81 450.769 1573.39 450.769C1563.9 450.769 1556.15 457.901 1555 467.088H1781.33Z" fill="white"/>
<g opacity="0.2">
<path d="M1729.09 467.088C1727.83 462.522 1723.7 459.15 1718.73 459.15C1716.81 459.15 1715.03 459.693 1713.47 460.573C1712.59 452.462 1705.94 446.102 1697.71 445.645C1697.71 445.322 1697.75 445.004 1697.75 444.679C1697.75 426.949 1683.38 412.575 1665.65 412.575C1647.92 412.575 1633.55 426.949 1633.55 444.679C1633.55 445.223 1633.6 445.751 1633.63 446.287C1632.12 445.844 1630.53 445.597 1628.89 445.597C1620.99 445.597 1614.38 451.058 1612.58 458.405C1611.35 457.92 1610.02 457.634 1608.62 457.634C1603.12 457.634 1598.63 461.766 1597.96 467.088H1729.09Z" fill="#6B8DF2"/>
</g>
<g opacity="0.2">
<path d="M1709.89 412.478C1708.89 412.478 1708.05 411.695 1707.99 410.685C1707.64 404.361 1702.6 399.366 1696.26 399.064C1694.68 398.992 1693.11 399.216 1691.6 399.746C1691.1 399.921 1690.54 399.879 1690.07 399.625C1689.6 399.37 1689.26 398.931 1689.13 398.413C1687.51 391.911 1681.7 387.147 1675.01 386.83C1673.85 386.773 1672.64 386.864 1671.42 387.098C1670.39 387.294 1669.4 386.619 1669.2 385.588C1669 384.556 1669.68 383.562 1670.71 383.364C1672.22 383.074 1673.73 382.969 1675.19 383.034C1682.89 383.399 1689.65 388.476 1692.24 395.62C1693.62 395.319 1695.03 395.198 1696.44 395.266C1704.73 395.661 1711.32 402.197 1711.79 410.472C1711.85 411.519 1711.04 412.416 1709.99 412.474C1709.96 412.476 1709.93 412.478 1709.89 412.478Z" fill="#6B8DF2"/>
</g>
</g>
</svg>
