<svg width="88" height="96" viewBox="0 0 88 96" fill="none" xmlns="http://www.w3.org/2000/svg">
<path opacity="0.71" d="M42.2648 9.56532C19.0843 10.4126 0.982084 29.9576 1.83238 53.2202C2.68267 76.4829 22.1635 94.6542 45.3439 93.8069C68.5244 92.9596 86.6266 73.4146 85.7763 50.1519C84.926 26.8893 65.4452 8.71803 42.2648 9.56532Z" fill="#00C281"/>
<path d="M42.5561 1.53416C19.3757 2.38145 1.27347 21.9264 2.12376 45.1891C2.97406 68.4517 22.4548 86.623 45.6353 85.7757C68.8158 84.9284 86.918 65.3834 86.0677 42.1208C85.2174 18.8581 65.7366 0.686868 42.5561 1.53416Z" fill="#00FF91"/>
<path d="M33.7392 14.5211L34.9057 52.0273L28.8355 52.215L44.9762 78.3107L59.4242 51.2567L53.354 51.4443L52.1875 13.938L33.7392 14.5211Z" fill="#1D1D1D"/>
</svg>
