<svg width="101" height="100" viewBox="0 0 101 100" fill="none" xmlns="http://www.w3.org/2000/svg">
<path d="M48.561 33.9589H31.6675C23.5221 33.9589 16.9247 26.7647 16.9247 17.8813V0H0V47.9721H48.561V33.9485V33.9589Z" fill="white"/>
<path d="M52.2383 62.0895V89.8863C52.2383 95.4749 56.3318 100 61.3708 100H100.779V86.039H64.0305V85.4134V81.4097V80.8258H100.228V71.15H64.0305V70.5662V66.333V65.843H100.779V51.9862H61.3708C56.3214 51.9862 52.2383 56.5113 52.2383 62.0999V62.0895Z" fill="white"/>
<path d="M10.941 84.1935L14.3488 80.2836L36.5306 99.7706H40.3436C44.9047 99.7706 48.6034 95.3915 48.6034 89.9802V51.7464H19.98L37.7151 67.3131L34.3073 71.223L12.1255 51.736H8.31247C3.75143 51.736 0.0527344 56.1151 0.0527344 61.5264V99.7602H28.6761L10.941 84.1935Z" fill="white"/>
<path d="M73.7548 23.9495H78.9392V47.9825H100.622L94.1184 13.6378C93.4015 9.83214 91.282 6.4644 88.2067 4.02462C85.0379 1.50142 80.934 0.010437 76.4768 0.010437C67.6041 0.010437 60.3522 5.80754 58.8353 13.5648L52.082 47.9825H73.7651V23.9495H73.7548ZM73.7548 12.4596H78.9392V19.2994H73.7548V12.4596Z" fill="white"/>
</svg>
