<svg width="111" height="116" viewBox="0 0 111 116" fill="none" xmlns="http://www.w3.org/2000/svg">
<path d="M71.0928 101.079C92.8826 93.1257 104.076 68.9513 96.0942 47.0844C88.1124 25.2174 63.9778 13.9384 42.188 21.892C20.3983 29.8457 9.20481 54.0201 17.1867 75.8871C25.1685 97.754 49.3031 109.033 71.0928 101.079Z" fill="#B1CA72"/>
<path d="M68.3586 93.5887C90.1483 85.635 101.342 61.4606 93.36 39.5937C85.3781 17.7267 61.2435 6.44769 39.4538 14.4013C17.6641 22.355 6.47056 46.5294 14.4524 68.3963C22.4342 90.2633 46.5689 101.542 68.3586 93.5887Z" fill="#D9FF7A"/>
<path d="M67.4662 91.5741C88.0957 84.0439 98.6933 61.1566 91.1364 40.4539C83.5796 19.7512 60.7299 9.07271 40.1003 16.6029C19.4708 24.133 8.87325 47.0203 16.4301 67.723C23.987 88.4257 46.8366 99.1042 67.4662 91.5741Z" fill="#1A1A1A"/>
<path d="M68.052 93.1792C46.5764 101.018 22.6974 89.8587 14.8306 68.3069C6.9638 46.7551 18.0387 22.8367 39.5144 14.9977C60.99 7.15871 84.8691 18.3183 92.7359 39.87C100.603 61.4218 89.5277 85.3402 68.052 93.1792ZM40.6823 18.1973C20.9661 25.3941 10.8033 47.3423 18.0256 67.1285C25.2479 86.9146 47.1601 97.155 66.8763 89.9582C86.5925 82.7614 96.7553 60.8131 89.533 41.027C82.3107 21.2409 60.3985 11.0005 40.6823 18.1973Z" fill="#D9FF7A"/>
<path d="M65.6186 86.5125C83.4626 79.9991 92.6292 60.2022 86.0927 42.2949C79.5562 24.3877 59.7919 15.151 41.9479 21.6644C24.1038 28.1778 14.9373 47.9747 21.4738 65.882C28.0103 83.7893 47.7746 93.0259 65.6186 86.5125Z" fill="#D9FF7A"/>
<path d="M66.2045 88.1177C47.5119 94.9408 26.7216 85.2247 19.8743 66.4658C13.027 47.707 22.6587 26.8863 41.3619 20.0593C60.0652 13.2323 80.8448 22.9523 87.6921 41.7111C94.5395 60.4699 84.897 81.2945 66.2045 88.1177ZM42.5337 23.2696C25.6006 29.4505 16.8704 48.305 23.0732 65.2982C29.276 82.2913 48.0995 91.0883 65.0326 84.9074C81.9658 78.7265 90.696 59.8719 84.4932 42.8788C78.2904 25.8856 59.4669 17.0887 42.5337 23.2696Z" fill="#1A1A1A"/>
<path d="M48.2619 80.0785L33.497 39.6287L42.2301 36.441L56.995 76.8908L48.2619 80.0785ZM50.2418 66.3681L47.7341 59.4981L56.9578 56.1313C59.8902 55.0609 61.8786 53.6558 62.9194 51.9056C63.9602 50.1553 63.9802 47.8927 62.9686 45.1211C62.0584 42.6278 60.6885 40.9935 58.8627 40.229C57.0369 39.4645 54.6806 39.5969 51.7802 40.6556L42.13 44.1781L39.6457 37.3722L49.5411 33.7602C52.1429 32.8105 54.6128 32.2607 56.9361 32.1039C59.2594 31.9471 61.3789 32.1921 63.2947 32.8389C65.2105 33.4857 66.8915 34.5819 68.3417 36.1383C69.7813 37.6987 70.9571 39.6949 71.8516 42.1454C73 45.2915 73.2503 48.1953 72.6172 50.8639C71.9696 53.5256 70.4587 55.9083 68.0595 58.0089C65.6602 60.1094 62.3939 61.9202 58.246 63.4343L50.2486 66.3535L50.2418 66.3681Z" fill="#1A1A1A"/>
</svg>
