<svg width="52" height="49" viewBox="0 0 52 49" fill="none" xmlns="http://www.w3.org/2000/svg">
<path d="M2.65622 19.8403L10.1888 15.2885C10.2067 16.3791 10.5575 17.4381 11.1942 18.3236C12.0054 19.4536 13.2224 20.2257 14.5903 20.4781C15.9582 20.7306 17.3706 20.4438 18.5317 19.6778C19.6928 18.9118 20.5123 17.7262 20.8186 16.3694C21.1248 15.0125 20.8939 13.5898 20.1744 12.3994C19.6854 11.5901 18.9906 10.9248 18.1609 10.4712L25.6935 5.91945C26.3045 5.55024 27.0371 5.43888 27.7302 5.60984C28.4233 5.78081 29.0201 6.22011 29.3893 6.83109L33.9411 14.3637C34.4641 13.4069 35.2668 12.6326 36.2418 12.1444C37.4855 11.52 38.9227 11.4015 40.2519 11.8137C41.5811 12.226 42.699 13.137 43.3711 14.3556C44.0432 15.5742 44.2172 17.0057 43.8568 18.3498C43.4963 19.694 42.6293 20.8463 41.4376 21.5651C40.6283 22.0542 39.7039 22.3201 38.7584 22.3358L43.3102 29.8684C43.6794 30.4794 43.7907 31.212 43.6198 31.9051C43.4488 32.5982 43.0095 33.195 42.3985 33.5642L34.8659 38.116C34.848 37.0254 34.4972 35.9664 33.8605 35.0808C33.0494 33.9509 31.8323 33.1788 30.4644 32.9264C29.0966 32.6739 27.6841 32.9607 26.523 33.7267C25.3619 34.4926 24.5424 35.6783 24.2362 37.0351C23.9299 38.3919 24.1608 39.8147 24.8803 41.0051C25.3694 41.8144 26.0641 42.4797 26.8938 42.9333L19.3612 47.485C18.7502 47.8542 18.0176 47.9656 17.3245 47.7946C16.6314 47.6237 16.0346 47.1844 15.6654 46.5734L1.74457 23.5361C1.37537 22.9251 1.264 22.1925 1.43496 21.4994C1.60593 20.8063 2.04523 20.2095 2.65622 19.8403Z" fill="white"/>
</svg>
