<svg width="89" height="89" viewBox="0 0 89 89" fill="none" xmlns="http://www.w3.org/2000/svg">
<path d="M10.6562 45.8403L18.1888 41.2885C18.2067 42.3791 18.5575 43.4381 19.1942 44.3236C20.0054 45.4536 21.2224 46.2257 22.5903 46.4781C23.9582 46.7306 25.3706 46.4438 26.5317 45.6778C27.6928 44.9118 28.5123 43.7262 28.8186 42.3694C29.1248 41.0125 28.8939 39.5898 28.1744 38.3994C27.6854 37.5901 26.9906 36.9248 26.1609 36.4712L33.6935 31.9194C34.3045 31.5502 35.0371 31.4389 35.7302 31.6098C36.4233 31.7808 37.0201 32.2201 37.3893 32.8311L41.9411 40.3637C42.4641 39.4069 43.2668 38.6326 44.2418 38.1444C45.4855 37.52 46.9227 37.4015 48.2519 37.8137C49.5811 38.226 50.699 39.137 51.3711 40.3556C52.0432 41.5742 52.2172 43.0057 51.8568 44.3498C51.4963 45.694 50.6293 46.8463 49.4376 47.5651C48.6283 48.0542 47.7039 48.3201 46.7584 48.3358L51.3102 55.8684C51.6794 56.4794 51.7907 57.212 51.6198 57.9051C51.4488 58.5982 51.0095 59.195 50.3985 59.5642L42.8659 64.116C42.848 63.0254 42.4972 61.9664 41.8605 61.0808C41.0494 59.9509 39.8323 59.1788 38.4644 58.9264C37.0966 58.6739 35.6841 58.9607 34.523 59.7267C33.3619 60.4926 32.5424 61.6783 32.2362 63.0351C31.9299 64.3919 32.1608 65.8147 32.8803 67.0051C33.3694 67.8144 34.0641 68.4797 34.8938 68.9333L27.3612 73.485C26.7502 73.8542 26.0176 73.9656 25.3245 73.7946C24.6314 73.6237 24.0346 73.1844 23.6654 72.5734L9.74457 49.5361C9.37537 48.9251 9.264 48.1925 9.43496 47.4994C9.60593 46.8063 10.0452 46.2095 10.6562 45.8403Z" fill="white"/>
</svg>
