<svg width="85" height="93" viewBox="0 0 85 93" fill="none" xmlns="http://www.w3.org/2000/svg">
<path opacity="0.82" d="M42.0435 92.3675C65.2635 92.3675 84.0871 73.4773 84.0871 50.1749C84.0871 26.8726 65.2635 7.98236 42.0435 7.98236C18.8235 7.98236 0 26.8726 0 50.1749C0 73.4773 18.8235 92.3675 42.0435 92.3675Z" fill="#B28FFF"/>
<path d="M42.0435 84.3852C65.2635 84.3852 84.0871 65.4949 84.0871 42.1926C84.0871 18.8903 65.2635 0 42.0435 0C18.8235 0 0 18.8903 0 42.1926C0 65.4949 18.8235 84.3852 42.0435 84.3852Z" fill="#D1B3FF"/>
<path d="M48.2788 46.912C49.1391 45.1285 49.5675 43.2381 49.5465 41.3312L49.5293 40.1453C49.5143 38.6818 46.0284 37.5253 41.7511 37.5752C37.4737 37.6252 34.0259 38.8512 34.0409 40.3147L34.0561 41.1401C34.0819 43.274 34.6756 45.3845 35.8112 47.3238L36.3264 48.2089C37.3531 49.9684 39.5951 51.1002 42.0572 51.0742C44.6273 51.0478 46.9103 49.7824 47.8168 47.8869L48.2824 46.9229L48.2788 46.912Z" fill="#231F20" stroke="#D1B3FF" strokeMiterlimit="10"/>
<path d="M70.4534 29.2305C68.8266 25.5192 66.5368 22.1886 63.6278 19.3322C60.7224 16.4866 57.3422 14.259 53.6063 12.7175C49.7335 11.1259 45.6278 10.3354 41.3971 10.3816C37.1772 10.4241 33.0948 11.299 29.2611 12.9805C25.5638 14.6038 22.2474 16.8929 19.4053 19.804C16.574 22.7115 14.3599 26.0964 12.8307 29.8395C11.2519 33.7198 10.4725 37.8355 10.5276 42.0782C10.5791 46.3101 11.4603 50.4058 13.1453 54.2539C14.772 57.9652 17.0618 61.2958 19.9708 64.1522C22.8762 66.9977 26.2564 69.2254 29.9923 70.7669C33.8651 72.3585 37.9709 73.149 42.2016 73.1028C46.4215 73.0602 50.5038 72.1854 54.3375 70.5039C58.0349 68.8805 61.3512 66.5915 64.1933 63.6804C67.0246 60.7729 69.2387 57.388 70.7679 53.6448C72.3467 49.7645 73.1261 45.6489 73.071 41.4062C73.0158 37.1635 72.1384 33.0785 70.4534 29.2305ZM17.0828 31.0982C17.3063 30.5531 17.674 30.0797 18.1286 29.7214C19.3815 28.744 20.8792 27.1782 22.2996 25.2775C22.892 24.4753 23.4377 23.6769 23.901 22.9183C25.1872 20.7981 27.0112 19.062 29.1977 17.9013C32.8574 15.9536 37.0248 14.8334 41.4459 14.7829C45.425 14.7376 49.2218 15.5723 52.6521 17.0968C55.0555 18.174 57.0995 19.9266 58.5707 22.1136C58.9875 22.743 59.4582 23.3904 59.965 24.0376C61.648 26.177 63.4221 27.8762 64.7928 28.7729C65.3447 29.128 65.7896 29.6277 66.0732 30.218C66.1495 30.3727 66.215 30.5311 66.2913 30.6858C67.3354 32.9931 65.2891 35.4908 62.8273 34.9148C60.1818 34.2925 57.5732 33.8143 55.0227 33.473C54.4184 33.3884 53.8317 33.2498 53.2664 33.0678C53.1584 33.0321 53.0539 33.0072 52.9459 32.9715L52.0098 32.6861C50.1412 32.1262 45.9983 31.7936 41.4334 31.8445C36.8684 31.8954 32.4171 32.3533 30.6771 32.9898L29.791 33.3135C29.1525 33.5535 28.4812 33.7323 27.8096 33.8391C25.0189 34.2771 22.5917 34.7968 20.6064 35.2755C18.1581 35.8746 16.0887 33.4085 17.0791 31.0874L17.0828 31.0982ZM33.3888 67.3313C25.5599 64.718 19.2903 58.5921 16.5021 50.8075C15.8416 48.9604 17.6582 47.2027 19.4738 47.9249C30.2627 52.1976 34.665 59.328 36.4596 64.1743C37.1709 66.1005 35.337 67.9846 33.3995 67.3276L33.3888 67.3313ZM35.7433 48.611L35.1737 47.636C33.9328 45.4916 33.2661 43.1649 33.2354 40.8039L33.2269 39.8919C33.2074 38.2734 37.0176 36.9128 41.7407 36.8686C46.4639 36.8244 50.3098 38.088 50.3293 39.7065L50.3507 41.0115C50.38 43.1202 49.8988 45.2089 48.9567 47.1766L48.4412 48.2417C47.4352 50.3394 44.9085 51.7355 42.0761 51.7663C39.3515 51.7968 36.8717 50.5648 35.7433 48.611ZM67.4196 49.986C64.8178 58.1486 58.4255 64.6436 50.2945 67.3448C48.3892 67.989 46.5712 66.16 47.208 64.2474C50.4446 54.4859 59.1093 49.4254 64.349 47.1842C66.1423 46.4214 68.0135 48.124 67.4088 49.9897L67.4196 49.986Z" fill="#231F20" stroke="#D1B3FF" strokeMiterlimit="10"/>
</svg>
