<svg width="114" height="118" viewBox="0 0 114 118" fill="none" xmlns="http://www.w3.org/2000/svg">
<path d="M38.7456 101.333C60.1443 110.285 84.7746 100.134 93.759 78.6596C102.743 57.1851 92.6796 32.519 71.2809 23.5664C49.8822 14.6138 25.2519 24.7648 16.2675 46.2393C7.28318 67.7139 17.347 92.3799 38.7456 101.333Z" fill="#C39D3C"/>
<path d="M41.8233 93.9763C63.222 102.929 87.8523 92.7779 96.8366 71.3034C105.821 49.8289 95.7572 25.1628 74.3585 16.2102C52.9598 7.25753 28.3295 17.4086 19.3452 38.8831C10.3608 60.3576 20.4246 85.0237 41.8233 93.9763Z" fill="#FFC229"/>
<path d="M62.0343 51.6677L62.3275 51.7904C61.9535 52.4489 61.4514 53.3256 61.5515 53.1452L61.3449 53.6391L60.9635 54.4919L49.0781 81.7241L65.9953 89.1105L77.8807 61.8783L78.1621 61.2059C78.4024 60.8372 78.6027 60.4763 78.8028 60.1155C79.0382 59.6706 79.2629 59.2216 79.4817 58.7574C79.9045 57.8353 80.2776 56.8553 80.6054 55.807C80.9167 54.7394 81.1827 53.6035 81.3285 52.3432C81.4639 51.0786 81.4746 49.7 81.2925 48.2531C81.2332 47.8949 81.1887 47.5305 81.1085 47.1635C81.0282 46.7965 80.9479 46.4297 80.8467 46.054C80.6251 45.3191 80.378 44.586 80.0462 43.8792L79.7978 43.3553C79.71 43.1827 79.6223 43.0101 79.5196 42.8437C79.3353 42.5196 79.1388 42.1659 78.9352 41.8584C78.7211 41.5466 78.5071 41.2347 78.2781 40.929C78.1711 40.7731 78.0553 40.6382 77.9394 40.5033L77.5963 40.0882C77.3542 39.814 77.1121 39.5397 76.8629 39.3119C76.6285 39.078 76.3732 38.8353 76.1135 38.6032C75.8643 38.3754 75.6228 38.1879 75.3647 37.9812L74.988 37.6756L74.7902 37.531L74.6088 37.4057C74.3629 37.2287 74.1126 37.0623 73.8623 36.8959C73.735 36.8179 73.6016 36.725 73.4847 36.6514L73.1192 36.4367C72.6281 36.1695 72.1204 35.8831 71.6684 35.6693L70.959 35.3355L70.781 35.261L70.5192 35.1515L70.3098 35.0638L69.4467 34.7151L69.0174 34.5355L68.8079 34.4478C68.7346 34.4172 68.6718 34.3909 68.5881 34.3559L67.5905 33.9756L66.593 33.5953L66.1024 33.4148L65.6433 33.2475L63.8027 32.5883L63.3392 32.4315L63.0686 32.343L62.6618 32.1976L61.0218 31.6474L62.9612 25.8646C61.658 26.0973 60.3669 26.3597 59.0741 26.5968L55.2428 27.4018C52.7026 27.9443 50.1788 28.5063 47.6716 29.0873C42.6572 30.2494 37.6821 31.465 32.7251 32.7252C36.2762 36.3842 39.7739 40.0824 43.2164 43.7948C44.9272 45.6466 46.6336 47.509 48.3103 49.3836L50.7918 52.1875C51.6026 53.1318 52.4073 54.0611 53.1971 54.9966L55.1365 49.2142L56.657 49.7267L57.0472 49.8529L57.2881 49.9537L57.7141 50.0824L59.3663 50.6627L59.7835 50.8126L60.15 50.9659L60.8901 51.2261L61.6259 51.4968C61.6783 51.5187 61.7516 51.5494 61.8249 51.5801L62.0447 51.6721L62.0343 51.6677Z" fill="#1D1D1D"/>
</svg>
