<svg width="543" height="71" viewBox="0 0 543 71" fill="none" xmlns="http://www.w3.org/2000/svg">
<path d="M540.731 55.6139V44.509H539.422V40.805H538.112V37.1011H534.183V40.805H532.873V33.4041H531.564V29.7002H530.254V33.4041H528.944V22.2993H526.325V26.0032H525.015V18.6023H521.086V14.8984H522.396V11.1944H523.706V14.8984H526.325V11.1944H525.015V7.49043H523.706V3.78648H521.086V7.49043H518.467V3.78648H506.68V7.49043H505.37V3.78648H366.525V7.49043H365.432V3.78648H335.093V0.0825195H333.783V3.78648H320.896V0.0825195H319.587V3.78648H318.06V0.0825195H316.75V3.78648H314.348V7.49043H313.038V3.78648H307.8H307.583V7.49043H306.49V3.78648H303.871V0.0825195H302.561V3.78648H299.725V7.49043H298.632V3.78648H293.393V7.49043H293.176V0.0895333H291.867V3.79351H290.557V0.0895333H289.247V3.79351H278.987V0.0895333H277.677V3.79351H276.368V0.0895333H274.841V3.79351H261.954V0.0895333H260.645V3.79351H252.57V0.0895333H251.26V3.79351H244.712V0.0895333H243.402V11.1944H242.309V3.79351H242.092V0.0895333H240.783V3.79351H238.38V0.0895333H237.071V3.79351H234.234V0.0895333H232.925V3.79351H231.615V7.49747H230.522V0.0965686H229.213V3.80053H228.996V11.2014H227.903V0.0965686H226.376V3.80053H225.067V0.0965686H223.757V3.80053H221.138V0.0965686H218.735V3.80053H214.589V0.0965686H212.187V3.80053H210.877V0.0965686H209.351V3.80053H208.041V0.0965686H205.422V3.80053H204.112V0.0965686H202.802V3.80053H200.4V0.0965686H199.09V3.80053H197.564V0.0965686H194.944V3.80053H193.852V0.0965686H191.232V3.80053H191.015V0.0965686H188.396V3.80053H187.086V0.0965686H180.755V3.80053H180.538V0.0965686H177.919V3.80053H176.826V0.0965686H174.207V3.80053H173.99V0.0965686H134.693V3.80053H133.6V0.0965686H108.709V3.80053H107.4V0.0965686H43.219H43.0019V3.80053H41.9093V0.0965686H39.29H39.0729V3.80053H37.9803V0.0965686H28.8127H27.2859V3.80053H26.1933V0.0965686H24.6666V3.80053H22.2643V0.0965686H20.9547V3.80053H20.7376V7.5045H19.645V0.103604H17.0257V3.80756H15.716V0.103604H13.0967V3.80756H11.787V0.103604H10.4773V3.80756H6.54833V22.3133H5.23866V18.6094H0V26.0103H1.30966V22.3063H2.61933V33.4112H1.30966V44.516H2.61933V51.9169H3.929V48.213H5.23866V51.9169H6.54833V55.6209H9.16767V48.22H10.4773V59.3248H11.787V48.22H13.0967V44.516H14.4063V51.9169H13.0967V55.6209H14.4063V63.0218H18.3353V66.7257H19.645V63.0218H20.9547V66.7257H34.0513V63.0218H35.1439V66.7257H48.4577V59.3248H49.5502V66.7257H70.722V63.0218H71.8146V66.7257H92.9864V63.0218H94.0789V66.7257H112.631V70.4297H113.941V66.7257H126.828V70.4297H128.137V66.7257H129.664V70.4297H130.974V66.7257H133.593V70.4297H134.903V66.7257H140.141V70.4297H141.451V66.7257H143.853V70.4297H145.38V66.7257H146.69V70.4297H149.309V66.7257H150.619V70.4297H151.928V66.7257H154.331V70.4297H155.857V66.7257H158.26V70.4297H159.786V66.7257H160.879V70.4297H163.498V66.7257H164.808V70.4297H166.335V66.7257H167.644V70.4297H170.264V66.7257H172.666V70.4297H173.976V66.7257H174.193V70.4297H176.812V66.7257H178.122V70.4297H180.524V66.7257H181.834V70.4297H184.453V66.7257H184.67V70.4297H187.289V66.7257H188.382V70.4297H191.001V66.7257H192.311V70.4297H193.621H193.838V66.7257H195.147V70.4297H196.24H197.55H197.767V66.7257H198.859V70.4297H201.479H201.696V63.0288H202.788V70.4297H204.315V66.7257H205.625V70.4297H208.027V66.7257H209.337V70.4297H211.956V66.7257H212.173V70.4297H215.885V66.7257H217.195V70.4297H218.504V66.7257H219.814V70.4297H221.341V66.7257H223.743H225.27V59.3248H226.362V70.4297H229.199V66.7257H230.508V70.4297H231.818V66.7257H233.128V70.4297H235.747V59.3248H236.84V66.7257H237.057V70.4297H239.676V59.3248H240.769V66.7257H240.986V70.4297H243.605V66.7257H244.698V70.4297H246.224V66.7257H247.317V70.4297H254.082V66.7257H255.175V70.4297H260.414V66.7257H263.033V70.4297H269.798V66.7257H270.891V70.4297H276.347V63.0288H277.439V70.4297H283.988V66.7257H285.514V63.0218H286.824V59.3178H287.917V66.7187H285.514V70.4227H290.753V66.7187H291.846V70.4227H293.155V63.0218H293.372V70.4227H297.084V66.7187H299.704V70.4227H301.013V66.7187H299.921V63.0148H302.323V66.7187H301.23V70.4227H306.469V66.7187H307.562V70.4227H310.181V66.7187H308.871V63.0148H309.088V59.3108H310.398V70.4157H316.729V66.7117H315.637V63.0077H316.946V70.4086H320.875V66.7047H321.968V63.0007H322.185V66.7047H321.968V70.4086H339.211V66.7047H341.613V70.4086H347.069V66.7047H348.161V70.4086H361.475V66.7047H362.568V70.4086H397.936V66.7047H398.153V63.0007H399.245V70.4016H403.174V66.6977H403.391V70.4016H484.388H485.697H490.936H492.246H501.413H507.962V66.6977H508.179V70.4016H532.852V66.6977H534.162V70.4016H539.401V66.6977H538.091V62.9937H539.401V59.2897H542.02V55.5858H540.71L540.731 55.6139ZM306.259 11.2014H305.166V7.49747H306.259V11.2014ZM335.296 66.7187V63.0148H336.388V66.7187H335.296Z" fill="#D9FF7A"/>
<path d="M5.20371 3.79346H3.89404V7.49741H5.20371V3.79346Z" fill="#D9FF7A"/>
<path d="M3.89414 7.49805H2.58447V11.202H3.89414V7.49805Z" fill="#D9FF7A"/>
<path d="M41.0494 51V44.712L56.8894 25.608V25.176H41.3854V19.32H64.6654V25.992L49.0654 44.76V45.144H65.1454V51H41.0494ZM69.5865 51V19.32H93.2025V24.984H76.4985V32.424H90.9465V37.56H76.4985V45.288H93.2505V51H69.5865ZM97.9459 51V19.32H110.714C118.202 19.32 123.818 22.296 123.818 28.68C123.818 32.952 121.13 35.928 115.226 36.6V37.176C120.458 37.704 122.042 40.2 123.194 44.472L125.018 51H117.386L115.994 45C115.178 41.256 113.45 39.96 109.802 39.96H104.858V51H97.9459ZM104.858 34.68H109.13C111.77 34.68 116.666 34.68 116.666 29.784C116.666 24.744 111.77 24.744 110.234 24.744H104.858V34.68ZM142.751 51.672C133.631 51.672 128.063 45.816 128.063 35.304C128.063 24.072 134.303 18.648 142.991 18.648C151.919 18.648 157.631 24.408 157.631 35.16C157.631 45.96 151.775 51.672 142.751 51.672ZM142.943 46.056C146.543 46.056 150.527 44.04 150.527 35.496C150.527 27.96 147.455 24.36 142.799 24.36C139.487 24.36 135.167 26.28 135.167 35.208C135.167 43.56 138.959 46.056 142.943 46.056ZM173.321 51V19.32H186.089C193.577 19.32 199.193 22.296 199.193 28.68C199.193 32.952 196.505 35.928 190.601 36.6V37.176C195.833 37.704 197.417 40.2 198.569 44.472L200.393 51H192.761L191.369 45C190.553 41.256 188.825 39.96 185.177 39.96H180.233V51H173.321ZM180.233 34.68H184.505C187.145 34.68 192.041 34.68 192.041 29.784C192.041 24.744 187.145 24.744 185.609 24.744H180.233V34.68ZM215.442 51.672C208.002 51.672 202.77 47.208 202.77 38.376C202.77 29.4 208.146 25.128 215.49 25.128C222.93 25.128 228.162 29.544 228.162 38.424C228.162 47.496 222.642 51.672 215.442 51.672ZM215.682 46.536C218.754 46.536 221.202 44.376 221.202 38.808C221.202 32.952 218.562 30.504 215.25 30.504C212.226 30.504 209.73 32.664 209.73 38.28C209.73 44.088 212.37 46.536 215.682 46.536ZM238.474 51.672C234.346 51.672 231.13 49.368 231.13 44.664C231.13 37.992 237.802 37.128 242.602 36.408C246.394 35.832 247.594 35.544 247.594 33.816C247.594 31.896 246.154 30.504 243.514 30.504C240.97 30.504 238.474 31.8 238.042 35.016L231.898 33.672C232.858 27.528 237.85 25.128 243.61 25.128C251.194 25.128 254.362 29.16 254.362 36.408V40.776C254.362 44.136 254.506 47.64 254.746 51H248.65C248.458 49.08 248.362 46.872 248.314 44.472H247.642C246.586 48.504 243.226 51.672 238.474 51.672ZM241.306 46.632C243.802 46.632 246.826 44.856 247.69 40.968L247.642 38.76C244.186 40.344 237.898 39.48 237.898 43.56C237.898 45.48 239.29 46.632 241.306 46.632ZM268.73 51.672C262.682 51.672 258.554 46.824 258.554 38.28C258.554 30.312 262.106 25.176 268.442 25.176C273.242 25.176 275.786 28.008 276.938 33.48H277.802C277.226 30.264 276.746 27.144 276.746 24.888V17.016H283.658V51H277.802L277.85 43.464H277.082C275.978 48.984 273.242 51.672 268.73 51.672ZM271.034 46.056C274.778 46.056 276.746 42.264 276.746 38.76V38.088C276.746 34.584 274.586 30.84 270.986 30.84C267.578 30.84 265.706 34.056 265.706 38.472C265.706 42.936 267.722 46.056 271.034 46.056ZM300.071 51V19.32H322.871V25.176H306.983V33.528H321.095V39.192H306.983V51H300.071ZM331.286 51.672C327.158 51.672 323.942 49.368 323.942 44.664C323.942 37.992 330.614 37.128 335.414 36.408C339.206 35.832 340.406 35.544 340.406 33.816C340.406 31.896 338.966 30.504 336.326 30.504C333.782 30.504 331.286 31.8 330.854 35.016L324.71 33.672C325.67 27.528 330.662 25.128 336.422 25.128C344.006 25.128 347.174 29.16 347.174 36.408V40.776C347.174 44.136 347.318 47.64 347.558 51H341.462C341.27 49.08 341.174 46.872 341.126 44.472H340.454C339.398 48.504 336.038 51.672 331.286 51.672ZM334.118 46.632C336.614 46.632 339.638 44.856 340.502 40.968L340.454 38.76C336.998 40.344 330.71 39.48 330.71 43.56C330.71 45.48 332.102 46.632 334.118 46.632ZM361.786 51.576C355.738 51.576 353.53 48.072 353.53 42.36V31.224H350.122L350.218 26.136H351.994C354.49 25.992 355.498 25.08 355.786 22.728L356.218 20.136H360.202V25.8H366.442V31.416H360.202V41.976C360.202 44.568 361.642 45.336 363.466 45.336C364.522 45.336 365.722 45.048 366.586 44.472V50.856C364.618 51.432 363.034 51.576 361.786 51.576ZM376.849 51.672C372.721 51.672 369.505 49.368 369.505 44.664C369.505 37.992 376.177 37.128 380.977 36.408C384.769 35.832 385.969 35.544 385.969 33.816C385.969 31.896 384.529 30.504 381.889 30.504C379.345 30.504 376.849 31.8 376.417 35.016L370.273 33.672C371.233 27.528 376.225 25.128 381.985 25.128C389.569 25.128 392.737 29.16 392.737 36.408V40.776C392.737 44.136 392.881 47.64 393.121 51H387.025C386.833 49.08 386.737 46.872 386.689 44.472H386.017C384.961 48.504 381.601 51.672 376.849 51.672ZM379.681 46.632C382.177 46.632 385.201 44.856 386.065 40.968L386.017 38.76C382.561 40.344 376.273 39.48 376.273 43.56C376.273 45.48 377.665 46.632 379.681 46.632ZM397.939 51V17.016H404.755V51H397.939ZM413.676 22.584C410.94 22.584 409.5 21.432 409.5 19.272C409.5 17.064 410.94 15.912 413.676 15.912C416.412 15.912 417.852 17.112 417.852 19.272C417.852 21.384 416.364 22.584 413.676 22.584ZM410.22 51V25.8H417.132V51H410.22ZM432.005 51.576C425.957 51.576 423.749 48.072 423.749 42.36V31.224H420.341L420.437 26.136H422.213C424.709 25.992 425.717 25.08 426.005 22.728L426.437 20.136H430.421V25.8H436.661V31.416H430.421V41.976C430.421 44.568 431.861 45.336 433.685 45.336C434.741 45.336 435.941 45.048 436.805 44.472V50.856C434.837 51.432 433.253 51.576 432.005 51.576ZM444.426 22.584C441.69 22.584 440.25 21.432 440.25 19.272C440.25 17.064 441.69 15.912 444.426 15.912C447.162 15.912 448.602 17.112 448.602 19.272C448.602 21.384 447.114 22.584 444.426 22.584ZM440.97 51V25.8H447.882V51H440.97ZM465.011 51.672C456.467 51.672 452.099 46.584 452.099 38.856C452.099 31.08 456.419 25.128 464.531 25.128C472.451 25.128 476.675 30.648 475.859 39.576L458.771 39.72C459.107 44.424 461.411 46.536 465.059 46.536C468.611 46.536 469.811 44.472 470.099 42.264L476.243 43.272C475.667 47.832 472.451 51.672 465.011 51.672ZM464.579 30.552C461.603 30.552 459.635 32.52 459.011 35.928L469.571 35.784C469.379 32.28 467.363 30.552 464.579 30.552ZM490.852 51.672C484.132 51.672 479.62 49.032 479.236 43.848L484.804 42.264C485.092 44.856 487.348 46.632 491.236 46.632C493.972 46.632 495.7 45.72 495.7 44.088C495.7 42.36 493.876 41.832 490.132 41.016C484.852 39.864 479.62 38.568 479.62 33C479.62 28.2 483.652 25.128 490.324 25.128C496.372 25.128 500.884 27.768 501.364 32.904L495.652 34.296C495.46 31.704 493.396 30.216 490.228 30.216C487.588 30.216 486.052 31.224 486.052 32.712C486.052 34.488 488.308 35.112 491.956 35.832C496.756 36.84 502.132 38.04 502.132 43.752C502.132 48.696 498.052 51.672 490.852 51.672Z" fill="black"/>
</svg>
