<svg width="48" height="47" viewBox="0 0 48 47" fill="none" xmlns="http://www.w3.org/2000/svg">
<g filter="url(#filter0_d_554_3205)">
<path d="M3.50002 7.31673C3.50002 3.92019 6.25346 1.16675 9.65002 1.16675H16.1734C19.5699 1.16675 22.3234 3.92021 22.3234 7.31675V13.8401C22.3234 17.2366 19.5699 19.9902 16.1734 19.9902H9.65C6.25345 19.9902 3.5 17.2366 3.5 13.8401L3.50002 7.31673ZM9.65002 4.60008C8.14964 4.60008 6.93336 5.81636 6.93336 7.31675L6.93333 13.8401C6.93333 15.3404 8.14961 16.5568 9.65 16.5568H16.1734C17.6737 16.5568 18.89 15.3405 18.89 13.8401V7.31675C18.89 5.81639 17.6737 4.60008 16.1734 4.60008H9.65002Z" fill="#00CE84" stroke="black"/>
<path d="M3.5 31.8267C3.5 28.4303 6.25346 25.6767 9.65 25.6767H16.1733C19.5699 25.6767 22.3234 28.4303 22.3234 31.8267V38.3501C22.3234 41.7468 19.5699 44.5001 16.1733 44.5001H9.65C6.25345 44.5001 3.5 41.7468 3.5 38.3501V31.8267ZM9.65 29.11C8.14961 29.11 6.93333 30.3265 6.93333 31.8267V38.3501C6.93333 39.8505 8.14964 41.0668 9.65 41.0668H16.1733C17.6737 41.0668 18.89 39.8505 18.89 38.3501V31.8267C18.89 30.3265 17.6737 29.11 16.1733 29.11H9.65Z" fill="#00CE84" stroke="black"/>
<path d="M28.0127 7.31675C28.0127 3.9202 30.766 1.16675 34.1627 1.16675H40.6861C44.0826 1.16675 46.8361 3.92021 46.8361 7.31675V13.8401C46.8361 17.2366 44.0826 19.9902 40.6861 19.9902H34.1627C30.7661 19.9902 28.0127 17.2366 28.0127 13.8401V7.31675ZM34.1627 4.60008C32.6623 4.60008 31.446 5.81639 31.446 7.31675V13.8401C31.446 15.3404 32.6623 16.5568 34.1627 16.5568H40.6861C42.1863 16.5568 43.4028 15.3405 43.4028 13.8401V7.31675C43.4028 5.81636 42.1863 4.60008 40.6861 4.60008H34.1627Z" fill="#00CE84" stroke="black"/>
<path d="M40.1829 31.7001V32.2001H40.6829H45.1163C46.0644 32.2001 46.8329 32.9687 46.8329 33.9168C46.8329 34.8649 46.0644 35.6334 45.1163 35.6334H40.6829H40.1829V36.1334V40.5668C40.1829 41.5149 39.4144 42.2834 38.4663 42.2834C37.5182 42.2834 36.7496 41.5149 36.7496 40.5668V36.1334V35.6334H36.2496H31.8163C30.8682 35.6334 30.0996 34.8649 30.0996 33.9168C30.0996 32.9687 30.8682 32.2001 31.8163 32.2001H36.2496H36.7496V31.7001V27.2668C36.7496 26.3187 37.5182 25.5501 38.4663 25.5501C39.4144 25.5501 40.1829 26.3187 40.1829 27.2668V31.7001Z" fill="#00CE84" stroke="black"/>
</g>
<defs>
<filter id="filter0_d_554_3205" x="0" y="0.666748" width="47.3359" height="46.3334" filterUnits="userSpaceOnUse" color-interpolation-filters="sRGB">
<feFlood flood-opacity="0" result="BackgroundImageFix"/>
<feColorMatrix in="SourceAlpha" type="matrix" values="0 0 0 0 0 0 0 0 0 0 0 0 0 0 0 0 0 0 127 0" result="hardAlpha"/>
<feOffset dx="-3" dy="2"/>
<feComposite in2="hardAlpha" operator="out"/>
<feColorMatrix type="matrix" values="0 0 0 0 0 0 0 0 0 0 0 0 0 0 0 0 0 0 0.15 0"/>
<feBlend mode="normal" in2="BackgroundImageFix" result="effect1_dropShadow_554_3205"/>
<feBlend mode="normal" in="SourceGraphic" in2="effect1_dropShadow_554_3205" result="shape"/>
</filter>
</defs>
</svg>
