<svg width="57" height="58" viewBox="0 0 57 58" fill="none" xmlns="http://www.w3.org/2000/svg">
<g opacity="0.14">
<path d="M27.0476 2.59351C26.8584 2.59351 26.6691 2.60349 26.4798 2.61348V2.59351H21.3599V2.63346C9.45437 3.42256 0 15.4787 0 30.2418C0 45.0049 10.1168 57.8901 22.5996 57.8901C22.7511 57.8901 22.9025 57.8801 23.0444 57.8801L25.0697 57.8901C25.7227 57.96 26.3852 58 27.0476 58C39.5304 58 49.6473 45.6242 49.6473 30.3517C49.6473 15.0792 39.5304 2.59351 27.0476 2.59351Z" fill="black"/>
</g>
<path d="M26.4333 0V0.0406826C13.5686 0.844165 3.35254 13.1202 3.35254 28.1524C3.35254 43.1846 14.2845 56.3048 27.773 56.3048C27.9366 56.3048 28.1002 56.2946 28.2536 56.2946L31.9658 56.3048V0H26.4333Z" fill="#D6AE2C"/>
<path d="M9.22296 20.5651C9.22296 20.1786 8.91617 19.8735 8.52757 19.8735H4.42682C4.3041 20.3311 4.19161 20.7888 4.08935 21.2567H8.52757C8.91617 21.2567 9.22296 20.9515 9.22296 20.5651ZM8.37418 29.6271C8.37418 29.2406 8.06739 28.9355 7.67879 28.9355H3.36328C3.37351 29.4034 3.39396 29.861 3.42464 30.3187H7.67879C8.06739 30.3187 8.37418 30.0136 8.37418 29.6271ZM8.37418 24.9995C8.37418 24.613 8.06739 24.3079 7.67879 24.3079H3.57803C3.5269 24.7655 3.47577 25.2232 3.44509 25.6911H7.67879C8.06739 25.6911 8.37418 25.386 8.37418 24.9995ZM10.399 16.1408C10.399 15.7543 10.0922 15.4492 9.7036 15.4492H5.98122C5.77669 15.9069 5.59262 16.3646 5.41877 16.8324H9.7036C10.0922 16.8324 10.399 16.5273 10.399 16.1408ZM15.9621 7.96361C16.3507 7.96361 16.6575 7.65849 16.6575 7.27201C16.6575 6.88552 16.3507 6.5804 15.9621 6.5804H12.0863C11.6261 7.01774 11.1864 7.47542 10.7569 7.95344C10.7774 7.95344 10.7978 7.96361 10.808 7.96361H15.9519H15.9621ZM12.9147 11.7064C12.9147 11.3199 12.6079 11.0148 12.2193 11.0148H8.40486C8.10829 11.4623 7.81173 11.9302 7.53562 12.398H12.209C12.5976 12.398 12.9044 12.0929 12.9044 11.7064H12.9147ZM14.7656 47.8936C14.7656 47.5071 14.4588 47.202 14.0702 47.202H10.3888C10.2149 47.202 10.0615 47.2732 9.94903 47.3749C10.2865 47.7919 10.6342 48.1987 10.9921 48.5852H14.0702C14.4588 48.5852 14.7656 48.2801 14.7656 47.8936ZM22.6808 2.146H18.4062C17.5574 2.55282 16.7291 3.02067 15.9314 3.52921H22.6808C23.0694 3.52921 23.3762 3.22409 23.3762 2.8376C23.3762 2.45112 23.0694 2.146 22.6808 2.146ZM8.93663 34.5904C8.93663 34.2039 8.62984 33.8988 8.24124 33.8988H3.86437C3.94618 34.3666 4.03822 34.8243 4.15071 35.282H8.25146C8.64006 35.282 8.94685 34.9769 8.94685 34.5904H8.93663ZM19.6845 51.6263H14.6429C14.5509 51.6263 14.4588 51.6466 14.377 51.6771C15.0111 52.1551 15.6553 52.6026 16.32 53.0095H19.6845C20.0731 53.0095 20.3799 52.7043 20.3799 52.3179C20.3799 51.9314 20.0731 51.6263 19.6845 51.6263ZM11.6057 43.4592C11.6057 43.0727 11.2989 42.7676 10.9103 42.7676H7.22883C7.12657 42.7676 7.03453 42.788 6.94249 42.8286C7.1777 43.2761 7.43336 43.7135 7.68901 44.1508H10.9103C11.2989 44.1508 11.6057 43.8457 11.6057 43.4592ZM9.78541 39.0248C9.78541 38.6383 9.47862 38.3332 9.09002 38.3332H5.40855C5.2756 38.3332 5.15289 38.3841 5.05062 38.4451C5.19379 38.8722 5.34719 39.2994 5.51081 39.7164H9.09002C9.47862 39.7164 9.78541 39.4113 9.78541 39.0248Z" fill="#C7A229"/>
<path d="M56.9998 28.2643C56.9998 43.805 46.0679 56.4167 32.5794 56.4167C19.0908 56.4167 7.51465 43.8152 7.51465 28.2643C7.51465 12.7133 19.1011 0 32.5794 0C46.0576 0 56.9998 12.7133 56.9998 28.2643Z" fill="#FBCC34"/>
<path d="M42.2437 7.11944C41.7119 6.79398 41.1699 6.49903 40.6177 6.22443L40.4745 6.64142L17.0153 43.3778L16.9131 43.8864C17.3528 44.4661 17.813 45.0255 18.2936 45.5544L18.4675 45.4221L42.4891 7.82122L42.2437 7.11944ZM45.0968 9.2146L44.8207 9.33665L20.7173 47.6495V47.8428C21.924 48.8192 23.233 49.6531 24.6135 50.3244L48.3079 13.0998V12.7031C47.3466 11.4115 46.2728 10.2418 45.0968 9.2146Z" fill="#FFD551"/>
<path d="M32.5793 53.2332C20.5532 53.2332 10.7666 42.0353 10.7666 28.2643C10.7666 14.4932 20.5532 3.29529 32.5793 3.29529C44.6055 3.29529 54.3921 14.4932 54.3921 28.2643C54.3921 42.0353 44.6055 53.2332 32.5793 53.2332ZM32.5793 5.45147C21.7497 5.45147 12.9346 15.6832 12.9346 28.2643C12.9346 40.8454 21.7497 51.0771 32.5793 51.0771C43.409 51.0771 52.2241 40.8454 52.2241 28.2643C52.2241 15.6832 43.409 5.45147 32.5793 5.45147Z" fill="#DEB122"/>
<path d="M42.4993 21.2974H37.5906C37.3963 20.2091 37.0077 19.3141 36.4964 18.5818H41.0676C41.7732 18.5818 42.3459 17.9207 42.3459 17.1071C42.3459 16.2934 41.7732 15.6323 41.0676 15.6323H25.8815C25.1759 15.6323 24.6032 16.2934 24.6032 17.1071C24.6032 17.9207 25.1759 18.5818 25.8815 18.5818H30.9333C31.373 18.6123 34.083 18.8768 34.9216 21.2974H27.303C26.5973 21.2974 26.0247 21.9585 26.0247 22.7721C26.0247 23.5858 26.5973 24.2469 27.303 24.2469H35.0647C34.8602 25.4063 34.4 25.925 34.0319 26.22C33.2035 26.8912 31.8128 27.2167 29.7777 27.2167H23.959C23.2533 27.2167 22.6807 27.8778 22.6807 28.6915C22.6807 29.5051 23.2533 30.1662 23.959 30.1662H30.4833L30.6879 30.2577C32.8968 31.2341 34.3591 31.8749 34.7477 35.6278C34.8091 36.1974 34.8091 36.9297 34.8091 37.6925C34.8091 40.4691 34.8091 44.6696 38.2553 45.6968C38.3678 45.7273 38.4701 45.7477 38.5826 45.7477C39.145 45.7477 39.6666 45.3103 39.82 44.6492C39.9938 43.8661 39.5848 43.0626 38.9098 42.849C37.6111 42.4625 37.3861 40.9369 37.3759 37.6823C37.3759 36.828 37.3759 36.0143 37.2941 35.2719C36.9668 32.0986 35.8931 30.3391 34.6046 29.2203C34.9318 29.0474 35.2386 28.8542 35.5147 28.6304C36.7316 27.654 37.4475 26.1793 37.6724 24.2469H42.5095C43.2151 24.2469 43.7878 23.5858 43.7878 22.7721C43.7878 21.9585 43.2151 21.2974 42.5095 21.2974H42.4993Z" fill="#DEB122"/>
</svg>
