<svg width="596" height="232" viewBox="0 0 596 232" fill="none" xmlns="http://www.w3.org/2000/svg">
<path d="M534.41 87.1656L534.158 69.8446L533.01 69.8613L532.926 64.0925L531.779 64.1092L531.695 58.3404L528.26 58.3905L528.344 64.1593L527.197 64.176L527.028 52.6238L525.881 52.6405L525.797 46.8717L524.649 46.8884L524.733 52.6572L523.586 52.674L523.333 35.3529L521.046 35.3863L521.13 41.1551L519.983 41.1718L519.815 29.6196L516.38 29.6696L516.296 23.9008L517.444 23.8841L517.36 18.1153L518.507 18.0986L518.591 23.8674L520.878 23.8341L520.794 18.0653L519.647 18.082L519.562 12.3132L518.415 12.3299L518.331 6.56108L516.044 6.5944L516.128 12.3632L513.841 12.3965L513.757 6.62771L503.463 6.77769L503.547 12.5465L502.399 12.5632L502.315 6.79441L381.067 8.56082L381.151 14.3296L380.198 14.3435L380.114 8.57471L353.618 8.96071L353.534 3.19192L352.386 3.20864L352.47 8.97743L341.222 9.1413L341.138 3.3725L339.991 3.38922L340.075 9.15802L338.742 9.17744L338.658 3.40865L337.51 3.42536L337.594 9.19416L335.493 9.22477L335.577 14.9936L334.429 15.0103L334.345 9.24149L329.772 9.30812L329.586 9.31082L329.67 15.0796L328.717 15.0935L328.633 9.32472L326.346 9.35803L326.262 3.58923L325.114 3.60595L325.198 9.37475L322.726 9.41077L322.81 15.1796L321.857 15.1935L321.772 9.42466L317.199 9.49129L317.283 15.2601L317.097 15.2628L316.929 3.71061L315.782 3.72733L315.866 9.49613L314.718 9.51285L314.634 3.74405L313.486 3.76077L313.57 9.52957L304.609 9.66012L304.525 3.89132L303.377 3.90804L303.462 9.67684L302.314 9.69356L302.23 3.92476L300.897 3.94418L300.981 9.71298L289.733 9.87685L289.649 4.10805L288.501 4.12477L288.585 9.89357L281.531 9.99634L281.447 4.22754L280.299 4.24426L280.383 10.0131L274.662 10.0964L274.578 4.32761L273.43 4.34433L273.683 21.6653L272.729 21.6792L272.561 10.127L272.375 10.1297L272.291 4.36092L271.144 4.37764L271.228 10.1464L269.127 10.177L269.043 4.40825L267.895 4.42497L267.979 10.1938L265.507 10.2298L265.423 4.46099L264.275 4.47771L264.359 10.2465L263.211 10.2632L263.296 16.0321L262.342 16.046L262.174 4.49374L261.026 4.51045L261.11 10.2793L260.925 10.282L261.093 21.8342L260.139 21.8481L259.887 4.52705L258.554 4.54647L258.638 10.3153L257.49 10.332L257.406 4.56319L256.259 4.57991L256.343 10.3488L254.056 10.3821L253.972 4.61323L251.871 4.64384L251.955 10.4127L248.335 10.4654L248.251 4.69657L246.15 4.72718L246.234 10.496L245.086 10.5127L245.002 4.7439L243.669 4.76333L243.753 10.5322L242.605 10.5489L242.521 4.78004L240.235 4.81336L240.319 10.5822L239.171 10.5989L239.087 4.83008L237.939 4.8468L238.023 10.6156L235.922 10.6462L235.838 4.87741L234.691 4.89412L234.775 10.663L233.441 10.6824L233.357 4.91355L231.071 4.94686L231.155 10.7157L230.201 10.7296L230.117 4.96075L227.83 4.99407L227.914 10.7629L227.729 10.7656L227.645 4.99677L225.358 5.03009L225.442 10.7989L224.295 10.8156L224.21 5.04681L218.675 5.12745L218.759 10.8963L218.573 10.899L218.489 5.13015L216.203 5.16347L216.287 10.9323L215.333 10.9462L215.249 5.17736L212.962 5.21067L213.046 10.9795L212.861 10.9822L212.777 5.21338L178.459 5.71334L178.543 11.4822L177.589 11.4961L177.505 5.72723L155.769 6.04391L155.853 11.8127L154.705 11.8295L154.621 6.06063L98.5748 6.87714L98.3891 6.87984L98.4732 12.6487L97.5197 12.6626L97.4356 6.89373L95.1489 6.92705L94.9632 6.92975L95.0473 12.6986L94.0937 12.7125L94.0097 6.94364L86.0019 7.06031L84.6687 7.07973L84.7528 12.8486L83.7992 12.8625L83.7152 7.09362L82.382 7.11304L82.466 12.8819L80.3649 12.9125L80.2809 7.14365L79.1333 7.16037L79.2173 12.9292L79.0317 12.9319L79.1157 18.7007L78.1622 18.7146L77.9939 7.16243L75.7072 7.19575L75.7912 12.9645L74.6436 12.9813L74.5596 7.21247L72.2728 7.24578L72.3569 13.0146L71.2093 13.0313L71.1252 7.2625L69.9776 7.27922L70.0617 13.048L66.6274 13.098L67.0478 41.9567L65.9002 41.9734L65.8162 36.2046L61.2427 36.2712L61.411 47.8234L62.5586 47.8067L62.4745 42.0379L63.6221 42.0212L63.8744 59.3421L62.7269 59.3588L62.9792 76.6799L64.1268 76.6631L64.2951 88.2153L65.4427 88.1986L65.3586 82.4298L66.5062 82.4131L66.5903 88.1819L67.7379 88.1652L67.8219 93.934L70.1087 93.9006L69.9404 82.3485L71.0879 82.3318L71.3403 99.6528L72.4879 99.636L72.2355 82.315L73.3831 82.2983L73.2991 76.5295L74.4467 76.5128L74.615 88.065L73.4674 88.0817L73.5514 93.8505L74.699 93.8338L74.8673 105.386L78.3016 105.336L78.3857 111.105L79.5333 111.088L79.4492 105.319L80.5968 105.303L80.6809 111.071L92.123 110.905L92.039 105.136L92.9925 105.122L93.0765 110.891L104.704 110.721L104.536 99.1692L105.489 99.1553L105.658 110.707L124.146 110.438L124.062 104.669L125.015 104.655L125.099 110.424L143.587 110.155L143.503 104.386L144.457 104.372L144.541 110.141L160.742 109.905L160.826 115.674L161.974 115.657L161.89 109.888L173.138 109.724L173.222 115.493L174.369 115.476L174.285 109.708L175.619 109.688L175.703 115.457L176.85 115.44L176.766 109.671L179.053 109.638L179.137 115.407L180.285 115.39L180.2 109.621L184.774 109.555L184.858 115.324L186.006 115.307L185.922 109.538L188.023 109.508L188.107 115.276L189.44 115.257L189.356 109.488L190.503 109.471L190.588 115.24L192.874 115.207L192.79 109.438L193.938 109.421L194.022 115.19L195.169 115.173L195.085 109.405L197.186 109.374L197.271 115.143L198.604 115.123L198.52 109.355L200.621 109.324L200.705 115.093L202.038 115.073L201.954 109.305L202.908 109.291L202.992 115.059L205.278 115.026L205.194 109.257L206.342 109.241L206.426 115.009L207.759 114.99L207.675 109.221L208.823 109.204L208.907 114.973L211.193 114.94L211.109 109.171L213.211 109.141L213.295 114.909L214.442 114.893L214.358 109.124L214.544 109.121L214.628 114.89L216.915 114.857L216.83 109.088L217.978 109.071L218.062 114.84L220.163 114.809L220.079 109.04L221.227 109.024L221.311 114.793L223.598 114.759L223.514 108.99L223.699 108.988L223.783 114.757L226.07 114.723L225.986 108.954L226.939 108.941L227.023 114.709L229.31 114.676L229.226 108.907L230.374 108.891L230.458 114.659L231.605 114.643L231.791 114.64L231.707 108.871L232.855 108.854L232.939 114.623L233.892 114.609L235.04 114.593L235.225 114.59L235.141 108.821L236.095 108.807L236.179 114.576L238.466 114.543L238.651 114.54L238.483 102.988L239.436 102.974L239.605 114.526L240.938 114.507L240.854 108.738L242.002 108.721L242.086 114.49L244.187 114.459L244.103 108.691L245.25 108.674L245.334 114.443L247.621 114.409L247.537 108.64L247.723 108.638L247.807 114.407L251.047 114.359L250.963 108.591L252.11 108.574L252.194 114.343L253.342 114.326L253.258 108.557L254.406 108.54L254.49 114.309L255.823 114.29L255.739 108.521L257.84 108.49L259.173 108.471L259.005 96.9188L259.958 96.9049L260.211 114.226L262.683 114.19L262.599 108.421L263.747 108.404L263.831 114.173L264.978 114.156L264.894 108.388L266.042 108.371L266.126 114.14L268.413 114.106L268.16 96.7854L269.114 96.7715L269.282 108.324L269.468 108.321L269.552 114.09L271.838 114.056L271.586 96.7355L272.54 96.7216L272.708 108.274L272.894 108.271L272.978 114.04L275.264 114.007L275.18 108.238L276.134 108.224L276.218 113.993L277.551 113.973L277.467 108.204L278.421 108.191L278.505 113.959L284.411 113.873L284.327 108.104L285.281 108.091L285.365 113.859L289.938 113.793L289.854 108.024L292.141 107.991L292.225 113.759L298.132 113.673L298.048 107.905L299.001 107.891L299.085 113.66L303.853 113.59L303.685 102.038L304.638 102.024L304.806 113.576L310.527 113.493L310.443 107.724L311.777 107.705L311.693 101.936L312.84 101.919L312.756 96.1502L313.71 96.1363L313.878 107.689L311.777 107.719L311.861 113.488L316.434 113.421L316.35 107.653L317.304 107.639L317.388 113.407L318.535 113.391L318.367 101.839L318.553 101.836L318.721 113.388L321.961 113.341L321.877 107.572L324.164 107.539L324.248 113.307L325.396 113.291L325.312 107.522L324.358 107.536L324.274 101.767L326.375 101.736L326.459 107.505L325.506 107.519L325.59 113.288L330.163 113.221L330.079 107.453L331.033 107.439L331.117 113.207L333.404 113.174L333.319 107.405L332.172 107.422L332.088 101.653L332.273 101.65L332.189 95.8817L333.337 95.865L333.589 113.186L339.125 113.105L339.041 107.337L338.087 107.35L338.003 101.582L339.151 101.565L339.319 113.117L342.753 113.067L342.669 107.298L343.623 107.284L343.539 101.516L343.724 101.513L343.808 107.282L343.623 107.284L343.707 113.053L358.769 112.834L358.685 107.065L360.786 107.034L360.87 112.803L365.638 112.734L365.554 106.965L366.507 106.951L366.591 112.72L378.219 112.55L378.135 106.782L379.088 106.768L379.172 112.536L410.056 112.087L409.972 106.318L410.158 106.315L410.074 100.546L411.027 100.532L411.195 112.085L414.63 112.034L414.546 106.266L414.731 106.263L414.815 112.032L485.544 111.001L486.692 110.985L491.265 110.918L492.413 110.901L500.42 110.785L506.142 110.701L506.058 104.932L506.243 104.93L506.327 110.699L527.87 110.385L527.786 104.616L528.933 104.599L529.017 110.368L533.591 110.301L533.507 104.533L532.359 104.549L532.275 98.7805L533.423 98.7637L533.339 92.9949L535.625 92.9616L535.541 87.1928L534.394 87.2096L534.41 87.1656ZM328.649 20.8791L327.696 20.893L327.612 15.1242L328.565 15.1103L328.649 20.8791ZM355.267 107.1L355.183 101.331L356.137 101.317L356.221 107.086L355.267 107.1Z" fill="#D9FF7A"/>
<path d="M65.5822 13.1723L64.4346 13.1891L64.5186 18.9579L65.6663 18.9411L65.5822 13.1723Z" fill="#D9FF7A"/>
<path d="M64.5187 18.957L63.3711 18.9737L63.4551 24.7425L64.6028 24.7258L64.5187 18.957Z" fill="#D9FF7A"/>
<path d="M2.122 145.32L2.122 162.643L3.56487 162.643L3.56487 168.412L5.00781 168.412L5.00781 174.181L9.32604 174.181L9.32604 168.412L10.7689 168.412L10.7689 179.965L12.2118 179.965L12.2118 185.735L13.6547 185.735L13.6547 179.965L15.0977 179.965L15.0977 197.288L17.973 197.288L17.973 191.519L19.4159 191.519L19.4159 203.072L23.7339 203.072L23.7339 208.842L22.2911 208.842L22.2911 214.611L20.8481 214.611L20.8481 208.842L17.973 208.842L17.973 214.611L19.4159 214.611L19.4159 220.38L20.8588 220.38L20.8588 226.15L23.7339 226.15L23.7339 220.38L26.6091 220.38L26.6091 226.15L39.553 226.15L39.553 220.38L40.996 220.38L40.996 226.15L193.447 226.15L193.447 220.38L194.646 220.38L194.646 226.15L227.96 226.15L227.96 231.919L229.403 231.919L229.403 226.15L243.546 226.15L243.546 231.919L244.989 231.919L244.989 226.15L246.665 226.15L246.665 231.919L248.108 231.919L248.108 226.15L250.75 226.15L250.75 220.38L252.193 220.38L252.193 226.15L257.943 226.15L258.177 226.15L258.177 220.38L259.375 220.38L259.375 226.15L262.251 226.15L262.251 231.919L263.694 231.919L263.694 226.15L266.802 226.15L266.802 220.38L268.001 220.38L268.001 226.15L273.752 226.15L273.752 220.38L273.985 220.38L273.985 231.934L275.428 231.934L275.428 226.164L276.871 226.164L276.871 231.934L278.314 231.934L278.314 226.164L289.581 226.164L289.581 231.934L291.024 231.934L291.024 226.164L292.467 226.164L292.467 231.934L294.143 231.934L294.143 226.164L308.286 226.164L308.286 231.934L309.729 231.934L309.729 226.164L318.599 226.164L318.599 231.934L320.042 231.934L320.042 226.164L327.235 226.164L327.235 231.934L328.678 231.934L328.678 214.611L329.877 214.611L329.877 226.164L330.11 226.164L330.11 231.934L331.553 231.934L331.553 226.164L334.195 226.164L334.195 231.934L335.638 231.934L335.638 226.164L338.747 226.164L338.747 231.934L340.19 231.934L340.19 226.164L341.632 226.164L341.632 220.395L342.831 220.395L342.831 231.948L344.274 231.948L344.274 226.179L344.508 226.179L344.508 214.626L345.707 214.626L345.707 231.948L347.383 231.948L347.383 226.179L348.826 226.179L348.826 231.948L350.269 231.948L350.269 226.179L353.144 226.179L353.144 231.948L355.786 231.948L355.786 226.179L360.337 226.179L360.337 231.948L362.979 231.948L362.979 226.179L364.422 226.179L364.422 231.948L366.098 231.948L366.098 226.179L367.541 226.179L367.541 231.948L370.417 231.948L370.417 226.179L371.859 226.179L371.859 231.948L373.302 231.948L373.302 226.179L375.944 226.179L375.944 231.948L377.387 231.948L377.387 226.179L379.063 226.179L379.063 231.948L381.939 231.948L381.939 226.179L383.138 226.179L383.138 231.948L386.013 231.948L386.013 226.179L386.246 226.179L386.246 231.948L389.121 231.948L389.121 226.179L390.564 226.179L390.564 231.948L397.524 231.948L397.524 226.179L397.758 226.179L397.758 231.948L400.633 231.948L400.633 226.179L401.832 226.179L401.832 231.948L404.707 231.948L404.707 226.179L404.941 226.179L404.941 231.948L448.09 231.948L448.09 226.179L449.289 226.179L449.289 231.948L476.62 231.948L476.62 226.179L478.063 226.179L478.063 231.948L548.532 231.948L548.766 231.948L548.766 226.179L549.964 226.179L549.964 231.948L552.84 231.948L553.073 231.948L553.073 226.179L554.272 226.179L554.272 231.948L564.341 231.948L566.017 231.948L566.017 226.179L567.216 226.179L567.216 231.948L568.892 231.948L568.892 226.179L571.534 226.179L571.534 231.948L572.977 231.948L572.977 226.179L573.21 226.179L573.21 220.41L574.409 220.41L574.409 231.963L577.284 231.963L577.284 226.194L578.727 226.194L578.727 231.963L581.603 231.963L581.603 226.194L583.046 226.194L583.046 231.963L584.489 231.963L584.489 226.194L588.807 226.194L588.807 197.332L590.25 197.332L590.25 203.101L596 203.101L596 191.548L594.557 191.548L594.557 197.317L593.114 197.317L593.114 179.994L594.557 179.994L594.557 162.672L593.114 162.672L593.114 151.118L591.671 151.118L591.671 156.888L590.228 156.888L590.228 151.118L588.785 151.118L588.785 145.349L585.91 145.349L585.91 156.902L584.467 156.902L584.467 139.579L583.024 139.579L583.024 156.902L581.581 156.902L581.581 162.672L580.138 162.672L580.138 151.118L581.581 151.118L581.581 145.349L580.138 145.349L580.138 133.795L575.82 133.795L575.82 128.026L574.377 128.026L574.377 133.795L572.935 133.795L572.935 128.026L558.548 128.026L558.548 133.795L557.349 133.795L557.349 128.026L542.729 128.026L542.729 139.579L541.53 139.579L541.53 128.026L518.284 128.026L518.284 133.795L517.085 133.795L517.085 128.026L493.839 128.026L493.839 133.795L492.64 133.795L492.64 128.026L472.27 128.026L472.27 122.257L470.827 122.257L470.827 128.026L456.684 128.026L456.684 122.257L455.241 122.257L455.241 128.026L453.565 128.026L453.565 122.257L452.122 122.257L452.122 128.026L449.247 128.026L449.247 122.257L447.804 122.257L447.804 128.026L442.053 128.026L442.053 122.257L440.61 122.257L440.61 128.026L437.968 128.026L437.968 122.257L436.292 122.257L436.292 128.026L434.849 128.026L434.849 122.257L431.974 122.257L431.974 128.026L430.531 128.026L430.531 122.257L429.088 122.257L429.088 128.026L426.446 128.026L426.446 122.257L424.77 122.257L424.77 128.026L422.128 128.026L422.128 122.257L420.452 122.257L420.452 128.026L419.253 128.026L419.253 122.257L416.378 122.257L416.378 128.026L414.935 128.026L414.935 122.257L413.259 122.257L413.259 128.026L411.816 128.026L411.816 122.257L408.94 122.257L408.94 128.026L406.299 128.026L406.299 122.257L404.856 122.257L404.856 128.026L404.622 128.026L404.622 122.257L401.747 122.257L401.747 128.026L400.304 128.026L400.304 122.257L397.662 122.257L397.662 128.026L396.219 128.026L396.219 122.257L393.344 122.257L393.344 128.026L393.111 128.026L393.111 122.257L390.235 122.257L390.235 128.026L389.037 128.026L389.037 122.257L386.161 122.257L386.161 128.026L384.718 128.026L384.718 122.257L383.275 122.257L383.042 122.257L383.042 128.026L381.599 128.026L381.599 122.257L380.4 122.257L378.957 122.257L378.724 122.257L378.724 128.026L377.525 128.026L377.525 122.257L374.65 122.257L374.416 122.257L374.416 133.81L373.218 133.81L373.218 122.257L371.541 122.257L371.541 128.026L370.098 128.026L370.098 122.257L367.456 122.257L367.456 128.026L366.014 128.026L366.014 122.257L363.138 122.257L363.138 128.026L362.905 128.026L362.905 122.257L358.831 122.257L358.831 128.026L357.388 128.026L357.388 122.257L355.945 122.257L355.945 128.026L354.502 128.026L354.502 122.257L352.826 122.257L352.826 128.026L350.184 128.026L348.508 128.026L348.508 139.579L347.309 139.579L347.309 122.257L344.2 122.257L344.2 128.026L342.757 128.026L342.757 122.257L341.314 122.257L341.314 128.026L339.871 128.026L339.871 122.257L336.996 122.257L336.996 139.579L335.797 139.579L335.797 128.026L335.564 128.026L335.564 122.257L332.688 122.257L332.688 139.579L331.49 139.579L331.49 128.026L331.256 128.026L331.256 122.257L328.381 122.257L328.381 128.026L327.182 128.026L327.182 122.257L325.506 122.257L325.506 128.026L324.307 128.026L324.307 122.257L316.88 122.257L316.88 128.026L315.681 128.026L315.681 122.257L309.931 122.257L309.931 128.026L307.055 128.026L307.055 122.257L299.629 122.257L299.629 128.026L298.43 128.026L298.43 122.257L292.435 122.257L292.435 133.81L291.236 133.81L291.236 122.257L284.043 122.257L284.043 128.026L282.367 128.026L282.367 133.795L280.924 133.795L280.924 139.565L279.725 139.565L279.725 128.011L282.367 128.011L282.367 122.242L276.616 122.242L276.616 128.011L275.417 128.011L275.417 122.242L273.974 122.242L273.974 133.795L273.741 133.795L273.741 122.242L269.667 122.242L269.667 128.011L266.792 128.011L266.792 122.242L265.349 122.242L265.349 128.011L266.548 128.011L266.548 133.781L263.906 133.781L263.906 128.011L265.105 128.011L265.105 122.242L259.354 122.242L259.354 128.011L258.155 128.011L258.155 122.242L255.28 122.242L255.28 128.011L256.723 128.011L256.723 133.781L256.49 133.781L256.49 139.55L255.047 139.55L255.047 122.227L248.087 122.227L248.087 127.997L249.286 127.997L249.286 133.766L247.843 133.766L247.843 122.213L243.525 122.213L243.525 127.982L242.326 127.982L242.326 133.752L242.092 133.752L242.092 127.982L242.326 127.982L242.326 122.213L223.387 122.213L223.387 127.982L220.745 127.982L220.745 122.213L214.751 122.213L214.751 127.982L213.552 127.982L213.552 122.213L198.932 122.213L198.932 127.982L197.733 127.982L197.733 122.213L158.902 122.213L158.902 127.982L158.668 127.982L158.668 133.752L157.469 133.752L157.469 122.198L153.151 122.198L153.151 127.968L152.918 127.968L152.918 122.198L63.9872 122.198L62.5443 122.198L56.7938 122.198L55.3509 122.198L45.2823 122.198L38.0889 122.198L38.0889 127.968L37.8555 127.968L37.8555 122.198L10.7689 122.198L10.7689 127.968L9.32604 127.968L9.32604 122.198L3.57549 122.198L3.57549 127.968L5.01842 127.968L5.01842 133.737L3.57549 133.737L3.57549 139.507L0.700309 139.507L0.70031 145.276L2.14324 145.276L2.122 145.32ZM259.566 214.596L260.765 214.596L260.765 220.366L259.566 220.366L259.566 214.596ZM227.684 127.997L227.684 133.766L226.485 133.766L226.485 127.997L227.684 127.997Z" fill="#D9FF7A"/>
<path d="M590.122 226.135L591.565 226.135L591.565 220.365L590.122 220.365L590.122 226.135Z" fill="#D9FF7A"/>
<path d="M591.564 220.366L593.007 220.366L593.007 214.597L591.564 214.597L591.564 220.366Z" fill="#D9FF7A"/>
<path d="M101.196 94V30.64H115.02V94H101.196ZM104.076 94V82.384H141.804V94H104.076ZM172.416 95.344C168.256 95.344 164.544 94.768 161.28 93.616C158.08 92.464 155.36 90.8 153.12 88.624C150.88 86.448 149.152 83.76 147.936 80.56C146.784 77.36 146.208 73.744 146.208 69.712C146.208 65.744 146.752 62.096 147.84 58.768C148.992 55.376 150.656 52.464 152.832 50.032C155.008 47.536 157.664 45.616 160.8 44.272C163.936 42.928 167.488 42.256 171.456 42.256C175.296 42.256 178.72 42.896 181.728 44.176C184.736 45.392 187.232 47.248 189.216 49.744C191.264 52.24 192.736 55.312 193.632 58.96C194.592 62.544 194.944 66.672 194.688 71.344L155.136 71.728V64.144L186.72 63.856L181.824 67.696C182.272 64.304 182.048 61.52 181.152 59.344C180.256 57.168 178.944 55.568 177.216 54.544C175.552 53.52 173.696 53.008 171.648 53.008C169.216 53.008 167.072 53.648 165.216 54.928C163.36 56.208 161.92 58.096 160.896 60.592C159.872 63.024 159.36 65.968 159.36 69.424C159.36 74.864 160.544 78.864 162.912 81.424C165.344 83.984 168.512 85.264 172.416 85.264C174.208 85.264 175.712 85.04 176.928 84.592C178.208 84.08 179.232 83.44 180 82.672C180.832 81.904 181.472 81.04 181.92 80.08C182.432 79.12 182.848 78.16 183.168 77.2L195.168 79.792C194.592 82.16 193.728 84.304 192.576 86.224C191.488 88.08 190.016 89.712 188.16 91.12C186.304 92.464 184.064 93.488 181.44 94.192C178.88 94.96 175.872 95.344 172.416 95.344ZM223.494 95.152C217.862 95.152 213.702 93.68 211.014 90.736C208.39 87.728 207.078 82.96 207.078 76.432V54.448H199.782L199.974 43.6H205.062C207.046 43.6 208.518 43.312 209.478 42.736C210.438 42.16 211.014 41.104 211.206 39.568L212.454 32.368H220.326V43.6H233.094V54.832H220.326V75.856C220.326 78.16 220.87 79.824 221.958 80.848C223.046 81.872 224.71 82.384 226.95 82.384C228.166 82.384 229.318 82.256 230.406 82C231.558 81.744 232.55 81.328 233.382 80.752V93.616C231.398 94.256 229.574 94.672 227.91 94.864C226.246 95.056 224.774 95.152 223.494 95.152ZM239.351 49.84C240.503 46.896 241.303 44.144 241.751 41.584C242.263 39.024 242.551 36.464 242.615 33.904C242.743 31.28 242.807 28.432 242.807 25.36H255.479C255.479 29.712 255.223 33.456 254.711 36.592C254.199 39.664 253.495 42.288 252.599 44.464C251.767 46.576 250.903 48.368 250.007 49.84H239.351ZM281.84 95.344C278.448 95.344 275.376 95.024 272.624 94.384C269.872 93.744 267.504 92.816 265.52 91.6C263.536 90.384 261.936 88.944 260.72 87.28C259.504 85.552 258.704 83.632 258.32 81.52L268.88 77.2C269.136 78.608 269.84 79.92 270.992 81.136C272.144 82.352 273.68 83.344 275.6 84.112C277.584 84.816 279.952 85.168 282.704 85.168C285.648 85.168 287.92 84.752 289.52 83.92C291.12 83.024 291.92 81.776 291.92 80.176C291.92 78.96 291.472 78 290.576 77.296C289.68 76.592 288.368 75.984 286.64 75.472C284.912 74.96 282.832 74.48 280.4 74.032C278.032 73.456 275.6 72.848 273.104 72.208C270.672 71.568 268.4 70.672 266.288 69.52C264.24 68.368 262.544 66.864 261.2 65.008C259.92 63.088 259.28 60.656 259.28 57.712C259.28 54.64 260.112 51.952 261.776 49.648C263.44 47.344 265.872 45.552 269.072 44.272C272.272 42.928 276.176 42.256 280.784 42.256C284.944 42.256 288.592 42.832 291.728 43.984C294.864 45.072 297.424 46.672 299.408 48.784C301.456 50.832 302.832 53.296 303.536 56.176L292.304 59.92C292.048 58.384 291.408 57.04 290.384 55.888C289.424 54.736 288.112 53.872 286.448 53.296C284.848 52.72 282.96 52.432 280.784 52.432C278.032 52.432 275.888 52.88 274.352 53.776C272.88 54.672 272.144 55.856 272.144 57.328C272.144 58.544 272.624 59.536 273.584 60.304C274.608 61.072 276.016 61.712 277.808 62.224C279.6 62.672 281.712 63.152 284.144 63.664C286.704 64.176 289.2 64.784 291.632 65.488C294.064 66.128 296.24 66.992 298.16 68.08C300.144 69.168 301.712 70.608 302.864 72.4C304.016 74.192 304.592 76.496 304.592 79.312C304.592 82.64 303.696 85.52 301.904 87.952C300.112 90.32 297.52 92.144 294.128 93.424C290.736 94.704 286.64 95.344 281.84 95.344ZM361.752 95.344C356.568 95.344 351.896 94.16 347.736 91.792C343.64 89.36 340.376 85.776 337.944 81.04C335.576 76.24 334.392 70.224 334.392 62.992C334.392 57.68 335.064 52.976 336.408 48.88C337.816 44.72 339.832 41.2 342.456 38.32C345.144 35.376 348.44 33.136 352.344 31.6C356.248 30.064 360.76 29.296 365.88 29.296C369.72 29.296 373.208 29.744 376.344 30.64C379.48 31.536 382.2 32.816 384.504 34.48C386.808 36.144 388.6 38.16 389.88 40.528C391.224 42.832 391.96 45.456 392.088 48.4L379.031 52.432C378.904 49.744 378.2 47.536 376.92 45.808C375.704 44.08 374.072 42.8 372.024 41.968C370.04 41.072 367.8 40.624 365.304 40.624C361.848 40.624 358.872 41.424 356.376 43.024C353.944 44.56 352.088 46.96 350.808 50.224C349.528 53.424 348.888 57.488 348.888 62.416C348.888 66.192 349.24 69.456 349.944 72.208C350.712 74.896 351.832 77.136 353.304 78.928C354.776 80.72 356.536 82.064 358.584 82.96C360.632 83.792 363 84.208 365.688 84.208C368.504 84.208 370.936 83.76 372.984 82.864C375.096 81.904 376.76 80.464 377.976 78.544C379.256 76.56 379.96 74.064 380.088 71.056H368.088V61.072H393.72V72.688V94H384.12L384.312 77.776H382.583C381.56 81.616 380.184 84.848 378.456 87.472C376.728 90.032 374.488 91.984 371.736 93.328C369.048 94.672 365.72 95.344 361.752 95.344ZM428.635 95.344C424.475 95.344 420.763 94.768 417.499 93.616C414.299 92.464 411.579 90.8 409.339 88.624C407.099 86.448 405.371 83.76 404.155 80.56C403.003 77.36 402.427 73.744 402.427 69.712C402.427 65.744 402.971 62.096 404.059 58.768C405.211 55.376 406.875 52.464 409.051 50.032C411.227 47.536 413.883 45.616 417.019 44.272C420.155 42.928 423.707 42.256 427.675 42.256C431.515 42.256 434.939 42.896 437.947 44.176C440.955 45.392 443.451 47.248 445.435 49.744C447.483 52.24 448.955 55.312 449.851 58.96C450.811 62.544 451.163 66.672 450.907 71.344L411.355 71.728V64.144L442.939 63.856L438.043 67.696C438.491 64.304 438.267 61.52 437.371 59.344C436.475 57.168 435.163 55.568 433.435 54.544C431.771 53.52 429.915 53.008 427.867 53.008C425.435 53.008 423.291 53.648 421.435 54.928C419.579 56.208 418.139 58.096 417.115 60.592C416.091 63.024 415.579 65.968 415.579 69.424C415.579 74.864 416.763 78.864 419.131 81.424C421.563 83.984 424.731 85.264 428.635 85.264C430.427 85.264 431.931 85.04 433.147 84.592C434.427 84.08 435.451 83.44 436.219 82.672C437.051 81.904 437.691 81.04 438.139 80.08C438.651 79.12 439.067 78.16 439.387 77.2L451.387 79.792C450.811 82.16 449.947 84.304 448.795 86.224C447.707 88.08 446.235 89.712 444.379 91.12C442.523 92.464 440.283 93.488 437.659 94.192C435.099 94.96 432.091 95.344 428.635 95.344ZM479.712 95.152C474.08 95.152 469.92 93.68 467.232 90.736C464.608 87.728 463.296 82.96 463.296 76.432V54.448H456L456.192 43.6H461.28C463.264 43.6 464.736 43.312 465.696 42.736C466.656 42.16 467.232 41.104 467.424 39.568L468.672 32.368H476.544V43.6H489.312V54.832H476.544V75.856C476.544 78.16 477.088 79.824 478.176 80.848C479.264 81.872 480.928 82.384 483.168 82.384C484.384 82.384 485.536 82.256 486.624 82C487.776 81.744 488.768 81.328 489.6 80.752V93.616C487.616 94.256 485.792 94.672 484.128 94.864C482.464 95.056 480.992 95.152 479.712 95.152ZM38.0759 209V189.224L14.7479 145.64H31.2599L44.7959 176.744H45.3719L58.8119 145.64H75.1319L51.9959 189.128V209H38.0759ZM98.4809 210.344C93.4249 210.344 88.9769 209.352 85.1369 207.368C81.2969 205.32 78.2889 202.344 76.1129 198.44C73.9369 194.472 72.8489 189.544 72.8489 183.656C72.8489 177.768 73.9369 172.872 76.1129 168.968C78.3529 165.064 81.3929 162.152 85.2329 160.232C89.1369 158.248 93.5529 157.256 98.4809 157.256C103.537 157.256 107.985 158.248 111.825 160.232C115.729 162.216 118.769 165.192 120.945 169.16C123.185 173.064 124.305 177.96 124.305 183.848C124.305 189.8 123.153 194.76 120.849 198.728C118.609 202.632 115.537 205.544 111.633 207.464C107.793 209.384 103.409 210.344 98.4809 210.344ZM98.9609 200.072C101.457 200.072 103.537 199.496 105.201 198.344C106.929 197.192 108.209 195.464 109.041 193.16C109.937 190.792 110.385 187.944 110.385 184.616C110.385 181.096 109.905 178.12 108.945 175.688C108.049 173.192 106.705 171.304 104.913 170.024C103.121 168.68 100.849 168.008 98.0969 168.008C95.7289 168.008 93.6809 168.584 91.9529 169.736C90.2249 170.824 88.9129 172.552 88.0169 174.92C87.1209 177.224 86.6729 180.072 86.6729 183.464C86.6729 188.904 87.7609 193.032 89.9369 195.848C92.1129 198.664 95.1209 200.072 98.9609 200.072ZM151.221 210.344C145.333 210.344 140.885 208.36 137.877 204.392C134.933 200.36 133.461 194.248 133.461 186.056V158.6H147.285V184.328C147.285 189.256 148.021 192.936 149.493 195.368C150.965 197.736 153.205 198.92 156.213 198.92C158.005 198.92 159.573 198.472 160.917 197.576C162.261 196.68 163.413 195.432 164.373 193.832C165.333 192.232 166.037 190.344 166.485 188.168C166.997 185.992 167.285 183.656 167.349 181.16V158.6H181.173V188.456V209H170.037L169.941 193.256H168.213C167.253 197.224 166.037 200.488 164.565 203.048C163.157 205.544 161.333 207.4 159.093 208.616C156.917 209.768 154.293 210.344 151.221 210.344ZM223.273 209V197.768H241.705C245.289 197.768 248.265 197 250.633 195.464C253.001 193.864 254.793 191.56 256.009 188.552C257.225 185.544 257.833 181.864 257.833 177.512C257.833 173.928 257.449 170.856 256.681 168.296C255.913 165.672 254.761 163.528 253.225 161.864C251.753 160.2 249.865 158.952 247.561 158.12C245.321 157.288 242.665 156.872 239.593 156.872H223.273V145.64H239.113C246.793 145.64 253.065 146.888 257.929 149.384C262.793 151.88 266.377 155.464 268.681 160.136C270.985 164.744 272.137 170.28 272.137 176.744C272.137 181.608 271.561 185.832 270.409 189.416C269.257 193 267.689 196.04 265.705 198.536C263.785 201.032 261.545 203.048 258.985 204.584C256.425 206.12 253.705 207.24 250.825 207.944C247.945 208.648 245.033 209 242.089 209H223.273ZM216.649 209V145.64H230.473V209H216.649ZM283.195 209V184.616V158.6H294.619L294.715 175.784H296.539C297.051 171.496 297.915 168.008 299.131 165.32C300.411 162.632 302.171 160.648 304.411 159.368C306.651 158.088 309.435 157.448 312.763 157.448C313.339 157.448 313.947 157.48 314.587 157.544C315.291 157.544 316.091 157.64 316.987 157.832L316.411 172.52C315.451 172.072 314.395 171.752 313.243 171.56C312.091 171.368 311.067 171.272 310.171 171.272C307.675 171.272 305.531 171.848 303.739 173C301.947 174.152 300.475 175.816 299.323 177.992C298.235 180.104 297.499 182.696 297.115 185.768V209H283.195ZM324.82 209V158.6H338.644V209H324.82ZM331.828 151.016C329.14 151.016 327.06 150.472 325.588 149.384C324.18 148.232 323.476 146.568 323.476 144.392C323.476 142.152 324.18 140.456 325.588 139.304C327.06 138.152 329.14 137.576 331.828 137.576C334.58 137.576 336.66 138.152 338.068 139.304C339.54 140.456 340.276 142.152 340.276 144.392C340.276 146.504 339.54 148.136 338.068 149.288C336.66 150.44 334.58 151.016 331.828 151.016ZM362.965 209L346.165 158.696H361.429L372.085 198.056H373.621L384.277 158.696H398.965L382.069 209H362.965ZM406.383 209V158.6H420.207V209H406.383ZM413.391 151.016C410.703 151.016 408.623 150.472 407.151 149.384C405.743 148.232 405.039 146.568 405.039 144.392C405.039 142.152 405.743 140.456 407.151 139.304C408.623 138.152 410.703 137.576 413.391 137.576C416.143 137.576 418.223 138.152 419.631 139.304C421.103 140.456 421.839 142.152 421.839 144.392C421.839 146.504 421.103 148.136 419.631 149.288C418.223 150.44 416.143 151.016 413.391 151.016ZM433.008 209V178.472V158.6H444.336L444.24 173.672H446.16C446.992 170.024 448.176 166.984 449.712 164.552C451.248 162.12 453.168 160.296 455.472 159.08C457.84 157.864 460.624 157.256 463.824 157.256C469.648 157.256 474.064 159.304 477.072 163.4C480.144 167.496 481.68 173.928 481.68 182.696V209H467.76V184.232C467.76 178.856 466.96 174.952 465.36 172.52C463.824 170.024 461.552 168.776 458.544 168.776C455.984 168.776 453.84 169.576 452.112 171.176C450.384 172.776 449.072 174.888 448.176 177.512C447.344 180.072 446.896 182.952 446.832 186.152V209H433.008ZM513.538 226.568C508.034 226.568 503.49 226.12 499.906 225.224C496.386 224.392 493.794 223.144 492.13 221.48C490.466 219.816 489.634 217.736 489.634 215.24C489.634 212.296 490.786 209.896 493.09 208.04C495.458 206.184 498.914 205.064 503.458 204.68V202.76C500.002 202.76 497.346 202.408 495.49 201.704C493.634 200.936 492.706 199.624 492.706 197.768C492.706 195.976 493.602 194.376 495.394 192.968C497.25 191.56 500.29 190.44 504.514 189.608V187.688C500.546 187.432 497.442 186.152 495.202 183.848C492.962 181.544 491.842 178.568 491.842 174.92C491.842 171.72 492.738 168.872 494.53 166.376C496.322 163.816 498.978 161.8 502.498 160.328C506.082 158.792 510.466 158.024 515.65 158.024H541.186V168.584L525.346 166.376V168.584C529.442 169.16 532.386 170.184 534.178 171.656C536.034 173.128 536.962 175.176 536.962 177.8C536.962 180.424 536.098 182.728 534.37 184.712C532.642 186.696 530.178 188.264 526.978 189.416C523.842 190.504 520.066 191.048 515.65 191.048C514.818 191.048 513.922 191.016 512.962 190.952C512.002 190.888 510.402 190.728 508.162 190.472C506.946 191.368 505.986 192.168 505.282 192.872C504.642 193.512 504.322 194.12 504.322 194.696C504.322 195.144 504.546 195.528 504.994 195.848C505.506 196.168 506.146 196.392 506.914 196.52C507.746 196.648 508.578 196.712 509.41 196.712H523.81C525.09 196.712 526.754 196.808 528.802 197C530.85 197.128 532.898 197.608 534.946 198.44C536.994 199.272 538.722 200.616 540.13 202.472C541.538 204.264 542.242 206.856 542.242 210.248C542.242 213.96 541.186 217.032 539.074 219.464C537.026 221.896 533.858 223.688 529.57 224.84C525.346 225.992 520.002 226.568 513.538 226.568ZM515.074 215.528C518.978 215.528 522.018 215.304 524.194 214.856C526.37 214.472 527.906 213.8 528.802 212.84C529.762 211.944 530.242 210.792 530.242 209.384C530.242 208.104 529.954 207.112 529.378 206.408C528.866 205.704 528.162 205.224 527.266 204.968C526.434 204.648 525.57 204.456 524.674 204.392C523.842 204.264 523.106 204.2 522.466 204.2H510.37C507.682 204.456 505.73 205.192 504.514 206.408C503.362 207.56 502.786 208.904 502.786 210.44C502.786 211.848 503.234 212.904 504.13 213.608C505.026 214.312 506.37 214.792 508.162 215.048C510.018 215.368 512.322 215.528 515.074 215.528ZM514.882 183.848C517.954 183.848 520.258 183.112 521.794 181.64C523.33 180.104 524.098 178.12 524.098 175.688C524.098 173.128 523.298 171.016 521.698 169.352C520.162 167.688 517.89 166.856 514.882 166.856C511.938 166.856 509.634 167.688 507.97 169.352C506.306 170.952 505.474 173.032 505.474 175.592C505.474 177.192 505.826 178.632 506.53 179.912C507.298 181.128 508.386 182.088 509.794 182.792C511.202 183.496 512.898 183.848 514.882 183.848ZM554.491 188.648L550.843 145.64H566.587L563.035 188.648H554.491ZM558.811 210.248C555.803 210.248 553.531 209.608 551.995 208.328C550.523 207.048 549.787 205.064 549.787 202.376C549.787 199.624 550.523 197.608 551.995 196.328C553.531 195.048 555.803 194.408 558.811 194.408C561.819 194.408 564.091 195.048 565.627 196.328C567.163 197.608 567.931 199.624 567.931 202.376C567.931 207.624 564.891 210.248 558.811 210.248Z" fill="black"/>
</svg>
