<svg width="600" height="134" viewBox="0 0 600 134" fill="none" xmlns="http://www.w3.org/2000/svg">
<path d="M513.588 95.6505L513.336 78.3295L512.188 78.3462L512.104 72.5774L510.956 72.5941L510.872 66.8253L507.438 66.8753L507.522 72.6441L506.374 72.6608L506.206 61.1087L505.058 61.1254L504.974 55.3565L503.827 55.3733L503.911 61.1421L502.763 61.1588L502.511 43.8378L500.224 43.8711L500.308 49.6399L499.161 49.6566L498.992 38.1045L495.558 38.1545L495.474 32.3857L496.622 32.369L496.538 26.6002L497.685 26.5835L497.769 32.3523L500.056 32.3189L499.972 26.5501L498.824 26.5669L498.74 20.798L497.593 20.8147L497.509 15.0459L495.222 15.0793L495.306 20.8481L493.019 20.8814L492.935 15.1126L482.641 15.2626L482.725 21.0314L481.577 21.0481L481.493 15.2793L360.245 17.0457L360.329 22.8145L359.376 22.8284L359.292 17.0596L332.796 17.4456L332.712 11.6768L331.564 11.6935L331.648 17.4623L320.4 17.6262L320.316 11.8574L319.169 11.8741L319.253 17.6429L317.919 17.6623L317.835 11.8935L316.688 11.9102L316.772 17.679L314.671 17.7096L314.755 23.4784L313.607 23.4952L313.523 17.7264L308.95 17.793L308.764 17.7957L308.848 23.5645L307.894 23.5784L307.81 17.8096L305.524 17.8429L305.44 12.0741L304.292 12.0908L304.376 17.8596L301.904 17.8956L301.988 23.6644L301.034 23.6783L300.95 17.9095L296.377 17.9762L296.461 23.7449L296.275 23.7477L296.107 12.1955L294.959 12.2122L295.043 17.981L293.896 17.9977L293.812 12.2289L292.664 12.2456L292.748 18.0144L283.787 18.145L283.703 12.3762L282.555 12.3929L282.639 18.1617L281.492 18.1784L281.408 12.4096L280.074 12.429L280.158 18.1978L268.91 18.3617L268.826 12.5929L267.679 12.6096L267.763 18.3784L260.708 18.4812L260.624 12.7124L259.477 12.7291L259.561 18.4979L253.84 18.5813L253.756 12.8125L252.608 12.8292L252.86 30.1502L251.907 30.1641L251.739 18.6119L251.553 18.6146L251.469 12.8458L250.321 12.8625L250.405 18.6313L248.304 18.6619L248.22 12.8931L247.073 12.9098L247.157 18.6786L244.684 18.7146L244.6 12.9459L243.453 12.9626L243.537 18.7314L242.389 18.7481L242.473 24.5169L241.52 24.5308L241.351 12.9786L240.204 12.9953L240.288 18.7642L240.102 18.7669L240.271 30.319L239.317 30.3329L239.065 13.0119L237.731 13.0313L237.816 18.8002L236.668 18.8169L236.584 13.0481L235.436 13.0648L235.52 18.8336L233.234 18.8669L233.15 13.0981L231.048 13.1287L231.132 18.8975L227.513 18.9503L227.429 13.1814L225.327 13.212L225.411 18.9809L224.264 18.9976L224.18 13.2288L222.847 13.2482L222.931 19.017L221.783 19.0337L221.699 13.2649L219.412 13.2982L219.496 19.0671L218.349 19.0838L218.265 13.3149L217.117 13.3317L217.201 19.1005L215.1 19.1311L215.016 13.3623L213.868 13.379L213.952 19.1478L212.619 19.1673L212.535 13.3984L210.248 13.4317L210.332 19.2006L209.379 19.2145L209.295 13.4456L207.008 13.4789L207.092 19.2478L206.907 19.2505L206.823 13.4816L204.536 13.515L204.62 19.2838L203.472 19.3005L203.388 13.5317L197.853 13.6123L197.937 19.3812L197.751 19.3839L197.667 13.615L195.38 13.6483L195.464 19.4172L194.511 19.4311L194.427 13.6622L192.14 13.6955L192.224 19.4644L192.039 19.4671L191.954 13.6982L157.637 14.1982L157.721 19.967L156.767 19.9809L156.683 14.2121L134.946 14.5288L135.03 20.2976L133.883 20.3143L133.799 14.5455L77.7525 15.362L77.5668 15.3647L77.6509 21.1335L76.6974 21.1474L76.6134 15.3786L74.3266 15.4119L74.141 15.4146L74.225 21.1835L73.2715 21.1973L73.1874 15.4285L65.1796 15.5452L63.8464 15.5646L63.9305 21.3334L62.977 21.3473L62.8929 15.5785L61.5597 15.5979L61.6437 21.3667L59.5426 21.3974L59.4586 15.6285L58.311 15.6452L58.3951 21.4141L58.2094 21.4168L58.2934 27.1856L57.3399 27.1995L57.1716 15.6473L54.8849 15.6806L54.969 21.4494L53.8213 21.4661L53.7373 15.6973L51.4506 15.7306L51.5346 21.4994L50.387 21.5162L50.303 15.7474L49.1554 15.7641L49.2394 21.5329L45.8051 21.5829L46.2255 50.4415L45.0779 50.4582L44.9939 44.6894L40.4204 44.7561L40.5887 56.3083L41.7363 56.2915L41.6523 50.5227L42.7998 50.506L43.0522 67.827L41.9046 67.8437L42.1569 85.1647L43.3045 85.148L43.4728 96.7002L44.6204 96.6835L44.5364 90.9147L45.684 90.8979L45.768 96.6667L46.9156 96.65L46.9996 102.419L49.2864 102.386L49.1181 90.8333L50.2657 90.8166L50.518 108.138L51.6656 108.121L51.4133 90.7999L52.5608 90.7832L52.4768 85.0144L53.6244 84.9977L53.7927 96.5498L52.6451 96.5666L52.7291 102.335L53.8768 102.319L54.0451 113.871L57.4793 113.821L57.5634 119.59L58.711 119.573L58.627 113.804L59.7746 113.787L59.8586 119.556L71.3007 119.389L71.2167 113.621L72.1702 113.607L72.2542 119.376L83.882 119.206L83.7137 107.654L84.6672 107.64L84.8355 119.192L103.324 118.923L103.239 113.154L104.193 113.14L104.277 118.909L122.765 118.64L122.681 112.871L123.634 112.857L123.719 118.626L139.92 118.39L140.004 124.159L141.151 124.142L141.067 118.373L152.315 118.209L152.4 123.978L153.547 123.961L153.463 118.193L154.796 118.173L154.88 123.942L156.028 123.925L155.944 118.156L158.231 118.123L158.315 123.892L159.462 123.875L159.378 118.106L163.952 118.04L164.036 123.808L165.183 123.792L165.099 118.023L167.2 117.992L167.284 123.761L168.618 123.742L168.534 117.973L169.681 117.956L169.765 123.725L172.052 123.692L171.968 117.923L173.115 117.906L173.2 123.675L174.347 123.658L174.263 117.889L176.364 117.859L176.448 123.628L177.781 123.608L177.697 117.839L179.799 117.809L179.883 123.578L181.216 123.558L181.132 117.789L182.085 117.776L182.169 123.544L184.456 123.511L184.372 117.742L185.52 117.725L185.604 123.494L186.937 123.475L186.853 117.706L188 117.689L188.084 123.458L190.371 123.425L190.287 117.656L192.388 117.625L192.472 123.394L193.62 123.377L193.536 117.609L193.721 117.606L193.806 123.375L196.092 123.341L196.008 117.573L197.156 117.556L197.24 123.325L199.341 123.294L199.257 117.525L200.404 117.509L200.489 123.277L202.775 123.244L202.691 117.475L202.877 117.473L202.961 123.241L205.248 123.208L205.164 117.439L206.117 117.425L206.201 123.194L208.488 123.161L208.404 117.392L209.551 117.375L209.636 123.144L210.783 123.127L210.969 123.125L210.885 117.356L212.032 117.339L212.116 123.108L213.07 123.094L214.217 123.077L214.403 123.075L214.319 117.306L215.273 117.292L215.357 123.061L217.643 123.028L217.829 123.025L217.661 111.473L218.614 111.459L218.782 123.011L220.116 122.991L220.032 117.223L221.179 117.206L221.263 122.975L223.364 122.944L223.28 117.175L224.428 117.159L224.512 122.927L226.799 122.894L226.715 117.125L226.9 117.123L226.984 122.891L230.225 122.844L230.141 117.075L231.288 117.059L231.372 122.827L232.52 122.811L232.436 117.042L233.583 117.025L233.667 122.794L235.001 122.775L234.917 117.006L237.018 116.975L238.351 116.956L238.183 105.404L239.136 105.39L239.388 122.711L241.861 122.675L241.777 116.906L242.924 116.889L243.008 122.658L244.156 122.641L244.072 116.872L245.22 116.856L245.304 122.625L247.59 122.591L247.338 105.27L248.292 105.256L248.46 116.809L248.645 116.806L248.729 122.575L251.016 122.541L250.764 105.22L251.717 105.206L251.886 116.759L252.071 116.756L252.155 122.525L254.442 122.491L254.358 116.723L255.312 116.709L255.396 122.478L256.729 122.458L256.645 116.689L257.598 116.675L257.682 122.444L263.589 122.358L263.505 116.589L264.459 116.575L264.543 122.344L269.116 122.278L269.032 116.509L271.319 116.476L271.403 122.244L277.309 122.158L277.225 116.389L278.179 116.376L278.263 122.144L283.031 122.075L282.862 110.523L283.816 110.509L283.984 122.061L289.705 121.978L289.621 116.209L290.954 116.189L290.87 110.421L292.018 110.404L291.934 104.635L292.887 104.621L293.056 116.173L290.955 116.204L291.039 121.973L295.612 121.906L295.528 116.137L296.482 116.124L296.566 121.892L297.713 121.876L297.545 110.323L297.731 110.321L297.899 121.873L301.139 121.826L301.055 116.057L303.342 116.024L303.426 121.792L304.573 121.776L304.489 116.007L303.536 116.021L303.452 110.252L305.553 110.221L305.637 115.99L304.683 116.004L304.767 121.773L309.341 121.706L309.257 115.937L310.21 115.923L310.294 121.692L312.581 121.659L312.497 115.89L311.35 115.907L311.266 110.138L311.451 110.135L311.367 104.367L312.515 104.35L312.767 121.671L318.302 121.59L318.218 115.821L317.265 115.835L317.181 110.066L318.328 110.05L318.497 121.602L321.931 121.552L321.847 115.783L322.801 115.769L322.717 110L322.902 109.998L322.986 115.766L322.801 115.769L322.885 121.538L337.947 121.319L337.863 115.55L339.964 115.519L340.048 121.288L344.815 121.218L344.731 115.45L345.685 115.436L345.769 121.205L357.397 121.035L357.313 115.266L358.266 115.253L358.35 121.021L389.234 120.571L389.15 114.803L389.335 114.8L389.251 109.031L390.205 109.017L390.373 120.569L393.808 120.519L393.723 114.751L393.909 114.748L393.993 120.517L464.722 119.486L465.869 119.47L470.443 119.403L471.59 119.386L479.598 119.269L485.319 119.186L485.235 113.417L485.421 113.415L485.505 119.183L507.048 118.87L506.964 113.101L508.111 113.084L508.195 118.853L512.769 118.786L512.685 113.017L511.537 113.034L511.453 107.265L512.601 107.249L512.517 101.48L514.803 101.446L514.719 95.6777L513.572 95.6944L513.588 95.6505ZM307.827 29.364L306.873 29.3779L306.789 23.6091L307.743 23.5952L307.827 29.364ZM334.445 115.585L334.361 109.816L335.314 109.802L335.399 115.571L334.445 115.585Z" fill="#D9FF7A"/>
<path d="M44.7599 21.6572L43.6123 21.674L43.6963 27.4427L44.844 27.426L44.7599 21.6572Z" fill="#D9FF7A"/>
<path d="M43.6965 27.4418L42.5488 27.4585L42.6329 33.2273L43.7805 33.2106L43.6965 27.4418Z" fill="#D9FF7A"/>
<path d="M90.8496 91V49H99.4296V91H90.8496ZM93.3696 54.7L99.4296 49L118.21 84.22V91H112.69L93.3696 54.7ZM139.99 91H131.41V49H139.99V91ZM137.47 54.7L118.21 91H112.69V84.22L131.41 49L137.47 54.7ZM145.986 91V61H154.206V91H145.986ZM145.086 51.88C145.086 50.16 145.466 48.9 146.226 48.1C147.026 47.3 148.306 46.9 150.066 46.9C151.866 46.9 153.146 47.3 153.906 48.1C154.706 48.9 155.106 50.16 155.106 51.88C155.106 53.56 154.706 54.82 153.906 55.66C153.146 56.46 151.866 56.86 150.066 56.86C148.306 56.86 147.026 56.46 146.226 55.66C145.466 54.82 145.086 53.56 145.086 51.88ZM191.125 91H182.905V75.22C182.905 74.06 182.805 73.02 182.605 72.1C182.405 71.14 182.045 70.34 181.525 69.7C181.005 69.06 180.285 68.58 179.365 68.26C178.485 67.9 177.365 67.72 176.005 67.72C173.525 67.72 171.645 68.42 170.365 69.82C169.085 71.18 168.445 73.24 168.445 76V76.78H165.865V76C165.865 73.64 166.105 71.5 166.585 69.58C167.065 67.62 167.805 65.94 168.805 64.54C169.805 63.14 171.085 62.06 172.645 61.3C174.245 60.5 176.185 60.1 178.465 60.1C180.545 60.1 182.365 60.36 183.925 60.88C185.525 61.36 186.845 62.16 187.885 63.28C188.965 64.4 189.765 65.88 190.285 67.72C190.845 69.52 191.125 71.76 191.125 74.44V91ZM168.445 91H160.225V61H168.445V91ZM196.553 91V61H204.773V91H196.553ZM195.653 51.88C195.653 50.16 196.033 48.9 196.793 48.1C197.593 47.3 198.873 46.9 200.633 46.9C202.433 46.9 203.713 47.3 204.473 48.1C205.273 48.9 205.673 50.16 205.673 51.88C205.673 53.56 205.273 54.82 204.473 55.66C203.713 56.46 202.433 56.86 200.633 56.86C198.873 56.86 197.593 56.46 196.793 55.66C196.033 54.82 195.653 53.56 195.653 51.88ZM247.617 91.9C239.977 91.9 234.317 90.12 230.637 86.56C226.997 82.96 225.177 77.44 225.177 70C225.177 62.56 226.877 57.06 230.277 53.5C233.717 49.9 238.997 48.1 246.117 48.1C249.397 48.1 252.297 48.38 254.817 48.94C257.337 49.5 259.457 50.4 261.177 51.64C262.937 52.88 264.257 54.48 265.137 56.44C266.057 58.4 266.517 60.78 266.517 63.58H258.297C258.297 62.02 257.937 60.76 257.217 59.8C256.497 58.8 255.557 58.04 254.397 57.52C253.237 56.96 251.917 56.58 250.437 56.38C248.957 56.18 247.477 56.08 245.997 56.08C243.837 56.08 241.997 56.36 240.477 56.92C238.957 57.44 237.717 58.26 236.757 59.38C235.837 60.5 235.157 61.94 234.717 63.7C234.277 65.42 234.057 67.5 234.057 69.94C234.057 74.82 235.177 78.38 237.417 80.62C239.657 82.82 243.097 83.92 247.737 83.92C249.017 83.92 250.297 83.84 251.577 83.68C252.897 83.52 254.057 83.2 255.057 82.72C256.097 82.24 256.937 81.54 257.577 80.62C258.217 79.7 258.537 78.48 258.537 76.96H266.757C266.757 79.76 266.297 82.12 265.377 84.04C264.497 85.92 263.217 87.44 261.537 88.6C259.857 89.76 257.837 90.6 255.477 91.12C253.117 91.64 250.497 91.9 247.617 91.9ZM269.767 76C269.767 70.76 271.147 66.8 273.907 64.12C276.667 61.44 280.927 60.1 286.687 60.1C292.447 60.1 296.707 61.44 299.467 64.12C302.267 66.8 303.667 70.76 303.667 76C303.667 81.24 302.267 85.2 299.467 87.88C296.707 90.56 292.447 91.9 286.687 91.9C280.927 91.9 276.667 90.56 273.907 87.88C271.147 85.2 269.767 81.24 269.767 76ZM278.287 76C278.287 78.76 278.967 80.84 280.327 82.24C281.727 83.6 283.847 84.28 286.687 84.28C289.567 84.28 291.687 83.6 293.047 82.24C294.447 80.84 295.147 78.76 295.147 76C295.147 73.24 294.447 71.18 293.047 69.82C291.687 68.42 289.567 67.72 286.687 67.72C283.687 67.72 281.527 68.42 280.207 69.82C278.927 71.18 278.287 73.24 278.287 76ZM307.867 61H316.087V76.78C316.087 77.94 316.187 79 316.387 79.96C316.587 80.88 316.947 81.66 317.467 82.3C317.987 82.94 318.687 83.44 319.567 83.8C320.487 84.12 321.627 84.28 322.987 84.28C325.467 84.28 327.347 83.6 328.627 82.24C329.907 80.84 330.547 78.76 330.547 76V75.22H333.127V76C333.127 78.36 332.887 80.52 332.407 82.48C331.927 84.4 331.187 86.06 330.187 87.46C329.187 88.86 327.887 89.96 326.287 90.76C324.727 91.52 322.807 91.9 320.527 91.9C318.447 91.9 316.607 91.64 315.007 91.12C313.447 90.64 312.127 89.84 311.047 88.72C310.007 87.6 309.207 86.14 308.647 84.34C308.127 82.5 307.867 80.24 307.867 77.56V61ZM330.547 61H338.767V91H330.547V61ZM353.015 91H344.795V61H353.015V91ZM372.695 73.12H365.315C365.315 72.32 365.195 71.6 364.955 70.96C364.715 70.28 364.355 69.7 363.875 69.22C363.395 68.74 362.795 68.38 362.075 68.14C361.355 67.86 360.555 67.72 359.675 67.72C357.555 67.72 355.915 68.42 354.755 69.82C353.595 71.18 353.015 73.24 353.015 76V76.78H350.435V76C350.435 73.64 350.675 71.5 351.155 69.58C351.675 67.62 352.395 65.94 353.315 64.54C354.275 63.14 355.435 62.06 356.795 61.3C358.195 60.5 359.795 60.1 361.595 60.1C363.355 60.1 364.915 60.36 366.275 60.88C367.675 61.4 368.835 62.2 369.755 63.28C370.715 64.32 371.435 65.66 371.915 67.3C372.435 68.94 372.695 70.88 372.695 73.12ZM375.764 69.52C375.764 67.84 376.044 66.42 376.604 65.26C377.164 64.06 378.024 63.08 379.184 62.32C380.384 61.56 381.864 61 383.624 60.64C385.424 60.28 387.544 60.1 389.984 60.1C395.304 60.1 399.184 60.98 401.624 62.74C404.064 64.46 405.284 67.28 405.284 71.2H397.844C397.844 70.36 397.644 69.68 397.244 69.16C396.884 68.6 396.304 68.16 395.504 67.84C394.744 67.48 393.764 67.24 392.564 67.12C391.364 66.96 389.984 66.88 388.424 66.88C387.224 66.88 386.244 66.96 385.484 67.12C384.724 67.24 384.144 67.42 383.744 67.66C383.344 67.9 383.064 68.16 382.904 68.44C382.744 68.72 382.664 69.02 382.664 69.34C382.664 69.7 382.824 70.02 383.144 70.3C383.504 70.58 384.024 70.86 384.704 71.14C385.424 71.42 386.324 71.68 387.404 71.92C388.484 72.16 389.784 72.4 391.304 72.64C393.384 72.96 395.304 73.3 397.064 73.66C398.824 73.98 400.344 74.48 401.624 75.16C402.904 75.8 403.884 76.68 404.564 77.8C405.284 78.92 405.644 80.44 405.644 82.36C405.644 85.8 404.444 88.26 402.044 89.74C399.684 91.18 396.204 91.9 391.604 91.9C386.084 91.9 382.044 91.04 379.484 89.32C376.964 87.56 375.704 84.72 375.704 80.8H383.084C383.084 81.6 383.304 82.28 383.744 82.84C384.224 83.4 384.884 83.84 385.724 84.16C386.564 84.48 387.584 84.72 388.784 84.88C389.984 85.04 391.324 85.12 392.804 85.12C393.884 85.12 394.784 85.06 395.504 84.94C396.264 84.82 396.884 84.64 397.364 84.4C397.844 84.16 398.184 83.9 398.384 83.62C398.624 83.3 398.744 82.96 398.744 82.6C398.744 82.08 398.564 81.66 398.204 81.34C397.844 81.02 397.284 80.76 396.524 80.56C395.764 80.36 394.824 80.2 393.704 80.08C392.584 79.92 391.304 79.72 389.864 79.48C388.224 79.28 386.564 79 384.884 78.64C383.204 78.28 381.684 77.74 380.324 77.02C378.964 76.3 377.864 75.34 377.024 74.14C376.184 72.94 375.764 71.4 375.764 69.52ZM440.84 77.2V78.4H432.92V74.5C432.92 73.18 432.74 72.04 432.38 71.08C432.02 70.12 431.5 69.34 430.82 68.74C430.18 68.1 429.4 67.64 428.48 67.36C427.56 67.04 426.52 66.88 425.36 66.88C424.28 66.88 423.26 67.08 422.3 67.48C421.38 67.84 420.58 68.4 419.9 69.16C419.22 69.92 418.68 70.88 418.28 72.04C417.92 73.16 417.74 74.48 417.74 76C417.74 77.72 417.92 79.16 418.28 80.32C418.64 81.48 419.18 82.42 419.9 83.14C420.62 83.82 421.5 84.32 422.54 84.64C423.58 84.96 424.76 85.12 426.08 85.12C427.08 85.12 428 85 428.84 84.76C429.72 84.52 430.46 84.22 431.06 83.86C431.7 83.46 432.18 83 432.5 82.48C432.86 81.92 433.04 81.36 433.04 80.8H440.48C440.48 84.12 439.24 86.8 436.76 88.84C434.32 90.88 430.74 91.9 426.02 91.9C420.34 91.9 416.12 90.56 413.36 87.88C410.6 85.2 409.22 81.24 409.22 76C409.22 70.88 410.56 66.96 413.24 64.24C415.96 61.48 419.86 60.1 424.94 60.1C430.62 60.1 434.68 61.52 437.12 64.36C439.6 67.2 440.84 71.48 440.84 77.2ZM412.82 78.4V72.58H438.08V78.4H412.82ZM444.495 69.52C444.495 67.84 444.775 66.42 445.335 65.26C445.895 64.06 446.755 63.08 447.915 62.32C449.115 61.56 450.595 61 452.355 60.64C454.155 60.28 456.275 60.1 458.715 60.1C464.035 60.1 467.915 60.98 470.355 62.74C472.795 64.46 474.015 67.28 474.015 71.2H466.575C466.575 70.36 466.375 69.68 465.975 69.16C465.615 68.6 465.035 68.16 464.235 67.84C463.475 67.48 462.495 67.24 461.295 67.12C460.095 66.96 458.715 66.88 457.155 66.88C455.955 66.88 454.975 66.96 454.215 67.12C453.455 67.24 452.875 67.42 452.475 67.66C452.075 67.9 451.795 68.16 451.635 68.44C451.475 68.72 451.395 69.02 451.395 69.34C451.395 69.7 451.555 70.02 451.875 70.3C452.235 70.58 452.755 70.86 453.435 71.14C454.155 71.42 455.055 71.68 456.135 71.92C457.215 72.16 458.515 72.4 460.035 72.64C462.115 72.96 464.035 73.3 465.795 73.66C467.555 73.98 469.075 74.48 470.355 75.16C471.635 75.8 472.615 76.68 473.295 77.8C474.015 78.92 474.375 80.44 474.375 82.36C474.375 85.8 473.175 88.26 470.775 89.74C468.415 91.18 464.935 91.9 460.335 91.9C454.815 91.9 450.775 91.04 448.215 89.32C445.695 87.56 444.435 84.72 444.435 80.8H451.815C451.815 81.6 452.035 82.28 452.475 82.84C452.955 83.4 453.615 83.84 454.455 84.16C455.295 84.48 456.315 84.72 457.515 84.88C458.715 85.04 460.055 85.12 461.535 85.12C462.615 85.12 463.515 85.06 464.235 84.94C464.995 84.82 465.615 84.64 466.095 84.4C466.575 84.16 466.915 83.9 467.115 83.62C467.355 83.3 467.475 82.96 467.475 82.6C467.475 82.08 467.295 81.66 466.935 81.34C466.575 81.02 466.015 80.76 465.255 80.56C464.495 80.36 463.555 80.2 462.435 80.08C461.315 79.92 460.035 79.72 458.595 79.48C456.955 79.28 455.295 79 453.615 78.64C451.935 78.28 450.415 77.74 449.055 77.02C447.695 76.3 446.595 75.34 445.755 74.14C444.915 72.94 444.495 71.4 444.495 69.52Z" fill="black"/>
</svg>
