<svg width="27" height="28" viewBox="0 0 27 28" fill="none" xmlns="http://www.w3.org/2000/svg">
<path d="M8.06209 5.59758C8.32682 5.32534 8.60415 5.05956 8.88148 4.80028C7.02209 4.45674 5.07446 5.04659 3.68779 6.47264L0.5804 9.66828C0.151794 10.1091 -0.056221 10.7119 0.0131123 11.3277C0.0761426 11.9435 0.403895 12.488 0.914441 12.8251L2.9188 14.1604C3.86425 11.0684 5.64174 8.09316 8.0684 5.59109L8.06209 5.59758Z" fill="white"/>
<path d="M21.569 19.482C19.1423 21.9776 16.2429 23.812 13.2363 24.7779L14.5348 26.8392C14.8625 27.3642 15.392 27.7013 15.9908 27.7661C16.0601 27.7726 16.1357 27.779 16.2051 27.779C16.7282 27.779 17.2325 27.5651 17.6044 27.1827L20.7054 23.9936C22.0984 22.561 22.672 20.5581 22.3379 18.6459C22.0858 18.9311 21.8337 19.2163 21.5626 19.4885L21.569 19.482Z" fill="white"/>
<path d="M16.4752 6.97168C15.5108 6.97168 14.5528 7.34763 13.8153 8.09955C12.3467 9.60986 12.3467 12.0601 13.8153 13.5704C15.2839 15.0742 17.6665 15.0742 19.1351 13.5704C20.6037 12.0601 20.6037 9.60986 19.1351 8.09955C18.4039 7.34763 17.4395 6.97168 16.4752 6.97168Z" fill="white"/>
<path d="M25.6215 1.74718L25.5332 1.52679L25.319 1.43603C20.3585 -0.625256 13.734 1.37121 8.84284 6.40128C5.96235 9.36357 4.04623 13.0259 3.44745 16.7142L3.40332 16.9994L10.4942 24.2917L10.7716 24.2463C14.3517 23.6306 17.9129 21.66 20.7997 18.6977C25.6908 13.6677 27.6322 6.86151 25.6278 1.75367L25.6215 1.74718ZM19.911 14.3677C18.9655 15.34 17.7175 15.8261 16.4758 15.8261C15.2341 15.8261 13.9861 15.34 13.0406 14.3677C11.1434 12.4166 11.1434 9.2469 13.0406 7.30229C14.9378 5.35768 18.02 5.35119 19.911 7.30229C21.8082 9.25338 21.8082 12.4231 19.911 14.3677Z" fill="white"/>
<path d="M3.57406 19.3007L3.17065 19.6507C2.95635 19.8387 2.73573 20.0461 2.52773 20.2665C0.454035 22.3991 -0.220391 25.4067 0.201912 27.1504L0.283854 27.4939L0.617933 27.5782C0.933085 27.656 1.29866 27.7014 1.68315 27.7014C3.37236 27.7014 5.62253 26.917 7.30544 25.1863C7.51344 24.9724 7.71514 24.7456 7.90423 24.5252L8.24458 24.1103L3.56775 19.3007H3.57406Z" fill="white"/>
</svg>
