<svg width="45" height="69" viewBox="0 0 45 69" fill="none" xmlns="http://www.w3.org/2000/svg">
<path opacity="0.15" d="M40.2004 5.64343V4.67524C40.2004 4.49689 40.1877 4.31857 40.1496 4.15297C40.01 3.47779 39.6165 2.89175 39.0579 2.52232C38.639 2.24205 38.144 2.07648 37.6108 2.07648H2.58766C1.15322 2.07648 -0.00195312 3.23571 -0.00195312 4.67524V5.64343C-0.00195312 6.06382 0.112289 6.45878 0.290007 6.80273C0.290007 6.80273 0.328091 6.84093 0.340785 6.86641C0.429644 7.03202 0.531197 7.18487 0.658139 7.325C0.683527 7.35048 0.708919 7.38871 0.721613 7.41419C0.861249 7.56706 1.02627 7.7072 1.20399 7.82185C1.22938 7.83459 1.26746 7.86004 1.29285 7.87278C1.44518 7.96195 1.6102 8.03844 1.77522 8.0894C1.826 8.10214 1.87678 8.12759 1.94025 8.14033C2.15605 8.19128 2.37185 8.22951 2.58766 8.22951H2.99387C2.4988 17.7584 6.30704 27.9243 14.7613 32.8543C15.7134 33.4403 17.4525 34.281 17.3763 35.5677C17.1732 36.8289 15.7642 37.8608 14.8121 38.7143C13.657 39.6825 12.451 40.6124 11.3085 41.6443C7.84303 44.689 5.01224 48.7146 4.03479 53.3007C3.32392 56.4472 3.47624 59.6829 4.12365 62.8295H2.58766C1.15322 62.8295 -0.00195312 63.9888 -0.00195312 65.4283V66.3965C-0.00195312 66.8169 0.112289 67.2118 0.290007 67.5558C0.290007 67.5558 0.328091 67.594 0.340785 67.6195C0.429644 67.7851 0.531194 67.9379 0.645442 68.078C0.67083 68.1035 0.696225 68.1417 0.721613 68.1672C0.861249 68.3201 1.02627 68.4602 1.20399 68.5749C1.22938 68.6004 1.26746 68.6131 1.29285 68.6258C1.44518 68.715 1.6102 68.7915 1.77522 68.8424C1.826 68.8552 1.87678 68.8806 1.94025 68.8934C2.14336 68.9443 2.35916 68.9826 2.58766 68.9826H37.6108C38.3217 68.9826 38.9691 68.6895 39.4388 68.2182C39.9085 67.7468 40.2004 67.0971 40.2004 66.3837V65.4156C40.2004 63.9761 39.0453 62.8168 37.6108 62.8168H36.0621C36.6841 59.6829 36.8111 56.4345 36.1002 53.3007C34.6785 46.8292 30.3117 42.6634 25.3356 38.7652C22.3398 36.2301 21.4639 34.9053 25.399 32.7906C26.7319 32.0135 27.9887 31.0835 29.1311 30.0262C35.0339 24.4974 37.5347 16.1787 37.3189 8.21676H37.6108C39.0453 8.21676 40.2004 7.05752 40.2004 5.618V5.64343Z" fill="black"/>
<path d="M38.8416 64.8041C43.2211 51.4662 37.458 44.0647 32.2788 39.5933C27.9247 35.8353 23.5452 33.5549 28.9529 30.5612C38.5116 25.2745 42.4087 13.236 40.7838 2.49689H7.71557C6.09071 13.236 9.98783 25.2745 19.5465 30.5612C24.9669 33.5549 20.5747 35.8353 16.2207 39.5933C11.0287 44.0647 5.2783 51.4662 9.65778 64.8041H38.8416Z" fill="#DEF1F9"/>
<path d="M34.2456 2.49689C35.4389 13.2487 36.7464 23.8986 28.9395 30.5612C38.4981 25.2745 42.3953 13.236 40.7704 2.49689H34.2456Z" fill="#D1E4EF"/>
<path d="M32.2655 39.5933C31.415 38.8544 30.5645 38.1793 29.7902 37.5423C36.6831 44.3195 37.9398 58.6638 24.2428 63.3008C22.8338 63.7722 21.5644 64.2817 20.4473 64.804H38.8284C43.2079 51.4661 37.4447 44.0647 32.2655 39.5933Z" fill="#D1E4EF"/>
<path d="M38.6636 64.5748C38.7652 64.0652 38.9048 63.5812 39.0318 63.0843C41.469 54.1542 39.4507 46.396 32.4054 40.294C31.2883 39.3003 30.0824 38.3831 28.9145 37.4022C27.7467 36.3575 26.2361 35.2875 25.9949 33.5932C25.8679 31.746 27.7594 30.7396 29.1049 29.9498C30.387 29.2109 31.593 28.3192 32.6974 27.3255C39.0952 21.4528 41.596 12.1659 40.5678 3.68164C40.5424 3.40138 40.4789 3.12107 40.4535 2.84081C40.4408 2.61151 40.3646 2.64975 40.0219 2.62427L40.7836 3.28673C41.0121 3.2103 6.89017 2.8663 7.86762 2.53509C6.76323 11.3761 9.14972 21.1342 15.8395 27.2873C16.9439 28.2809 18.1372 29.16 19.4193 29.8988C21.3107 30.918 23.583 32.4976 22.1104 34.8926C21.463 35.9244 20.5237 36.7016 19.6351 37.4659C18.4545 38.4468 17.2613 39.3767 16.1442 40.3576C11.5108 44.3577 8.52772 49.6191 8.51502 55.8485C8.46424 58.8549 9.03548 61.8486 9.91138 64.7149C9.91138 64.7149 9.65749 64.5366 9.67018 64.5366C19.3431 64.5366 29.0034 64.5366 38.6763 64.562L38.6636 64.5748ZM39.0064 65.0334C29.1684 65.0589 19.3051 65.0716 9.46708 65.0589C7.93109 60.6766 7.14405 55.8358 8.18497 51.2242C9.16242 46.6253 11.9805 42.6125 15.4587 39.5678C16.6012 38.5359 17.8198 37.606 18.9623 36.6378C19.9144 35.7843 21.3234 34.7525 21.5265 33.4913C21.6154 32.2174 19.8636 31.3639 18.9115 30.7779C9.36553 25.2108 5.72231 12.9302 7.56296 2.45865L7.57565 2.31854H7.71528L40.7836 1.69434H41.4437L41.5452 2.3568C41.2152 2.49693 41.139 2.48414 41.1898 2.7007C41.2786 3.36314 41.3548 4.03833 41.3929 4.71351C41.9768 13.0959 39.5268 22.0897 33.2813 27.9497C32.1388 28.9943 30.8948 29.9243 29.5492 30.7141C25.614 32.8288 26.4899 34.1409 29.4858 36.6888C34.4619 40.5997 38.8414 44.7527 40.2504 51.2242C41.139 55.1988 40.7328 59.3517 39.6157 63.2244C39.4507 63.8232 39.2349 64.4474 39.0064 65.0207V65.0334Z" fill="#C4DDEB"/>
<path d="M10.9912 14.2297C17.4779 9.24867 35.6813 10.0003 37.7378 13.2488C37.7378 13.2488 37.7886 17.44 30.134 18.6502C22.4794 19.8732 11.0039 14.2297 11.0039 14.2297H10.9912Z" fill="#F7D28C"/>
<path d="M31.9746 57.4664C28.9027 55.0205 25.7291 52.4982 25.0817 48.6892C25.0436 48.4471 25.0309 48.1923 25.0309 47.9503V32.4722C25.0309 30.6632 26.0084 28.9944 27.5952 28.1154C27.5952 28.1154 27.5952 28.1154 27.6079 28.1154C31.543 25.937 34.615 22.2809 36.4684 17.5547C37.0142 16.1789 37.4331 14.7266 37.7378 13.2488C31.9747 19.6821 17.4906 10.357 10.9912 14.2297C11.2705 15.3635 11.6259 16.4846 12.0448 17.5547C13.8982 22.2809 16.9575 25.937 20.9053 28.1154C20.9053 28.1154 20.9054 28.1154 20.918 28.1154C22.4921 28.9944 23.4823 30.6632 23.4823 32.4722V47.9503C23.4823 48.1923 23.4823 48.4471 23.4315 48.6892C22.7841 52.4982 19.6105 55.0205 16.5386 57.4664C13.6951 59.7212 11.0039 61.8614 11.0039 64.8042V65.5812H37.522V64.8042C37.522 61.8614 34.8308 59.7212 31.9874 57.4664H31.9746Z" fill="#F3BD68"/>
<path d="M37.5093 64.8041C37.5093 61.8613 34.8181 59.7211 31.9746 57.4663C30.7179 56.4599 29.4358 55.4536 28.3314 54.3325C30.8703 57.3899 20.3976 60.6257 13.8601 59.683C12.2099 61.2117 10.9912 62.8168 10.9912 64.8041V65.5811H37.5093V64.8041Z" fill="#F3AA68"/>
<path d="M28.0136 54.0139C28.0136 54.0139 28.0136 54.0139 28.001 54.0013C28.001 54.0013 28.001 54.0013 28.0136 54.0139Z" fill="#F3AA68"/>
<path d="M31.9232 15.5545C31.9994 20.2043 30.6284 24.1662 28.0134 26.4465C26.2108 28.0134 25.0176 29.9242 25.0176 32.4593C25.0176 30.6503 25.995 28.9815 27.5818 28.1025C27.5818 28.1025 27.5818 28.1025 27.5945 28.1025C31.5297 25.9241 34.6017 22.268 36.455 17.5418C37.0009 16.166 37.4198 14.7137 37.7244 13.236C36.2646 14.8666 34.2335 15.4781 31.9232 15.5545Z" fill="#F3AA68"/>
<path d="M15.2428 7.59253L12.0312 7.66896C11.8916 7.66896 11.7773 7.7963 11.79 7.93643C11.9931 9.65622 13.3006 19.1724 18.3529 23.198C18.556 23.3636 18.8353 23.1343 18.721 22.8923C17.7182 20.8795 15.5475 15.6437 15.4967 7.83458C15.4967 7.69445 15.3825 7.59253 15.2428 7.59253Z" fill="white"/>
<path d="M18.265 40.7526C15.4469 42.5361 9.82333 47.4535 10.2549 58.1289C10.2676 58.5875 10.6485 58.9442 11.0928 58.9442H12.8065C13.2761 58.9442 13.657 58.562 13.6443 58.0907C13.53 50.0905 15.7642 44.8292 18.6839 41.2113C18.9123 40.931 18.5696 40.5488 18.265 40.7399V40.7526Z" fill="white"/>
<path d="M41.7612 0.0125732H6.73805C5.30785 0.0125732 4.14844 1.17606 4.14844 2.61133V3.56677C4.14844 5.00204 5.30785 6.16561 6.73805 6.16561H41.7612C43.1914 6.16561 44.3508 5.00204 44.3508 3.56677V2.61133C44.3508 1.17606 43.1914 0.0125732 41.7612 0.0125732Z" fill="#936446"/>
<path d="M31.1237 0.0126953H7.55067C6.89867 0.0126953 6.37012 0.543113 6.37012 1.19743V1.21018C6.37012 1.86449 6.89867 2.39491 7.55067 2.39491H31.1237C31.7757 2.39491 32.3043 1.86449 32.3043 1.21018V1.19743C32.3043 0.543113 31.7757 0.0126953 31.1237 0.0126953Z" fill="#A37B62"/>
<path d="M15.7767 0.0126953H10.0643C9.41234 0.0126953 8.88379 0.543113 8.88379 1.19743V1.21018C8.88379 1.86449 9.41234 2.39491 10.0643 2.39491H15.7767C16.4287 2.39491 16.9573 1.86449 16.9573 1.21018V1.19743C16.9573 0.543113 16.4287 0.0126953 15.7767 0.0126953Z" fill="#B59682"/>
<path d="M41.7612 0.0127516H40.3903V2.10199C40.3903 3.55426 39.2097 4.73901 37.7626 4.73901H4.42773C4.85934 5.59253 5.72254 6.16579 6.73807 6.16579H41.7612C43.1957 6.16579 44.3508 5.00647 44.3508 3.56695V2.59884C44.3508 1.15931 43.1957 0 41.7612 0V0.0127516Z" fill="#885433"/>
<path d="M41.7612 60.7529H6.73805C5.30785 60.7529 4.14844 61.9164 4.14844 63.3516V64.3071C4.14844 65.7423 5.30785 66.9059 6.73805 66.9059H41.7612C43.1914 66.9059 44.3508 65.7423 44.3508 64.3071V63.3516C44.3508 61.9164 43.1914 60.7529 41.7612 60.7529Z" fill="#936446"/>
<path d="M31.1237 60.7529H7.55067C6.89867 60.7529 6.37012 61.2833 6.37012 61.9377V61.9504C6.37012 62.6047 6.89867 63.1351 7.55067 63.1351H31.1237C31.7757 63.1351 32.3043 62.6047 32.3043 61.9504V61.9377C32.3043 61.2833 31.7757 60.7529 31.1237 60.7529Z" fill="#A37B62"/>
<path d="M15.7767 60.7529H10.0643C9.41234 60.7529 8.88379 61.2833 8.88379 61.9377V61.9504C8.88379 62.6047 9.41234 63.1351 10.0643 63.1351H15.7767C16.4287 63.1351 16.9573 62.6047 16.9573 61.9504V61.9377C16.9573 61.2833 16.4287 60.7529 15.7767 60.7529Z" fill="#B59682"/>
<path d="M41.7612 60.753H40.3903V62.8422C40.3903 64.2945 39.2097 65.4792 37.7626 65.4792H4.42773C4.85934 66.3328 5.72254 66.906 6.73807 66.906H41.7612C43.1957 66.906 44.3508 65.7467 44.3508 64.3072V63.3391C44.3508 61.8995 43.1957 60.7402 41.7612 60.7402V60.753Z" fill="#885433"/>
</svg>
