<svg width="360" height="91" viewBox="0 0 360 91" fill="none" xmlns="http://www.w3.org/2000/svg">
<path d="M200.357 13.6107L197.148 13.6892L197.26 17.5332H196.476L196.588 21.4163H194.984C194.984 21.4556 195.096 25.2995 195.096 25.2995H194.312L194.2 21.4556H194.984L194.797 13.7284L192.409 13.8069L192.521 17.6508H191.737L191.849 21.534H191.065L190.953 17.69H191.737L191.625 13.8069L189.237 13.8853L189.349 17.7293H190.132L190.431 29.2612H189.647L189.759 33.1444H188.976L188.864 29.3004H189.647L189.349 17.7293H188.565L188.453 13.8853H187.67L186.886 13.9245H186.102L185.319 13.9638L185.431 17.8077H186.214L186.326 21.6517H187.11L186.998 17.7685H187.782L188.341 40.8715H186.737C186.737 40.9107 186.625 37.0668 186.625 37.0668H187.408L187.11 25.4957H186.326L185.542 25.5349L185.431 21.6909H184.647L184.46 14.003L178.042 14.1991H177.258L171.66 14.3952L171.959 25.9663H171.175L171.362 33.6935H170.578L170.466 29.8495H169.683L168.899 29.8888L168.712 22.1616H169.496L169.608 26.0056H170.392L170.205 18.2784H170.989L170.877 14.3952L166.884 14.5129L167.07 22.24H166.287L166.473 29.9672H165.69L165.503 22.2793H166.287L166.1 14.5521L163.712 14.6306L163.6 10.7866H162.816L162.928 14.6698L160.54 14.7482L160.726 22.4754H161.51L161.398 18.5922H162.182L162.294 22.4362H161.51L161.697 30.1633H160.913L161.025 34.0465H160.241L160.353 37.9297H159.57L159.271 26.3978H160.055L159.868 18.6707H159.084L158.973 14.8267H158.189L158.487 26.3978H157.704L157.816 30.281H157.032L156.845 22.5931H157.629L157.331 11.0219H156.547L156.659 14.9051H155.054C155.054 14.9444 155.166 18.7883 155.166 18.7883L155.278 22.6323H153.673C153.673 22.6715 153.785 26.5155 153.785 26.5155H153.002L153.114 30.3987H151.509C151.509 30.4379 151.621 34.2819 151.621 34.2819H150.837L150.651 26.5939H152.255C152.255 26.5547 152.143 22.7107 152.143 22.7107H153.748C153.748 22.6715 153.636 18.8275 153.636 18.8275L153.524 14.9836H152.741L151.957 15.0228H151.173L151.285 18.906H150.502L150.39 15.062H149.606L149.792 22.7892H149.009L148.822 15.1013H148.039L147.255 15.1405L147.143 11.2965H146.359L146.546 19.0237H145.762L145.65 15.1797H144.867L145.053 22.9069H144.27L144.083 15.2189L140.874 15.2974L140.986 19.1413H140.202L140.389 26.8685H141.172L141.284 30.7125H140.5L140.389 26.8685H139.605L139.418 19.1806H140.202L140.09 15.2974H138.485C138.485 15.3366 137.702 15.3758 137.702 15.3758H136.918L137.03 19.259H136.246L136.358 23.1422H135.575L135.388 15.4543H134.604L134.492 11.6103H133.709L133.821 15.4935L130.611 15.5719L130.499 11.728H129.716L129.828 15.6112H129.044L128.26 15.6504L128.372 19.4944L128.484 23.3383H127.701L127.813 27.2215H127.029L126.917 23.3775H126.133L126.021 19.5336H126.805L126.693 15.6504H125.909L125.797 11.8064H125.014L125.126 15.6896H124.342L124.23 11.8457H123.446L123.558 15.7288H121.954C121.954 15.7681 121.842 11.9241 121.842 11.9241H121.058L121.17 15.8073H120.386L120.274 11.9633H118.67C118.67 12.0025 118.782 15.8465 118.782 15.8465H119.565L119.677 19.6905H118.894L118.782 15.8465H117.998L117.886 12.0025H117.103L117.214 15.8857H116.431L116.319 12.0418H115.535L115.647 15.925L115.759 19.7689H114.975L114.863 15.925H114.08L113.968 12.081H113.184L113.296 15.9642H111.692C111.692 16.0034 111.58 12.1594 111.58 12.1594H110.796L110.908 16.0426H110.124L110.012 12.1987H108.408C108.408 12.2379 108.52 16.0819 108.52 16.0819H107.736L107.624 12.2379H106.019C106.019 12.2771 106.131 16.1211 106.131 16.1211H105.348L105.236 12.2771H104.452L104.564 16.1603H103.78L102.997 16.1995L102.885 12.3556H102.101L102.213 16.2388H100.608C100.608 16.278 100.496 12.434 100.496 12.434H99.7127L99.8246 16.3172H99.041L97.4363 16.3957L97.3244 12.5517H96.5407L96.6526 16.4349H95.048C95.048 16.4741 95.16 20.3181 95.16 20.3181H94.3763L94.2643 16.4741H93.4807L93.3687 12.6301H92.5851L92.697 16.5133H91.9133L91.1297 16.5525L91.0177 12.7086H90.2341L90.346 16.5918H89.5624L88.7787 16.631L89.0772 28.2021H88.2936L87.995 16.6702H87.2114L87.0994 12.8263H86.3158L86.4277 16.7094H85.644L84.8604 16.7487L84.7484 12.9047H83.9648L84.0767 16.7879H82.4721C82.4721 16.8271 82.3601 12.9832 82.3601 12.9832H81.5765L81.6884 16.8663H80.9047L80.7928 13.0224H79.1881C79.1881 13.0616 79.3001 16.9056 79.3001 16.9056H78.5164L76.1281 16.984L76.3147 24.7112H75.5311L75.3445 17.0232H76.1281L76.0162 13.14L73.6279 13.2185L73.7398 17.0625H72.1352C72.1352 17.1017 72.2471 20.9457 72.2471 20.9457H71.4635L71.3515 17.1017L71.2396 13.2577L66.4256 13.3754L66.5376 17.2194H65.7539L65.642 13.3754L61.649 13.4931L61.761 17.337H60.9773L60.8654 13.4931L56.8724 13.6107L56.9843 17.4547H56.2007L56.0887 13.6107H54.4841C54.4841 13.65 54.596 17.4939 54.596 17.4939H55.3797L55.4917 21.3379H54.708L54.596 17.4939H53.8124L53.7004 13.65L50.4911 13.7284L50.6031 17.5724H49.8194L49.7075 13.7284H48.1028C48.1028 13.7676 48.2148 17.6116 48.2148 17.6116L48.3267 21.4556H47.5431L47.655 25.3388H46.8714L46.7594 21.4948H47.5431L47.4311 17.6116L47.3192 13.7676H45.7145C45.7145 13.8069 45.8265 17.6508 45.8265 17.6508H45.0428L44.9309 13.8069H43.3262C43.3262 13.8461 43.5128 21.5732 43.5128 21.5732H42.7291L42.5426 13.8853L36.945 14.0422L37.1315 21.7694H36.3479L36.4598 25.6525H35.6762L35.3776 14.1207H34.594L34.7059 18.0038H33.1013C33.1013 18.0431 32.9893 14.1991 32.9893 14.1991H32.2057L32.3922 21.9263H31.6086L31.7952 29.6534H31.0115L30.8249 21.9655H31.6086L31.422 14.2383H29.8174C29.8174 14.2775 29.9293 18.1215 29.9293 18.1215H29.1456L29.0337 14.2775H27.429C27.429 14.3168 27.541 18.1607 27.541 18.1607H26.7573L25.9737 18.2L23.5854 18.2784L23.772 26.0056H24.5556L24.4437 22.1224H26.0483C26.0483 22.0832 26.2349 29.7711 26.2349 29.7711L26.3468 33.615H25.5632L24.7795 33.6543H23.9959L24.1078 37.5375H23.3241L23.2122 33.6935H21.6075C21.6075 33.7327 21.7195 37.5767 21.7195 37.5767L22.018 49.1478H22.8017L22.9137 52.9918H22.13L21.3463 53.031L21.5329 60.7581H22.3166L22.4285 64.6021H23.2122L23.9959 64.5629L24.1078 68.4069H24.8915L25.0034 72.2508H26.6081C26.6081 72.2116 26.4215 64.4844 26.4215 64.4844H27.2051L27.5037 76.0163H28.2873L27.9888 64.4452H28.7725L28.6605 60.562H29.4442L29.6308 68.25H28.8471L28.9591 72.1331H29.7427L29.9293 79.8211L32.3176 79.7426L32.4296 83.5866H33.2132L33.1013 79.7034H33.8849L33.9969 83.5474L39.5945 83.3905L39.4825 79.5465L39.2959 71.8194H40.0796L40.2662 79.5073L40.3781 83.3512H41.9828C41.9828 83.312 41.7962 75.5849 41.7962 75.5849H42.5799L42.7665 83.2728H44.3711C44.3711 83.2336 44.2591 79.3896 44.2591 79.3896H45.0428L45.1548 83.2336L49.1477 83.1159L48.8492 71.5448H48.0655L47.9536 67.7008H48.7372L48.8492 71.5448H49.6328L49.9314 83.0767H50.715L50.5285 75.3495H51.3121L51.2002 71.4663H51.9838L52.2824 82.9982L55.4917 82.9198L55.3051 75.1926H56.0887L56.2753 82.8806L64.2985 82.6452L64.1866 78.8013H64.9703L65.0822 82.6452L69.0752 82.5275L68.9632 78.6836H69.7469L69.8588 82.5275H70.6425L70.4559 74.8004H71.2396L71.4261 82.4883L77.8447 82.2922L77.7328 78.4482H78.5164L78.6284 82.2922L89.8609 81.9784H90.6446L91.4282 81.9392L91.2416 74.212H92.0253L92.2119 81.9L95.4212 81.8215L95.3092 77.9775L95.1973 74.1336H95.9809L96.0929 77.9775L96.2048 81.8215L100.198 81.7038H100.981L101.765 81.6646L101.653 77.8206H102.437L102.549 81.6646H103.332L106.542 81.5469H107.325L108.109 81.5077L107.997 77.6638H108.781L108.893 81.5077H109.676L110.46 81.4685H112.065C112.065 81.4293 111.953 77.5853 111.953 77.5853H112.736L112.848 81.4293H113.632L115.237 81.3508L115.349 85.1948H116.132L116.02 81.3116H117.625C117.625 81.2724 118.409 81.2332 118.409 81.2332L118.297 77.3892H119.08L119.192 81.2332L121.581 81.1547H122.364L123.148 81.1155H124.753C124.753 81.0763 124.566 73.3491 124.566 73.3491H125.35L125.536 81.037H127.141C127.141 80.9978 127.925 80.9586 127.925 80.9586L127.813 77.1146H128.596L128.708 80.9586H129.492L130.276 80.9194H131.88C131.88 80.8801 132.664 80.8409 132.664 80.8409H133.448L135.052 80.7625L134.866 73.0353H135.649L135.537 69.1521H136.321L136.433 72.9961H135.649L135.948 84.5672H136.731L136.619 80.684H138.224C138.224 80.6448 138.336 84.4888 138.336 84.4888H139.12L138.933 76.7616H139.717L139.605 72.8784H140.389L140.5 76.7224H139.717L139.829 80.6056H140.612L140.724 84.4495H141.508L141.396 80.5663H143.001C143.001 80.5271 143.784 80.4879 143.784 80.4879L143.672 76.6439H144.456L144.568 80.4879H145.352L146.135 80.4487H146.919L146.807 76.5655L146.695 72.7215H145.911L145.8 68.8775H147.404C147.404 68.8383 147.591 76.5263 147.591 76.5263L147.703 80.3702H148.486L148.374 76.487H149.158L148.972 68.7599H149.755L150.054 80.2918H150.837L150.949 84.1357H151.733L151.621 80.2525H153.226C153.226 80.2133 153.114 76.3694 153.114 76.3694H153.897L154.009 80.2133H154.793L154.905 84.0573H155.689L155.315 68.603H156.099L156.398 80.1349H158.002C158.002 80.0956 157.816 72.3685 157.816 72.3685H158.599L158.786 80.0564H159.57L160.353 80.0172H161.137L161.249 83.8612H162.033L161.921 79.978L161.809 76.134H162.592L162.704 79.978L162.816 83.8219H164.421C164.421 83.7827 164.122 72.2116 164.122 72.2116H164.906L165.205 83.7435H165.988L165.876 79.8603H166.66L166.473 72.1331H167.257L167.556 83.665H168.339L168.227 79.7819H169.011L168.899 75.8987L168.712 68.1715H169.496L169.683 75.8594L169.795 79.7034H170.578L172.183 79.625H172.967L173.078 83.4689H173.862L173.75 79.5857H174.534L174.646 83.4297H175.429L175.318 79.5465H176.101L175.989 75.6633H176.773L176.959 83.3512H178.564C178.564 83.312 178.452 79.4681 178.452 79.4681H180.057C180.057 79.4288 179.945 75.5849 179.945 75.5849H180.729L180.84 79.4288H181.624L181.736 83.2728L184.945 83.1944L184.833 79.3504L184.721 75.5064H185.505L186.289 75.4672L186.177 71.6232H186.961L187.147 79.3112H186.363L186.475 83.1944L188.864 83.1159L188.677 75.3888H187.893L187.707 67.7008H188.491L188.379 63.8176H189.162L189.647 83.0767H190.431L190.244 75.3495H191.028L190.842 67.6224H191.625L191.812 75.3103H191.028L191.215 83.0375H192.819C192.819 82.9982 192.707 79.1543 192.707 79.1543H194.312C194.312 79.1151 194.2 75.2711 194.2 75.2711H194.984L194.797 67.5439H195.581L195.954 82.959H197.559C197.559 82.9198 197.447 79.0758 197.447 79.0758H198.23L198.118 75.1926H198.902L199.089 82.8806H200.693C200.693 82.8413 200.581 78.9974 200.581 78.9974H199.798L199.611 71.3094H200.395L200.096 59.7383H199.313L199.201 55.8944H199.984L199.872 52.0112H200.656L200.768 55.8551H199.984L200.096 59.7383H200.88L201.066 67.4263H201.85L201.738 63.5431H202.522L202.41 59.6599H203.194L203.38 67.3478H201.775C201.775 67.387 201.887 71.231 201.887 71.231H201.104L201.29 78.9582H202.895C202.895 78.9189 202.783 75.075 202.783 75.075H204.388C204.388 75.0357 204.276 71.1918 204.276 71.1918H205.059L204.947 67.3086H205.731L205.843 71.1525H205.059L205.246 78.8797H206.03L206.142 82.7237H206.925L206.813 78.8405H207.597L207.485 74.9573H208.269L208.157 71.0741H208.94L208.754 63.3469H209.537L209.649 67.1909H210.433L210.247 59.4638H211.03L211.329 70.9957L211.441 74.8396H210.657L210.545 70.9957H208.94C208.94 71.0349 209.239 82.606 209.239 82.606H210.023L209.911 78.7228H210.694L210.806 82.5668H211.59L211.478 78.6836H212.262L212.15 74.8004H212.933L212.821 70.9172H213.605L213.717 74.7612H212.933L213.12 82.4883L215.508 82.4099L215.322 74.6827H214.538L214.351 66.9948H215.135L215.322 74.6827H216.105L216.292 82.3707H217.897C217.897 82.3314 217.785 78.4875 217.785 78.4875H219.389C219.389 78.4482 219.501 82.2922 219.501 82.2922L221.889 82.2138L221.778 78.3698H222.561L222.375 70.6426H223.158L223.457 82.1745H224.241L224.129 78.2913L224.017 74.4474H225.621C225.621 74.4081 225.808 82.0961 225.808 82.0961H226.591L226.48 78.2129H228.084C228.084 78.1737 228.196 82.0176 228.196 82.0176L231.405 81.9392L231.293 78.0952H232.077L232.861 78.056L232.973 81.9H234.577C234.577 81.8607 234.465 78.0168 234.465 78.0168H235.249L235.361 81.8607L240.175 81.7431L239.876 70.1719H240.66L240.847 77.8599H241.63L241.742 81.7038H242.526L242.414 77.8206L242.302 73.9767H243.086L243.198 77.8206L243.31 81.6646L247.303 81.5469L247.004 69.9758H247.788L248.086 81.5077L253.684 81.3508L253.385 69.7797H254.169L254.468 81.3116L256.856 81.2332L256.744 77.3892H258.349C258.349 77.35 258.46 81.1939 258.46 81.1939L261.67 81.1155L261.558 77.2715H262.341L262.23 73.3883H263.013L263.2 81.0763H263.983L263.871 77.1931H264.655L265.439 77.1538L265.551 80.9978L275.962 80.7232L275.85 76.8793L275.738 73.0353H276.522L276.634 76.8793L276.746 80.7232L287.157 80.4487L287.046 76.6047H287.829L287.941 80.4487L299.957 80.1349L299.845 76.2909H300.629L300.741 80.1349L306.339 79.978L306.227 76.134H307.01L307.122 79.978L310.332 79.8995L310.22 76.0556H311.003L311.115 79.8995L316.713 79.7426L316.601 75.8987L316.489 72.0547H317.273L317.384 75.8987L317.496 79.7426L320.706 79.6642L320.594 75.8202H321.377L321.489 79.6642L323.878 79.5857L323.766 75.7418H322.982L322.796 68.0538H323.579L323.766 75.7418H324.549L324.661 79.5857L328.654 79.4681L328.542 75.6241H329.326L329.438 79.4681L335.857 79.2719L335.745 75.428H336.528L336.64 79.2719L339.029 79.1935L338.917 75.3495H338.133L337.349 75.3888L337.237 71.5448H338.021L337.909 67.6616H338.693L338.805 71.5056H339.588L339.476 67.6224H341.081C341.081 67.5831 340.969 63.7392 340.969 63.7392H340.185L339.887 52.2073H339.103L338.991 48.3633H338.208L338.506 59.9344H337.722L337.424 48.4025H336.64L336.528 44.5586H335.745L335.857 48.4418H335.073L334.886 40.7538H334.103L333.991 36.9099H333.207L333.319 40.7931H332.535L332.237 29.2612H330.632C330.632 29.3004 330.744 33.1444 330.744 33.1444H329.96L329.774 25.4564L327.386 25.5349L327.274 21.6909H328.057L327.945 17.8077H328.729L328.841 21.6517H329.625L329.513 17.7685L329.401 13.9245H328.617L328.505 10.0806H326.9C326.9 10.1198 327.012 13.9638 327.012 13.9638H325.408C325.408 14.003 325.52 17.8469 325.52 17.8469H326.303L326.415 21.6909H325.632L325.52 17.8469H324.736L324.624 14.003H325.408L325.296 10.1198L318.094 10.3159L318.205 14.1599H317.422L317.31 10.3159L314.101 10.3944L314.213 14.2383H313.429L313.317 10.3944L298.091 10.8258L298.203 14.6698H297.42L297.308 10.8258L293.315 10.9435L293.501 18.6707H292.718L292.531 10.9827L288.538 11.1004L288.65 14.9444H287.867L287.755 11.1004L279.731 11.3357L279.843 15.1797H279.06L278.948 11.3357L270.141 11.5711L270.253 15.415H269.469L269.357 11.5711L258.125 11.8849L258.311 19.612L258.423 23.456H257.639L257.528 19.612H256.744L256.632 15.7681H257.416L257.304 11.8849L253.311 12.0025L253.423 15.8465H252.639L252.527 12.0025L246.108 12.1987L246.22 16.0426H245.437L245.549 19.9258H244.765L244.653 16.0819H245.437L245.325 12.1987L241.332 12.3163L241.444 16.1603H240.66L240.548 12.3163L234.951 12.4732L235.063 16.3172H234.279L234.391 20.2004H233.607L233.421 12.5125H232.637L232.749 16.3957H231.965L231.853 12.5517H230.249C230.249 12.5909 230.435 20.3181 230.435 20.3181H229.652L229.763 24.2013H228.98L228.868 20.3573H229.652L229.465 12.6301L216.628 12.9832L216.74 16.8271L216.852 20.6711H216.068L215.956 16.8271L215.844 12.9832L213.456 13.0616L213.568 16.9056H212.784L212.896 20.7888H212.112L212 16.9448H212.784L212.672 13.0616L209.463 13.14L209.575 16.984H208.791L208.679 13.14L205.47 13.2185L205.768 24.7896H204.985L204.873 20.9457H204.089L203.977 17.1017H204.761L204.649 13.2185H203.044C203.044 13.2577 202.261 13.2969 202.261 13.2969H201.477L201.589 17.1801H200.805L200.917 21.0633H200.134L199.947 13.3754L200.357 13.6107ZM192.11 36.9883L191.924 29.2612H192.707L192.595 25.378H193.379L193.678 36.9099H192.073C192.073 36.9491 192.185 40.7931 192.185 40.7931H191.401L191.289 36.9491H192.073L192.11 36.9883ZM195.32 36.9099L195.208 33.0659L195.096 29.2219H195.879L195.991 33.0659L196.103 36.9099H195.32L195.432 40.7931H194.648L194.536 36.9491H195.32V36.9099ZM189.797 40.9107L189.685 37.0668H190.468L190.58 40.9107H189.797L189.909 44.7939H190.692L190.804 48.6379L190.916 52.4819L191.028 56.3258H191.812L191.7 52.4426H192.483L192.297 44.7155H193.902C193.902 44.6763 194.014 48.5202 194.014 48.5202H193.23L193.342 52.4034H192.558L192.67 56.2866H191.886L191.998 60.1698H191.215L190.431 60.209L190.543 64.053H189.759L189.647 60.209H190.431L190.244 52.4819L190.132 48.6379H189.349L189.162 40.95H189.946L189.797 40.9107ZM188.379 48.6771L188.491 52.5211H187.707L187.819 56.4043H187.035L186.923 52.5603H187.707L187.595 48.6771L187.483 44.8332H188.267L188.379 48.6771ZM195.693 52.325L195.581 48.481H196.364L196.476 52.325H195.693ZM195.096 60.0521L194.984 56.2082H195.767L195.879 60.0521H195.096ZM201.44 25.1426H202.223L202.41 32.8306H201.626L201.738 36.7138H200.955L200.768 29.0258H201.552L201.44 25.1426ZM199.648 17.4939L199.835 25.2211H199.051L198.865 17.5332H199.648V17.4939ZM201.85 40.5969H202.634L202.82 48.2849H202.037L202.149 52.1681H201.365L201.253 48.3241H202.037L201.85 40.5969ZM203.156 28.9866L202.97 21.2594H203.753L203.94 28.9474H203.156V28.9866ZM196.812 32.9875L196.7 29.1435H197.484L197.596 32.9875H196.812ZM199.313 36.7922L199.201 32.9482H199.984L200.283 44.4801L200.395 48.3241H199.611L199.499 44.4801L199.387 40.6362H198.604L198.715 44.5194H197.932L198.118 52.2465H197.335L197.148 44.5586H197.932L197.82 40.6754H198.604L198.492 36.7922H199.275H199.313ZM197.596 63.8569L197.484 60.0129H198.268L198.566 71.5448H197.783L197.671 67.7008H196.887L197.074 75.428H196.29L195.991 63.8961H197.596V63.8569ZM203.903 59.8168L203.716 52.0896H204.5L204.686 59.7775H203.903V59.8168ZM203.529 44.4017L203.343 36.6745H204.126L204.313 44.3625H203.529V44.4017ZM177.295 21.9655H178.079L178.191 25.8094H177.407L177.295 21.9655ZM176.661 29.6926H175.877L175.989 33.5758H175.206L174.907 22.0439H176.512C176.512 22.0047 176.698 29.6926 176.698 29.6926H176.661ZM172.967 41.3814L172.855 37.5375H173.638L173.75 41.3814H172.967ZM171.81 60.7189L171.698 56.875H172.481L172.593 60.7189H171.81ZM171.437 45.2646L171.548 49.1086H170.765L170.653 45.2646H171.437ZM178.154 56.6788L178.042 52.8349H178.825L178.937 56.6788H178.154ZM184.983 41.0284L184.796 33.3013H185.58L185.766 40.9892H184.983V41.0284ZM182.109 21.8478L181.997 18.0038H182.781L182.893 21.8478H182.109ZM182.482 37.2629L182.37 33.4189H183.154L183.266 37.2629H182.482ZM181.475 29.575H179.87C179.87 29.6142 179.758 25.7702 179.758 25.7702H181.363C181.363 25.731 181.475 29.575 181.475 29.575ZM182.781 48.834H183.565L183.751 56.5219H182.968L182.781 48.834ZM180.281 45.0293H181.064L181.176 48.8732H180.393L180.281 45.0293ZM183.154 64.2491H183.938L184.05 68.0931L184.162 71.937H183.378L183.266 68.0931L183.154 64.2491ZM184.274 44.9116H185.057L185.169 48.7556H184.386L184.274 44.9116ZM184.647 60.3659H185.431L185.319 56.4827H186.102L186.214 60.3267H185.431L185.542 64.2099H184.759L184.647 60.3659ZM182.557 71.9763L182.669 75.8202H181.885L181.773 71.9763H182.557ZM192.894 67.8185L193.081 75.5457H192.297L192.11 67.8577H192.894V67.8185ZM224.614 20.6711L224.8 28.3982H224.017L224.129 32.2814H223.345L223.046 20.7495H224.651L224.614 20.6711ZM222.113 16.8663L222.3 24.5935H221.516L221.33 16.9056H222.113V16.8663ZM221.778 36.1646L221.666 32.3207H222.449L222.561 36.1646H221.778ZM221.889 40.0478H222.673L222.785 43.8918H222.001L221.889 40.0478ZM223.979 59.2676L223.867 55.4237H224.651L224.763 59.2676H223.979ZM221.666 63.19H222.449L222.561 67.034H221.778L221.666 63.19ZM226.89 47.6181L226.778 43.7741H227.562L227.674 47.6181H226.89L227.002 51.5013H226.218L226.106 47.6573H226.89V47.6181ZM224.875 63.1116H225.659L225.845 70.7995H225.061L224.875 63.1116ZM226.48 63.0724H227.263L227.45 70.7603H228.233L228.345 74.6043H227.562L227.45 70.7603H226.666L226.48 63.0724ZM220.285 40.087L220.397 43.931H219.613L219.501 40.087H220.285ZM227.823 20.5926H228.607L228.793 28.2806H228.01L227.823 20.5926ZM228.793 59.15L228.681 55.306H229.465L229.577 59.15H228.793ZM235.286 62.7978H236.07L236.182 66.6418H235.398L235.286 62.7978ZM207.672 17.2586H208.455L208.567 21.1025H207.784L207.672 17.2586ZM209.761 36.5176L209.649 32.6737H210.433L210.321 28.7905H211.105L210.993 24.9073H211.777L211.888 28.7513H211.105L211.217 32.6344H210.433L210.545 36.5176H209.761ZM208.045 32.7129L207.933 28.8689H208.717L208.828 32.7129H208.045ZM205.731 36.6353L205.545 28.9081H206.328L206.515 36.5961H205.731V36.6353ZM207.933 59.6991L207.821 55.8551H208.605L208.717 59.6991H207.933ZM206.403 63.6215H207.187L207.298 67.4655H206.515L206.403 63.6215ZM206.142 52.0504L206.03 48.2064H206.813L206.925 52.0504H206.142ZM210.06 48.0888L209.948 44.2448H210.732L212.336 44.1663L212.224 40.3224H213.008L213.12 44.1663H212.336L212.448 48.0495H210.844C210.844 48.0888 211.03 55.8159 211.03 55.8159H210.247L210.06 48.128V48.0888ZM207.56 44.284L207.373 36.5569H208.157L208.343 44.2448H207.56V44.284ZM217.859 40.1263L217.747 36.2823H216.964L216.852 32.4383H217.635L217.747 36.2823H218.531L218.643 40.1263H217.859ZM213.754 36.4L213.642 32.556H214.426L214.538 36.4H213.754ZM212.56 51.8543H213.344L213.456 55.6982L213.568 59.5422H212.784L212.672 55.6982L212.56 51.8543ZM214.874 47.9319L215.06 55.659H214.277L214.09 47.9711H214.874V47.9319ZM218.979 51.6974H219.762L219.949 59.3853H219.165L218.979 51.6974ZM217.188 44.0094H217.971L218.083 47.8534L218.195 51.6974H217.411L217.299 47.8534L217.188 44.0094ZM217.635 63.3077L217.523 59.4638H218.307L218.419 63.3077L218.531 67.1517H217.747L217.635 63.3077ZM219.539 74.8396L219.427 70.9957H221.031C221.031 70.9564 221.143 74.8004 221.143 74.8004H219.539V74.8396ZM235.585 74.3689L235.473 70.525H236.257L236.369 74.3689H235.585ZM229.166 74.565L229.054 70.7211H229.838L229.95 74.565H229.166ZM128.447 27.1823L128.335 23.3383H129.119L129.231 27.1823L129.343 31.0263H127.738C127.738 31.0655 127.626 27.2215 127.626 27.2215H128.41L128.447 27.1823ZM126.917 31.0655L127.029 34.9094H126.245L126.357 38.7926H125.574L125.462 34.9487H126.245L126.133 31.0655H126.917ZM130.35 38.675L130.164 30.9478H130.947L130.835 27.0646H131.619L131.731 30.9086H130.947L131.134 38.6357H130.35V38.675ZM128.82 42.5974L128.708 38.7534H129.492L129.604 42.5974H128.82L128.932 46.4806H128.148L128.036 42.6366H128.82V42.5974ZM123.223 42.7543L123.111 38.9103H123.894L123.521 23.456H124.305L124.79 42.715H123.185L123.223 42.7543ZM125.797 50.403L125.686 46.559H126.469L126.357 42.6758H127.141L127.253 46.5198H126.469L126.581 50.403H125.797ZM124.902 46.559L125.014 50.403L125.126 54.2469H124.342L124.23 50.403L124.118 46.559H124.902ZM130.723 54.1293L130.611 50.2853H131.395L131.507 54.1293H130.723ZM137.179 23.0638H137.963L138.149 30.7517H136.545C136.545 30.7909 136.433 26.9469 136.433 26.9469H137.217L137.105 23.0638H137.179ZM134.94 30.8301H135.724L135.836 34.6741H135.052L134.94 30.8301ZM137.552 38.4788H138.336L138.523 46.1668H137.739L137.552 38.4788ZM132.44 27.0646H133.224L133.336 30.9086H132.552L132.44 27.0646ZM132.85 42.4797L132.738 38.6357H133.522L133.634 42.4797H132.85ZM133.336 61.778L133.224 57.934H134.007L134.119 61.778H133.336ZM137.926 53.9332H138.709L138.821 57.7771H138.038L137.926 53.9332ZM135.537 53.9724L135.351 46.2452H136.134L136.321 53.9332H135.537V53.9724ZM135.836 65.5435H136.619L136.806 73.2314H136.022L135.836 65.5435ZM130.91 61.8172H131.694L131.88 69.5051H131.097L130.91 61.8172ZM114.304 39.1457L114.117 31.4185H114.901L115.087 39.1064H114.304V39.1457ZM111.505 23.7698H112.289L112.401 27.6138H111.617L111.505 23.7698ZM108.669 39.3025L108.781 43.1465H107.997L107.885 39.3025H108.669ZM121.133 23.4952L121.021 19.6513H121.805L121.916 23.4952H121.133L121.319 31.2224H120.536L120.349 23.5344H121.133V23.4952ZM119.006 35.1448L119.118 38.9888H118.334L118.222 35.1448H119.006L118.894 31.2616H119.677L119.789 35.1056H119.006V35.1448ZM120.797 42.7935H121.581L121.693 46.6375H120.909L120.797 42.7935ZM117.028 19.7689L117.214 27.4961H115.61C115.61 27.5353 115.498 23.6913 115.498 23.6913H116.282L116.17 19.8082H116.953L117.028 19.7689ZM117.886 54.4823H118.67L118.782 58.3263H117.998L117.886 54.4823ZM115.759 66.0926H116.543L116.431 62.2094H117.214L117.326 66.0534H116.543L116.655 69.9366H115.871L115.759 66.0926ZM121.282 62.0918L121.17 58.2478H121.954L122.066 62.0918H121.282ZM120.573 65.975H121.357L121.469 69.8189H120.685L120.573 65.975ZM114.341 73.859L114.229 70.015H115.013L115.125 73.859H114.341ZM161.622 37.812H162.406L162.592 45.5H161.809L161.622 37.812ZM154.905 26.437H155.689L155.987 37.9689H154.383C154.383 38.0082 154.271 34.1642 154.271 34.1642H155.054L154.868 26.437H154.905ZM158.002 53.3448L157.89 49.5008H158.674L158.786 53.3448H158.002ZM155.577 53.4232L155.39 45.6961H156.174L156.36 53.384H155.577V53.4232ZM159.607 53.3056L159.42 45.5784H160.204L160.391 53.2663H159.607V53.3056ZM160.689 64.8767H161.473L161.585 68.7206H160.801L160.689 64.8767ZM162.891 57.0711L163.003 60.9151H162.219L162.107 57.0711H162.891ZM167.145 33.8112L167.257 37.6551L167.369 41.4991H166.585L166.473 37.6551L166.361 33.8112H167.145ZM167.929 33.8112H168.712L168.824 37.6551H168.041L167.929 33.8112ZM163.637 22.3577H164.421L164.719 33.8896H163.936L163.637 22.3577ZM164.122 41.6168H164.906L165.205 53.1487H164.421L164.122 41.6168ZM166.212 60.8366L166.1 56.9926H167.705C167.705 56.9534 167.817 60.7974 167.817 60.7974H166.212V60.8366ZM169.944 49.187L170.056 53.031H168.451C168.451 53.0702 168.339 49.2263 168.339 49.2263H169.944V49.187ZM170.317 64.6021H171.101L171.213 68.4461H170.429L170.317 64.6021ZM143.971 38.3219H144.755L144.867 42.1659H144.083L143.971 38.3219ZM146.397 38.2435L146.023 22.8284H146.807L147.18 38.2435H146.397ZM141.284 26.8293L141.172 22.9853H141.956L142.068 26.8293H141.284ZM141.657 42.2444L141.545 38.4004H142.329L142.441 42.2444L142.553 46.0883H141.769L141.657 42.2444ZM142.963 61.5034L142.851 57.6594H143.635L143.747 61.5034H142.963ZM140.65 65.4258H141.433L141.545 69.2698H140.762L140.65 65.4258ZM139.642 57.7379L139.53 53.8939H140.314L140.426 57.7379H139.642ZM145.762 45.9706H146.546L146.434 42.0875H147.218L147.33 45.9314H146.546L146.658 49.8146H145.874L145.762 45.9706ZM144.27 49.8931H145.053L145.165 53.737H144.381L144.27 49.8931ZM152.89 41.9306L152.703 34.2034H153.487L153.673 41.8913L153.785 45.7353H153.002L152.89 41.8913V41.9306ZM148.897 42.0482L148.785 38.2043H149.569L149.681 42.0482H148.897ZM148.673 34.3211L148.561 30.4771H149.345L149.457 34.3211H148.673ZM150.763 53.5801L150.651 49.7362H151.434L151.546 53.5801H150.763ZM152.069 72.8L151.957 68.956H152.741L152.853 72.8H152.069ZM143.934 69.1913L144.046 73.0353H143.262L143.15 69.1913H143.934ZM158.562 76.487L158.45 72.6431H159.234L159.346 76.487H158.562ZM57.5441 17.5332H58.3278L58.6263 29.065H57.8426L57.7307 25.2211H56.947L56.8351 21.3771H57.6187L57.5068 17.4939L57.5441 17.5332ZM61.761 25.1426L61.649 21.2987H62.4327L62.5446 25.1426H61.761ZM60.8654 21.2987L61.0519 29.0258H60.2683L60.3802 32.909H59.5966L59.41 25.2211H60.1936L60.0817 21.3379H60.8654V21.2987ZM58.8502 36.7922H58.0666L58.1785 40.6754H57.3948L57.2829 36.8314H58.0666L57.9546 32.9482H58.7383L58.8502 36.7922ZM60.6414 44.4801L60.5295 40.6362H61.3132L61.4251 44.4801H60.6414ZM63.5149 63.7L63.4029 59.856H64.1866L64.2985 63.7H63.5149ZM69.9708 32.6344L69.8588 28.7905H70.6425L70.7544 32.6344H69.9708ZM47.4311 29.3788H48.2148L48.3267 33.2228H47.5431L47.4311 29.3788ZM46.0131 37.1452H46.7967L46.9087 40.9892H46.125L46.0131 37.1452ZM46.1997 44.8724H46.9833L47.0953 48.7163H46.3116L46.1997 44.8724ZM47.6923 40.95H49.297C49.297 40.9107 49.185 37.0668 49.185 37.0668H49.9687L50.0806 40.9107H49.297L49.4089 44.7939H47.8043C47.8043 44.8331 47.6923 40.9892 47.6923 40.9892V40.95ZM41.0125 29.575H41.7962L41.9082 33.4189H41.1245L41.0125 29.575ZM43.6994 41.0676H44.4831L44.595 44.9116H43.8113L43.6994 41.0676ZM41.8708 64.2883H42.6545L42.7665 68.1323H41.9828L41.8708 64.2883ZM48.2894 64.0922L48.1775 60.2482H48.9611L49.0731 64.0922H48.2894ZM55.3424 25.3388L55.529 33.0659H54.7453L54.5587 25.378H55.3424V25.3388ZM51.2002 52.4426L51.3121 56.2866H50.5285L50.4165 52.4426H51.2002ZM50.7897 67.8969H51.5733L51.6853 71.7409H50.9016L50.7897 67.8969ZM55.6036 67.74H56.3873L56.4992 71.584H55.7156L55.6036 67.74ZM52.5809 75.5457L52.6929 79.3896H51.9092L51.7972 75.5457H52.5809ZM45.2667 71.8978L45.4533 79.625H44.6696L44.4831 71.937H45.2667V71.8978ZM66.9108 71.3094L67.0227 75.1534H66.239L66.1271 71.3094H66.9108ZM64.5971 75.2319L64.709 79.0758H63.9254L63.8134 75.2319H64.5971ZM95.4585 24.2013L95.5704 28.0452H94.7868L94.6748 24.2013L94.5629 20.3573H95.3465L95.4585 24.2013ZM93.9285 28.1237L94.0404 31.9676H93.2568L93.1448 28.1237H93.9285ZM89.8236 24.3582L90.0102 32.0853H89.2265L89.0399 24.3974H89.8236V24.3582ZM90.5326 20.475H91.3163L91.4282 24.3189H90.6446L90.5326 20.475ZM97.0258 55.0314L96.9139 51.1875H97.6975L97.8095 55.0314H97.0258ZM83.0691 74.7219L83.1811 78.5659H82.3974L82.2855 74.7219H83.0691ZM101.504 74.212L101.392 70.3681H102.176L102.288 74.212H101.504ZM27.3544 29.9672L27.2425 26.1232H28.0261L28.1381 29.9672L28.25 33.8112H27.4664L27.3544 29.9672ZM24.8542 26.1625H25.6378L25.7498 30.0064H24.9661L24.8542 26.1625ZM25.9364 37.6944H26.72L26.832 41.5383H26.0483L25.9364 37.6944ZM26.1229 45.4215H26.9066L27.0186 49.2655H26.2349L26.3468 53.1487H25.5632L25.4512 49.3047H26.2349L26.1229 45.4215ZM27.7276 45.3823L27.6156 41.5383H28.3993L28.5112 45.3823H27.7276ZM28.0261 56.9534H28.8098L28.9217 60.7974H28.1381L28.0261 56.9534ZM28.3247 68.5245H29.1083L29.2949 76.2125H28.5112L28.3247 68.5245ZM38.5123 25.7702L38.4003 21.9263H39.184L39.2959 25.7702H38.5123ZM35.4523 64.4452L35.5642 68.2892H34.7806L34.6686 64.4452H35.4523ZM21.2344 41.6952H22.018L22.2046 49.3831H21.421L21.2344 41.6952ZM22.9137 45.5H23.6973L23.8093 49.3439H23.0256L22.9137 45.5ZM23.3241 60.9151L23.2122 57.0711H23.9959L24.1078 60.9151H23.3241ZM34.9298 76.0556L34.8179 72.2116H35.6015L35.7135 76.0556H34.9298ZM324.102 17.9254H324.885L325.37 37.1844H323.766C323.766 37.2237 323.654 33.3797 323.654 33.3797H324.437L324.064 17.9254H324.102ZM321.676 18.0038L321.788 21.8478L321.9 25.6918H321.116L321.004 21.8478L320.892 18.0038H321.676L321.564 14.1207H322.348L322.46 17.9646H321.676V18.0038ZM317.571 14.2383L317.758 21.9655H316.153C316.153 22.0047 316.041 18.1607 316.041 18.1607H316.825L316.713 14.2775H317.496L317.571 14.2383ZM318.877 33.4974L318.765 29.6534H319.549L319.437 25.7702H320.221L320.333 29.6142H319.549L319.661 33.4974H318.877ZM321.863 56.5612L321.751 52.7172H322.534L322.646 56.5612H321.863ZM321.154 60.4444H321.937L322.049 64.2883H321.266L321.154 60.4444ZM318.429 48.9517H319.25L319.362 52.7957H318.541L318.429 48.9517ZM325.482 41.0284L325.669 48.7556H324.885L324.699 41.0676H325.482V41.0284ZM321.452 41.1461L321.34 37.3021H322.124L322.236 41.1461H321.452ZM330.11 33.1836L330.222 37.0275H329.438L329.55 40.9107H328.766L328.654 37.0668H329.438L329.326 33.1836H330.11ZM326.788 29.4181L326.677 25.5741H327.46L327.572 29.4181H326.788L326.9 33.3013H326.117L326.005 29.4573H326.788V29.4181ZM326.975 37.1452H327.759L327.871 40.9892H327.087L327.199 44.8724H326.415L326.303 41.0284H327.087L326.975 37.1452ZM333.879 56.2474L333.767 52.4034H334.55L334.439 48.5202L334.327 44.6763H335.11L335.222 48.5202L335.334 52.3642H334.55L334.662 56.2474H333.879ZM331.49 56.2866H332.274L332.461 63.9745H331.677L331.49 56.2866ZM331.267 48.5987L331.155 44.7547H331.938L332.05 48.5987H331.267ZM308.54 37.6551L308.428 33.8112H309.212L309.324 37.6551H308.54ZM306.115 37.6944L306.003 33.8504H306.786L306.898 37.6944H306.115ZM314.847 33.615L314.66 25.8879H315.444L315.631 33.5758H314.847V33.615ZM312.048 18.2392H312.832L312.944 22.0832H312.16L312.048 18.2392ZM310.705 60.7189H311.488L311.6 64.5629H310.817L310.705 60.7189ZM316.34 60.562H317.123L317.235 64.406H316.452L316.34 60.562ZM302.084 68.6814H302.868L302.98 72.5254H302.196L302.084 68.6814ZM334.364 75.5064L334.177 67.7793H334.961L334.849 63.8961H335.633L335.745 67.74H334.961L335.148 75.4672H334.364V75.5064ZM327.05 71.8586H327.833L327.945 75.7025H327.162L327.05 71.8586ZM336.379 60.0129H337.163L337.349 67.7008H336.566L336.379 60.0129ZM257.901 35.184L257.789 31.34H258.572L258.46 27.4569H259.244L259.356 31.3008H258.572L258.684 35.184H257.901ZM260.102 27.4176L259.916 19.6905H260.699L260.588 15.8073H261.371L261.558 23.4952H260.774L260.886 27.3784H260.102V27.4176ZM255.923 19.8082L256.109 27.5353H255.326L255.139 19.8474H255.923V19.8082ZM256.147 62.2487H256.93L257.042 66.0926H256.259L256.147 62.2487ZM262.341 19.612L262.23 15.7681H263.013L263.125 19.612H262.341ZM261.185 38.9495L261.073 35.1056H261.856L261.968 38.9495H261.185ZM264.095 58.1694L263.983 54.3254H264.767L264.879 58.1694H264.095ZM261.483 50.5207L261.371 46.6767H262.155L262.267 50.5207H261.483ZM241.742 31.7715L241.63 27.9275L241.518 24.0836H242.302L242.414 27.9275L242.526 31.7715H241.742ZM238.944 16.3957H239.727L239.839 20.2396H239.055L238.944 16.3957ZM242.526 62.6017L242.414 58.7577H243.198L243.31 62.6017H242.526ZM244.429 43.2642L244.243 35.537H245.026L245.213 43.225H244.429V43.2642ZM249.877 35.4194L249.766 31.5754H250.549L250.661 35.4194H249.877L249.989 39.3025H248.385C248.385 39.3418 248.273 35.4978 248.273 35.4978H249.877V35.4194ZM248.795 23.8482L248.907 27.6922H248.124L248.012 23.8482H248.795ZM246.743 39.3418H247.526L247.638 43.1857H246.855L246.743 39.3418ZM246.668 35.4978L246.556 31.6538H247.34L247.452 35.4978H246.668ZM248.833 58.5616L248.721 54.7176H249.504L249.616 58.5616H248.833ZM246.519 62.484H247.303L247.415 66.328H246.631L246.519 62.484ZM251.333 62.3663H252.117L252.228 66.2103H251.445L251.333 62.3663ZM251.072 50.7952L250.96 46.9513H251.743L251.855 50.7952H251.072ZM252.452 73.8982L252.34 70.0543H253.124L253.236 73.8982H252.452ZM249.915 70.1327L249.803 66.2888H250.587L250.885 77.8206H249.28C249.28 77.8599 249.094 70.1719 249.094 70.1719H249.877L249.915 70.1327ZM245.81 66.3672L245.996 74.0944H245.213L245.026 66.4064H245.81V66.3672ZM237.899 70.4465H238.682L238.869 78.1344H238.085L237.899 70.4465ZM267.678 73.506H268.462L268.573 77.35H267.79L267.678 73.506ZM267.491 65.7788L267.603 69.6228H266.82L266.708 65.7788H267.491ZM269.394 77.3107L269.208 69.5836H269.992L270.178 77.2715H269.394V77.3107ZM264.469 73.5844L264.357 69.7405H265.14L265.252 73.5844H264.469ZM291.3 22.6715L291.188 18.8275H291.971L292.083 22.6715H291.3ZM289.695 22.7107H290.479L290.665 30.3987H289.882L289.695 22.7107ZM287.307 22.7892L287.12 15.062H287.904L288.09 22.75H287.307V22.7892ZM299.435 26.3194L299.323 22.4754H300.107L300.219 26.3194H299.435ZM295.33 22.5931L295.218 18.7491H296.002L296.114 22.5931H295.33ZM293.912 30.3202L293.8 26.4763H294.584L294.696 30.3202H293.912ZM274.246 15.4543H275.029L275.141 19.2982H274.358L274.246 15.4543ZM270.551 27.1038H271.335L271.447 30.9478H270.663L270.551 27.1038ZM282.903 73.0745L282.791 69.2306H283.575L283.687 73.0745H282.903ZM298.054 68.7991L297.942 64.9551H298.726L298.838 68.7991H298.054ZM294.248 76.6047L294.136 72.7607H294.919L295.031 76.6047H294.248ZM290.031 69.0344H290.815L291.001 76.7224H290.217L290.031 69.0344Z" fill="#D1B3FF"/>
<path d="M191.924 29.2611L192.11 36.9883H193.715C193.715 36.9491 193.417 25.3779 193.417 25.3779H192.633L192.745 29.2611H191.961H191.924Z" fill="#D1B3FF"/>
<path d="M192.222 40.8322L192.11 36.9883H191.326L191.438 40.8715H192.222V40.8322Z" fill="#D1B3FF"/>
<path d="M195.207 33.0658L195.319 36.9098H196.103L195.991 33.0266H195.207V33.0658Z" fill="#D1B3FF"/>
<path d="M195.133 29.1828L195.245 33.0267H196.028L195.916 29.1436H195.133V29.1828Z" fill="#D1B3FF"/>
<path d="M194.498 36.9098L194.61 40.7538H195.394L195.282 36.8706H194.498V36.9098Z" fill="#D1B3FF"/>
<path d="M189.684 37.0668L189.796 40.9108H190.579L190.467 37.0276H189.684V37.0668Z" fill="#D1B3FF"/>
<path d="M189.795 40.9109H189.012L189.198 48.638H189.982L190.766 48.5988L190.654 44.7549H189.87L189.758 40.9109H189.795Z" fill="#D1B3FF"/>
<path d="M190.878 52.4426L190.766 48.5986H189.982L190.094 52.4818H190.878V52.4426Z" fill="#D1B3FF"/>
<path d="M190.877 52.4426H190.094L190.28 60.1698H191.064L190.952 56.2866L190.84 52.4426H190.877Z" fill="#D1B3FF"/>
<path d="M189.459 60.2091L189.571 64.0531H190.355L190.243 60.1699H189.459V60.2091Z" fill="#D1B3FF"/>
<path d="M190.99 56.3258L191.102 60.1698H191.886L191.774 56.2866H190.99V56.3258Z" fill="#D1B3FF"/>
<path d="M191.699 52.4428L191.811 56.2868H192.595L192.483 52.4036H191.699V52.4428Z" fill="#D1B3FF"/>
<path d="M194.013 48.5202L193.902 44.6763H192.297C192.297 44.7155 192.483 52.4426 192.483 52.4426H193.267L193.155 48.5595H193.939L194.013 48.5202Z" fill="#D1B3FF"/>
<path d="M188.489 52.5212L188.377 48.6772H187.594L187.706 52.5604H188.489V52.5212Z" fill="#D1B3FF"/>
<path d="M188.378 48.6772L188.266 44.8333H187.482L187.594 48.7164H188.378V48.6772Z" fill="#D1B3FF"/>
<path d="M187.668 52.5603H186.885L186.997 56.4435H187.78L187.668 52.5603Z" fill="#D1B3FF"/>
<path d="M195.617 48.4811L195.729 52.3251H196.513L196.401 48.4419H195.617V48.4811Z" fill="#D1B3FF"/>
<path d="M194.982 56.2082L195.094 60.0521H195.878L195.766 56.1689H194.982V56.2082Z" fill="#D1B3FF"/>
<path d="M202.26 25.1426H201.476L201.588 29.0258H200.805L200.991 36.7529H201.775L201.663 32.8697H202.447L202.26 25.1426Z" fill="#D1B3FF"/>
<path d="M199.834 25.2211L199.647 17.4939H198.863L199.05 25.2211H199.834Z" fill="#D1B3FF"/>
<path d="M202.633 40.5579H201.85L202.036 48.285H202.82L202.633 40.5579Z" fill="#D1B3FF"/>
<path d="M202.11 52.1682L201.998 48.3242H201.215L201.327 52.2074H202.11V52.1682Z" fill="#D1B3FF"/>
<path d="M202.969 21.2595L203.155 28.9867H203.939L203.752 21.2595H202.969Z" fill="#D1B3FF"/>
<path d="M196.736 29.1435L196.848 32.9874H197.632L197.52 29.1042H196.736V29.1435Z" fill="#D1B3FF"/>
<path d="M199.236 32.9482L199.348 36.7922H198.564L198.676 40.6754H199.46L199.572 44.5194H200.356L200.057 32.9482H199.273H199.236Z" fill="#D1B3FF"/>
<path d="M198.639 40.6755H197.855L197.967 44.5587H198.751L198.639 40.6755Z" fill="#D1B3FF"/>
<path d="M198.117 52.2464L197.93 44.5193H197.146L197.333 52.2464H198.117Z" fill="#D1B3FF"/>
<path d="M199.535 44.5194L199.647 48.3634H200.431L200.319 44.4802H199.535V44.5194Z" fill="#D1B3FF"/>
<path d="M197.483 60.0129L197.595 63.8569H195.99C195.99 63.8961 196.289 75.4672 196.289 75.4672H197.072L196.886 67.7401H197.67L197.781 71.5841H198.565L198.267 60.0129H197.483Z" fill="#D1B3FF"/>
<path d="M203.715 52.0896L203.901 59.8168H204.685L204.498 52.0896H203.715Z" fill="#D1B3FF"/>
<path d="M203.342 36.6746L203.528 44.4017H204.312L204.125 36.6746H203.342Z" fill="#D1B3FF"/>
<path d="M178.079 21.9263H177.295L177.407 25.8095H178.191L178.079 21.9263Z" fill="#D1B3FF"/>
<path d="M175.877 29.7318H176.66L176.474 22.0046H174.869C174.869 22.0439 175.168 33.615 175.168 33.615H175.951L175.839 29.7318H175.877Z" fill="#D1B3FF"/>
<path d="M172.854 37.5375L172.965 41.3815H173.749L173.637 37.4983H172.854V37.5375Z" fill="#D1B3FF"/>
<path d="M171.734 56.8359L171.846 60.6798H172.63L172.518 56.7966H171.734V56.8359Z" fill="#D1B3FF"/>
<path d="M171.548 49.1479L171.436 45.304H170.652L170.764 49.1871H171.548V49.1479Z" fill="#D1B3FF"/>
<path d="M178.041 52.7956L178.153 56.6395H178.937L178.825 52.7563H178.041V52.7956Z" fill="#D1B3FF"/>
<path d="M184.795 33.3406L184.982 41.0677H185.765L185.579 33.3406H184.795Z" fill="#D1B3FF"/>
<path d="M181.996 17.9648L182.108 21.8087H182.892L182.78 17.9255H181.996V17.9648Z" fill="#D1B3FF"/>
<path d="M182.369 33.4189L182.481 37.2628H183.265L183.153 33.3796H182.369V33.4189Z" fill="#D1B3FF"/>
<path d="M179.87 29.6141H181.474C181.474 29.5749 181.362 25.731 181.362 25.731H179.758C179.758 25.7702 179.87 29.6141 179.87 29.6141Z" fill="#D1B3FF"/>
<path d="M183.563 48.7949H182.779L182.966 56.5221H183.75L183.563 48.7949Z" fill="#D1B3FF"/>
<path d="M181.063 45.0293H180.279L180.391 48.9125H181.175L181.063 45.0293Z" fill="#D1B3FF"/>
<path d="M183.936 64.21H183.152L183.264 68.0932H184.048L183.936 64.21Z" fill="#D1B3FF"/>
<path d="M184.161 71.937L184.049 68.093H183.266L183.378 71.9762H184.161V71.937Z" fill="#D1B3FF"/>
<path d="M185.094 44.9116H184.311L184.423 48.7948H185.206L185.094 44.9116Z" fill="#D1B3FF"/>
<path d="M185.467 60.3267H184.684L184.796 64.2098H185.579L185.467 60.3267Z" fill="#D1B3FF"/>
<path d="M185.355 56.4828L185.467 60.3268H186.251L186.139 56.4436H185.355V56.4828Z" fill="#D1B3FF"/>
<path d="M182.63 75.8203L182.518 71.9763H181.734L181.846 75.8595H182.63V75.8203Z" fill="#D1B3FF"/>
<path d="M193.08 75.5458L192.893 67.8186H192.109L192.296 75.5458H193.08Z" fill="#D1B3FF"/>
<path d="M224.799 28.359L224.612 20.6318H223.008C223.008 20.6711 223.306 32.2422 223.306 32.2422H224.09L223.978 28.359H224.762H224.799Z" fill="#D1B3FF"/>
<path d="M222.298 24.5936L222.112 16.8665H221.328L221.515 24.5936H222.298Z" fill="#D1B3FF"/>
<path d="M221.701 32.3207L221.813 36.1647H222.597L222.485 32.2815H221.701V32.3207Z" fill="#D1B3FF"/>
<path d="M222.672 40.0085H221.889L222.001 43.8917H222.784L222.672 40.0085Z" fill="#D1B3FF"/>
<path d="M223.867 55.4237L223.979 59.2677H224.763L224.651 55.3845H223.867V55.4237Z" fill="#D1B3FF"/>
<path d="M222.448 63.1509H221.664L221.776 67.0341H222.56L222.448 63.1509Z" fill="#D1B3FF"/>
<path d="M226.814 43.735L226.926 47.579H227.71L227.598 43.6958H226.814V43.735Z" fill="#D1B3FF"/>
<path d="M227.001 51.4621L226.889 47.6182H226.105L226.217 51.5014H227.001V51.4621Z" fill="#D1B3FF"/>
<path d="M225.659 63.0725H224.875L225.062 70.7997H225.845L225.659 63.0725Z" fill="#D1B3FF"/>
<path d="M227.262 63.0332H226.479L226.665 70.7604H227.449L227.262 63.0332Z" fill="#D1B3FF"/>
<path d="M227.486 70.7604L227.598 74.6044H228.382L228.27 70.7212H227.486V70.7604Z" fill="#D1B3FF"/>
<path d="M220.396 43.9311L220.284 40.0872H219.5L219.612 43.9703H220.396V43.9311Z" fill="#D1B3FF"/>
<path d="M228.643 20.5535H227.859L228.046 28.2806H228.83L228.643 20.5535Z" fill="#D1B3FF"/>
<path d="M228.68 55.2668L228.792 59.1107H229.575L229.463 55.2275H228.68V55.2668Z" fill="#D1B3FF"/>
<path d="M236.106 62.7979H235.322L235.434 66.681H236.218L236.106 62.7979Z" fill="#D1B3FF"/>
<path d="M208.493 17.2585H207.709L207.821 21.1417H208.605L208.493 17.2585Z" fill="#D1B3FF"/>
<path d="M209.648 32.6344L209.76 36.4784H210.544L210.432 32.5952H209.648V32.6344Z" fill="#D1B3FF"/>
<path d="M210.357 28.7904L210.469 32.6344H211.253L211.141 28.7512H210.357V28.7904Z" fill="#D1B3FF"/>
<path d="M211.066 24.9074L211.178 28.7514H211.962L211.85 24.8682H211.066V24.9074Z" fill="#D1B3FF"/>
<path d="M207.969 28.8298L208.081 32.6737H208.864L208.752 28.7905H207.969V28.8298Z" fill="#D1B3FF"/>
<path d="M205.543 28.9082L205.73 36.6354H206.513L206.327 28.9082H205.543Z" fill="#D1B3FF"/>
<path d="M207.82 55.8551L207.932 59.6991H208.716L208.604 55.8159H207.82V55.8551Z" fill="#D1B3FF"/>
<path d="M207.223 63.5823H206.439L206.551 67.4655H207.335L207.223 63.5823Z" fill="#D1B3FF"/>
<path d="M206.029 48.1672L206.141 52.0111H206.925L206.813 48.1279H206.029V48.1672Z" fill="#D1B3FF"/>
<path d="M210.768 44.2055L210.88 48.0495H212.484C212.484 48.0102 212.372 44.1663 212.372 44.1663H210.768V44.2055Z" fill="#D1B3FF"/>
<path d="M210.843 48.0495L210.731 44.2056H209.947L210.059 48.0888H210.843V48.0495Z" fill="#D1B3FF"/>
<path d="M210.842 48.0496H210.059L210.245 55.7767H211.029L210.842 48.0496Z" fill="#D1B3FF"/>
<path d="M213.045 40.2832H212.262L212.374 44.1664H213.157L213.045 40.2832Z" fill="#D1B3FF"/>
<path d="M207.334 36.5569L207.521 44.284H208.304L208.118 36.5569H207.334Z" fill="#D1B3FF"/>
<path d="M217.783 36.2824L217.895 40.1264H218.679L218.567 36.2432H217.783V36.2824Z" fill="#D1B3FF"/>
<path d="M217.672 32.4385H216.889L217.001 36.3217H217.784L217.672 32.4385Z" fill="#D1B3FF"/>
<path d="M213.68 32.5561L213.792 36.4H214.575L214.463 32.5168H213.68V32.5561Z" fill="#D1B3FF"/>
<path d="M213.342 51.8542H212.559L212.671 55.7374H213.454L213.342 51.8542Z" fill="#D1B3FF"/>
<path d="M213.456 55.6982H212.672L212.784 59.5814H213.567L213.456 55.6982Z" fill="#D1B3FF"/>
<path d="M215.06 55.659L214.873 47.9319H214.09L214.276 55.659H215.06Z" fill="#D1B3FF"/>
<path d="M219.762 51.6582H218.979L219.165 59.3854H219.949L219.762 51.6582Z" fill="#D1B3FF"/>
<path d="M217.971 44.0095H217.188L217.299 47.8927H218.083L217.971 44.0095Z" fill="#D1B3FF"/>
<path d="M218.083 47.8535H217.299L217.411 51.7367H218.194L218.083 47.8535Z" fill="#D1B3FF"/>
<path d="M217.635 63.3077H218.419L218.307 59.4246H217.523L217.635 63.3077Z" fill="#D1B3FF"/>
<path d="M218.456 63.2686H217.672L217.784 67.1517H218.567L218.456 63.2686Z" fill="#D1B3FF"/>
<path d="M219.463 70.9565L219.575 74.8004H221.179C221.179 74.7612 221.068 70.9172 221.068 70.9172H219.463V70.9565Z" fill="#D1B3FF"/>
<path d="M235.51 70.5251L235.622 74.369H236.405L236.293 70.4858H235.51V70.5251Z" fill="#D1B3FF"/>
<path d="M229.092 70.6818L229.204 74.5258H229.987L229.875 70.6426H229.092V70.6818Z" fill="#D1B3FF"/>
<path d="M128.446 27.1823H129.23L129.118 23.2991H128.334L128.446 27.1823Z" fill="#D1B3FF"/>
<path d="M129.229 27.1431H128.446L127.662 27.1823L127.774 31.0263H129.379C129.379 30.987 129.267 27.1431 129.267 27.1431H129.229Z" fill="#D1B3FF"/>
<path d="M127.028 34.9094L126.916 31.0654H126.133L126.245 34.9486H127.028V34.9094Z" fill="#D1B3FF"/>
<path d="M125.424 34.9486L125.536 38.7926H126.319L126.207 34.9094H125.424V34.9486Z" fill="#D1B3FF"/>
<path d="M130.125 30.9871L130.312 38.7142H131.095L130.909 30.9871H130.125Z" fill="#D1B3FF"/>
<path d="M131.655 27.0647H130.871L130.983 30.9479H131.767L131.655 27.0647Z" fill="#D1B3FF"/>
<path d="M128.744 38.7533L128.856 42.5973H129.64L129.528 38.7141H128.744V38.7533Z" fill="#D1B3FF"/>
<path d="M128.819 42.5974H128.035L128.147 46.4806H128.931L128.819 42.5974Z" fill="#D1B3FF"/>
<path d="M123.109 38.8712L123.221 42.7152H124.826C124.826 42.676 124.341 23.3777 124.341 23.3777H123.557L123.93 38.832H123.147L123.109 38.8712Z" fill="#D1B3FF"/>
<path d="M125.723 46.5199L125.835 50.3639H126.618L126.506 46.4807H125.723V46.5199Z" fill="#D1B3FF"/>
<path d="M126.432 42.6759L126.544 46.5199H127.327L127.215 42.6367H126.432V42.6759Z" fill="#D1B3FF"/>
<path d="M125.013 50.403L124.901 46.5591H124.117L124.229 50.4423H125.013V50.403Z" fill="#D1B3FF"/>
<path d="M125.087 54.2861L124.975 50.4421H124.191L124.303 54.3253H125.087V54.2861Z" fill="#D1B3FF"/>
<path d="M130.611 50.246L130.723 54.09H131.507L131.395 50.2068H130.611V50.246Z" fill="#D1B3FF"/>
<path d="M137.961 23.0637H137.178L137.29 26.9469H136.506L136.618 30.8301H138.222C138.222 30.7909 138.036 23.0637 138.036 23.0637H137.961Z" fill="#D1B3FF"/>
<path d="M135.76 30.8301H134.977L135.089 34.7133H135.872L135.76 30.8301Z" fill="#D1B3FF"/>
<path d="M138.373 38.4788H137.59L137.776 46.2059H138.56L138.373 38.4788Z" fill="#D1B3FF"/>
<path d="M133.26 27.0254H132.477L132.589 30.9086H133.372L133.26 27.0254Z" fill="#D1B3FF"/>
<path d="M132.738 38.6357L132.85 42.4796H133.634L133.522 38.5964H132.738V38.6357Z" fill="#D1B3FF"/>
<path d="M133.223 57.8949L133.335 61.7389H134.118L134.006 57.8557H133.223V57.8949Z" fill="#D1B3FF"/>
<path d="M138.747 53.894H137.963L138.075 57.7772H138.859L138.747 53.894Z" fill="#D1B3FF"/>
<path d="M135.35 46.2844L135.536 54.0116H136.32L136.133 46.2844H135.35Z" fill="#D1B3FF"/>
<path d="M136.62 65.5435H135.836L136.023 73.2706H136.806L136.62 65.5435Z" fill="#D1B3FF"/>
<path d="M131.731 61.8171H130.947L131.134 69.5443H131.918L131.731 61.8171Z" fill="#D1B3FF"/>
<path d="M114.078 31.4185L114.265 39.1456H115.048L114.862 31.4185H114.078Z" fill="#D1B3FF"/>
<path d="M112.288 23.7698H111.504L111.616 27.653H112.4L112.288 23.7698Z" fill="#D1B3FF"/>
<path d="M108.78 43.1465L108.668 39.3025H107.885L107.997 43.1857H108.78V43.1465Z" fill="#D1B3FF"/>
<path d="M121.02 19.6513L121.131 23.4953H121.915L121.803 19.6121H121.02V19.6513Z" fill="#D1B3FF"/>
<path d="M121.131 23.4954H120.348L120.534 31.2225H121.318L121.131 23.4954Z" fill="#D1B3FF"/>
<path d="M119.116 38.9887L119.004 35.1448H118.221L118.333 39.028H119.116V38.9887Z" fill="#D1B3FF"/>
<path d="M119.713 31.2617H118.93L119.042 35.1449H119.825L119.713 31.2617Z" fill="#D1B3FF"/>
<path d="M121.618 42.7935H120.834L120.946 46.6766H121.73L121.618 42.7935Z" fill="#D1B3FF"/>
<path d="M117.214 27.4962L117.028 19.769H116.244L116.356 23.6522H115.572L115.684 27.5354H117.289L117.214 27.4962Z" fill="#D1B3FF"/>
<path d="M118.668 54.4431H117.885L117.997 58.3263H118.78L118.668 54.4431Z" fill="#D1B3FF"/>
<path d="M116.579 66.0928H115.795L115.907 69.976H116.691L116.579 66.0928Z" fill="#D1B3FF"/>
<path d="M116.467 62.2094L116.579 66.0534H117.362L117.25 62.1702H116.467V62.2094Z" fill="#D1B3FF"/>
<path d="M121.17 58.248L121.282 62.0919H122.066L121.954 58.2087H121.17V58.248Z" fill="#D1B3FF"/>
<path d="M121.393 65.9358H120.609L120.721 69.819H121.505L121.393 65.9358Z" fill="#D1B3FF"/>
<path d="M114.266 70.0151L114.378 73.859H115.161L115.049 69.9758H114.266V70.0151Z" fill="#D1B3FF"/>
<path d="M162.442 37.812H161.658L161.845 45.5392H162.628L162.442 37.812Z" fill="#D1B3FF"/>
<path d="M155.724 26.3979H154.941L155.127 34.1251H154.344L154.456 38.0083H156.06C156.06 37.9691 155.762 26.3979 155.762 26.3979H155.724Z" fill="#D1B3FF"/>
<path d="M157.889 49.5009L158.001 53.3449H158.784L158.672 49.4617H157.889V49.5009Z" fill="#D1B3FF"/>
<path d="M155.389 45.7354L155.575 53.4625H156.359L156.172 45.7354H155.389Z" fill="#D1B3FF"/>
<path d="M159.42 45.6177L159.607 53.3448H160.39L160.204 45.6177H159.42Z" fill="#D1B3FF"/>
<path d="M161.51 64.8374H160.727L160.839 68.7206H161.622L161.51 64.8374Z" fill="#D1B3FF"/>
<path d="M163.001 60.9543L162.889 57.1104H162.105L162.217 60.9935H163.001V60.9543Z" fill="#D1B3FF"/>
<path d="M167.257 37.6943L167.145 33.8503H166.361L166.473 37.7335H167.257V37.6943Z" fill="#D1B3FF"/>
<path d="M167.331 41.5383L167.219 37.6943H166.436L166.547 41.5775H167.331V41.5383Z" fill="#D1B3FF"/>
<path d="M168.749 33.772H167.965L168.077 37.6552H168.86L168.749 33.772Z" fill="#D1B3FF"/>
<path d="M164.457 22.3186H163.674L163.972 33.8897H164.756L164.457 22.3186Z" fill="#D1B3FF"/>
<path d="M164.942 41.6167H164.158L164.457 53.1878H165.24L164.942 41.6167Z" fill="#D1B3FF"/>
<path d="M166.1 56.9926L166.212 60.8366H167.816C167.816 60.7973 167.704 56.9534 167.704 56.9534H166.1V56.9926Z" fill="#D1B3FF"/>
<path d="M170.017 53.031L169.905 49.187H168.301C168.301 49.2262 168.413 53.0702 168.413 53.0702H170.017V53.031Z" fill="#D1B3FF"/>
<path d="M171.137 64.563H170.354L170.465 68.4462H171.249L171.137 64.563Z" fill="#D1B3FF"/>
<path d="M144.791 38.2827H144.008L144.12 42.1659H144.903L144.791 38.2827Z" fill="#D1B3FF"/>
<path d="M145.984 22.8285L146.358 38.2436H147.141L146.768 22.7893H145.984V22.8285Z" fill="#D1B3FF"/>
<path d="M141.172 22.9462L141.284 26.7902H142.067L141.956 22.907H141.172V22.9462Z" fill="#D1B3FF"/>
<path d="M141.657 42.2445H142.441L142.329 38.3613H141.545L141.657 42.2445Z" fill="#D1B3FF"/>
<path d="M142.477 42.2051H141.693L141.805 46.0883H142.589L142.477 42.2051Z" fill="#D1B3FF"/>
<path d="M142.852 57.6203L142.964 61.4642H143.747L143.635 57.5811H142.852V57.6203Z" fill="#D1B3FF"/>
<path d="M141.432 65.3867H140.648L140.76 69.2699H141.544L141.432 65.3867Z" fill="#D1B3FF"/>
<path d="M139.529 53.8547L139.641 57.6986H140.425L140.313 53.8154H139.529V53.8547Z" fill="#D1B3FF"/>
<path d="M146.582 45.9707H145.799L145.911 49.8539H146.694L146.582 45.9707Z" fill="#D1B3FF"/>
<path d="M146.471 42.0876L146.583 45.9315H147.366L147.254 42.0483H146.471V42.0876Z" fill="#D1B3FF"/>
<path d="M145.053 49.8538H144.27L144.381 53.737H145.165L145.053 49.8538Z" fill="#D1B3FF"/>
<path d="M152.703 34.2034L152.89 41.9305H153.673L153.487 34.2034H152.703Z" fill="#D1B3FF"/>
<path d="M153.709 41.8914H152.926L153.038 45.7745H153.821L153.709 41.8914Z" fill="#D1B3FF"/>
<path d="M148.783 38.1652L148.895 42.0092H149.679L149.567 38.126H148.783V38.1652Z" fill="#D1B3FF"/>
<path d="M148.598 30.4772L148.71 34.3212H149.493L149.381 30.438H148.598V30.4772Z" fill="#D1B3FF"/>
<path d="M150.688 49.6969L150.799 53.5409H151.583L151.471 49.6577H150.688V49.6969Z" fill="#D1B3FF"/>
<path d="M151.955 68.956L152.067 72.7999H152.851L152.739 68.9167H151.955V68.956Z" fill="#D1B3FF"/>
<path d="M144.044 73.0354L143.932 69.1914H143.148L143.26 73.0746H144.044V73.0354Z" fill="#D1B3FF"/>
<path d="M158.486 72.6432L158.598 76.4872H159.382L159.27 72.604H158.486V72.6432Z" fill="#D1B3FF"/>
<path d="M58.3636 17.5332H57.5799L57.6919 21.4164H56.9082L57.0202 25.2996H57.8038L57.9158 29.1435H58.6994L58.4009 17.5724L58.3636 17.5332Z" fill="#D1B3FF"/>
<path d="M61.6484 21.2987L61.7604 25.1427H62.5441L62.4321 21.2595H61.6484V21.2987Z" fill="#D1B3FF"/>
<path d="M61.0502 29.026L60.8636 21.2988H60.0799L60.1919 25.182H59.4082L59.5948 32.9092H60.3785L60.2665 29.026H61.0502Z" fill="#D1B3FF"/>
<path d="M58.028 36.8314H58.8116L58.6997 32.9482H57.916L58.028 36.8314Z" fill="#D1B3FF"/>
<path d="M58.1398 40.6755L58.0278 36.8315H57.2441L57.3561 40.7147H58.1398V40.6755Z" fill="#D1B3FF"/>
<path d="M60.5293 40.5971L60.6412 44.4411H61.4249L61.313 40.5579H60.5293V40.5971Z" fill="#D1B3FF"/>
<path d="M63.4395 59.8168L63.5514 63.6608H64.3351L64.2231 59.7776H63.4395V59.8168Z" fill="#D1B3FF"/>
<path d="M69.8945 28.7904L70.0065 32.6344H70.7901L70.6782 28.7512H69.8945V28.7904Z" fill="#D1B3FF"/>
<path d="M48.2134 29.3789H47.4297L47.5416 33.2621H48.3253L48.2134 29.3789Z" fill="#D1B3FF"/>
<path d="M46.7954 37.1453H46.0117L46.1237 41.0285H46.9073L46.7954 37.1453Z" fill="#D1B3FF"/>
<path d="M46.9829 44.8333H46.1992L46.3112 48.7164H47.0948L46.9829 44.8333Z" fill="#D1B3FF"/>
<path d="M49.2961 40.9109H47.6914C47.6914 40.9501 47.8034 44.7941 47.8034 44.7941H49.408C49.408 44.7549 49.2961 40.9109 49.2961 40.9109Z" fill="#D1B3FF"/>
<path d="M49.2207 37.0668L49.3327 40.9108H50.1163L50.0044 37.0276H49.2207V37.0668Z" fill="#D1B3FF"/>
<path d="M41.7954 29.5359H41.0117L41.1237 33.4191H41.9073L41.7954 29.5359Z" fill="#D1B3FF"/>
<path d="M44.4829 41.0676H43.6992L43.8112 44.9508H44.5948L44.4829 41.0676Z" fill="#D1B3FF"/>
<path d="M42.6528 64.249H41.8691L41.9811 68.1322H42.7648L42.6528 64.249Z" fill="#D1B3FF"/>
<path d="M48.1758 60.2482L48.2877 64.0922H49.0714L48.9594 60.209H48.1758V60.2482Z" fill="#D1B3FF"/>
<path d="M55.5288 33.0267L55.3423 25.2996H54.5586L54.7452 33.0267H55.5288Z" fill="#D1B3FF"/>
<path d="M51.3116 56.2866L51.1997 52.4426H50.416L50.528 56.3258H51.3116V56.2866Z" fill="#D1B3FF"/>
<path d="M51.5727 67.8577H50.7891L50.901 71.7409H51.6847L51.5727 67.8577Z" fill="#D1B3FF"/>
<path d="M56.3872 67.74H55.6035L55.7155 71.6232H56.4991L56.3872 67.74Z" fill="#D1B3FF"/>
<path d="M52.6925 79.4289L52.5805 75.585H51.7969L51.9088 79.4682H52.6925V79.4289Z" fill="#D1B3FF"/>
<path d="M45.4527 79.6251L45.2661 71.8979H44.4824L44.669 79.6251H45.4527Z" fill="#D1B3FF"/>
<path d="M67.0226 75.1535L66.9106 71.3096H66.127L66.2389 75.1928H67.0226V75.1535Z" fill="#D1B3FF"/>
<path d="M64.7081 79.0759L64.5962 75.2319H63.8125L63.9245 79.1151H64.7081V79.0759Z" fill="#D1B3FF"/>
<path d="M95.5323 28.0844L95.4204 24.2405H94.6367L94.7487 28.1237H95.5323V28.0844Z" fill="#D1B3FF"/>
<path d="M94.6373 24.2406H95.421L95.3091 20.3574H94.5254L94.6373 24.2406Z" fill="#D1B3FF"/>
<path d="M94.0401 31.9677L93.9282 28.1238H93.1445L93.2565 32.007H94.0401V31.9677Z" fill="#D1B3FF"/>
<path d="M90.0464 32.0853L89.8598 24.3582H89.0762L89.2628 32.0853H90.0464Z" fill="#D1B3FF"/>
<path d="M91.352 20.4751H90.5684L90.6803 24.3583H91.464L91.352 20.4751Z" fill="#D1B3FF"/>
<path d="M96.9121 51.1874L97.0241 55.0314H97.8077L97.6958 51.1482H96.9121V51.1874Z" fill="#D1B3FF"/>
<path d="M83.1437 78.5659L83.0317 74.7219H82.248L82.36 78.6051H83.1437V78.5659Z" fill="#D1B3FF"/>
<path d="M101.428 70.3681L101.54 74.212H102.323L102.211 70.3289H101.428V70.3681Z" fill="#D1B3FF"/>
<path d="M27.3541 29.9672H28.1378L28.0259 26.084H27.2422L27.3541 29.9672Z" fill="#D1B3FF"/>
<path d="M28.1743 29.928H27.3906L27.5026 33.8112H28.2862L28.1743 29.928Z" fill="#D1B3FF"/>
<path d="M25.6743 26.1233H24.8906L25.0026 30.0065H25.7862L25.6743 26.1233Z" fill="#D1B3FF"/>
<path d="M26.7563 37.6943H25.9727L26.0846 41.5775H26.8683L26.7563 37.6943Z" fill="#D1B3FF"/>
<path d="M26.9438 45.3823H26.1602L26.2721 49.2655H27.0558L26.9438 45.3823Z" fill="#D1B3FF"/>
<path d="M25.4121 49.3048L25.5241 53.1488H26.3077L26.1958 49.2656H25.4121V49.3048Z" fill="#D1B3FF"/>
<path d="M27.6523 41.4992L27.7643 45.3432H28.548L28.436 41.46H27.6523V41.4992Z" fill="#D1B3FF"/>
<path d="M28.8462 56.9143H28.0625L28.1745 60.7975H28.9581L28.8462 56.9143Z" fill="#D1B3FF"/>
<path d="M29.1079 68.4854H28.3242L28.5108 76.2125H29.2945L29.1079 68.4854Z" fill="#D1B3FF"/>
<path d="M38.4004 21.9262L38.5123 25.7702H39.296L39.1841 21.887H38.4004V21.9262Z" fill="#D1B3FF"/>
<path d="M35.5265 68.3283L35.4145 64.4844H34.6309L34.7428 68.3676H35.5265V68.3283Z" fill="#D1B3FF"/>
<path d="M22.018 41.656H21.2344L21.421 49.3832H22.2046L22.018 41.656Z" fill="#D1B3FF"/>
<path d="M23.7329 45.5H22.9492L23.0612 49.3832H23.8448L23.7329 45.5Z" fill="#D1B3FF"/>
<path d="M23.2109 57.0712L23.3229 60.9152H24.1066L23.9946 57.032H23.2109V57.0712Z" fill="#D1B3FF"/>
<path d="M34.8164 72.1725L34.9284 76.0165H35.712L35.6001 72.1333H34.8164V72.1725Z" fill="#D1B3FF"/>
<path d="M324.884 17.8862H324.1L324.473 33.3405H323.689L323.801 37.2237H325.406C325.406 37.1845 324.921 17.8862 324.921 17.8862H324.884Z" fill="#D1B3FF"/>
<path d="M321.786 21.8479L321.674 18.0039H320.891L321.003 21.8871H321.786V21.8479Z" fill="#D1B3FF"/>
<path d="M322.383 14.1206H321.6L321.712 18.0038H322.495L322.383 14.1206Z" fill="#D1B3FF"/>
<path d="M321.9 25.6919L321.788 21.8479H321.004L321.116 25.7311H321.9V25.6919Z" fill="#D1B3FF"/>
<path d="M317.757 21.9654L317.571 14.2383H316.787L316.899 18.1215H316.115L316.227 22.0047H317.832L317.757 21.9654Z" fill="#D1B3FF"/>
<path d="M318.764 29.6535L318.876 33.4974H319.659L319.547 29.6143H318.764V29.6535Z" fill="#D1B3FF"/>
<path d="M319.473 25.7702L319.585 29.6141H320.368L320.256 25.731H319.473V25.7702Z" fill="#D1B3FF"/>
<path d="M321.75 52.7172L321.862 56.5612H322.646L322.534 52.678H321.75V52.7172Z" fill="#D1B3FF"/>
<path d="M321.936 60.4443H321.152L321.264 64.3275H322.048L321.936 60.4443Z" fill="#D1B3FF"/>
<path d="M319.249 48.9126H318.428L318.54 52.7958H319.361L319.249 48.9126Z" fill="#D1B3FF"/>
<path d="M325.668 48.7557L325.481 41.0286H324.697L324.884 48.7557H325.668Z" fill="#D1B3FF"/>
<path d="M321.377 37.3022L321.489 41.1461H322.273L322.161 37.2629H321.377V37.3022Z" fill="#D1B3FF"/>
<path d="M330.183 37.0669L330.071 33.2229H329.287L329.399 37.1061H330.183V37.0669Z" fill="#D1B3FF"/>
<path d="M329.399 37.0669H328.615L328.727 40.9501H329.511L329.399 37.0669Z" fill="#D1B3FF"/>
<path d="M326.713 25.5741L326.825 29.4181H327.609L327.497 25.5349H326.713V25.5741Z" fill="#D1B3FF"/>
<path d="M326.004 29.4574L326.116 33.3014H326.9L326.788 29.4182H326.004V29.4574Z" fill="#D1B3FF"/>
<path d="M327.795 37.106H327.012L327.124 40.9891H327.907L327.795 37.106Z" fill="#D1B3FF"/>
<path d="M326.266 41.0285L326.378 44.8724H327.161L327.049 40.9893H326.266V41.0285Z" fill="#D1B3FF"/>
<path d="M333.803 52.3642L333.915 56.2081H334.698L334.586 52.325H333.803V52.3642Z" fill="#D1B3FF"/>
<path d="M334.475 48.5201H335.259L335.147 44.637H334.363L334.475 48.5201Z" fill="#D1B3FF"/>
<path d="M335.295 48.481H334.512L334.624 52.3641H335.407L335.295 48.481Z" fill="#D1B3FF"/>
<path d="M332.274 56.2866H331.49L331.677 64.0138H332.46L332.274 56.2866Z" fill="#D1B3FF"/>
<path d="M331.191 44.7548L331.303 48.5988H332.087L331.975 44.7156H331.191V44.7548Z" fill="#D1B3FF"/>
<path d="M308.428 33.7719L308.54 37.6159H309.323L309.211 33.7327H308.428V33.7719Z" fill="#D1B3FF"/>
<path d="M306.039 33.8505L306.151 37.6945H306.935L306.823 33.8113H306.039V33.8505Z" fill="#D1B3FF"/>
<path d="M314.66 25.8879L314.847 33.6151H315.63L315.444 25.8879H314.66Z" fill="#D1B3FF"/>
<path d="M312.868 18.2393H312.084L312.196 22.1224H312.98L312.868 18.2393Z" fill="#D1B3FF"/>
<path d="M311.526 60.719H310.742L310.854 64.6022H311.638L311.526 60.719Z" fill="#D1B3FF"/>
<path d="M317.122 60.562H316.338L316.45 64.4452H317.233L317.122 60.562Z" fill="#D1B3FF"/>
<path d="M302.868 68.6814H302.084L302.196 72.5646H302.98L302.868 68.6814Z" fill="#D1B3FF"/>
<path d="M334.176 67.8186L334.362 75.5458H335.146L334.959 67.8186H334.176Z" fill="#D1B3FF"/>
<path d="M334.885 63.9355L334.997 67.7794H335.78L335.668 63.8962H334.885V63.9355Z" fill="#D1B3FF"/>
<path d="M327.832 71.8586H327.049L327.161 75.7418H327.944L327.832 71.8586Z" fill="#D1B3FF"/>
<path d="M337.2 60.0129H336.416L336.603 67.7401H337.386L337.2 60.0129Z" fill="#D1B3FF"/>
<path d="M257.787 31.34L257.899 35.184H258.683L258.571 31.3008H257.787V31.34Z" fill="#D1B3FF"/>
<path d="M258.496 27.4569L258.608 31.3009H259.392L259.28 27.4177H258.496V27.4569Z" fill="#D1B3FF"/>
<path d="M259.914 19.6906L260.101 27.4177H260.884L260.772 23.5345H261.556L261.369 15.8074H260.586L260.698 19.6906H259.914Z" fill="#D1B3FF"/>
<path d="M256.109 27.4962L255.922 19.769H255.139L255.325 27.4962H256.109Z" fill="#D1B3FF"/>
<path d="M256.967 62.2095H256.184L256.296 66.0927H257.079L256.967 62.2095Z" fill="#D1B3FF"/>
<path d="M262.229 15.768L262.34 19.612H263.124L263.012 15.7288H262.229V15.768Z" fill="#D1B3FF"/>
<path d="M261.109 35.1056L261.221 38.9496H262.005L261.893 35.0664H261.109V35.1056Z" fill="#D1B3FF"/>
<path d="M263.982 54.2863L264.094 58.1303H264.878L264.766 54.2471H263.982V54.2863Z" fill="#D1B3FF"/>
<path d="M261.408 46.6767L261.52 50.5206H262.304L262.192 46.6375H261.408V46.6767Z" fill="#D1B3FF"/>
<path d="M241.666 27.9277L241.778 31.7716H242.562L242.45 27.8884H241.666V27.9277Z" fill="#D1B3FF"/>
<path d="M241.667 27.9276H242.45L242.338 24.0444H241.555L241.667 27.9276Z" fill="#D1B3FF"/>
<path d="M239.764 16.3958H238.98L239.092 20.2789H239.876L239.764 16.3958Z" fill="#D1B3FF"/>
<path d="M242.414 58.7577L242.526 62.6017H243.31L243.198 58.7185H242.414V58.7577Z" fill="#D1B3FF"/>
<path d="M244.242 35.5371L244.429 43.2643H245.212L245.026 35.5371H244.242Z" fill="#D1B3FF"/>
<path d="M249.766 31.5363L249.878 35.3803H250.661L250.549 31.4971H249.766V31.5363Z" fill="#D1B3FF"/>
<path d="M249.951 39.2634L249.839 35.4194H248.234C248.234 35.4587 248.346 39.3026 248.346 39.3026H249.951V39.2634Z" fill="#D1B3FF"/>
<path d="M248.868 27.6924L248.756 23.8484H247.973L248.085 27.7316H248.868V27.6924Z" fill="#D1B3FF"/>
<path d="M247.563 39.3418H246.779L246.891 43.225H247.675L247.563 39.3418Z" fill="#D1B3FF"/>
<path d="M246.555 31.6147L246.667 35.4586H247.45L247.338 31.5754H246.555V31.6147Z" fill="#D1B3FF"/>
<path d="M248.758 54.7177L248.87 58.5617H249.653L249.541 54.6785H248.758V54.7177Z" fill="#D1B3FF"/>
<path d="M247.338 62.4841H246.555L246.667 66.3673H247.45L247.338 62.4841Z" fill="#D1B3FF"/>
<path d="M252.153 62.3665H251.369L251.481 66.2496H252.265L252.153 62.3665Z" fill="#D1B3FF"/>
<path d="M250.959 46.9513L251.071 50.7953H251.855L251.743 46.9121H250.959V46.9513Z" fill="#D1B3FF"/>
<path d="M252.34 70.0544L252.452 73.8983H253.235L253.123 70.0151H252.34V70.0544Z" fill="#D1B3FF"/>
<path d="M249.84 66.2887L249.952 70.1327H249.168L249.355 77.8599H250.959C250.959 77.8206 250.661 66.2495 250.661 66.2495H249.877L249.84 66.2887Z" fill="#D1B3FF"/>
<path d="M246.033 74.0943L245.846 66.3672H245.062L245.249 74.0943H246.033Z" fill="#D1B3FF"/>
<path d="M238.719 70.4465H237.936L238.122 78.1737H238.906L238.719 70.4465Z" fill="#D1B3FF"/>
<path d="M268.498 73.4668H267.715L267.827 77.35H268.61L268.498 73.4668Z" fill="#D1B3FF"/>
<path d="M267.566 69.6228L267.454 65.7788H266.67L266.782 69.662H267.566V69.6228Z" fill="#D1B3FF"/>
<path d="M269.17 69.5835L269.357 77.3107H270.14L269.954 69.5835H269.17Z" fill="#D1B3FF"/>
<path d="M264.355 69.7404L264.467 73.5844H265.251L265.139 69.7012H264.355V69.7404Z" fill="#D1B3FF"/>
<path d="M291.188 18.8276L291.299 22.6715H292.083L291.971 18.7883H291.188V18.8276Z" fill="#D1B3FF"/>
<path d="M290.516 22.7107H289.732L289.919 30.4378H290.703L290.516 22.7107Z" fill="#D1B3FF"/>
<path d="M287.082 15.1013L287.269 22.8285H288.052L287.866 15.1013H287.082Z" fill="#D1B3FF"/>
<path d="M299.322 22.4755L299.434 26.3195H300.218L300.106 22.4363H299.322V22.4755Z" fill="#D1B3FF"/>
<path d="M295.217 18.7099L295.329 22.5538H296.112L296 18.6707H295.217V18.7099Z" fill="#D1B3FF"/>
<path d="M293.799 26.4762L293.911 30.3202H294.694L294.583 26.437H293.799V26.4762Z" fill="#D1B3FF"/>
<path d="M275.065 15.415H274.281L274.393 19.2982H275.177L275.065 15.415Z" fill="#D1B3FF"/>
<path d="M271.334 27.1038H270.551L270.663 30.987H271.446L271.334 27.1038Z" fill="#D1B3FF"/>
<path d="M282.828 69.2306L282.94 73.0746H283.724L283.612 69.1914H282.828V69.2306Z" fill="#D1B3FF"/>
<path d="M297.979 64.9552L298.09 68.7992H298.874L298.762 64.916H297.979V64.9552Z" fill="#D1B3FF"/>
<path d="M294.135 72.7609L294.247 76.6049H295.03L294.918 72.7217H294.135V72.7609Z" fill="#D1B3FF"/>
<path d="M290.85 68.9954H290.066L290.253 76.7225H291.037L290.85 68.9954Z" fill="#D1B3FF"/>
<path d="M202.67 9.68839L202.782 13.5324H203.566L203.454 9.64917H202.67V9.68839Z" fill="#D1B3FF"/>
<path d="M196.364 13.7285H195.58L195.692 17.6117H196.476L196.364 13.7285Z" fill="#D1B3FF"/>
<path d="M188.229 10.0806H187.445L187.557 13.9638H188.341L188.229 10.0806Z" fill="#D1B3FF"/>
<path d="M194.125 21.4948L194.237 25.3388H195.021L194.909 21.4556H194.125V21.4948Z" fill="#D1B3FF"/>
<path d="M191.735 21.5732L191.624 17.7292H190.84L190.952 21.6124H191.735V21.5732Z" fill="#D1B3FF"/>
<path d="M190.02 17.7686H189.236L189.535 29.3397H190.319L190.02 17.7686Z" fill="#D1B3FF"/>
<path d="M188.713 29.3788L188.825 33.2228H189.609L189.497 29.3396H188.713V29.3788Z" fill="#D1B3FF"/>
<path d="M188.191 40.9501L187.631 17.8079H186.847L186.959 21.691H186.176L186.288 25.5742H187.071L187.37 37.1061H186.586L186.698 40.9893H188.303L188.191 40.9501Z" fill="#D1B3FF"/>
<path d="M199.909 59.9345L199.797 56.0906H199.014L199.126 59.9738H199.909V59.9345Z" fill="#D1B3FF"/>
<path d="M199.723 52.2074L199.835 56.0514H200.618L200.506 52.1682H199.723V52.2074Z" fill="#D1B3FF"/>
<path d="M203.117 59.856H202.334L202.446 63.7391H201.662L201.774 67.6223H203.379C203.379 67.5831 203.192 59.856 203.192 59.856H203.117Z" fill="#D1B3FF"/>
<path d="M185.915 14.0031H186.698L186.586 10.1199H185.803L185.915 14.0031Z" fill="#D1B3FF"/>
<path d="M177.892 14.2383L177.78 10.3943H176.996L177.108 14.2775H177.892V14.2383Z" fill="#D1B3FF"/>
<path d="M186.102 21.7302H185.318L185.43 25.6134H186.214L186.102 21.7302Z" fill="#D1B3FF"/>
<path d="M185.132 79.625L185.02 75.781H184.236L184.348 79.6642H185.132V79.625Z" fill="#D1B3FF"/>
<path d="M181.212 83.5866L181.1 79.7427H180.316L180.428 83.6259H181.212V83.5866Z" fill="#D1B3FF"/>
<path d="M172.405 83.822L172.293 79.978H171.51L171.622 83.8612H172.405V83.822Z" fill="#D1B3FF"/>
<path d="M193.975 79.3896L194.087 83.2335H194.87L194.758 79.3503H193.975V79.3896Z" fill="#D1B3FF"/>
<path d="M191.474 75.5848L191.288 67.8577H190.504L190.69 75.5848H191.474Z" fill="#D1B3FF"/>
<path d="M230.323 24.3581L230.211 20.5142H229.428L229.54 24.3974H230.323V24.3581Z" fill="#D1B3FF"/>
<path d="M213.903 9.37451H213.119L213.231 13.2577H214.015L213.903 9.37451Z" fill="#D1B3FF"/>
<path d="M213.977 13.2185H213.193L213.305 17.1017H214.089L213.977 13.2185Z" fill="#D1B3FF"/>
<path d="M217.186 13.1401H216.402L216.514 17.0233H217.298L217.186 13.1401Z" fill="#D1B3FF"/>
<path d="M209.612 63.504H208.828L209.015 71.2311H210.619C210.619 71.1919 211.403 71.1527 211.403 71.1527L211.104 59.5815H210.321L210.507 67.3087H209.724L209.612 63.4647V63.504Z" fill="#D1B3FF"/>
<path d="M217.299 17.0232H216.516L216.628 20.9064H217.411L217.299 17.0232Z" fill="#D1B3FF"/>
<path d="M213.305 17.1018H212.521L212.633 20.985H213.417L213.305 17.1018Z" fill="#D1B3FF"/>
<path d="M215.544 74.9181L215.358 67.1909H214.574L214.761 74.9181H215.544Z" fill="#D1B3FF"/>
<path d="M213.045 71.1525L213.157 74.9965H213.941L213.829 71.1133H213.045V71.1525Z" fill="#D1B3FF"/>
<path d="M211.515 75.0359L211.403 71.1919H210.619L210.731 75.0751H211.515V75.0359Z" fill="#D1B3FF"/>
<path d="M210.096 82.8021H210.88L210.768 78.9189H209.984L210.096 82.8021Z" fill="#D1B3FF"/>
<path d="M212.523 82.7236L212.411 78.8796H211.627L211.739 82.7628H212.523V82.7236Z" fill="#D1B3FF"/>
<path d="M205.731 67.4656H204.947L205.059 71.3488H205.843L205.731 67.4656Z" fill="#D1B3FF"/>
<path d="M205.282 82.9198H206.066L205.954 79.0366H205.17L205.282 82.9198Z" fill="#D1B3FF"/>
<path d="M207.596 78.9975L207.708 82.8414H208.491L208.379 78.9583H207.596V78.9975Z" fill="#D1B3FF"/>
<path d="M233.382 82.1745L233.27 78.3306H232.486L232.598 82.2138H233.382V82.1745Z" fill="#D1B3FF"/>
<path d="M234.875 78.2521L234.987 82.0961H235.771L235.659 78.2129H234.875V78.2521Z" fill="#D1B3FF"/>
<path d="M225.359 82.3706L225.247 78.5266H224.463L224.575 82.4098H225.359V82.3706Z" fill="#D1B3FF"/>
<path d="M222.86 78.6052H222.076L222.188 82.4884H222.972L222.86 78.6052Z" fill="#D1B3FF"/>
<path d="M134.492 11.5712L134.604 15.4152H135.388L135.276 11.532H134.492V11.5712Z" fill="#D1B3FF"/>
<path d="M135.387 15.4152H134.604L134.79 23.1424H135.574L135.462 19.2592H136.245L136.134 15.376H135.35L135.387 15.4152Z" fill="#D1B3FF"/>
<path d="M135.275 11.5319L135.387 15.3759H136.171L136.059 11.4927H135.275V11.5319Z" fill="#D1B3FF"/>
<path d="M136.879 11.4926L136.991 15.3366H137.775L137.663 11.4534H136.879V11.4926Z" fill="#D1B3FF"/>
<path d="M122.551 15.768L122.439 11.9241H120.834C120.834 11.9633 120.946 15.8073 120.946 15.8073H122.551V15.768Z" fill="#D1B3FF"/>
<path d="M124.938 15.6896H125.722L125.61 11.8064H124.826L124.938 15.6896Z" fill="#D1B3FF"/>
<path d="M127.252 11.7673H126.469L126.581 15.6505H127.364L127.252 11.7673Z" fill="#D1B3FF"/>
<path d="M128.147 15.6112H128.931L128.819 11.728H128.035L128.147 15.6112Z" fill="#D1B3FF"/>
<path d="M126.841 27.2217L126.729 23.3777H125.945L126.057 27.2609H126.841V27.2217Z" fill="#D1B3FF"/>
<path d="M127.438 19.4944H126.654L126.766 23.3776H127.55L127.438 19.4944Z" fill="#D1B3FF"/>
<path d="M126.73 23.3384L126.618 19.4944H125.834L125.946 23.3776H126.73V23.3384Z" fill="#D1B3FF"/>
<path d="M125.946 23.3777L125.834 19.5337H125.051L125.163 23.4169H125.946V23.3777Z" fill="#D1B3FF"/>
<path d="M114.527 15.9643L114.415 12.1204H112.811C112.811 12.1596 112.923 16.0036 112.923 16.0036H113.706L114.49 15.9643H114.527Z" fill="#D1B3FF"/>
<path d="M118.52 15.8464H117.736L117.848 19.7296H118.632L118.52 15.8464Z" fill="#D1B3FF"/>
<path d="M106.505 16.1996H107.288L107.176 12.3164H106.393L106.505 16.1996Z" fill="#D1B3FF"/>
<path d="M109.712 16.1211L109.6 12.2771H108.816L108.928 16.1603H109.712V16.1211Z" fill="#D1B3FF"/>
<path d="M110.422 12.238L110.534 16.0819H112.138C112.138 16.0427 112.027 12.1987 112.027 12.1987H110.422V12.238Z" fill="#D1B3FF"/>
<path d="M114.601 19.8474L114.489 16.0034H113.705L113.817 19.8866H114.601V19.8474Z" fill="#D1B3FF"/>
<path d="M120.946 81.3901H120.162L120.274 85.2733H121.058L120.946 81.3901Z" fill="#D1B3FF"/>
<path d="M123.37 81.3115H121.766C121.766 81.3507 121.878 85.1947 121.878 85.1947H123.482C123.482 85.1555 123.37 81.3115 123.37 81.3115Z" fill="#D1B3FF"/>
<path d="M117.064 85.3518L116.952 81.5078H116.168L116.28 85.391H117.064V85.3518Z" fill="#D1B3FF"/>
<path d="M112.251 85.5085L112.139 81.6646H111.355L111.467 85.5477H112.251V85.5085Z" fill="#D1B3FF"/>
<path d="M108.22 85.5871L108.108 81.7432H107.324L107.436 85.6264H108.22V85.5871Z" fill="#D1B3FF"/>
<path d="M108.93 81.7431L109.042 85.587H110.646C110.646 85.5478 110.534 81.7039 110.534 81.7039H108.93V81.7431Z" fill="#D1B3FF"/>
<path d="M138.41 73.1923L138.522 77.0363H139.306L139.194 73.1531H138.41V73.1923Z" fill="#D1B3FF"/>
<path d="M138.596 80.9194L138.708 84.7633H139.491L139.379 80.8801H138.596V80.9194Z" fill="#D1B3FF"/>
<path d="M134.305 69.466L134.417 73.3099H135.2L135.088 69.4268H134.305V69.466Z" fill="#D1B3FF"/>
<path d="M132.178 81.0763L132.29 84.9203H133.894C133.894 84.8811 133.782 81.0371 133.782 81.0371H132.178V81.0763Z" fill="#D1B3FF"/>
<path d="M128.969 81.1548H128.186L128.297 85.038H129.081L128.969 81.1548Z" fill="#D1B3FF"/>
<path d="M131.47 84.9594L131.358 81.1155H130.574L130.686 84.9987H131.47V84.9594Z" fill="#D1B3FF"/>
<path d="M127.29 77.3501H126.506L126.618 81.2333H127.401L127.29 77.3501Z" fill="#D1B3FF"/>
<path d="M125.872 85.1163H127.476C127.476 85.0771 127.364 81.2332 127.364 81.2332H126.581L125.797 81.2724L125.909 85.1163H125.872Z" fill="#D1B3FF"/>
<path d="M157.74 10.9435L157.852 14.7875H158.636L158.524 10.9043H157.74V10.9435Z" fill="#D1B3FF"/>
<path d="M161.137 18.5529L161.249 22.3969H162.032L161.92 18.5137H161.137V18.5529Z" fill="#D1B3FF"/>
<path d="M154.83 22.593L154.718 18.749H153.113C153.113 18.7882 153.225 22.6322 153.225 22.6322H154.83V22.593Z" fill="#D1B3FF"/>
<path d="M170.166 26.0056H169.383L169.495 29.8888H170.278L170.166 26.0056Z" fill="#D1B3FF"/>
<path d="M169.347 26.0449L169.235 22.2009H168.451L168.638 29.9281H169.421L169.309 26.0449H169.347Z" fill="#D1B3FF"/>
<path d="M166.061 22.2793H165.277L165.464 30.0065H166.248L166.061 22.2793Z" fill="#D1B3FF"/>
<path d="M154.717 18.7099L154.605 14.866H153C153 14.9052 153.112 18.7492 153.112 18.7492H154.717V18.7099Z" fill="#D1B3FF"/>
<path d="M148.112 11.179H147.328L147.44 15.0621H148.224L148.112 11.179Z" fill="#D1B3FF"/>
<path d="M151.434 14.9445H152.218L152.106 11.0613H151.322L151.434 14.9445Z" fill="#D1B3FF"/>
<path d="M140.088 11.4143H139.305L139.417 15.2975H140.2L140.088 11.4143Z" fill="#D1B3FF"/>
<path d="M140.202 15.2583H139.418L139.53 19.1415H140.314L140.202 15.2583Z" fill="#D1B3FF"/>
<path d="M143.411 15.1798H144.194L144.082 11.2966H143.299L143.411 15.1798Z" fill="#D1B3FF"/>
<path d="M144.194 15.1406H143.41L143.597 22.8678H144.38L144.194 15.1406Z" fill="#D1B3FF"/>
<path d="M140.461 26.8293H139.678L139.79 30.7125H140.573L140.461 26.8293Z" fill="#D1B3FF"/>
<path d="M138.672 19.1807L138.858 26.9078H139.642L139.456 19.1807H138.672Z" fill="#D1B3FF"/>
<path d="M153.299 26.4763L153.187 22.6323H151.583C151.583 22.6715 151.694 26.5155 151.694 26.5155H150.09C150.09 26.5547 150.276 34.2819 150.276 34.2819H151.06L150.948 30.3987H152.553C152.553 30.3595 152.441 26.5155 152.441 26.5155H153.224L153.299 26.4763Z" fill="#D1B3FF"/>
<path d="M149.12 84.4887H149.903L149.791 80.6055H149.008L149.12 84.4887Z" fill="#D1B3FF"/>
<path d="M146.545 76.8402L146.359 69.113H144.754C144.754 69.1523 144.866 72.9962 144.866 72.9962H145.65L145.761 76.8402H146.545Z" fill="#D1B3FF"/>
<path d="M145.911 84.5674L145.799 80.7234H145.016L145.128 84.6066H145.911V84.5674Z" fill="#D1B3FF"/>
<path d="M144.306 84.6064L144.194 80.7625H143.41L143.522 84.6456H144.306V84.6064Z" fill="#D1B3FF"/>
<path d="M146.62 80.6841L146.508 76.8401H145.725L145.837 80.7233H146.62V80.6841Z" fill="#D1B3FF"/>
<path d="M141.807 80.8017L141.919 84.6456H142.702L142.59 80.7625H141.807V80.8017Z" fill="#D1B3FF"/>
<path d="M168.002 68.5247L168.189 76.2518H168.972L168.786 68.5247H168.002Z" fill="#D1B3FF"/>
<path d="M169.01 76.2124H168.227L168.339 80.0956H169.122L169.01 76.2124Z" fill="#D1B3FF"/>
<path d="M169.905 80.0564H169.121L169.233 83.9396H170.017L169.905 80.0564Z" fill="#D1B3FF"/>
<path d="M168.376 83.9397L168.264 80.0957H167.48L167.592 83.9789H168.376V83.9397Z" fill="#D1B3FF"/>
<path d="M165.987 84.018L165.875 80.1741H165.092L165.204 84.0573H165.987V84.018Z" fill="#D1B3FF"/>
<path d="M161.77 76.4087H160.986L161.098 80.2919H161.882L161.77 76.4087Z" fill="#D1B3FF"/>
<path d="M159.569 84.175L159.457 80.3311H158.674L158.786 84.2142H159.569V84.175Z" fill="#D1B3FF"/>
<path d="M70.3813 17.1802H69.5977L69.7096 21.0634H70.4933L70.3813 17.1802Z" fill="#D1B3FF"/>
<path d="M52.6548 13.8069H51.8711L51.983 17.6901H52.7667L52.6548 13.8069Z" fill="#D1B3FF"/>
<path d="M53.5512 17.6509H52.7676L52.8795 21.5341H53.6632L53.5512 17.6509Z" fill="#D1B3FF"/>
<path d="M46.2368 14.0029H45.4531L45.5651 17.8861H46.3487L46.2368 14.0029Z" fill="#D1B3FF"/>
<path d="M46.311 17.8469H45.5273L45.6393 21.7301H46.423L46.311 17.8469Z" fill="#D1B3FF"/>
<path d="M48.7355 17.7685L48.6235 13.9246H47.8398L47.9518 17.8078H48.7355V17.7685Z" fill="#D1B3FF"/>
<path d="M45.714 25.5742L45.602 21.7302H44.8184L44.9303 25.6134H45.714V25.5742Z" fill="#D1B3FF"/>
<path d="M46.7583 68.0146H45.9746L46.0866 71.8978H46.8702L46.7583 68.0146Z" fill="#D1B3FF"/>
<path d="M97.66 16.435L97.548 12.5911H95.9434C95.9434 12.6303 96.0553 16.4743 96.0553 16.4743H97.66V16.435Z" fill="#D1B3FF"/>
<path d="M102.399 12.4341H101.615L101.727 16.3173H102.511L102.399 12.4341Z" fill="#D1B3FF"/>
<path d="M104.788 12.3948H104.004L104.116 16.278H104.9L104.788 12.3948Z" fill="#D1B3FF"/>
<path d="M90.3462 12.7871H89.5625L89.6745 16.6703H90.4581L90.3462 12.7871Z" fill="#D1B3FF"/>
<path d="M92.0612 16.5919H92.8448L92.7329 12.7087H91.9492L92.0612 16.5919Z" fill="#D1B3FF"/>
<path d="M93.6666 16.5526H95.2713C95.2713 16.5134 95.1593 12.6694 95.1593 12.6694H93.5547C93.5547 12.7087 93.6666 16.5526 93.6666 16.5526Z" fill="#D1B3FF"/>
<path d="M82.4334 16.8664L82.3214 13.0225H80.7168C80.7168 13.0617 80.8287 16.9056 80.8287 16.9056H82.4334V16.8664Z" fill="#D1B3FF"/>
<path d="M84.8214 16.7878L84.7094 12.9438H83.9258L84.0377 16.827H84.8214V16.7878Z" fill="#D1B3FF"/>
<path d="M86.3518 12.9047L86.4637 16.7487H87.2474L88.031 16.7094L87.9191 12.8655H86.3145L86.3518 12.9047Z" fill="#D1B3FF"/>
<path d="M87.2485 16.7095H86.4648L86.7634 28.2806H87.547L87.2485 16.7095Z" fill="#D1B3FF"/>
<path d="M74.4106 17.0625H73.627L73.8135 24.7897H74.5972L74.4106 17.0625Z" fill="#D1B3FF"/>
<path d="M76.7246 13.1401L76.8366 16.984H77.6202L77.5083 13.1008H76.7246V13.1401Z" fill="#D1B3FF"/>
<path d="M80.0089 16.9448L79.8969 13.1008H79.1133L79.2252 16.984H80.0089V16.9448Z" fill="#D1B3FF"/>
<path d="M88.0684 82.2922L88.1803 86.1361H88.964L88.852 82.2529H88.0684V82.2922Z" fill="#D1B3FF"/>
<path d="M105.831 85.6655L105.719 81.8215H104.936L105.047 85.7047H105.831V85.6655Z" fill="#D1B3FF"/>
<path d="M100.906 81.9391L101.018 85.7831H101.802L101.69 81.8999H100.906V81.9391Z" fill="#D1B3FF"/>
<path d="M99.4132 85.8615L99.3012 82.0176H98.5176L98.6295 85.9008H99.4132V85.8615Z" fill="#D1B3FF"/>
<path d="M94.3012 74.4082H93.5176L93.6295 78.2914H94.4132L94.3012 74.4082Z" fill="#D1B3FF"/>
<path d="M94.3755 78.2522H93.5918L93.7037 82.1354H94.4874L94.3755 78.2522Z" fill="#D1B3FF"/>
<path d="M24.6671 18.4353L24.5551 14.5913H23.7715L23.8834 18.4745H24.6671V18.4353Z" fill="#D1B3FF"/>
<path d="M29.7788 29.8888L29.5923 22.1616H28.8086L28.9952 29.8888H29.7788Z" fill="#D1B3FF"/>
<path d="M24.1447 30.0458L23.9582 22.3186H22.3535C22.3535 22.3578 22.4655 26.2018 22.4655 26.2018L22.6521 33.9289H23.4357L23.3238 30.0458H24.1074H24.1447Z" fill="#D1B3FF"/>
<path d="M24.145 30.0457H23.3613L23.4733 33.9288H24.2569L24.145 30.0457Z" fill="#D1B3FF"/>
<path d="M22.4653 26.241H21.6816L21.8682 33.9681H22.6519L22.4653 26.241Z" fill="#D1B3FF"/>
<path d="M17.9127 37.9298H18.6964L18.5844 34.0466H17.8008L17.9127 37.9298Z" fill="#D1B3FF"/>
<path d="M18.7329 37.8906H17.9492L18.0612 41.7738H18.8448L18.7329 37.8906Z" fill="#D1B3FF"/>
<path d="M18.6211 34.0466L18.733 37.8905H19.5167L19.4048 34.0073H18.6211V34.0466Z" fill="#D1B3FF"/>
<path d="M19.8164 49.4616L19.9284 53.3056H20.712L20.6001 49.4224H19.8164V49.4616Z" fill="#D1B3FF"/>
<path d="M19.9269 53.3056L19.8149 49.4617H19.0312L19.1432 53.3449H19.9269V53.3056Z" fill="#D1B3FF"/>
<path d="M21.0102 64.8374H20.2266L20.3385 68.7206H21.1222L21.0102 64.8374Z" fill="#D1B3FF"/>
<path d="M38.2495 79.8211L38.063 72.094H37.2793L37.4659 79.8211H38.2495Z" fill="#D1B3FF"/>
<path d="M38.3253 83.665L38.2134 79.821H37.4297L37.5416 83.7042H38.3253V83.665Z" fill="#D1B3FF"/>
<path d="M331.415 21.5732L331.303 17.7292H330.52L330.631 21.6124H331.415V21.5732Z" fill="#D1B3FF"/>
<path d="M327.384 21.6909L327.272 17.8469H326.488L326.6 21.7301H327.384V21.6909Z" fill="#D1B3FF"/>
<path d="M325.594 14.0422L325.706 17.8861H326.489L326.377 14.0029H325.594V14.0422Z" fill="#D1B3FF"/>
<path d="M318.206 72.094H317.422L317.534 75.9772H318.317L318.206 72.094Z" fill="#D1B3FF"/>
<path d="M318.429 79.821L318.317 75.9771H317.533L317.645 79.8602H318.429V79.821Z" fill="#D1B3FF"/>
<path d="M323.727 68.093L323.913 75.8202H324.697L324.51 68.093H323.727Z" fill="#D1B3FF"/>
<path d="M337.609 44.5585L337.721 48.4025H338.505L338.393 44.5193H337.609V44.5585Z" fill="#D1B3FF"/>
<path d="M339.213 44.5193H338.43L338.542 48.4025H339.325L339.213 44.5193Z" fill="#D1B3FF"/>
<path d="M339.29 48.3633H338.506L338.804 59.9344H339.588L339.29 48.3633Z" fill="#D1B3FF"/>
<path d="M339.774 67.6616H338.99L339.102 71.5448H339.886L339.774 67.6616Z" fill="#D1B3FF"/>
<path d="M339.885 71.5056H339.102L339.214 75.3888H339.997L339.885 71.5056Z" fill="#D1B3FF"/>
<path d="M339.961 75.3495L340.073 79.1935H340.857L340.745 75.3103H339.961V75.3495Z" fill="#D1B3FF"/>
<path d="M339.177 75.3889L339.065 71.5449H338.281L338.393 75.4281H339.177V75.3889Z" fill="#D1B3FF"/>
<path d="M259.206 23.5737L259.094 19.7297H258.311L258.422 23.6129H259.206V23.5737Z" fill="#D1B3FF"/>
<path d="M246.294 20.0827L246.182 16.2388H245.398L245.51 20.122H246.294V20.0827Z" fill="#D1B3FF"/>
<path d="M242.189 81.8999L242.077 78.0559H241.293L241.405 81.9391H242.189V81.8999Z" fill="#D1B3FF"/>
<path d="M243.608 74.1729H242.824L242.936 78.056H243.72L243.608 74.1729Z" fill="#D1B3FF"/>
<path d="M264.58 77.4284L264.692 81.2723H265.476L265.364 77.3892H264.58V77.4284Z" fill="#D1B3FF"/>
<path d="M280.588 11.4143H279.805L279.917 15.2975H280.7L280.588 11.4143Z" fill="#D1B3FF"/>
<path d="M276.708 80.9586H277.491L277.379 77.0754H276.596L276.708 80.9586Z" fill="#D1B3FF"/>
<path d="M276.596 77.1146H277.38L277.268 73.2314H276.484L276.596 77.1146Z" fill="#D1B3FF"/>
<path d="M203.604 79.1151L203.715 82.9591H204.499L204.387 79.0759H203.604V79.1151Z" fill="#D1B3FF"/>
<path d="M20.6372 18.553H19.8535L19.9655 22.4362H20.7491L20.6372 18.553Z" fill="#D1B3FF"/>
<path d="M19.1445 22.4755L19.2565 26.3195H20.0401L19.9282 22.4363H19.1445V22.4755Z" fill="#D1B3FF"/>
</svg>
